<svg width="700" height="62" viewBox="0 0 700 62" fill="none" xmlns="http://www.w3.org/2000/svg">
<path d="M0 12C0 5.37258 5.37258 0 12 0H688C694.627 0 700 5.37258 700 12V50C700 56.6274 694.627 62 688 62H12C5.37257 62 0 56.6274 0 50V12Z" fill="#E3FCF7"/>
<mask id="mask0_2_132" style="mask-type:alpha" maskUnits="userSpaceOnUse" x="0" y="0" width="12" height="62">
<path d="M0 12C0 5.37258 5.37258 0 12 0V0V62V62C5.37258 62 0 56.6274 0 50V12Z" fill="#016BF8"/>
</mask>
<g mask="url(#mask0_2_132)">
<rect width="6" height="62" fill="#00A35C"/>
</g>
<path d="M18 1H687C693.627 1 699 6.37258 699 13V49C699 55.6274 693.627 61 687 61H18V1Z" fill="#E3FCF7"/>
<path fill-rule="evenodd" clip-rule="evenodd" d="M26 28C29.866 28 33 24.866 33 21C33 17.134 29.866 14 26 14C22.134 14 19 17.134 19 21C19 24.866 22.134 28 26 28ZM28.4485 17.8958C28.8275 17.4582 29.4983 17.4341 29.9077 17.8435C30.2777 18.2134 30.2989 18.8063 29.9564 19.2018L25.3836 24.4818C25.3137 24.5739 25.2264 24.6552 25.1231 24.7208C24.6567 25.0166 24.0388 24.8783 23.743 24.4119L21.9245 21.5445C21.6287 21.0781 21.767 20.4602 22.2334 20.1644C22.6998 19.8686 23.3177 20.0069 23.6135 20.4733L24.7137 22.2082L28.4485 17.8958Z" fill="#00A35C"/>
<path d="M49.094 26H50.277V17.914H53.15V16.77H46.221V17.914H49.094V26ZM54.3401 26H55.4581V22.776C55.4581 21.255 56.2901 20.397 57.3431 20.397C58.2531 20.397 58.8771 21.073 58.8771 22.165V26H59.9821V21.996C59.9821 20.384 58.9811 19.37 57.5251 19.37C56.6801 19.37 55.9001 19.734 55.4581 20.501V16.25H54.3401V26ZM63.3474 16.965C63.3474 16.536 63.0094 16.172 62.5674 16.172C62.1254 16.172 61.7614 16.536 61.7614 16.965C61.7614 17.407 62.1254 17.758 62.5674 17.758C63.0094 17.758 63.3474 17.407 63.3474 16.965ZM61.9954 26H63.1134V19.5H61.9954V26ZM69.7177 24.245C69.7177 23.27 69.1327 22.594 68.0537 22.321L67.0137 22.048C66.3247 21.866 66.0257 21.593 66.0257 21.112C66.0257 20.618 66.5197 20.306 67.1437 20.306C67.7547 20.306 68.2227 20.657 68.3917 21.229H69.5097C69.3927 20.189 68.5347 19.37 67.1437 19.37C65.8307 19.37 64.8947 20.046 64.8947 21.125C64.8947 22.048 65.4537 22.75 66.5717 23.036L67.5077 23.283C68.2747 23.491 68.5867 23.803 68.5867 24.323C68.5867 24.895 68.0407 25.181 67.3387 25.181C66.6627 25.181 65.9867 24.908 65.8307 24.115H64.6867C64.7777 25.428 65.9347 26.13 67.3257 26.13C68.6777 26.13 69.7177 25.532 69.7177 24.245ZM75.7888 16.965C75.7888 16.536 75.4508 16.172 75.0088 16.172C74.5668 16.172 74.2028 16.536 74.2028 16.965C74.2028 17.407 74.5668 17.758 75.0088 17.758C75.4508 17.758 75.7888 17.407 75.7888 16.965ZM74.4368 26H75.5548V19.5H74.4368V26ZM82.1591 24.245C82.1591 23.27 81.5741 22.594 80.4951 22.321L79.4551 22.048C78.7661 21.866 78.4671 21.593 78.4671 21.112C78.4671 20.618 78.9611 20.306 79.5851 20.306C80.1961 20.306 80.6641 20.657 80.8331 21.229H81.9511C81.8341 20.189 80.9761 19.37 79.5851 19.37C78.2721 19.37 77.3361 20.046 77.3361 21.125C77.3361 22.048 77.8951 22.75 79.0131 23.036L79.9491 23.283C80.7161 23.491 81.0281 23.803 81.0281 24.323C81.0281 24.895 80.4821 25.181 79.7801 25.181C79.1041 25.181 78.4281 24.908 78.2721 24.115H77.1281C77.2191 25.428 78.3761 26.13 79.7671 26.13C81.1191 26.13 82.1591 25.532 82.1591 24.245ZM86.3712 22.75C86.3712 24.609 87.7362 26.13 89.5562 26.13C90.5312 26.13 91.4152 25.623 91.8442 24.999V26H92.9622V19.5H91.8442V20.501C91.4152 19.877 90.5312 19.37 89.5562 19.37C87.7362 19.37 86.3712 20.891 86.3712 22.75ZM91.9352 22.75C91.9352 24.063 91.0382 25.103 89.7252 25.103C88.4122 25.103 87.5022 24.063 87.5022 22.75C87.5022 21.437 88.4122 20.397 89.7252 20.397C91.0382 20.397 91.9352 21.437 91.9352 22.75ZM97.7084 23.53C97.7604 24.934 98.9824 26.156 100.919 26.156C102.635 26.156 103.857 25.168 103.857 23.608C103.857 22.23 103.051 21.424 101.647 20.917L100.464 20.488C99.5674 20.163 99.1384 19.773 99.1384 18.993C99.1384 18.226 99.8274 17.745 100.711 17.745C101.465 17.745 102.219 18.148 102.453 19.11H103.649C103.532 17.901 102.609 16.614 100.737 16.614C99.1254 16.614 97.9294 17.524 97.9294 19.032C97.9424 20.332 98.6314 21.125 100.061 21.632L101.335 22.1C102.193 22.412 102.648 22.919 102.648 23.647C102.648 24.505 101.868 25.025 100.906 25.025C100.035 25.025 99.0214 24.557 98.9174 23.53H97.7084ZM105.348 23.491C105.348 25.103 106.31 26.13 107.74 26.13C108.559 26.13 109.313 25.753 109.742 24.999V26H110.86V19.5H109.742V22.724C109.742 24.219 108.949 25.103 107.935 25.103C107.038 25.103 106.466 24.414 106.466 23.322V19.5H105.348V23.491ZM119.129 23.712H117.933C117.647 24.531 116.867 25.103 115.853 25.103C114.501 25.103 113.591 24.063 113.591 22.75C113.591 21.437 114.501 20.397 115.853 20.397C116.867 20.397 117.647 20.969 117.933 21.788H119.129C118.765 20.384 117.491 19.37 115.853 19.37C113.877 19.37 112.46 20.891 112.46 22.75C112.46 24.609 113.877 26.13 115.853 26.13C117.491 26.13 118.765 25.116 119.129 23.712ZM126.772 23.712H125.576C125.29 24.531 124.51 25.103 123.496 25.103C122.144 25.103 121.234 24.063 121.234 22.75C121.234 21.437 122.144 20.397 123.496 20.397C124.51 20.397 125.29 20.969 125.576 21.788H126.772C126.408 20.384 125.134 19.37 123.496 19.37C121.52 19.37 120.103 20.891 120.103 22.75C120.103 24.609 121.52 26.13 123.496 26.13C125.134 26.13 126.408 25.116 126.772 23.712ZM134.063 24.024H132.919C132.529 24.804 131.84 25.116 131.034 25.116C129.864 25.116 128.915 24.232 128.876 23.049H134.167C134.323 21.034 133.088 19.37 131.047 19.37C129.019 19.37 127.745 20.852 127.745 22.75C127.745 24.687 129.123 26.13 131.021 26.13C132.672 26.13 133.738 25.168 134.063 24.024ZM131.008 20.358C131.97 20.358 132.776 20.956 132.984 22.165H128.928C129.149 20.878 130.072 20.358 131.008 20.358ZM140.266 24.245C140.266 23.27 139.681 22.594 138.602 22.321L137.562 22.048C136.873 21.866 136.574 21.593 136.574 21.112C136.574 20.618 137.068 20.306 137.692 20.306C138.303 20.306 138.771 20.657 138.94 21.229H140.058C139.941 20.189 139.083 19.37 137.692 19.37C136.379 19.37 135.443 20.046 135.443 21.125C135.443 22.048 136.002 22.75 137.12 23.036L138.056 23.283C138.823 23.491 139.135 23.803 139.135 24.323C139.135 24.895 138.589 25.181 137.887 25.181C137.211 25.181 136.535 24.908 136.379 24.115H135.235C135.326 25.428 136.483 26.13 137.874 26.13C139.226 26.13 140.266 25.532 140.266 24.245ZM146.334 24.245C146.334 23.27 145.749 22.594 144.67 22.321L143.63 22.048C142.941 21.866 142.642 21.593 142.642 21.112C142.642 20.618 143.136 20.306 143.76 20.306C144.371 20.306 144.839 20.657 145.008 21.229H146.126C146.009 20.189 145.151 19.37 143.76 19.37C142.447 19.37 141.511 20.046 141.511 21.125C141.511 22.048 142.07 22.75 143.188 23.036L144.124 23.283C144.891 23.491 145.203 23.803 145.203 24.323C145.203 24.895 144.657 25.181 143.955 25.181C143.279 25.181 142.603 24.908 142.447 24.115H141.303C141.394 25.428 142.551 26.13 143.942 26.13C145.294 26.13 146.334 25.532 146.334 24.245ZM151.222 26H154.524C156.396 26 157.618 24.843 157.618 23.309C157.618 22.074 156.916 21.424 156.019 21.099C156.604 20.735 157.007 20.124 157.007 19.214C157.007 17.914 155.967 16.77 154.251 16.77H151.222V26ZM152.431 20.735V17.862H154.251C155.239 17.862 155.824 18.525 155.824 19.305C155.824 20.124 155.239 20.735 154.251 20.735H152.431ZM152.431 24.908V21.775H154.589C155.811 21.775 156.435 22.451 156.435 23.348C156.435 24.258 155.811 24.908 154.576 24.908H152.431ZM158.722 22.75C158.722 24.609 160.087 26.13 161.907 26.13C162.882 26.13 163.766 25.623 164.195 24.999V26H165.313V19.5H164.195V20.501C163.766 19.877 162.882 19.37 161.907 19.37C160.087 19.37 158.722 20.891 158.722 22.75ZM164.286 22.75C164.286 24.063 163.389 25.103 162.076 25.103C160.763 25.103 159.853 24.063 159.853 22.75C159.853 21.437 160.763 20.397 162.076 20.397C163.389 20.397 164.286 21.437 164.286 22.75ZM167.417 26H168.535V22.776C168.535 21.255 169.367 20.397 170.42 20.397C171.33 20.397 171.954 21.073 171.954 22.165V26H173.059V21.996C173.059 20.384 172.058 19.37 170.602 19.37C169.757 19.37 168.977 19.734 168.535 20.501V19.5H167.417V26ZM175.073 26H176.191V22.776C176.191 21.255 177.023 20.397 178.076 20.397C178.986 20.397 179.61 21.073 179.61 22.165V26H180.715V21.996C180.715 20.384 179.714 19.37 178.258 19.37C177.413 19.37 176.633 19.734 176.191 20.501V19.5H175.073V26ZM188.539 24.024H187.395C187.005 24.804 186.316 25.116 185.51 25.116C184.34 25.116 183.391 24.232 183.352 23.049H188.643C188.799 21.034 187.564 19.37 185.523 19.37C183.495 19.37 182.221 20.852 182.221 22.75C182.221 24.687 183.599 26.13 185.497 26.13C187.148 26.13 188.214 25.168 188.539 24.024ZM185.484 20.358C186.446 20.358 187.252 20.956 187.46 22.165H183.404C183.625 20.878 184.548 20.358 185.484 20.358ZM190.256 26H191.374V22.776C191.374 21.255 192.271 20.54 193.09 20.54C193.311 20.54 193.493 20.566 193.701 20.644V19.487C193.519 19.448 193.363 19.435 193.194 19.435C192.44 19.435 191.634 19.929 191.374 20.761V19.5H190.256V26ZM195.853 25.129C195.853 24.609 195.424 24.154 194.891 24.154C194.358 24.154 193.929 24.609 193.929 25.129C193.929 25.662 194.358 26.104 194.891 26.104C195.424 26.104 195.853 25.662 195.853 25.129ZM54.411 46H55.49L58.012 36.77H56.751L54.814 43.972L52.149 36.614L49.497 43.972L47.56 36.77H46.299L48.821 46H49.9L52.162 39.734L54.411 46ZM59.3675 46H60.4855V42.776C60.4855 41.255 61.3175 40.397 62.3705 40.397C63.2805 40.397 63.9045 41.073 63.9045 42.165V46H65.0095V41.996C65.0095 40.384 64.0085 39.37 62.5525 39.37C61.7075 39.37 60.9275 39.734 60.4855 40.501V36.25H59.3675V46ZM68.3747 36.965C68.3747 36.536 68.0367 36.172 67.5947 36.172C67.1527 36.172 66.7887 36.536 66.7887 36.965C66.7887 37.407 67.1527 37.758 67.5947 37.758C68.0367 37.758 68.3747 37.407 68.3747 36.965ZM67.0227 46H68.1407V39.5H67.0227V46ZM76.422 43.712H75.226C74.94 44.531 74.16 45.103 73.146 45.103C71.794 45.103 70.884 44.063 70.884 42.75C70.884 41.437 71.794 40.397 73.146 40.397C74.16 40.397 74.94 40.969 75.226 41.788H76.422C76.058 40.384 74.784 39.37 73.146 39.37C71.17 39.37 69.753 40.891 69.753 42.75C69.753 44.609 71.17 46.13 73.146 46.13C74.784 46.13 76.058 45.116 76.422 43.712ZM77.9026 46H79.0206V42.776C79.0206 41.255 79.8526 40.397 80.9056 40.397C81.8156 40.397 82.4396 41.073 82.4396 42.165V46H83.5446V41.996C83.5446 40.384 82.5436 39.37 81.0876 39.37C80.2426 39.37 79.4626 39.734 79.0206 40.501V36.25H77.9026V46ZM94.8556 43.712H93.6596C93.3736 44.531 92.5936 45.103 91.5796 45.103C90.2276 45.103 89.3176 44.063 89.3176 42.75C89.3176 41.437 90.2276 40.397 91.5796 40.397C92.5936 40.397 93.3736 40.969 93.6596 41.788H94.8556C94.4916 40.384 93.2176 39.37 91.5796 39.37C89.6036 39.37 88.1866 40.891 88.1866 42.75C88.1866 44.609 89.6036 46.13 91.5796 46.13C93.2176 46.13 94.4916 45.116 94.8556 43.712ZM95.8292 42.75C95.8292 44.609 97.1942 46.13 99.0142 46.13C99.9892 46.13 100.873 45.623 101.302 44.999V46H102.42V39.5H101.302V40.501C100.873 39.877 99.9892 39.37 99.0142 39.37C97.1942 39.37 95.8292 40.891 95.8292 42.75ZM101.393 42.75C101.393 44.063 100.496 45.103 99.1832 45.103C97.8702 45.103 96.9602 44.063 96.9602 42.75C96.9602 41.437 97.8702 40.397 99.1832 40.397C100.496 40.397 101.393 41.437 101.393 42.75ZM104.525 46H105.643V42.776C105.643 41.255 106.475 40.397 107.528 40.397C108.438 40.397 109.062 41.073 109.062 42.165V46H110.167V41.996C110.167 40.384 109.166 39.37 107.71 39.37C106.865 39.37 106.085 39.734 105.643 40.501V39.5H104.525V46ZM119.801 44.245C119.801 43.27 119.216 42.594 118.137 42.321L117.097 42.048C116.408 41.866 116.109 41.593 116.109 41.112C116.109 40.618 116.603 40.306 117.227 40.306C117.838 40.306 118.306 40.657 118.475 41.229H119.593C119.476 40.189 118.618 39.37 117.227 39.37C115.914 39.37 114.978 40.046 114.978 41.125C114.978 42.048 115.537 42.75 116.655 43.036L117.591 43.283C118.358 43.491 118.67 43.803 118.67 44.323C118.67 44.895 118.124 45.181 117.422 45.181C116.746 45.181 116.07 44.908 115.914 44.115H114.77C114.861 45.428 116.018 46.13 117.409 46.13C118.761 46.13 119.801 45.532 119.801 44.245ZM121.384 48.717H122.502V44.999C122.931 45.623 123.815 46.13 124.79 46.13C126.597 46.13 127.975 44.609 127.975 42.75C127.975 40.891 126.597 39.37 124.79 39.37C123.815 39.37 122.931 39.877 122.502 40.501V39.5H121.384V48.717ZM126.831 42.75C126.831 44.063 125.934 45.103 124.621 45.103C123.308 45.103 122.411 44.063 122.411 42.75C122.411 41.437 123.308 40.397 124.621 40.397C125.934 40.397 126.831 41.437 126.831 42.75ZM129.078 42.75C129.078 44.609 130.443 46.13 132.263 46.13C133.238 46.13 134.122 45.623 134.551 44.999V46H135.669V39.5H134.551V40.501C134.122 39.877 133.238 39.37 132.263 39.37C130.443 39.37 129.078 40.891 129.078 42.75ZM134.642 42.75C134.642 44.063 133.745 45.103 132.432 45.103C131.119 45.103 130.209 44.063 130.209 42.75C130.209 41.437 131.119 40.397 132.432 40.397C133.745 40.397 134.642 41.437 134.642 42.75ZM137.774 46H138.892V42.776C138.892 41.255 139.724 40.397 140.777 40.397C141.687 40.397 142.311 41.073 142.311 42.165V46H143.416V41.996C143.416 40.384 142.415 39.37 140.959 39.37C140.114 39.37 139.334 39.734 138.892 40.501V39.5H137.774V46ZM148.565 46H149.683V42.776C149.683 41.307 150.424 40.397 151.477 40.397C152.322 40.397 152.751 41.125 152.751 42.178V46H153.869V42.776C153.869 41.307 154.597 40.397 155.65 40.397C156.495 40.397 156.937 41.125 156.937 42.178V46H158.055V42.009C158.055 40.423 157.197 39.37 155.78 39.37C154.818 39.37 153.999 39.903 153.648 40.761C153.323 39.903 152.621 39.37 151.646 39.37C150.775 39.37 150.06 39.812 149.683 40.501V39.5H148.565V46ZM159.976 43.491C159.976 45.103 160.938 46.13 162.368 46.13C163.187 46.13 163.941 45.753 164.37 44.999V46H165.488V39.5H164.37V42.724C164.37 44.219 163.577 45.103 162.563 45.103C161.666 45.103 161.094 44.414 161.094 43.322V39.5H159.976V43.491ZM167.595 46H168.713V36.25H167.595V46ZM174.355 45.909V44.908C174.147 44.986 173.835 45.038 173.562 45.038C172.86 45.038 172.483 44.765 172.483 43.933V40.527H174.355V39.5H172.483V37.693H171.365V39.5H169.987V40.527H171.365V44.076C171.365 45.428 172.223 46.065 173.354 46.065C173.757 46.065 174.082 46 174.355 45.909ZM177.135 36.965C177.135 36.536 176.797 36.172 176.355 36.172C175.913 36.172 175.549 36.536 175.549 36.965C175.549 37.407 175.913 37.758 176.355 37.758C176.797 37.758 177.135 37.407 177.135 36.965ZM175.783 46H176.901V39.5H175.783V46ZM179.021 48.717H180.139V44.999C180.568 45.623 181.452 46.13 182.427 46.13C184.234 46.13 185.612 44.609 185.612 42.75C185.612 40.891 184.234 39.37 182.427 39.37C181.452 39.37 180.568 39.877 180.139 40.501V39.5H179.021V48.717ZM184.468 42.75C184.468 44.063 183.571 45.103 182.258 45.103C180.945 45.103 180.048 44.063 180.048 42.75C180.048 41.437 180.945 40.397 182.258 40.397C183.571 40.397 184.468 41.437 184.468 42.75ZM187.222 46H188.34V36.25H187.222V46ZM196.27 44.024H195.126C194.736 44.804 194.047 45.116 193.241 45.116C192.071 45.116 191.122 44.232 191.083 43.049H196.374C196.53 41.034 195.295 39.37 193.254 39.37C191.226 39.37 189.952 40.852 189.952 42.75C189.952 44.687 191.33 46.13 193.228 46.13C194.879 46.13 195.945 45.168 196.27 44.024ZM193.215 40.358C194.177 40.358 194.983 40.956 195.191 42.165H191.135C191.356 40.878 192.279 40.358 193.215 40.358ZM201.123 46H202.241V36.25H201.123V46ZM205.713 36.965C205.713 36.536 205.375 36.172 204.933 36.172C204.491 36.172 204.127 36.536 204.127 36.965C204.127 37.407 204.491 37.758 204.933 37.758C205.375 37.758 205.713 37.407 205.713 36.965ZM204.361 46H205.479V39.5H204.361V46ZM207.598 46H208.716V42.776C208.716 41.255 209.548 40.397 210.601 40.397C211.511 40.397 212.135 41.073 212.135 42.165V46H213.24V41.996C213.24 40.384 212.239 39.37 210.783 39.37C209.938 39.37 209.158 39.734 208.716 40.501V39.5H207.598V46ZM221.064 44.024H219.92C219.53 44.804 218.841 45.116 218.035 45.116C216.865 45.116 215.916 44.232 215.877 43.049H221.168C221.324 41.034 220.089 39.37 218.048 39.37C216.02 39.37 214.746 40.852 214.746 42.75C214.746 44.687 216.124 46.13 218.022 46.13C219.673 46.13 220.739 45.168 221.064 44.024ZM218.009 40.358C218.971 40.358 219.777 40.956 219.985 42.165H215.929C216.15 40.878 217.073 40.358 218.009 40.358ZM227.267 44.245C227.267 43.27 226.682 42.594 225.603 42.321L224.563 42.048C223.874 41.866 223.575 41.593 223.575 41.112C223.575 40.618 224.069 40.306 224.693 40.306C225.304 40.306 225.772 40.657 225.941 41.229H227.059C226.942 40.189 226.084 39.37 224.693 39.37C223.38 39.37 222.444 40.046 222.444 41.125C222.444 42.048 223.003 42.75 224.121 43.036L225.057 43.283C225.824 43.491 226.136 43.803 226.136 44.323C226.136 44.895 225.59 45.181 224.888 45.181C224.212 45.181 223.536 44.908 223.38 44.115H222.236C222.327 45.428 223.484 46.13 224.875 46.13C226.227 46.13 227.267 45.532 227.267 44.245ZM230.397 45.129C230.397 44.609 229.968 44.154 229.435 44.154C228.902 44.154 228.473 44.609 228.473 45.129C228.473 45.662 228.902 46.104 229.435 46.104C229.968 46.104 230.397 45.662 230.397 45.129Z" fill="#00684A"/>
<path d="M682.889 16.4038C682.499 16.0133 681.865 16.0133 681.475 16.4038L679 18.8787L676.525 16.4038C676.135 16.0133 675.501 16.0133 675.111 16.4038L674.404 17.1109C674.013 17.5014 674.013 18.1346 674.404 18.5251L676.879 21L674.404 23.4749C674.013 23.8654 674.013 24.4986 674.404 24.8891L675.111 25.5962C675.501 25.9867 676.135 25.9867 676.525 25.5962L679 23.1213L681.475 25.5962C681.865 25.9867 682.499 25.9867 682.889 25.5962L683.596 24.8891C683.987 24.4986 683.987 23.8654 683.596 23.4749L681.121 21L683.596 18.5251C683.987 18.1346 683.987 17.5014 683.596 17.1109L682.889 16.4038Z" fill="#00684A"/>
<path d="M12 1H688V-1H12V1ZM699 12V50H701V12H699ZM688 61H12V63H688V61ZM1 50V12H-1V50H1ZM12 61C5.92485 61 1 56.0751 1 50H-1C-1 57.1797 4.82028 63 12 63V61ZM699 50C699 56.0751 694.075 61 688 61V63C695.18 63 701 57.1797 701 50H699ZM688 1C694.075 1 699 5.92487 699 12H701C701 4.8203 695.18 -1 688 -1V1ZM12 -1C4.8203 -1 -1 4.8203 -1 12H1C1 5.92487 5.92487 1 12 1V-1Z" fill="#C0FAE6"/>
</svg>
