<svg width="111" height="36" viewBox="0 0 111 36" fill="none" xmlns="http://www.w3.org/2000/svg">
<rect width="111" height="36" rx="6" fill="#00684A"/>
<path d="M20.4181 17.4281C21.3708 16.8027 22 15.7248 22 14.5C22 12.567 20.433 11 18.5 11C16.567 11 15 12.567 15 14.5C15 15.7685 15.6749 16.8794 16.6851 17.4933C17.2143 17.8148 17.8355 18 18.5 18C19.2082 18 19.8672 17.7897 20.4181 17.4281Z" fill="#C0FAE6"/>
<path d="M15.091 18.5624C15.3992 18.2051 15.9286 18.2235 16.3425 18.4501C16.9831 18.8007 17.7183 19 18.5 19C19.2817 19 20.0169 18.8007 20.6575 18.4501C21.0714 18.2235 21.6008 18.2051 21.909 18.5624C22.0194 18.6904 22.1227 18.8247 22.2183 18.9646C21.7793 19.3315 21.5 19.8831 21.5 20.5C20.3954 20.5 19.5 21.3954 19.5 22.5C19.5 23.0973 19.7619 23.6335 20.1771 24H14V21.5C14 20.3773 14.4111 19.3507 15.091 18.5624Z" fill="#C0FAE6"/>
<path d="M22.5 20.5C22.5 20.272 22.5763 20.0618 22.7048 19.8936C22.8875 19.6543 23.1757 19.5 23.5 19.5C24.0523 19.5 24.5 19.9477 24.5 20.5V21.5H25.5C26.0523 21.5 26.5 21.9477 26.5 22.5C26.5 23.0523 26.0523 23.5 25.5 23.5H24.5V24.5C24.5 25.0523 24.0523 25.5 23.5 25.5C22.9477 25.5 22.5 25.0523 22.5 24.5V23.5H21.5C20.9477 23.5 20.5 23.0523 20.5 22.5C20.5 21.9477 20.9477 21.5 21.5 21.5H22.5V20.5Z" fill="#C0FAE6"/>
<path d="M35.131 23H36.652V13.77H35.131V23ZM38.669 23H40.099V19.802C40.099 18.411 40.827 17.67 41.776 17.67C42.608 17.67 43.128 18.294 43.128 19.321V23H44.558V19.087C44.558 17.436 43.583 16.37 42.075 16.37C41.23 16.37 40.489 16.734 40.099 17.384V16.5H38.669V23ZM48.2507 23H49.5117L52.4627 16.5H50.8637L48.8747 21.05L46.8987 16.5H45.3127L48.2507 23ZM55.1231 14.121C55.1231 13.601 54.7071 13.172 54.1741 13.172C53.6541 13.172 53.2121 13.601 53.2121 14.121C53.2121 14.654 53.6541 15.083 54.1741 15.083C54.7071 15.083 55.1231 14.654 55.1231 14.121ZM53.4591 23H54.8891V16.5H53.4591V23ZM60.6976 22.922V21.648C60.4896 21.726 60.2036 21.778 59.9306 21.778C59.1896 21.778 58.8386 21.479 58.8386 20.673V17.774H60.6976V16.5H58.8386V14.693H57.4086V16.5H56.0566V17.774H57.4086V20.907C57.4086 22.376 58.3836 23.065 59.6316 23.065C60.0736 23.065 60.4116 23.013 60.6976 22.922ZM68.0229 20.959H66.5279C66.2289 21.583 65.6049 21.869 64.8899 21.869C63.7329 21.869 62.9789 21.089 62.9269 20.101H68.1009C68.2309 17.891 66.8399 16.37 64.8509 16.37C62.8489 16.37 61.5099 17.826 61.5099 19.75C61.5099 21.7 62.9009 23.13 64.8379 23.13C66.4889 23.13 67.6589 22.181 68.0229 20.959ZM64.8119 17.566C65.6049 17.566 66.3459 18.034 66.5669 19.087H62.9789C63.1739 18.086 63.9149 17.566 64.8119 17.566ZM72.538 20.387C72.538 22.051 73.461 23.13 74.956 23.13C75.788 23.13 76.477 22.766 76.854 22.116V23H78.284V16.5H76.854V19.698C76.854 21.089 76.191 21.83 75.268 21.83C74.436 21.83 73.968 21.193 73.968 20.153V16.5H72.538V20.387ZM85.0441 21.206C85.0441 20.218 84.4851 19.542 83.3151 19.243L82.2231 18.957C81.6771 18.814 81.3521 18.593 81.3521 18.177C81.3521 17.761 81.7551 17.514 82.3011 17.514C82.8081 17.514 83.2371 17.774 83.3671 18.32H84.7971C84.6931 17.15 83.7181 16.37 82.3141 16.37C80.8581 16.37 79.8961 17.098 79.8961 18.19C79.8961 19.139 80.4421 19.867 81.5601 20.153L82.6261 20.439C83.3021 20.608 83.5881 20.855 83.5881 21.297C83.5881 21.739 83.1591 21.986 82.5351 21.986C81.8981 21.986 81.3131 21.726 81.1961 21.024H79.7141C79.7921 22.324 80.9751 23.13 82.4961 23.13C83.9521 23.13 85.0441 22.467 85.0441 21.206ZM92.5503 20.959H91.0553C90.7563 21.583 90.1323 21.869 89.4173 21.869C88.2603 21.869 87.5063 21.089 87.4543 20.101H92.6283C92.7583 17.891 91.3673 16.37 89.3783 16.37C87.3763 16.37 86.0373 17.826 86.0373 19.75C86.0373 21.7 87.4283 23.13 89.3653 23.13C91.0163 23.13 92.1863 22.181 92.5503 20.959ZM89.3393 17.566C90.1323 17.566 90.8733 18.034 91.0943 19.087H87.5063C87.7013 18.086 88.4423 17.566 89.3393 17.566ZM94.0968 23H95.5268V19.828C95.5268 18.528 96.2678 17.839 97.0868 17.839C97.3468 17.839 97.5548 17.878 97.8018 17.956V16.487C97.6068 16.448 97.4248 16.435 97.2428 16.435C96.5018 16.435 95.7738 16.916 95.5268 17.657V16.5H94.0968V23Z" fill="white"/>
</svg>
