<svg width="203" height="20" viewBox="0 0 203 20" fill="none" xmlns="http://www.w3.org/2000/svg">
<rect x="1" y="4" width="12" height="12" rx="2" stroke="#3D4F58" stroke-width="2"/>
<path d="M22.598 10.385C22.598 13.076 24.678 15.156 27.382 15.156C29.709 15.156 31.399 13.635 31.802 11.958H30.528C30.125 13.115 28.916 14.012 27.382 14.012C25.328 14.012 23.807 12.426 23.807 10.385C23.807 8.344 25.328 6.758 27.382 6.758C28.916 6.758 30.125 7.655 30.528 8.812H31.802C31.399 7.135 29.709 5.614 27.382 5.614C24.678 5.614 22.598 7.694 22.598 10.385ZM33.2981 15H34.4161V11.776C34.4161 10.255 35.2481 9.397 36.3011 9.397C37.2111 9.397 37.8351 10.073 37.8351 11.165V15H38.9401V10.996C38.9401 9.384 37.9391 8.37 36.4831 8.37C35.6381 8.37 34.8581 8.734 34.4161 9.501V5.25H33.2981V15ZM46.7644 13.024H45.6204C45.2304 13.804 44.5414 14.116 43.7354 14.116C42.5654 14.116 41.6164 13.232 41.5774 12.049H46.8684C47.0244 10.034 45.7894 8.37 43.7484 8.37C41.7204 8.37 40.4464 9.852 40.4464 11.75C40.4464 13.687 41.8244 15.13 43.7224 15.13C45.3734 15.13 46.4394 14.168 46.7644 13.024ZM43.7094 9.358C44.6714 9.358 45.4774 9.956 45.6854 11.165H41.6294C41.8504 9.878 42.7734 9.358 43.7094 9.358ZM54.6437 12.712H53.4477C53.1617 13.531 52.3817 14.103 51.3677 14.103C50.0157 14.103 49.1057 13.063 49.1057 11.75C49.1057 10.437 50.0157 9.397 51.3677 9.397C52.3817 9.397 53.1617 9.969 53.4477 10.788H54.6437C54.2797 9.384 53.0057 8.37 51.3677 8.37C49.3917 8.37 47.9747 9.891 47.9747 11.75C47.9747 13.609 49.3917 15.13 51.3677 15.13C53.0057 15.13 54.2797 14.116 54.6437 12.712ZM56.1243 15H57.2423V11.75L60.7653 15H62.2733L58.3603 11.373L61.5583 8.5H60.0763L57.2423 11.035V5.25H56.1243V15ZM64.2501 13.999C64.6791 14.623 65.5631 15.13 66.5381 15.13C68.3451 15.13 69.7231 13.609 69.7231 11.75C69.7231 9.891 68.3451 8.37 66.5381 8.37C65.5631 8.37 64.6791 8.877 64.2501 9.501V5.25H63.1321V15H64.2501V13.999ZM68.5791 11.75C68.5791 13.063 67.6821 14.103 66.3691 14.103C65.0561 14.103 64.1591 13.063 64.1591 11.75C64.1591 10.437 65.0561 9.397 66.3691 9.397C67.6821 9.397 68.5791 10.437 68.5791 11.75ZM77.5996 11.75C77.5996 9.878 76.1566 8.37 74.2066 8.37C72.2436 8.37 70.8006 9.878 70.8006 11.75C70.8006 13.622 72.2436 15.13 74.2066 15.13C76.1566 15.13 77.5996 13.622 77.5996 11.75ZM71.9446 11.75C71.9446 10.45 72.8546 9.41 74.2066 9.41C75.5586 9.41 76.4556 10.45 76.4556 11.75C76.4556 13.05 75.5586 14.09 74.2066 14.09C72.8546 14.09 71.9446 13.05 71.9446 11.75ZM77.9882 15H79.3792L81.3552 12.543L83.3312 15H84.7092L82.0572 11.711L84.5012 8.5H83.1362L81.3552 10.84L79.5612 8.5H78.2092L80.6532 11.711L77.9882 15ZM89.1615 15H94.8295V13.856H90.3705V5.77H89.1615V15ZM95.4171 11.75C95.4171 13.609 96.7821 15.13 98.6021 15.13C99.5771 15.13 100.461 14.623 100.89 13.999V15H102.008V8.5H100.89V9.501C100.461 8.877 99.5771 8.37 98.6021 8.37C96.7821 8.37 95.4171 9.891 95.4171 11.75ZM100.981 11.75C100.981 13.063 100.084 14.103 98.7711 14.103C97.4581 14.103 96.5481 13.063 96.5481 11.75C96.5481 10.437 97.4581 9.397 98.7711 9.397C100.084 9.397 100.981 10.437 100.981 11.75ZM105.231 13.999C105.66 14.623 106.544 15.13 107.519 15.13C109.326 15.13 110.704 13.609 110.704 11.75C110.704 9.891 109.326 8.37 107.519 8.37C106.544 8.37 105.66 8.877 105.231 9.501V5.25H104.113V15H105.231V13.999ZM109.56 11.75C109.56 13.063 108.663 14.103 107.35 14.103C106.037 14.103 105.14 13.063 105.14 11.75C105.14 10.437 106.037 9.397 107.35 9.397C108.663 9.397 109.56 10.437 109.56 11.75ZM118.112 13.024H116.968C116.578 13.804 115.889 14.116 115.083 14.116C113.913 14.116 112.964 13.232 112.925 12.049H118.216C118.372 10.034 117.137 8.37 115.096 8.37C113.068 8.37 111.794 9.852 111.794 11.75C111.794 13.687 113.172 15.13 115.07 15.13C116.721 15.13 117.787 14.168 118.112 13.024ZM115.057 9.358C116.019 9.358 116.825 9.956 117.033 11.165H112.977C113.198 9.878 114.121 9.358 115.057 9.358ZM119.829 15H120.947V5.25H119.829V15ZM128.334 17.08C127.229 14.935 126.761 12.972 126.761 10.84C126.761 8.708 127.229 6.745 128.334 4.6H127.424C126.306 6.628 125.76 8.695 125.76 10.84C125.76 12.985 126.306 15.052 127.424 17.08H128.334ZM137.024 11.412V5.77H135.815V11.438C135.815 13.089 134.853 14.012 133.41 14.012C131.967 14.012 131.005 13.089 131.005 11.438V5.77H129.796V11.412C129.796 13.713 131.278 15.156 133.41 15.156C135.542 15.156 137.024 13.713 137.024 11.412ZM139.063 15H140.181V11.776C140.181 10.255 141.013 9.397 142.066 9.397C142.976 9.397 143.6 10.073 143.6 11.165V15H144.705V10.996C144.705 9.384 143.704 8.37 142.248 8.37C141.403 8.37 140.623 8.734 140.181 9.501V8.5H139.063V15ZM152.88 12.712H151.684C151.398 13.531 150.618 14.103 149.604 14.103C148.252 14.103 147.342 13.063 147.342 11.75C147.342 10.437 148.252 9.397 149.604 9.397C150.618 9.397 151.398 9.969 151.684 10.788H152.88C152.516 9.384 151.242 8.37 149.604 8.37C147.628 8.37 146.211 9.891 146.211 11.75C146.211 13.609 147.628 15.13 149.604 15.13C151.242 15.13 152.516 14.116 152.88 12.712ZM154.361 15H155.479V11.776C155.479 10.255 156.311 9.397 157.364 9.397C158.274 9.397 158.898 10.073 158.898 11.165V15H160.003V10.996C160.003 9.384 159.002 8.37 157.546 8.37C156.701 8.37 155.921 8.734 155.479 9.501V5.25H154.361V15ZM167.827 13.024H166.683C166.293 13.804 165.604 14.116 164.798 14.116C163.628 14.116 162.679 13.232 162.64 12.049H167.931C168.087 10.034 166.852 8.37 164.811 8.37C162.783 8.37 161.509 9.852 161.509 11.75C161.509 13.687 162.887 15.13 164.785 15.13C166.436 15.13 167.502 14.168 167.827 13.024ZM164.772 9.358C165.734 9.358 166.54 9.956 166.748 11.165H162.692C162.913 9.878 163.836 9.358 164.772 9.358ZM175.706 12.712H174.51C174.224 13.531 173.444 14.103 172.43 14.103C171.078 14.103 170.168 13.063 170.168 11.75C170.168 10.437 171.078 9.397 172.43 9.397C173.444 9.397 174.224 9.969 174.51 10.788H175.706C175.342 9.384 174.068 8.37 172.43 8.37C170.454 8.37 169.037 9.891 169.037 11.75C169.037 13.609 170.454 15.13 172.43 15.13C174.068 15.13 175.342 14.116 175.706 12.712ZM177.187 15H178.305V11.75L181.828 15H183.336L179.423 11.373L182.621 8.5H181.139L178.305 11.035V5.25H177.187V15ZM189.587 13.024H188.443C188.053 13.804 187.364 14.116 186.558 14.116C185.388 14.116 184.439 13.232 184.4 12.049H189.691C189.847 10.034 188.612 8.37 186.571 8.37C184.543 8.37 183.269 9.852 183.269 11.75C183.269 13.687 184.647 15.13 186.545 15.13C188.196 15.13 189.262 14.168 189.587 13.024ZM186.532 9.358C187.494 9.358 188.3 9.956 188.508 11.165H184.452C184.673 9.878 185.596 9.358 186.532 9.358ZM190.797 11.75C190.797 13.609 192.162 15.13 193.982 15.13C194.957 15.13 195.841 14.623 196.27 13.999V15H197.388V5.25H196.27V9.501C195.841 8.877 194.957 8.37 193.982 8.37C192.162 8.37 190.797 9.891 190.797 11.75ZM196.361 11.75C196.361 13.063 195.464 14.103 194.151 14.103C192.838 14.103 191.928 13.063 191.928 11.75C191.928 10.437 192.838 9.397 194.151 9.397C195.464 9.397 196.361 10.437 196.361 11.75ZM198.816 17.08H199.726C200.844 15.052 201.39 12.985 201.39 10.84C201.39 8.695 200.844 6.628 199.726 4.6H198.816C199.921 6.745 200.389 8.708 200.389 10.84C200.389 12.972 199.921 14.935 198.816 17.08Z" fill="#001E2B"/>
</svg>
