<svg width="1038" height="864" viewBox="0 0 1038 864" fill="none" xmlns="http://www.w3.org/2000/svg">
<path d="M28.2681 249.718L31.3201 245.532V252H33.3501V242.06H31.5021L28.2681 246.484L25.0341 242.06H23.1861V252H25.2161V245.532L28.2681 249.718ZM46.5471 247.03C46.5471 244.188 44.2511 241.892 41.4091 241.892C38.5671 241.892 36.2711 244.188 36.2711 247.03C36.2711 249.872 38.5671 252.168 41.4091 252.168C44.2511 252.168 46.5471 249.872 46.5471 247.03ZM38.3151 247.03C38.3151 245.294 39.6731 243.852 41.4091 243.852C43.1451 243.852 44.5031 245.294 44.5031 247.03C44.5031 248.766 43.1451 250.208 41.4091 250.208C39.6731 250.208 38.3151 248.766 38.3151 247.03ZM58.3418 252V242.06H56.3118V248.542L51.2158 242.06H49.4658V252H51.4958V245.518L56.5918 252H58.3418ZM61.2797 247.03C61.2797 249.914 63.4777 252.168 66.5157 252.168C69.4697 252.168 71.8637 250.138 71.4157 246.05H66.2777V247.954H69.3157C69.0917 249.326 68.1257 250.208 66.5157 250.208C64.5837 250.208 63.3237 248.808 63.3237 247.03C63.3237 245.252 64.5837 243.852 66.4877 243.852C67.4397 243.852 68.3637 244.272 68.8537 245H71.1777C70.5057 243.124 68.5737 241.892 66.4877 241.892C63.4777 241.892 61.2797 244.146 61.2797 247.03ZM84.1073 247.03C84.1073 244.188 81.8113 241.892 78.9693 241.892C76.1273 241.892 73.8313 244.188 73.8313 247.03C73.8313 249.872 76.1273 252.168 78.9693 252.168C81.8113 252.168 84.1073 249.872 84.1073 247.03ZM75.8753 247.03C75.8753 245.294 77.2333 243.852 78.9693 243.852C80.7053 243.852 82.0633 245.294 82.0633 247.03C82.0633 248.766 80.7053 250.208 78.9693 250.208C77.2333 250.208 75.8753 248.766 75.8753 247.03ZM28.9015 270H33.1015C34.8655 270 36.1815 268.726 36.1815 267.074C36.1815 265.954 35.5795 265.142 34.7115 264.722C35.1875 264.302 35.4955 263.7 35.4955 262.944C35.4955 261.362 34.2075 260.06 32.5415 260.06H28.9015V270ZM30.9315 264.134V261.908H32.3455C33.0455 261.908 33.5215 262.426 33.5215 263.028C33.5215 263.644 33.0455 264.134 32.3455 264.134H30.9315ZM30.9315 268.138V265.856H32.9615C33.7175 265.856 34.2075 266.36 34.2075 267.004C34.2075 267.648 33.7175 268.138 32.9615 268.138H30.9315ZM39.0746 270H45.3606V268.068H41.1046V260.06H39.0746V270ZM46.9935 270H49.0935L50.0595 267.732H54.2875L55.2535 270H57.3815L53.0835 260.06H51.2775L46.9935 270ZM50.8015 265.954L52.1735 262.72L53.5455 265.954H50.8015ZM58.792 265.03C58.792 267.914 60.99 270.168 64 270.168C66.254 270.168 68.27 268.726 68.816 266.612H66.618C66.198 267.606 65.12 268.208 64 268.208C62.096 268.208 60.836 266.808 60.836 265.03C60.836 263.252 62.096 261.852 64 261.852C65.12 261.852 66.198 262.454 66.618 263.448H68.816C68.27 261.334 66.254 259.892 64 259.892C60.99 259.892 58.792 262.146 58.792 265.03ZM71.5898 270H73.6058V265.478L77.9178 270H80.5498L75.6078 264.834L79.6958 260.06H77.1898L73.6058 264.26V260.06H71.5898V270Z" fill="#5C6C75"/>
<path d="M266.002 175H283.064V169.756H271.512V148.02H266.002V175ZM288.232 175H305.028V169.756H293.742V164.056H302.748V158.812H293.742V153.264H305.028V148.02H288.232V175ZM308.165 175H313.865L316.487 168.844H327.963L330.585 175H336.361L324.695 148.02H319.793L308.165 175ZM318.501 164.018L322.225 155.24L325.949 164.018H318.501ZM340.67 175H346.18V164.094H354.73V158.85H346.18V153.264H357.086V148.02H340.67V175ZM369.899 175H375.409V163.676L385.403 148.02H378.981L372.635 158.242L366.327 148.02H359.943L369.899 163.638V175ZM397.488 161.51C397.488 169.338 403.454 175.456 411.7 175.456C419.718 175.456 426.216 169.946 425 158.85H411.054V164.018H419.3C418.692 167.742 416.07 170.136 411.7 170.136C406.456 170.136 403.036 166.336 403.036 161.51C403.036 156.684 406.456 152.884 411.624 152.884C414.208 152.884 416.716 154.024 418.046 156H424.354C422.53 150.908 417.286 147.564 411.624 147.564C403.454 147.564 397.488 153.682 397.488 161.51ZM430.924 175H436.434V163.638H437.802L447.036 175H453.686L443.996 163.03C447.568 161.89 449.544 159.61 449.544 156C449.544 151.516 446.314 148.02 441.26 148.02H430.924V175ZM436.434 158.926V153.074H440.614C442.666 153.074 444.072 154.138 444.072 156C444.072 157.824 442.666 158.926 440.614 158.926H436.434ZM457.162 175H473.958V169.756H462.672V164.056H471.678V158.812H462.672V153.264H473.958V148.02H457.162V175ZM480.059 175H496.855V169.756H485.569V164.056H494.575V158.812H485.569V153.264H496.855V148.02H480.059V175ZM527.049 175V148.02H521.539V165.614L507.707 148.02H502.957V175H508.467V157.406L522.299 175H527.049ZM553.267 148.02H544.299V175H549.809V166.184H553.267C558.739 166.184 562.729 162.232 562.729 157.102C562.729 151.972 558.739 148.02 553.267 148.02ZM553.191 161.016H549.809V153.188H553.191C555.699 153.188 557.371 154.898 557.371 157.102C557.371 159.306 555.699 161.016 553.191 161.016ZM563.379 175H569.079L571.701 168.844H583.177L585.799 175H591.575L579.909 148.02H575.007L563.379 175ZM573.715 164.018L577.439 155.24L581.163 164.018H573.715ZM595.884 175H612.946V169.756H601.394V148.02H595.884V175ZM618.113 175H634.909V169.756H623.623V164.056H632.629V158.812H623.623V153.264H634.909V148.02H618.113V175ZM645.989 175H651.537V153.264H658.795V148.02H638.807V153.264H645.989V175ZM668.887 175H674.435V153.264H681.693V148.02H661.705V153.264H668.887V175ZM686.806 175H703.602V169.756H692.316V164.056H701.322V158.812H692.316V153.264H703.602V148.02H686.806V175ZM736.598 169.87H725.426C726.148 168.122 728.998 166.64 730.67 165.386C734.09 162.878 736.37 160.522 736.37 155.886C736.37 150.376 732.266 147.564 727.706 147.564C722.348 147.564 718.282 151.212 718.282 156.494H723.526C723.488 154.328 725.198 152.694 727.592 152.694C729.91 152.694 731.164 154.214 731.164 156.19C731.164 158.394 729.264 160.066 726.908 161.738C722.956 164.588 718.206 167.172 718.206 173.214V175H736.598V169.87ZM748.814 171.504C748.814 169.414 747.142 167.704 745.014 167.704C742.924 167.704 741.214 169.414 741.214 171.504C741.214 173.594 742.924 175.304 745.014 175.304C747.142 175.304 748.814 173.594 748.814 171.504ZM773.574 164.74V158.204C773.574 152.048 769.432 147.564 763.542 147.564C757.614 147.564 753.472 152.048 753.472 158.204V164.74C753.472 170.934 757.614 175.418 763.542 175.418C769.432 175.418 773.574 170.934 773.574 164.74ZM758.678 164.74V158.204C758.678 154.746 760.654 152.694 763.542 152.694C766.392 152.694 768.368 154.746 768.368 158.204V164.74C768.368 168.236 766.392 170.288 763.542 170.288C760.654 170.288 758.678 168.236 758.678 164.74Z" fill="#5C6C75"/>
<path d="M403.106 266H406.382C409.238 266 411.492 263.802 411.492 261.03C411.492 258.258 409.238 256.06 406.382 256.06H403.106V266ZM405.136 264.138V257.922H406.382C408.216 257.922 409.448 259.308 409.448 261.03C409.448 262.752 408.216 264.138 406.382 264.138H405.136ZM412.898 266H414.998L415.964 263.732H420.192L421.158 266H423.286L418.988 256.06H417.182L412.898 266ZM416.706 261.954L418.078 258.72L419.45 261.954H416.706ZM425.694 266H427.724V261.814H428.228L431.63 266H434.08L430.51 261.59C431.826 261.17 432.554 260.33 432.554 259C432.554 257.348 431.364 256.06 429.502 256.06H425.694V266ZM427.724 260.078V257.922H429.264C430.02 257.922 430.538 258.314 430.538 259C430.538 259.672 430.02 260.078 429.264 260.078H427.724ZM436.182 266H438.198V261.478L442.51 266H445.142L440.2 260.834L444.288 256.06H441.782L438.198 260.26V256.06H436.182V266ZM446.225 263.004H450.229V261.156H446.225V263.004ZM453.858 266H455.776V256.06H453.158L451.758 257.95H453.858V266Z" fill="#5C6C75"/>
<path d="M307.106 266H310.382C313.238 266 315.492 263.802 315.492 261.03C315.492 258.258 313.238 256.06 310.382 256.06H307.106V266ZM309.136 264.138V257.922H310.382C312.216 257.922 313.448 259.308 313.448 261.03C313.448 262.752 312.216 264.138 310.382 264.138H309.136ZM316.898 266H318.998L319.964 263.732H324.192L325.158 266H327.286L322.988 256.06H321.182L316.898 266ZM320.706 261.954L322.078 258.72L323.45 261.954H320.706ZM329.694 266H331.724V261.814H332.228L335.63 266H338.08L334.51 261.59C335.826 261.17 336.554 260.33 336.554 259C336.554 257.348 335.364 256.06 333.502 256.06H329.694V266ZM331.724 260.078V257.922H333.264C334.02 257.922 334.538 258.314 334.538 259C334.538 259.672 334.02 260.078 333.264 260.078H331.724ZM340.182 266H342.198V261.478L346.51 266H349.142L344.2 260.834L348.288 256.06H345.782L342.198 260.26V256.06H340.182V266ZM350.225 263.004H354.229V261.156H350.225V263.004ZM363.409 264.11H359.293C359.559 263.466 360.609 262.92 361.225 262.458C362.485 261.534 363.325 260.666 363.325 258.958C363.325 256.928 361.813 255.892 360.133 255.892C358.159 255.892 356.661 257.236 356.661 259.182H358.593C358.579 258.384 359.209 257.782 360.091 257.782C360.945 257.782 361.407 258.342 361.407 259.07C361.407 259.882 360.707 260.498 359.839 261.114C358.383 262.164 356.633 263.116 356.633 265.342V266H363.409V264.11Z" fill="#5C6C75"/>
<path d="M353.84 687.31H359.734V685.644H353.84V687.31ZM353.84 690.25H359.734V688.598H353.84V690.25ZM375.446 688.08V682.06H373.416V688.108C373.416 689.424 372.604 690.208 371.4 690.208C370.196 690.208 369.384 689.424 369.384 688.108V682.06H367.354V688.08C367.354 690.558 369.02 692.168 371.4 692.168C373.752 692.168 375.446 690.558 375.446 688.08ZM387.718 692V682.06H385.688V688.542L380.592 682.06H378.842V692H380.872V685.518L385.968 692H387.718ZM396.312 689.718L399.364 685.532V692H401.394V682.06H399.546L396.312 686.484L393.078 682.06H391.23V692H393.26V685.532L396.312 689.718ZM414.591 687.03C414.591 684.188 412.295 681.892 409.453 681.892C406.611 681.892 404.315 684.188 404.315 687.03C404.315 689.872 406.611 692.168 409.453 692.168C412.295 692.168 414.591 689.872 414.591 687.03ZM406.359 687.03C406.359 685.294 407.717 683.852 409.453 683.852C411.189 683.852 412.547 685.294 412.547 687.03C412.547 688.766 411.189 690.208 409.453 690.208C407.717 690.208 406.359 688.766 406.359 687.03ZM417.51 692H420.786C423.642 692 425.896 689.802 425.896 687.03C425.896 684.258 423.642 682.06 420.786 682.06H417.51V692ZM419.54 690.138V683.922H420.786C422.62 683.922 423.852 685.308 423.852 687.03C423.852 688.752 422.62 690.138 420.786 690.138H419.54ZM428.831 692H430.861V682.06H428.831V692ZM434.369 692H436.399V687.982H439.549V686.05H436.399V683.992H440.417V682.06H434.369V692ZM443.257 692H445.287V682.06H443.257V692ZM448.795 692H454.983V690.068H450.825V687.968H454.143V686.036H450.825V683.992H454.983V682.06H448.795V692ZM458.052 692H461.328C464.184 692 466.438 689.802 466.438 687.03C466.438 684.258 464.184 682.06 461.328 682.06H458.052V692ZM460.082 690.138V683.922H461.328C463.162 683.922 464.394 685.308 464.394 687.03C464.394 688.752 463.162 690.138 461.328 690.138H460.082ZM473.86 692H475.89V687.982H479.04V686.05H475.89V683.992H479.908V682.06H473.86V692ZM482.747 692H484.777V687.814H485.281L488.683 692H491.133L487.563 687.59C488.879 687.17 489.607 686.33 489.607 685C489.607 683.348 488.417 682.06 486.555 682.06H482.747V692ZM484.777 686.078V683.922H486.317C487.073 683.922 487.591 684.314 487.591 685C487.591 685.672 487.073 686.078 486.317 686.078H484.777ZM502.595 687.03C502.595 684.188 500.299 681.892 497.457 681.892C494.615 681.892 492.319 684.188 492.319 687.03C492.319 689.872 494.615 692.168 497.457 692.168C500.299 692.168 502.595 689.872 502.595 687.03ZM494.363 687.03C494.363 685.294 495.721 683.852 497.457 683.852C499.193 683.852 500.551 685.294 500.551 687.03C500.551 688.766 499.193 690.208 497.457 690.208C495.721 690.208 494.363 688.766 494.363 687.03ZM510.595 689.718L513.647 685.532V692H515.677V682.06H513.829L510.595 686.484L507.361 682.06H505.513V692H507.543V685.532L510.595 689.718ZM532.548 692V682.06H530.518V688.542L525.422 682.06H523.672V692H525.702V685.518L530.798 692H532.548ZM536.06 692H542.248V690.068H538.09V687.968H541.408V686.036H538.09V683.992H542.248V682.06H536.06V692ZM553.129 692H555.033L557.427 682.06H555.271L553.759 688.668L550.945 681.892L548.131 688.668L546.619 682.06H544.463L546.857 692H548.761L550.945 686.722L553.129 692ZM564.296 692H568.496C570.26 692 571.576 690.726 571.576 689.074C571.576 687.954 570.974 687.142 570.106 686.722C570.582 686.302 570.89 685.7 570.89 684.944C570.89 683.362 569.602 682.06 567.936 682.06H564.296V692ZM566.326 686.134V683.908H567.74C568.44 683.908 568.916 684.426 568.916 685.028C568.916 685.644 568.44 686.134 567.74 686.134H566.326ZM566.326 690.138V687.856H568.356C569.112 687.856 569.602 688.36 569.602 689.004C569.602 689.648 569.112 690.138 568.356 690.138H566.326ZM574.469 692H576.499V687.814H577.003L580.405 692H582.855L579.285 687.59C580.601 687.17 581.329 686.33 581.329 685C581.329 683.348 580.139 682.06 578.277 682.06H574.469V692ZM576.499 686.078V683.922H578.039C578.795 683.922 579.313 684.314 579.313 685C579.313 685.672 578.795 686.078 578.039 686.078H576.499ZM583.864 692H585.964L586.93 689.732H591.158L592.124 692H594.252L589.954 682.06H588.148L583.864 692ZM587.672 687.954L589.044 684.72L590.416 687.954H587.672ZM605.537 692V682.06H603.507V688.542L598.411 682.06H596.661V692H598.691V685.518L603.787 692H605.537ZM609.049 692H612.325C615.181 692 617.435 689.802 617.435 687.03C617.435 684.258 615.181 682.06 612.325 682.06H609.049V692ZM611.079 690.138V683.922H612.325C614.159 683.922 615.391 685.308 615.391 687.03C615.391 688.752 614.159 690.138 612.325 690.138H611.079ZM628.16 682.06H624.856V692H626.886V688.752H628.16C630.176 688.752 631.646 687.296 631.646 685.406C631.646 683.516 630.176 682.06 628.16 682.06ZM628.132 686.848H626.886V683.964H628.132C629.056 683.964 629.672 684.594 629.672 685.406C629.672 686.218 629.056 686.848 628.132 686.848ZM632.706 692H634.806L635.772 689.732H640L640.966 692H643.094L638.796 682.06H636.99L632.706 692ZM636.514 687.954L637.886 684.72L639.258 687.954H636.514ZM645.502 692H651.788V690.068H647.532V682.06H645.502V692ZM654.513 692H660.701V690.068H656.543V687.968H659.861V686.036H656.543V683.992H660.701V682.06H654.513V692ZM665.604 692H667.648V683.992H670.322V682.06H662.958V683.992H665.604V692ZM674.861 692H676.905V683.992H679.579V682.06H672.215V683.992H674.861V692ZM682.285 692H688.473V690.068H684.315V687.968H687.633V686.036H684.315V683.992H688.473V682.06H682.285V692Z" fill="#5C6C75"/>
<path d="M353.84 716.31H359.734V714.644H353.84V716.31ZM353.84 719.25H359.734V717.598H353.84V719.25ZM375.446 717.08V711.06H373.416V717.108C373.416 718.424 372.604 719.208 371.4 719.208C370.196 719.208 369.384 718.424 369.384 717.108V711.06H367.354V717.08C367.354 719.558 369.02 721.168 371.4 721.168C373.752 721.168 375.446 719.558 375.446 717.08ZM387.718 721V711.06H385.688V717.542L380.592 711.06H378.842V721H380.872V714.518L385.968 721H387.718ZM396.312 718.718L399.364 714.532V721H401.394V711.06H399.546L396.312 715.484L393.078 711.06H391.23V721H393.26V714.532L396.312 718.718ZM414.591 716.03C414.591 713.188 412.295 710.892 409.453 710.892C406.611 710.892 404.315 713.188 404.315 716.03C404.315 718.872 406.611 721.168 409.453 721.168C412.295 721.168 414.591 718.872 414.591 716.03ZM406.359 716.03C406.359 714.294 407.717 712.852 409.453 712.852C411.189 712.852 412.547 714.294 412.547 716.03C412.547 717.766 411.189 719.208 409.453 719.208C407.717 719.208 406.359 717.766 406.359 716.03ZM417.51 721H420.786C423.642 721 425.896 718.802 425.896 716.03C425.896 713.258 423.642 711.06 420.786 711.06H417.51V721ZM419.54 719.138V712.922H420.786C422.62 712.922 423.852 714.308 423.852 716.03C423.852 717.752 422.62 719.138 420.786 719.138H419.54ZM428.831 721H430.861V711.06H428.831V721ZM434.369 721H436.399V716.982H439.549V715.05H436.399V712.992H440.417V711.06H434.369V721ZM443.257 721H445.287V711.06H443.257V721ZM448.795 721H454.983V719.068H450.825V716.968H454.143V715.036H450.825V712.992H454.983V711.06H448.795V721ZM458.052 721H461.328C464.184 721 466.438 718.802 466.438 716.03C466.438 713.258 464.184 711.06 461.328 711.06H458.052V721ZM460.082 719.138V712.922H461.328C463.162 712.922 464.394 714.308 464.394 716.03C464.394 717.752 463.162 719.138 461.328 719.138H460.082ZM473.86 721H475.89V716.982H479.04V715.05H475.89V712.992H479.908V711.06H473.86V721ZM482.747 721H484.777V716.814H485.281L488.683 721H491.133L487.563 716.59C488.879 716.17 489.607 715.33 489.607 714C489.607 712.348 488.417 711.06 486.555 711.06H482.747V721ZM484.777 715.078V712.922H486.317C487.073 712.922 487.591 713.314 487.591 714C487.591 714.672 487.073 715.078 486.317 715.078H484.777ZM502.595 716.03C502.595 713.188 500.299 710.892 497.457 710.892C494.615 710.892 492.319 713.188 492.319 716.03C492.319 718.872 494.615 721.168 497.457 721.168C500.299 721.168 502.595 718.872 502.595 716.03ZM494.363 716.03C494.363 714.294 495.721 712.852 497.457 712.852C499.193 712.852 500.551 714.294 500.551 716.03C500.551 717.766 499.193 719.208 497.457 719.208C495.721 719.208 494.363 717.766 494.363 716.03ZM510.595 718.718L513.647 714.532V721H515.677V711.06H513.829L510.595 715.484L507.361 711.06H505.513V721H507.543V714.532L510.595 718.718ZM533.36 716.03C533.36 713.188 531.064 710.892 528.222 710.892C525.38 710.892 523.084 713.188 523.084 716.03C523.084 718.872 525.38 721.168 528.222 721.168C531.064 721.168 533.36 718.872 533.36 716.03ZM525.128 716.03C525.128 714.294 526.486 712.852 528.222 712.852C529.958 712.852 531.316 714.294 531.316 716.03C531.316 717.766 529.958 719.208 528.222 719.208C526.486 719.208 525.128 717.766 525.128 716.03ZM536.279 721H542.565V719.068H538.309V711.06H536.279V721ZM545.29 721H548.566C551.422 721 553.676 718.802 553.676 716.03C553.676 713.258 551.422 711.06 548.566 711.06H545.29V721ZM547.32 719.138V712.922H548.566C550.4 712.922 551.632 714.308 551.632 716.03C551.632 717.752 550.4 719.138 548.566 719.138H547.32ZM564.401 711.06H561.097V721H563.127V717.752H564.401C566.417 717.752 567.887 716.296 567.887 714.406C567.887 712.516 566.417 711.06 564.401 711.06ZM564.373 715.848H563.127V712.964H564.373C565.297 712.964 565.913 713.594 565.913 714.406C565.913 715.218 565.297 715.848 564.373 715.848ZM570.668 721H572.698V716.814H573.202L576.604 721H579.054L575.484 716.59C576.8 716.17 577.528 715.33 577.528 714C577.528 712.348 576.338 711.06 574.476 711.06H570.668V721ZM572.698 715.078V712.922H574.238C574.994 712.922 575.512 713.314 575.512 714C575.512 714.672 574.994 715.078 574.238 715.078H572.698ZM590.515 716.03C590.515 713.188 588.219 710.892 585.377 710.892C582.535 710.892 580.239 713.188 580.239 716.03C580.239 718.872 582.535 721.168 585.377 721.168C588.219 721.168 590.515 718.872 590.515 716.03ZM582.283 716.03C582.283 714.294 583.641 712.852 585.377 712.852C587.113 712.852 588.471 714.294 588.471 716.03C588.471 717.766 587.113 719.208 585.377 719.208C583.641 719.208 582.283 717.766 582.283 716.03ZM593.434 721H596.71C599.566 721 601.82 718.802 601.82 716.03C601.82 713.258 599.566 711.06 596.71 711.06H593.434V721ZM595.464 719.138V712.922H596.71C598.544 712.922 599.776 714.308 599.776 716.03C599.776 717.752 598.544 719.138 596.71 719.138H595.464ZM612.736 717.08V711.06H610.706V717.108C610.706 718.424 609.894 719.208 608.69 719.208C607.486 719.208 606.674 718.424 606.674 717.108V711.06H604.644V717.08C604.644 719.558 606.31 721.168 608.69 721.168C611.042 721.168 612.736 719.558 612.736 717.08ZM615.558 716.03C615.558 718.914 617.756 721.168 620.766 721.168C623.02 721.168 625.036 719.726 625.582 717.612H623.384C622.964 718.606 621.886 719.208 620.766 719.208C618.862 719.208 617.602 717.808 617.602 716.03C617.602 714.252 618.862 712.852 620.766 712.852C621.886 712.852 622.964 713.454 623.384 714.448H625.582C625.036 712.334 623.02 710.892 620.766 710.892C617.756 710.892 615.558 713.146 615.558 716.03ZM630.053 721H632.097V712.992H634.771V711.06H627.407V712.992H630.053V721ZM644.842 711.06H641.538V721H643.568V717.752H644.842C646.858 717.752 648.328 716.296 648.328 714.406C648.328 712.516 646.858 711.06 644.842 711.06ZM644.814 715.848H643.568V712.964H644.814C645.738 712.964 646.354 713.594 646.354 714.406C646.354 715.218 645.738 715.848 644.814 715.848ZM649.388 721H651.488L652.454 718.732H656.682L657.648 721H659.776L655.478 711.06H653.672L649.388 721ZM653.196 716.954L654.568 713.72L655.94 716.954H653.196ZM662.185 721H668.471V719.068H664.215V711.06H662.185V721ZM671.195 721H677.383V719.068H673.225V716.968H676.543V715.036H673.225V712.992H677.383V711.06H671.195V721ZM682.286 721H684.33V712.992H687.004V711.06H679.64V712.992H682.286V721ZM691.544 721H693.588V712.992H696.262V711.06H688.898V712.992H691.544V721ZM698.967 721H705.155V719.068H700.997V716.968H704.315V715.036H700.997V712.992H705.155V711.06H698.967V721Z" fill="#5C6C75"/>
<path d="M590.106 266H596.392V264.068H592.136V256.06H590.106V266ZM599.117 266H601.147V256.06H599.117V266ZM604.081 261.03C604.081 263.914 606.279 266.168 609.317 266.168C612.271 266.168 614.665 264.138 614.217 260.05H609.079V261.954H612.117C611.893 263.326 610.927 264.208 609.317 264.208C607.385 264.208 606.125 262.808 606.125 261.03C606.125 259.252 607.385 257.852 609.289 257.852C610.241 257.852 611.165 258.272 611.655 259H613.979C613.307 257.124 611.375 255.892 609.289 255.892C606.279 255.892 604.081 258.146 604.081 261.03ZM617.221 266H619.251V261.954H623.563V266H625.593V256.06H623.563V260.022H619.251V256.06H617.221V266ZM630.937 266H632.981V257.992H635.655V256.06H628.291V257.992H630.937V266ZM637.027 263.004H641.031V261.156H637.027V263.004ZM644.66 266H646.578V256.06H643.96L642.56 257.95H644.66V266Z" fill="#5C6C75"/>
<path d="M882.918 266H884.822L887.216 256.06H885.06L883.548 262.668L880.734 255.892L877.92 262.668L876.408 256.06H874.252L876.646 266H878.55L880.734 260.722L882.918 266ZM889.859 266H891.889V261.954H896.201V266H898.231V256.06H896.201V260.022H891.889V256.06H889.859V266ZM901.741 266H903.771V256.06H901.741V266ZM909.113 266H911.157V257.992H913.831V256.06H906.467V257.992H909.113V266ZM916.536 266H922.724V264.068H918.566V261.968H921.884V260.036H918.566V257.992H922.724V256.06H916.536V266Z" fill="#5C6C75"/>
<path d="M214.106 266H217.382C220.238 266 222.492 263.802 222.492 261.03C222.492 258.258 220.238 256.06 217.382 256.06H214.106V266ZM216.136 264.138V257.922H217.382C219.216 257.922 220.448 259.308 220.448 261.03C220.448 262.752 219.216 264.138 217.382 264.138H216.136ZM223.898 266H225.998L226.964 263.732H231.192L232.158 266H234.286L229.988 256.06H228.182L223.898 266ZM227.706 261.954L229.078 258.72L230.45 261.954H227.706ZM236.694 266H238.724V261.814H239.228L242.63 266H245.08L241.51 261.59C242.826 261.17 243.554 260.33 243.554 259C243.554 257.348 242.364 256.06 240.502 256.06H236.694V266ZM238.724 260.078V257.922H240.264C241.02 257.922 241.538 258.314 241.538 259C241.538 259.672 241.02 260.078 240.264 260.078H238.724ZM247.182 266H249.198V261.478L253.51 266H256.142L251.2 260.834L255.288 256.06H252.782L249.198 260.26V256.06H247.182V266ZM257.225 263.004H261.229V261.156H257.225V263.004ZM270.962 263.172C270.962 262.052 270.318 261.268 269.576 260.918C270.15 260.526 270.682 259.742 270.682 258.776C270.682 257.194 269.506 255.892 267.462 255.892C265.712 255.892 264.004 257.11 264.004 259.182H265.936C265.922 258.37 266.566 257.782 267.462 257.782C268.19 257.782 268.764 258.244 268.75 258.93C268.736 259.63 268.246 260.12 267.322 260.12H266.566V261.688H267.406C268.386 261.688 269.03 262.192 269.03 263.018C269.016 263.774 268.386 264.264 267.518 264.264C266.538 264.264 265.824 263.746 265.726 262.78H263.822C263.892 264.964 265.628 266.154 267.518 266.154C269.576 266.154 270.962 264.922 270.962 263.172Z" fill="#5C6C75"/>
<path d="M120.106 266H123.382C126.238 266 128.492 263.802 128.492 261.03C128.492 258.258 126.238 256.06 123.382 256.06H120.106V266ZM122.136 264.138V257.922H123.382C125.216 257.922 126.448 259.308 126.448 261.03C126.448 262.752 125.216 264.138 123.382 264.138H122.136ZM129.898 266H131.998L132.964 263.732H137.192L138.158 266H140.286L135.988 256.06H134.182L129.898 266ZM133.706 261.954L135.078 258.72L136.45 261.954H133.706ZM142.694 266H144.724V261.814H145.228L148.63 266H151.08L147.51 261.59C148.826 261.17 149.554 260.33 149.554 259C149.554 257.348 148.364 256.06 146.502 256.06H142.694V266ZM144.724 260.078V257.922H146.264C147.02 257.922 147.538 258.314 147.538 259C147.538 259.672 147.02 260.078 146.264 260.078H144.724ZM153.182 266H155.198V261.478L159.51 266H162.142L157.2 260.834L161.288 256.06H158.782L155.198 260.26V256.06H153.182V266ZM163.225 263.004H167.229V261.156H163.225V263.004ZM174.526 266H176.444V263.732H177.746V261.968H176.444V256.06H174.736L169.584 262.178V263.732H174.526V266ZM174.526 261.968H171.95L174.526 258.902V261.968Z" fill="#5C6C75"/>
<path d="M505.106 266H509.306C511.07 266 512.386 264.726 512.386 263.074C512.386 261.954 511.784 261.142 510.916 260.722C511.392 260.302 511.7 259.7 511.7 258.944C511.7 257.362 510.412 256.06 508.746 256.06H505.106V266ZM507.136 260.134V257.908H508.55C509.25 257.908 509.726 258.426 509.726 259.028C509.726 259.644 509.25 260.134 508.55 260.134H507.136ZM507.136 264.138V261.856H509.166C509.922 261.856 510.412 262.36 510.412 263.004C510.412 263.648 509.922 264.138 509.166 264.138H507.136ZM513.941 266H516.041L517.007 263.732H521.235L522.201 266H524.329L520.031 256.06H518.225L513.941 266ZM517.749 261.954L519.121 258.72L520.493 261.954H517.749ZM525.779 262.92C525.863 264.558 527.221 266.168 529.601 266.168C531.687 266.168 533.059 264.908 533.059 263.214C533.059 261.674 532.093 260.652 530.483 260.204L529.321 259.882C528.509 259.644 528.061 259.308 528.075 258.692C528.089 258.104 528.649 257.768 529.363 257.768C529.951 257.768 530.609 258.076 530.833 258.916H532.849C532.779 257.432 531.505 255.892 529.363 255.892C527.375 255.892 526.017 256.998 526.031 258.832C526.045 260.344 527.067 261.324 528.635 261.772L529.685 262.08C530.637 262.346 531.015 262.752 531.015 263.284C531.015 263.914 530.413 264.292 529.601 264.292C528.719 264.292 527.949 263.816 527.809 262.92H525.779ZM536.008 266H542.196V264.068H538.038V261.968H541.356V260.036H538.038V257.992H542.196V256.06H536.008V266Z" fill="#5C6C75"/>
<path d="M683.106 266H689.392V264.068H685.136V256.06H683.106V266ZM692.117 266H694.147V256.06H692.117V266ZM697.081 261.03C697.081 263.914 699.279 266.168 702.317 266.168C705.271 266.168 707.665 264.138 707.217 260.05H702.079V261.954H705.117C704.893 263.326 703.927 264.208 702.317 264.208C700.385 264.208 699.125 262.808 699.125 261.03C699.125 259.252 700.385 257.852 702.289 257.852C703.241 257.852 704.165 258.272 704.655 259H706.979C706.307 257.124 704.375 255.892 702.289 255.892C699.279 255.892 697.081 258.146 697.081 261.03ZM710.221 266H712.251V261.954H716.563V266H718.593V256.06H716.563V260.022H712.251V256.06H710.221V266ZM723.937 266H725.981V257.992H728.655V256.06H721.291V257.992H723.937V266ZM730.027 263.004H734.031V261.156H730.027V263.004ZM743.211 264.11H739.095C739.361 263.466 740.411 262.92 741.027 262.458C742.287 261.534 743.127 260.666 743.127 258.958C743.127 256.928 741.615 255.892 739.935 255.892C737.961 255.892 736.463 257.236 736.463 259.182H738.395C738.381 258.384 739.011 257.782 739.893 257.782C740.747 257.782 741.209 258.342 741.209 259.07C741.209 259.882 740.509 260.498 739.641 261.114C738.185 262.164 736.435 263.116 736.435 265.342V266H743.211V264.11Z" fill="#5C6C75"/>
<path d="M776.106 266H782.392V264.068H778.136V256.06H776.106V266ZM785.117 266H787.147V256.06H785.117V266ZM790.081 261.03C790.081 263.914 792.279 266.168 795.317 266.168C798.271 266.168 800.665 264.138 800.217 260.05H795.079V261.954H798.117C797.893 263.326 796.927 264.208 795.317 264.208C793.385 264.208 792.125 262.808 792.125 261.03C792.125 259.252 793.385 257.852 795.289 257.852C796.241 257.852 797.165 258.272 797.655 259H799.979C799.307 257.124 797.375 255.892 795.289 255.892C792.279 255.892 790.081 258.146 790.081 261.03ZM803.221 266H805.251V261.954H809.563V266H811.593V256.06H809.563V260.022H805.251V256.06H803.221V266ZM816.937 266H818.981V257.992H821.655V256.06H814.291V257.992H816.937V266ZM823.027 263.004H827.031V261.156H823.027V263.004ZM836.764 263.172C836.764 262.052 836.12 261.268 835.378 260.918C835.952 260.526 836.484 259.742 836.484 258.776C836.484 257.194 835.308 255.892 833.264 255.892C831.514 255.892 829.806 257.11 829.806 259.182H831.738C831.724 258.37 832.368 257.782 833.264 257.782C833.992 257.782 834.566 258.244 834.552 258.93C834.538 259.63 834.048 260.12 833.124 260.12H832.368V261.688H833.208C834.188 261.688 834.832 262.192 834.832 263.018C834.818 263.774 834.188 264.264 833.32 264.264C832.34 264.264 831.626 263.746 831.528 262.78H829.624C829.694 264.964 831.43 266.154 833.32 266.154C835.378 266.154 836.764 264.922 836.764 263.172Z" fill="#5C6C75"/>
<path d="M563 342H485C483.343 342 482 343.343 482 345V386C482 387.657 483.343 389 485 389H563C564.657 389 566 387.657 566 386V345C566 343.343 564.657 342 563 342Z" fill="#00ED64"/>
<path d="M375 342H297C295.343 342 294 343.343 294 345V386C294 387.657 295.343 389 297 389H375C376.657 389 378 387.657 378 386V345C378 343.343 376.657 342 375 342Z" fill="#00684A"/>
<path d="M469 342H391C389.343 342 388 343.343 388 345V386C388 387.657 389.343 389 391 389H469C470.657 389 472 387.657 472 386V345C472 343.343 470.657 342 469 342Z" fill="#00A35C"/>
<path d="M281 342H203C201.343 342 200 343.343 200 345V386C200 387.657 201.343 389 203 389H281C282.657 389 284 387.657 284 386V345C284 343.343 282.657 342 281 342Z" fill="#023430"/>
<path d="M93 285H15C13.3431 285 12 286.343 12 288V329C12 330.657 13.3431 332 15 332H93C94.6569 332 96 330.657 96 329V288C96 286.343 94.6569 285 93 285Z" fill="#001E2B"/>
<path d="M281 285H203C201.343 285 200 286.343 200 288V329C200 330.657 201.343 332 203 332H281C282.657 332 284 330.657 284 329V288C284 286.343 282.657 285 281 285Z" fill="#1C2D38"/>
<path d="M187 285H109C107.343 285 106 286.343 106 288V329C106 330.657 107.343 332 109 332H187C188.657 332 190 330.657 190 329V288C190 286.343 188.657 285 187 285Z" fill="#112733"/>
<path d="M375 285H297C295.343 285 294 286.343 294 288V329C294 330.657 295.343 332 297 332H375C376.657 332 378 330.657 378 329V288C378 286.343 376.657 285 375 285Z" fill="#3D4F58"/>
<path d="M469 285H391C389.343 285 388 286.343 388 288V329C388 330.657 389.343 332 391 332H469C470.657 332 472 330.657 472 329V288C472 286.343 470.657 285 469 285Z" fill="#5C6C75"/>
<path d="M563 285H485C483.343 285 482 286.343 482 288V329C482 330.657 483.343 332 485 332H563C564.657 332 566 330.657 566 329V288C566 286.343 564.657 285 563 285Z" fill="#889397"/>
<path d="M657 285H579C577.343 285 576 286.343 576 288V329C576 330.657 577.343 332 579 332H657C658.657 332 660 330.657 660 329V288C660 286.343 658.657 285 657 285Z" fill="#C1C7C6"/>
<path d="M751 285H673C671.343 285 670 286.343 670 288V329C670 330.657 671.343 332 673 332H751C752.657 332 754 330.657 754 329V288C754 286.343 752.657 285 751 285Z" fill="#E8EDEB"/>
<path d="M845 285H767C765.343 285 764 286.343 764 288V329C764 330.657 765.343 332 767 332H845C846.657 332 848 330.657 848 329V288C848 286.343 846.657 285 845 285Z" fill="#F9FBFA"/>
<path d="M845 342H767C765.343 342 764 343.343 764 345V386C764 387.657 765.343 389 767 389H845C846.657 389 848 387.657 848 386V345C848 343.343 846.657 342 845 342Z" fill="#E3FCF7"/>
<path d="M751 342H673C671.343 342 670 343.343 670 345V386C670 387.657 671.343 389 673 389H751C752.657 389 754 387.657 754 386V345C754 343.343 752.657 342 751 342Z" fill="#C0FAE6"/>
<path d="M657 342H579C577.343 342 576 343.343 576 345V386C576 387.657 577.343 389 579 389H657C658.657 389 660 387.657 660 386V345C660 343.343 658.657 342 657 342Z" fill="#71F6BA"/>
<path d="M845 399H767C765.343 399 764 400.343 764 402V443C764 444.657 765.343 446 767 446H845C846.657 446 848 444.657 848 443V402C848 400.343 846.657 399 845 399Z" fill="#F9EBFF"/>
<path d="M845 456H767C765.343 456 764 457.343 764 459V500C764 501.657 765.343 503 767 503H845C846.657 503 848 501.657 848 500V459C848 457.343 846.657 456 845 456Z" fill="#E1F7FF"/>
<path d="M845 513H767C765.343 513 764 514.343 764 516V557C764 558.657 765.343 560 767 560H845C846.657 560 848 558.657 848 557V516C848 514.343 846.657 513 845 513Z" fill="#FEF7DB"/>
<path d="M845 570H767C765.343 570 764 571.343 764 573V614C764 615.657 765.343 617 767 617H845C846.657 617 848 615.657 848 614V573C848 571.343 846.657 570 845 570Z" fill="#FFEAE6"/>
<path d="M751 399H673C671.343 399 670 400.343 670 402V443C670 444.657 671.343 446 673 446H751C752.657 446 754 444.657 754 443V402C754 400.343 752.657 399 751 399Z" fill="#F1D4FD"/>
<path d="M751 456H673C671.343 456 670 457.343 670 459V500C670 501.657 671.343 503 673 503H751C752.657 503 754 501.657 754 500V459C754 457.343 752.657 456 751 456Z" fill="#C3E7FE"/>
<path d="M751 513H673C671.343 513 670 514.343 670 516V557C670 558.657 671.343 560 673 560H751C752.657 560 754 558.657 754 557V516C754 514.343 752.657 513 751 513Z" fill="#FFEC9E"/>
<path d="M751 570H673C671.343 570 670 571.343 670 573V614C670 615.657 671.343 617 673 617H751C752.657 617 754 615.657 754 614V573C754 571.343 752.657 570 751 570Z" fill="#FFCDC7"/>
<path d="M281 399H203C201.343 399 200 400.343 200 402V443C200 444.657 201.343 446 203 446H281C282.657 446 284 444.657 284 443V402C284 400.343 282.657 399 281 399Z" fill="#2D0B59"/>
<path d="M281 456H203C201.343 456 200 457.343 200 459V500C200 501.657 201.343 503 203 503H281C282.657 503 284 501.657 284 500V459C284 457.343 282.657 456 281 456Z" fill="#0C2657"/>
<path d="M281 513H203C201.343 513 200 514.343 200 516V557C200 558.657 201.343 560 203 560H281C282.657 560 284 558.657 284 557V516C284 514.343 282.657 513 281 513Z" fill="#4C2100"/>
<path d="M281 570H203C201.343 570 200 571.343 200 573V614C200 615.657 201.343 617 203 617H281C282.657 617 284 615.657 284 614V573C284 571.343 282.657 570 281 570Z" fill="#5B0000"/>
<path d="M469 456H391C389.343 456 388 457.343 388 459V500C388 501.657 389.343 503 391 503H469C470.657 503 472 501.657 472 500V459C472 457.343 470.657 456 469 456Z" fill="#1254B7"/>
<path d="M375 399H297C295.343 399 294 400.343 294 402V443C294 444.657 295.343 446 297 446H375C376.657 446 378 444.657 378 443V402C378 400.343 376.657 399 375 399Z" fill="#5E0C9E"/>
<path d="M375 456H297C295.343 456 294 457.343 294 459V500C294 501.657 295.343 503 297 503H375C376.657 503 378 501.657 378 500V459C378 457.343 376.657 456 375 456Z" fill="#083C90"/>
<path d="M375 513H297C295.343 513 294 514.343 294 516V557C294 558.657 295.343 560 297 560H375C376.657 560 378 558.657 378 557V516C378 514.343 376.657 513 375 513Z" fill="#944F01"/>
<path d="M375 570H297C295.343 570 294 571.343 294 573V614C294 615.657 295.343 617 297 617H375C376.657 617 378 615.657 378 614V573C378 571.343 376.657 570 375 570Z" fill="#970606"/>
<path d="M563 399H485C483.343 399 482 400.343 482 402V443C482 444.657 483.343 446 485 446H563C564.657 446 566 444.657 566 443V402C566 400.343 564.657 399 563 399Z" fill="#B45AF2"/>
<path d="M563 456H485C483.343 456 482 457.343 482 459V500C482 501.657 483.343 503 485 503H563C564.657 503 566 501.657 566 500V459C566 457.343 564.657 456 563 456Z" fill="#016BF8"/>
<path d="M563 513H485C483.343 513 482 514.343 482 516V557C482 558.657 483.343 560 485 560H563C564.657 560 566 558.657 566 557V516C566 514.343 564.657 513 563 513Z" fill="#FFC010"/>
<path d="M563 570H485C483.343 570 482 571.343 482 573V614C482 615.657 483.343 617 485 617H563C564.657 617 566 615.657 566 614V573C566 571.343 564.657 570 563 570Z" fill="#DB3030"/>
<path d="M657 570H579C577.343 570 576 571.343 576 573V614C576 615.657 577.343 617 579 617H657C658.657 617 660 615.657 660 614V573C660 571.343 658.657 570 657 570Z" fill="#FF6960"/>
<path d="M657 456H579C577.343 456 576 457.343 576 459V500C576 501.657 577.343 503 579 503H657C658.657 503 660 501.657 660 500V459C660 457.343 658.657 456 657 456Z" fill="#0498EC"/>
<path d="M861 285.5H938C939.381 285.5 940.5 286.619 940.5 288V329C940.5 330.381 939.381 331.5 938 331.5H861C859.619 331.5 858.5 330.381 858.5 329V288C858.5 286.619 859.619 285.5 861 285.5Z" fill="white" stroke="#B8C4C2"/>
<path d="M376.307 375.665C376.564 375.049 377.436 375.049 377.692 375.665L379.998 381.208C380.106 381.468 380.35 381.646 380.631 381.668L386.615 382.148C387.28 382.201 387.55 383.031 387.043 383.465L382.483 387.371C382.27 387.554 382.177 387.841 382.242 388.114L383.635 393.954C383.79 394.603 383.084 395.116 382.515 394.768L377.391 391.639C377.151 391.492 376.849 391.492 376.609 391.639L371.485 394.768C370.916 395.116 370.21 394.603 370.365 393.954L371.758 388.114C371.823 387.841 371.73 387.554 371.516 387.371L366.957 383.465C366.45 383.031 366.72 382.201 367.385 382.148L373.369 381.668C373.65 381.646 373.894 381.468 374.002 381.208L376.307 375.665Z" fill="#FFC010"/>
<path d="M283.307 375.665C283.564 375.049 284.436 375.049 284.692 375.665L286.998 381.208C287.106 381.468 287.35 381.646 287.631 381.668L293.615 382.148C294.28 382.201 294.55 383.031 294.043 383.465L289.483 387.371C289.27 387.554 289.177 387.841 289.242 388.114L290.635 393.954C290.79 394.603 290.084 395.116 289.515 394.768L284.391 391.639C284.151 391.492 283.849 391.492 283.609 391.639L278.485 394.768C277.916 395.116 277.21 394.603 277.365 393.954L278.758 388.114C278.823 387.841 278.73 387.554 278.516 387.371L273.957 383.465C273.45 383.031 273.72 382.201 274.385 382.148L280.369 381.668C280.65 381.646 280.894 381.468 281.002 381.208L283.307 375.665Z" fill="#FFC010"/>
<path d="M94.3074 318.665C94.5636 318.049 95.4362 318.049 95.6924 318.665L97.998 324.208C98.106 324.468 98.3502 324.646 98.6305 324.668L104.615 325.148C105.28 325.201 105.55 326.031 105.043 326.465L100.483 330.371C100.27 330.554 100.177 330.841 100.242 331.114L101.635 336.954C101.79 337.603 101.084 338.116 100.515 337.768L95.3908 334.639C95.1508 334.492 94.849 334.492 94.609 334.639L89.4853 337.768C88.916 338.116 88.2101 337.603 88.3649 336.954L89.7579 331.114C89.8232 330.841 89.7299 330.554 89.5163 330.371L84.9567 326.465C84.45 326.031 84.7197 325.201 85.3847 325.148L91.3692 324.668C91.6496 324.646 91.8938 324.468 92.0018 324.208L94.3074 318.665Z" fill="#FFC010"/>
<path d="M565.307 375.665C565.564 375.049 566.436 375.049 566.692 375.665L568.998 381.208C569.106 381.468 569.35 381.646 569.631 381.668L575.615 382.148C576.28 382.201 576.55 383.031 576.043 383.465L571.483 387.371C571.27 387.554 571.177 387.841 571.242 388.114L572.635 393.954C572.79 394.603 572.084 395.116 571.515 394.768L566.391 391.639C566.151 391.492 565.849 391.492 565.609 391.639L560.485 394.768C559.916 395.116 559.21 394.603 559.365 393.954L560.758 388.114C560.823 387.841 560.73 387.554 560.516 387.371L555.957 383.465C555.45 383.031 555.72 382.201 556.385 382.148L562.369 381.668C562.65 381.646 562.894 381.468 563.002 381.208L565.307 375.665Z" fill="#FFC010"/>
<path d="M847.307 375.665C847.564 375.049 848.436 375.049 848.692 375.665L850.998 381.208C851.106 381.468 851.35 381.646 851.631 381.668L857.615 382.148C858.28 382.201 858.55 383.031 858.043 383.465L853.483 387.371C853.27 387.554 853.177 387.841 853.242 388.114L854.635 393.954C854.79 394.603 854.084 395.116 853.515 394.768L848.391 391.639C848.151 391.492 847.849 391.492 847.609 391.639L842.485 394.768C841.916 395.116 841.21 394.603 841.365 393.954L842.758 388.114C842.823 387.841 842.73 387.554 842.516 387.371L837.957 383.465C837.45 383.031 837.72 382.201 838.385 382.148L844.369 381.668C844.65 381.646 844.894 381.468 845.002 381.208L847.307 375.665Z" fill="#FFC010"/>
<path d="M927.307 318.665C927.564 318.049 928.436 318.049 928.692 318.665L930.998 324.208C931.106 324.468 931.35 324.646 931.631 324.668L937.615 325.148C938.28 325.201 938.55 326.031 938.043 326.465L933.483 330.371C933.27 330.554 933.177 330.841 933.242 331.114L934.635 336.954C934.79 337.603 934.084 338.116 933.515 337.768L928.391 334.639C928.151 334.492 927.849 334.492 927.609 334.639L922.485 337.768C921.916 338.116 921.21 337.603 921.365 336.954L922.758 331.114C922.823 330.841 922.73 330.554 922.516 330.371L917.957 326.465C917.45 326.031 917.72 325.201 918.385 325.148L924.369 324.668C924.65 324.646 924.894 324.468 925.002 324.208L927.307 318.665Z" fill="#FFC010"/>
<path d="M565.307 433.665C565.564 433.049 566.436 433.049 566.692 433.665L568.998 439.208C569.106 439.468 569.35 439.646 569.631 439.668L575.615 440.148C576.28 440.201 576.55 441.031 576.043 441.465L571.483 445.371C571.27 445.554 571.177 445.841 571.242 446.114L572.635 451.954C572.79 452.603 572.084 453.116 571.515 452.768L566.391 449.639C566.151 449.492 565.849 449.492 565.609 449.639L560.485 452.768C559.916 453.116 559.21 452.603 559.365 451.954L560.758 446.114C560.823 445.841 560.73 445.554 560.516 445.371L555.957 441.465C555.45 441.031 555.72 440.201 556.385 440.148L562.369 439.668C562.65 439.646 562.894 439.468 563.002 439.208L565.307 433.665Z" fill="#FFC010"/>
<path d="M847.307 433.665C847.564 433.049 848.436 433.049 848.692 433.665L850.998 439.208C851.106 439.468 851.35 439.646 851.631 439.668L857.615 440.148C858.28 440.201 858.55 441.031 858.043 441.465L853.483 445.371C853.27 445.554 853.177 445.841 853.242 446.114L854.635 451.954C854.79 452.603 854.084 453.116 853.515 452.768L848.391 449.639C848.151 449.492 847.849 449.492 847.609 449.639L842.485 452.768C841.916 453.116 841.21 452.603 841.365 451.954L842.758 446.114C842.823 445.841 842.73 445.554 842.516 445.371L837.957 441.465C837.45 441.031 837.72 440.201 838.385 440.148L844.369 439.668C844.65 439.646 844.894 439.468 845.002 439.208L847.307 433.665Z" fill="#FFC010"/>
<path d="M565.307 549.665C565.564 549.049 566.436 549.049 566.692 549.665L568.998 555.208C569.106 555.468 569.35 555.646 569.631 555.668L575.615 556.148C576.28 556.201 576.55 557.031 576.043 557.465L571.483 561.371C571.27 561.554 571.177 561.841 571.242 562.114L572.635 567.954C572.79 568.603 572.084 569.116 571.515 568.768L566.391 565.639C566.151 565.492 565.849 565.492 565.609 565.639L560.485 568.768C559.916 569.116 559.21 568.603 559.365 567.954L560.758 562.114C560.823 561.841 560.73 561.554 560.516 561.371L555.957 557.465C555.45 557.031 555.72 556.201 556.385 556.148L562.369 555.668C562.65 555.646 562.894 555.468 563.002 555.208L565.307 549.665Z" fill="#FFC010"/>
<path d="M335.307 676.665C335.564 676.049 336.436 676.049 336.692 676.665L338.998 682.208C339.106 682.468 339.35 682.646 339.631 682.668L345.615 683.148C346.28 683.201 346.55 684.031 346.043 684.465L341.483 688.371C341.27 688.554 341.177 688.841 341.242 689.114L342.635 694.954C342.79 695.603 342.084 696.116 341.515 695.768L336.391 692.639C336.151 692.492 335.849 692.492 335.609 692.639L330.485 695.768C329.916 696.116 329.21 695.603 329.365 694.954L330.758 689.114C330.823 688.841 330.73 688.554 330.516 688.371L325.957 684.465C325.45 684.031 325.72 683.201 326.385 683.148L332.369 682.668C332.65 682.646 332.894 682.468 333.002 682.208L335.307 676.665Z" fill="#FFC010"/>
<path d="M336.041 709.5C339.415 709.5 342.229 711.647 342.875 714.5L344.643 714.5C345.319 714.5 345.633 715.34 345.121 715.783L342.019 718.469C341.745 718.707 341.337 718.707 341.063 718.469L337.961 715.783C337.449 715.34 337.762 714.5 338.439 714.5H340.247C339.661 713.143 338.146 712 336.041 712C334.758 712 333.695 712.424 332.927 713.063C332.623 713.316 332.155 713.316 331.907 713.009L331.144 712.066C330.944 711.819 330.959 711.46 331.199 711.252C332.453 710.167 334.16 709.5 336.041 709.5Z" fill="#016BF8"/>
<path d="M330.937 715.553C330.663 715.316 330.255 715.316 329.981 715.553L326.879 718.24C326.367 718.683 326.681 719.523 327.357 719.523H329.13C329.786 722.364 332.594 724.5 335.959 724.5C337.84 724.5 339.547 723.833 340.801 722.748C341.041 722.54 341.056 722.181 340.856 721.934L340.093 720.991C339.845 720.684 339.377 720.684 339.073 720.937C338.305 721.576 337.242 722 335.959 722C333.865 722 332.356 720.869 331.763 719.523H333.561C334.238 719.523 334.551 718.683 334.039 718.24L330.937 715.553Z" fill="#016BF8"/>
<path d="M846.041 321.5C849.415 321.5 852.229 323.647 852.875 326.5L854.643 326.5C855.319 326.5 855.633 327.34 855.121 327.783L852.019 330.469C851.745 330.707 851.337 330.707 851.063 330.469L847.961 327.783C847.449 327.34 847.762 326.5 848.439 326.5H850.247C849.661 325.143 848.146 324 846.041 324C844.758 324 843.695 324.424 842.927 325.063C842.623 325.316 842.155 325.316 841.907 325.009L841.144 324.066C840.944 323.819 840.959 323.46 841.199 323.252C842.453 322.167 844.16 321.5 846.041 321.5Z" fill="#016BF8"/>
<path d="M840.937 327.553C840.663 327.316 840.255 327.316 839.981 327.553L836.879 330.24C836.367 330.683 836.681 331.523 837.357 331.523H839.13C839.786 334.364 842.594 336.5 845.959 336.5C847.84 336.5 849.547 335.833 850.801 334.748C851.041 334.54 851.056 334.181 850.856 333.934L850.093 332.991C849.845 332.684 849.377 332.684 849.073 332.937C848.305 333.576 847.242 334 845.959 334C843.865 334 842.356 332.869 841.763 331.523H843.561C844.238 331.523 844.551 330.683 844.039 330.24L840.937 327.553Z" fill="#016BF8"/>
<path d="M376.041 321.5C379.415 321.5 382.229 323.647 382.875 326.5L384.643 326.5C385.319 326.5 385.633 327.34 385.121 327.783L382.019 330.469C381.745 330.707 381.337 330.707 381.063 330.469L377.961 327.783C377.449 327.34 377.762 326.5 378.439 326.5H380.247C379.661 325.143 378.146 324 376.041 324C374.758 324 373.695 324.424 372.927 325.063C372.623 325.316 372.155 325.316 371.907 325.009L371.144 324.066C370.944 323.819 370.959 323.46 371.199 323.252C372.453 322.167 374.16 321.5 376.041 321.5Z" fill="#016BF8"/>
<path d="M370.937 327.553C370.663 327.316 370.255 327.316 369.981 327.553L366.879 330.24C366.367 330.683 366.681 331.523 367.357 331.523H369.13C369.786 334.364 372.594 336.5 375.959 336.5C377.84 336.5 379.547 335.833 380.801 334.748C381.041 334.54 381.056 334.181 380.856 333.934L380.093 332.991C379.845 332.684 379.377 332.684 379.073 332.937C378.305 333.576 377.242 334 375.959 334C373.865 334 372.356 332.869 371.763 331.523H373.561C374.238 331.523 374.551 330.683 374.039 330.24L370.937 327.553Z" fill="#016BF8"/>
<path d="M948.041 321.5C951.415 321.5 954.229 323.647 954.875 326.5L956.643 326.5C957.319 326.5 957.633 327.34 957.121 327.783L954.019 330.469C953.745 330.707 953.337 330.707 953.063 330.469L949.961 327.783C949.449 327.34 949.762 326.5 950.439 326.5H952.247C951.661 325.143 950.146 324 948.041 324C946.758 324 945.695 324.424 944.927 325.063C944.623 325.316 944.155 325.316 943.907 325.009L943.144 324.066C942.944 323.819 942.959 323.46 943.199 323.252C944.453 322.167 946.16 321.5 948.041 321.5Z" fill="#016BF8"/>
<path d="M942.937 327.553C942.663 327.316 942.255 327.316 941.981 327.553L938.879 330.24C938.367 330.683 938.681 331.523 939.357 331.523H941.13C941.786 334.364 944.594 336.5 947.959 336.5C949.84 336.5 951.547 335.833 952.801 334.748C953.041 334.54 953.056 334.181 952.856 333.934L952.093 332.991C951.845 332.684 951.377 332.684 951.073 332.937C950.305 333.576 949.242 334 947.959 334C945.865 334 944.356 332.869 943.763 331.523H945.561C946.238 331.523 946.551 330.683 946.039 330.24L942.937 327.553Z" fill="#016BF8"/>
</svg>
