<svg width="371" height="78" viewBox="0 0 371 78" fill="none" xmlns="http://www.w3.org/2000/svg">
<path d="M0.494 10.385C0.494 13.063 2.535 15.156 5.33 15.156C7.423 15.156 9.295 13.817 9.802 11.854H7.761C7.371 12.777 6.37 13.336 5.33 13.336C3.562 13.336 2.392 12.036 2.392 10.385C2.392 8.734 3.562 7.434 5.33 7.434C6.37 7.434 7.371 7.993 7.761 8.916H9.802C9.295 6.953 7.423 5.614 5.33 5.614C2.535 5.614 0.494 7.707 0.494 10.385ZM11.0016 15H12.7826V11.828C12.7826 10.58 13.4066 9.982 14.2256 9.982C14.9666 9.982 15.3696 10.554 15.3696 11.49V15H17.1506V11.191C17.1506 9.501 16.2146 8.357 14.6416 8.357C13.7966 8.357 13.1206 8.721 12.7826 9.241V5.25H11.0016V15ZM25.1928 11.75C25.1928 9.852 23.6588 8.357 21.7738 8.357C19.8888 8.357 18.3548 9.852 18.3548 11.75C18.3548 13.648 19.8888 15.143 21.7738 15.143C23.6588 15.143 25.1928 13.648 25.1928 11.75ZM20.1488 11.75C20.1488 10.749 20.8378 10.021 21.7738 10.021C22.7098 10.021 23.3858 10.749 23.3858 11.75C23.3858 12.751 22.7098 13.479 21.7738 13.479C20.8378 13.479 20.1488 12.751 20.1488 11.75ZM32.8861 11.75C32.8861 9.852 31.3521 8.357 29.4671 8.357C27.5821 8.357 26.0481 9.852 26.0481 11.75C26.0481 13.648 27.5821 15.143 29.4671 15.143C31.3521 15.143 32.8861 13.648 32.8861 11.75ZM27.8421 11.75C27.8421 10.749 28.5311 10.021 29.4671 10.021C30.4031 10.021 31.0791 10.749 31.0791 11.75C31.0791 12.751 30.4031 13.479 29.4671 13.479C28.5311 13.479 27.8421 12.751 27.8421 11.75ZM39.3965 13.167C39.3965 12.153 38.8635 11.477 37.5895 11.152L36.4455 10.84C36.0555 10.749 35.7045 10.606 35.7045 10.242C35.7045 9.93 36.0165 9.748 36.4715 9.748C36.8615 9.748 37.2385 9.917 37.3295 10.411H39.1235C39.0195 9.111 37.9275 8.357 36.4975 8.357C34.8725 8.357 33.8845 9.163 33.8845 10.281C33.8845 11.23 34.4045 12.01 35.5355 12.296L36.7575 12.608C37.3295 12.751 37.5765 12.92 37.5765 13.258C37.5765 13.57 37.2905 13.778 36.7315 13.778C36.1595 13.778 35.6655 13.505 35.6005 12.933H33.7415C33.8065 14.207 35.0025 15.143 36.6795 15.143C38.2525 15.143 39.3965 14.389 39.3965 13.167ZM47.0012 12.881H45.1422C44.9342 13.323 44.3882 13.596 43.7642 13.596C42.6592 13.596 42.0872 12.933 42.0092 12.166H47.0792C47.1702 9.722 45.5972 8.357 43.6862 8.357C41.7102 8.357 40.2672 9.8 40.2672 11.737C40.2672 13.713 41.6842 15.143 43.6732 15.143C45.3242 15.143 46.6112 14.194 47.0012 12.881ZM43.6342 9.8C44.2452 9.8 44.9082 10.125 45.1292 10.996H42.0742C42.2432 10.281 42.8152 9.8 43.6342 9.8ZM53.4999 17.717L57.5819 8.5H55.6189L53.8899 12.712L52.1479 8.5H50.1979L52.9279 14.636L51.5629 17.717H53.4999ZM64.6498 11.75C64.6498 9.852 63.1158 8.357 61.2308 8.357C59.3458 8.357 57.8118 9.852 57.8118 11.75C57.8118 13.648 59.3458 15.143 61.2308 15.143C63.1158 15.143 64.6498 13.648 64.6498 11.75ZM59.6058 11.75C59.6058 10.749 60.2948 10.021 61.2308 10.021C62.1668 10.021 62.8428 10.749 62.8428 11.75C62.8428 12.751 62.1668 13.479 61.2308 13.479C60.2948 13.479 59.6058 12.751 59.6058 11.75ZM65.8562 12.27C65.8562 13.999 66.7272 15.143 68.3002 15.143C69.1322 15.143 69.7432 14.779 70.0812 14.259V15H71.8622V8.5H70.0812V11.672C70.0812 12.933 69.5352 13.518 68.7422 13.518C67.9752 13.518 67.6372 12.946 67.6372 11.971V8.5H65.8562V12.27ZM73.5767 15H75.3578V11.893C75.3578 10.827 75.9168 10.164 76.7618 10.164C77.0478 10.164 77.2948 10.216 77.5678 10.307V8.5C77.3468 8.435 77.1518 8.422 76.9698 8.422C76.2418 8.422 75.5788 8.903 75.3578 9.54V8.5H73.5767V15ZM80.9557 11.75C80.9557 13.596 82.2817 15.143 84.0107 15.143C84.9077 15.143 85.5967 14.688 85.8827 14.272V15H87.6637V8.5H85.8827V9.228C85.5967 8.812 84.9077 8.357 84.0107 8.357C82.2817 8.357 80.9557 9.904 80.9557 11.75ZM86.0257 11.75C86.0257 12.764 85.3627 13.518 84.3877 13.518C83.4127 13.518 82.7497 12.764 82.7497 11.75C82.7497 10.736 83.4127 9.982 84.3877 9.982C85.3627 9.982 86.0257 10.736 86.0257 11.75ZM89.3951 15H91.1761V11.828C91.1761 10.58 91.8001 9.982 92.6191 9.982C93.3601 9.982 93.7631 10.554 93.7631 11.49V15H95.5441V11.191C95.5441 9.501 94.6081 8.357 93.0351 8.357C92.1901 8.357 91.5141 8.721 91.1761 9.241V8.5H89.3951V15ZM99.2053 6.303C99.2053 5.679 98.6983 5.172 98.0613 5.172C97.4503 5.172 96.9303 5.679 96.9303 6.303C96.9303 6.927 97.4503 7.434 98.0613 7.434C98.6983 7.434 99.2053 6.927 99.2053 6.303ZM97.1773 15H98.9583V8.5H97.1773V15ZM100.669 15H102.45V11.828C102.45 10.58 102.983 9.982 103.75 9.982C104.452 9.982 104.764 10.567 104.764 11.529V15H106.545V11.828C106.545 10.58 107.078 9.982 107.845 9.982C108.547 9.982 108.859 10.567 108.859 11.529V15H110.64V11.23C110.64 9.475 109.756 8.357 108.209 8.357C107.468 8.357 106.597 8.747 106.194 9.553C105.804 8.799 105.128 8.357 104.179 8.357C103.386 8.357 102.801 8.734 102.45 9.241V8.5H100.669V15ZM111.856 11.75C111.856 13.596 113.182 15.143 114.911 15.143C115.808 15.143 116.497 14.688 116.783 14.272V15H118.564V8.5H116.783V9.228C116.497 8.812 115.808 8.357 114.911 8.357C113.182 8.357 111.856 9.904 111.856 11.75ZM116.926 11.75C116.926 12.764 116.263 13.518 115.288 13.518C114.313 13.518 113.65 12.764 113.65 11.75C113.65 10.736 114.313 9.982 115.288 9.982C116.263 9.982 116.926 10.736 116.926 11.75ZM120.295 15H122.077V5.25H120.295V15ZM126.517 17.08C125.412 14.935 124.944 12.972 124.944 10.84C124.944 8.708 125.412 6.745 126.517 4.6H125.1C123.982 6.628 123.436 8.695 123.436 10.84C123.436 12.985 123.982 15.052 125.1 17.08H126.517ZM132.529 13.167C132.529 12.153 131.996 11.477 130.722 11.152L129.578 10.84C129.188 10.749 128.837 10.606 128.837 10.242C128.837 9.93 129.149 9.748 129.604 9.748C129.994 9.748 130.371 9.917 130.462 10.411H132.256C132.152 9.111 131.06 8.357 129.63 8.357C128.005 8.357 127.017 9.163 127.017 10.281C127.017 11.23 127.537 12.01 128.668 12.296L129.89 12.608C130.462 12.751 130.709 12.92 130.709 13.258C130.709 13.57 130.423 13.778 129.864 13.778C129.292 13.778 128.798 13.505 128.733 12.933H126.874C126.939 14.207 128.135 15.143 129.812 15.143C131.385 15.143 132.529 14.389 132.529 13.167ZM132.876 17.08H134.293C135.411 15.052 135.957 12.985 135.957 10.84C135.957 8.695 135.411 6.628 134.293 4.6H132.876C133.981 6.745 134.449 8.708 134.449 10.84C134.449 12.972 133.981 14.935 132.876 17.08Z" fill="#001E2B"/>
<path d="M3.783 35H4.979V31.1L8.58 25.77H7.137L4.381 29.878L1.638 25.77H0.195L3.783 31.087V35ZM14.6064 31.75C14.6064 29.878 13.1634 28.37 11.2134 28.37C9.25041 28.37 7.80741 29.878 7.80741 31.75C7.80741 33.622 9.25041 35.13 11.2134 35.13C13.1634 35.13 14.6064 33.622 14.6064 31.75ZM8.95141 31.75C8.95141 30.45 9.86141 29.41 11.2134 29.41C12.5654 29.41 13.4624 30.45 13.4624 31.75C13.4624 33.05 12.5654 34.09 11.2134 34.09C9.86141 34.09 8.95141 33.05 8.95141 31.75ZM16.1202 32.491C16.1202 34.103 17.0822 35.13 18.5122 35.13C19.3312 35.13 20.0852 34.753 20.5142 33.999V35H21.6322V28.5H20.5142V31.724C20.5142 33.219 19.7212 34.103 18.7072 34.103C17.8102 34.103 17.2382 33.414 17.2382 32.322V28.5H16.1202V32.491ZM33.0373 32.712H31.8413C31.5553 33.531 30.7753 34.103 29.7613 34.103C28.4093 34.103 27.4993 33.063 27.4993 31.75C27.4993 30.437 28.4093 29.397 29.7613 29.397C30.7753 29.397 31.5553 29.969 31.8413 30.788H33.0373C32.6733 29.384 31.3993 28.37 29.7613 28.37C27.7853 28.37 26.3683 29.891 26.3683 31.75C26.3683 33.609 27.7853 35.13 29.7613 35.13C31.3993 35.13 32.6733 34.116 33.0373 32.712ZM34.0108 31.75C34.0108 33.609 35.3758 35.13 37.1958 35.13C38.1708 35.13 39.0548 34.623 39.4838 33.999V35H40.6018V28.5H39.4838V29.501C39.0548 28.877 38.1708 28.37 37.1958 28.37C35.3758 28.37 34.0108 29.891 34.0108 31.75ZM39.5748 31.75C39.5748 33.063 38.6778 34.103 37.3648 34.103C36.0518 34.103 35.1418 33.063 35.1418 31.75C35.1418 30.437 36.0518 29.397 37.3648 29.397C38.6778 29.397 39.5748 30.437 39.5748 31.75ZM42.7063 35H43.8243V31.776C43.8243 30.255 44.6563 29.397 45.7093 29.397C46.6193 29.397 47.2433 30.073 47.2433 31.165V35H48.3483V30.996C48.3483 29.384 47.3473 28.37 45.8913 28.37C45.0463 28.37 44.2663 28.734 43.8243 29.501V28.5H42.7063V35ZM59.6593 32.712H58.4633C58.1773 33.531 57.3973 34.103 56.3833 34.103C55.0313 34.103 54.1213 33.063 54.1213 31.75C54.1213 30.437 55.0313 29.397 56.3833 29.397C57.3973 29.397 58.1773 29.969 58.4633 30.788H59.6593C59.2953 29.384 58.0213 28.37 56.3833 28.37C54.4073 28.37 52.9903 29.891 52.9903 31.75C52.9903 33.609 54.4073 35.13 56.3833 35.13C58.0213 35.13 59.2953 34.116 59.6593 32.712ZM61.1399 35H62.2579V31.776C62.2579 30.255 63.0899 29.397 64.1429 29.397C65.0529 29.397 65.6769 30.073 65.6769 31.165V35H66.7819V30.996C66.7819 29.384 65.7809 28.37 64.3249 28.37C63.4799 28.37 62.6999 28.734 62.2579 29.501V25.25H61.1399V35ZM75.0742 31.75C75.0742 29.878 73.6312 28.37 71.6812 28.37C69.7182 28.37 68.2752 29.878 68.2752 31.75C68.2752 33.622 69.7182 35.13 71.6812 35.13C73.6312 35.13 75.0742 33.622 75.0742 31.75ZM69.4192 31.75C69.4192 30.45 70.3292 29.41 71.6812 29.41C73.0332 29.41 73.9302 30.45 73.9302 31.75C73.9302 33.05 73.0332 34.09 71.6812 34.09C70.3292 34.09 69.4192 33.05 69.4192 31.75ZM82.958 31.75C82.958 29.878 81.515 28.37 79.565 28.37C77.602 28.37 76.159 29.878 76.159 31.75C76.159 33.622 77.602 35.13 79.565 35.13C81.515 35.13 82.958 33.622 82.958 31.75ZM77.303 31.75C77.303 30.45 78.213 29.41 79.565 29.41C80.917 29.41 81.814 30.45 81.814 31.75C81.814 33.05 80.917 34.09 79.565 34.09C78.213 34.09 77.303 33.05 77.303 31.75ZM89.0478 33.245C89.0478 32.27 88.4628 31.594 87.3838 31.321L86.3438 31.048C85.6548 30.866 85.3558 30.593 85.3558 30.112C85.3558 29.618 85.8498 29.306 86.4738 29.306C87.0848 29.306 87.5528 29.657 87.7218 30.229H88.8398C88.7228 29.189 87.8648 28.37 86.4738 28.37C85.1608 28.37 84.2248 29.046 84.2248 30.125C84.2248 31.048 84.7838 31.75 85.9018 32.036L86.8378 32.283C87.6048 32.491 87.9168 32.803 87.9168 33.323C87.9168 33.895 87.3708 34.181 86.6688 34.181C85.9928 34.181 85.3168 33.908 85.1608 33.115H84.0168C84.1078 34.428 85.2648 35.13 86.6558 35.13C88.0078 35.13 89.0478 34.532 89.0478 33.245ZM96.4421 33.024H95.2981C94.9081 33.804 94.2191 34.116 93.4131 34.116C92.2431 34.116 91.2941 33.232 91.2551 32.049H96.5461C96.7021 30.034 95.4671 28.37 93.4261 28.37C91.3981 28.37 90.1241 29.852 90.1241 31.75C90.1241 33.687 91.5021 35.13 93.4001 35.13C95.0511 35.13 96.1171 34.168 96.4421 33.024ZM93.3871 29.358C94.3491 29.358 95.1551 29.956 95.3631 31.165H91.3071C91.5281 29.878 92.4511 29.358 93.3871 29.358ZM100.788 31.75C100.788 33.609 102.153 35.13 103.973 35.13C104.948 35.13 105.832 34.623 106.261 33.999V35H107.379V28.5H106.261V29.501C105.832 28.877 104.948 28.37 103.973 28.37C102.153 28.37 100.788 29.891 100.788 31.75ZM106.352 31.75C106.352 33.063 105.455 34.103 104.142 34.103C102.829 34.103 101.919 33.063 101.919 31.75C101.919 30.437 102.829 29.397 104.142 29.397C105.455 29.397 106.352 30.437 106.352 31.75ZM113.969 33.245C113.969 32.27 113.384 31.594 112.305 31.321L111.265 31.048C110.576 30.866 110.277 30.593 110.277 30.112C110.277 29.618 110.771 29.306 111.395 29.306C112.006 29.306 112.474 29.657 112.643 30.229H113.761C113.644 29.189 112.786 28.37 111.395 28.37C110.082 28.37 109.146 29.046 109.146 30.125C109.146 31.048 109.705 31.75 110.823 32.036L111.759 32.283C112.526 32.491 112.838 32.803 112.838 33.323C112.838 33.895 112.292 34.181 111.59 34.181C110.914 34.181 110.238 33.908 110.082 33.115H108.938C109.029 34.428 110.186 35.13 111.577 35.13C112.929 35.13 113.969 34.532 113.969 33.245ZM118.688 35H119.806V31.776C119.806 30.307 120.547 29.397 121.6 29.397C122.445 29.397 122.874 30.125 122.874 31.178V35H123.992V31.776C123.992 30.307 124.72 29.397 125.773 29.397C126.618 29.397 127.06 30.125 127.06 31.178V35H128.178V31.009C128.178 29.423 127.32 28.37 125.903 28.37C124.941 28.37 124.122 28.903 123.771 29.761C123.446 28.903 122.744 28.37 121.769 28.37C120.898 28.37 120.183 28.812 119.806 29.501V28.5H118.688V35ZM129.683 31.75C129.683 33.609 131.048 35.13 132.868 35.13C133.843 35.13 134.727 34.623 135.156 33.999V35H136.274V28.5H135.156V29.501C134.727 28.877 133.843 28.37 132.868 28.37C131.048 28.37 129.683 29.891 129.683 31.75ZM135.247 31.75C135.247 33.063 134.35 34.103 133.037 34.103C131.724 34.103 130.814 33.063 130.814 31.75C130.814 30.437 131.724 29.397 133.037 29.397C134.35 29.397 135.247 30.437 135.247 31.75ZM138.378 35H139.496V31.776C139.496 30.255 140.328 29.397 141.381 29.397C142.291 29.397 142.915 30.073 142.915 31.165V35H144.02V30.996C144.02 29.384 143.019 28.37 141.563 28.37C140.718 28.37 139.938 28.734 139.496 29.501V28.5H138.378V35ZM147.636 37.717L151.9 28.5H150.652L148.429 33.427L146.193 28.5H144.958L147.805 34.662L146.388 37.717H147.636ZM155.353 31.75C155.353 33.609 156.718 35.13 158.538 35.13C159.513 35.13 160.397 34.623 160.826 33.999V35H161.944V28.5H160.826V29.501C160.397 28.877 159.513 28.37 158.538 28.37C156.718 28.37 155.353 29.891 155.353 31.75ZM160.917 31.75C160.917 33.063 160.02 34.103 158.707 34.103C157.394 34.103 156.484 33.063 156.484 31.75C156.484 30.437 157.394 29.397 158.707 29.397C160.02 29.397 160.917 30.437 160.917 31.75ZM168.533 33.245C168.533 32.27 167.948 31.594 166.869 31.321L165.829 31.048C165.14 30.866 164.841 30.593 164.841 30.112C164.841 29.618 165.335 29.306 165.959 29.306C166.57 29.306 167.038 29.657 167.207 30.229H168.325C168.208 29.189 167.35 28.37 165.959 28.37C164.646 28.37 163.71 29.046 163.71 30.125C163.71 31.048 164.269 31.75 165.387 32.036L166.323 32.283C167.09 32.491 167.402 32.803 167.402 33.323C167.402 33.895 166.856 34.181 166.154 34.181C165.478 34.181 164.802 33.908 164.646 33.115H163.502C163.593 34.428 164.75 35.13 166.141 35.13C167.493 35.13 168.533 34.532 168.533 33.245ZM174.677 37.717L178.941 28.5H177.693L175.47 33.427L173.234 28.5H171.999L174.846 34.662L173.429 37.717H174.677ZM186.196 31.75C186.196 29.878 184.753 28.37 182.803 28.37C180.84 28.37 179.397 29.878 179.397 31.75C179.397 33.622 180.84 35.13 182.803 35.13C184.753 35.13 186.196 33.622 186.196 31.75ZM180.541 31.75C180.541 30.45 181.451 29.41 182.803 29.41C184.155 29.41 185.052 30.45 185.052 31.75C185.052 33.05 184.155 34.09 182.803 34.09C181.451 34.09 180.541 33.05 180.541 31.75ZM187.71 32.491C187.71 34.103 188.672 35.13 190.102 35.13C190.921 35.13 191.675 34.753 192.104 33.999V35H193.222V28.5H192.104V31.724C192.104 33.219 191.311 34.103 190.297 34.103C189.4 34.103 188.828 33.414 188.828 32.322V28.5H187.71V32.491ZM203.749 35H204.737L206.947 28.5H205.764L204.191 33.245L202.566 28.5H201.708L200.083 33.245L198.51 28.5H197.34L199.55 35H200.538L202.15 30.32L203.749 35ZM207.619 31.75C207.619 33.609 208.984 35.13 210.804 35.13C211.779 35.13 212.663 34.623 213.092 33.999V35H214.21V28.5H213.092V29.501C212.663 28.877 211.779 28.37 210.804 28.37C208.984 28.37 207.619 29.891 207.619 31.75ZM213.183 31.75C213.183 33.063 212.286 34.103 210.973 34.103C209.66 34.103 208.75 33.063 208.75 31.75C208.75 30.437 209.66 29.397 210.973 29.397C212.286 29.397 213.183 30.437 213.183 31.75ZM216.315 35H217.433V31.776C217.433 30.255 218.265 29.397 219.318 29.397C220.228 29.397 220.852 30.073 220.852 31.165V35H221.957V30.996C221.957 29.384 220.956 28.37 219.5 28.37C218.655 28.37 217.875 28.734 217.433 29.501V28.5H216.315V35ZM227.417 34.909V33.908C227.209 33.986 226.897 34.038 226.624 34.038C225.922 34.038 225.545 33.765 225.545 32.933V29.527H227.417V28.5H225.545V26.693H224.427V28.5H223.049V29.527H224.427V33.076C224.427 34.428 225.285 35.065 226.416 35.065C226.819 35.065 227.144 35 227.417 34.909Z" fill="#5C6C75"/>
<path d="M0 48C0 44.6863 2.68629 42 6 42H365C368.314 42 371 44.6863 371 48V72C371 75.3137 368.314 78 365 78H6.00001C2.6863 78 0 75.3137 0 72V48Z" fill="white"/>
<path d="M12.559 62.53C12.611 63.934 13.833 65.156 15.77 65.156C17.486 65.156 18.708 64.168 18.708 62.608C18.708 61.23 17.902 60.424 16.498 59.917L15.315 59.488C14.418 59.163 13.989 58.773 13.989 57.993C13.989 57.226 14.678 56.745 15.562 56.745C16.316 56.745 17.07 57.148 17.304 58.11H18.5C18.383 56.901 17.46 55.614 15.588 55.614C13.976 55.614 12.78 56.524 12.78 58.032C12.793 59.332 13.482 60.125 14.912 60.632L16.186 61.1C17.044 61.412 17.499 61.919 17.499 62.647C17.499 63.505 16.719 64.025 15.757 64.025C14.886 64.025 13.872 63.557 13.768 62.53H12.559ZM26.1638 63.024H25.0198C24.6298 63.804 23.9408 64.116 23.1348 64.116C21.9648 64.116 21.0158 63.232 20.9768 62.049H26.2678C26.4238 60.034 25.1888 58.37 23.1478 58.37C21.1198 58.37 19.8458 59.852 19.8458 61.75C19.8458 63.687 21.2238 65.13 23.1218 65.13C24.7728 65.13 25.8388 64.168 26.1638 63.024ZM23.1088 59.358C24.0708 59.358 24.8768 59.956 25.0848 61.165H21.0288C21.2498 59.878 22.1728 59.358 23.1088 59.358ZM27.8811 65H28.9991V55.25H27.8811V65ZM36.9294 63.024H35.7854C35.3954 63.804 34.7064 64.116 33.9004 64.116C32.7304 64.116 31.7814 63.232 31.7424 62.049H37.0334C37.1894 60.034 35.9544 58.37 33.9134 58.37C31.8854 58.37 30.6114 59.852 30.6114 61.75C30.6114 63.687 31.9894 65.13 33.8874 65.13C35.5384 65.13 36.6044 64.168 36.9294 63.024ZM33.8744 59.358C34.8364 59.358 35.6424 59.956 35.8504 61.165H31.7944C32.0154 59.878 32.9384 59.358 33.8744 59.358ZM44.8088 62.712H43.6128C43.3268 63.531 42.5468 64.103 41.5328 64.103C40.1808 64.103 39.2708 63.063 39.2708 61.75C39.2708 60.437 40.1808 59.397 41.5328 59.397C42.5468 59.397 43.3268 59.969 43.6128 60.788H44.8088C44.4448 59.384 43.1708 58.37 41.5328 58.37C39.5568 58.37 38.1398 59.891 38.1398 61.75C38.1398 63.609 39.5568 65.13 41.5328 65.13C43.1708 65.13 44.4448 64.116 44.8088 62.712ZM49.7489 64.909V63.908C49.5409 63.986 49.2289 64.038 48.9559 64.038C48.2539 64.038 47.8769 63.765 47.8769 62.933V59.527H49.7489V58.5H47.8769V56.693H46.7589V58.5H45.3809V59.527H46.7589V63.076C46.7589 64.428 47.6169 65.065 48.7479 65.065C49.1509 65.065 49.4759 65 49.7489 64.909ZM53.8058 61.75C53.8058 63.609 55.1708 65.13 56.9908 65.13C57.9658 65.13 58.8498 64.623 59.2788 63.999V65H60.3968V58.5H59.2788V59.501C58.8498 58.877 57.9658 58.37 56.9908 58.37C55.1708 58.37 53.8058 59.891 53.8058 61.75ZM59.3698 61.75C59.3698 63.063 58.4728 64.103 57.1598 64.103C55.8468 64.103 54.9368 63.063 54.9368 61.75C54.9368 60.437 55.8468 59.397 57.1598 59.397C58.4728 59.397 59.3698 60.437 59.3698 61.75ZM62.5012 65H63.6192V61.776C63.6192 60.255 64.4512 59.397 65.5042 59.397C66.4142 59.397 67.0382 60.073 67.0382 61.165V65H68.1432V60.996C68.1432 59.384 67.1422 58.37 65.6862 58.37C64.8412 58.37 64.0612 58.734 63.6192 59.501V58.5H62.5012V65ZM71.5085 55.965C71.5085 55.536 71.1705 55.172 70.7285 55.172C70.2865 55.172 69.9225 55.536 69.9225 55.965C69.9225 56.407 70.2865 56.758 70.7285 56.758C71.1705 56.758 71.5085 56.407 71.5085 55.965ZM70.1565 65H71.2745V58.5H70.1565V65ZM73.3938 65H74.5118V61.776C74.5118 60.307 75.2528 59.397 76.3058 59.397C77.1508 59.397 77.5798 60.125 77.5798 61.178V65H78.6978V61.776C78.6978 60.307 79.4258 59.397 80.4788 59.397C81.3238 59.397 81.7658 60.125 81.7658 61.178V65H82.8838V61.009C82.8838 59.423 82.0258 58.37 80.6088 58.37C79.6468 58.37 78.8278 58.903 78.4768 59.761C78.1518 58.903 77.4498 58.37 76.4748 58.37C75.6038 58.37 74.8888 58.812 74.5118 59.501V58.5H73.3938V65ZM84.3888 61.75C84.3888 63.609 85.7538 65.13 87.5738 65.13C88.5488 65.13 89.4328 64.623 89.8618 63.999V65H90.9798V58.5H89.8618V59.501C89.4328 58.877 88.5488 58.37 87.5738 58.37C85.7538 58.37 84.3888 59.891 84.3888 61.75ZM89.9528 61.75C89.9528 63.063 89.0558 64.103 87.7428 64.103C86.4298 64.103 85.5198 63.063 85.5198 61.75C85.5198 60.437 86.4298 59.397 87.7428 59.397C89.0558 59.397 89.9528 60.437 89.9528 61.75ZM93.0843 65H94.2023V55.25H93.0843V65Z" fill="#5C6C75"/>
<path d="M351.429 62.2962C351.203 62.5679 350.797 62.5679 350.571 62.2962L347.39 58.4765C347.071 58.0943 347.332 57.5 347.819 57.5H354.181C354.668 57.5 354.929 58.0943 354.61 58.4765L351.429 62.2962Z" fill="#3D4F58"/>
<path d="M6 43H365V41H6V43ZM370 48V72H372V48H370ZM365 77H6.00001V79H365V77ZM1 72V48H-1V72H1ZM6.00001 77C3.23858 77 1 74.7614 1 72H-1C-1 75.866 2.13402 79 6.00001 79V77ZM370 72C370 74.7614 367.761 77 365 77V79C368.866 79 372 75.866 372 72H370ZM365 43C367.761 43 370 45.2386 370 48H372C372 44.134 368.866 41 365 41V43ZM6 41C2.13401 41 -1 44.134 -1 48H1C1 45.2386 3.23858 43 6 43V41Z" fill="#889397"/>
</svg>
