<svg width="400" height="80" viewBox="0 0 400 80" fill="none" xmlns="http://www.w3.org/2000/svg">
<path d="M1.027 15H6.864V13.206H2.912V5.77H1.027V15ZM7.4752 11.75C7.4752 13.596 8.8012 15.143 10.5302 15.143C11.4272 15.143 12.1162 14.688 12.4022 14.272V15H14.1832V8.5H12.4022V9.228C12.1162 8.812 11.4272 8.357 10.5302 8.357C8.8012 8.357 7.4752 9.904 7.4752 11.75ZM12.5452 11.75C12.5452 12.764 11.8822 13.518 10.9072 13.518C9.9322 13.518 9.2692 12.764 9.2692 11.75C9.2692 10.736 9.9322 9.982 10.9072 9.982C11.8822 9.982 12.5452 10.736 12.5452 11.75ZM17.6956 14.272C17.9946 14.688 18.6836 15.143 19.5806 15.143C21.3096 15.143 22.6356 13.596 22.6356 11.75C22.6356 9.904 21.3096 8.357 19.5806 8.357C18.6836 8.357 17.9946 8.812 17.6956 9.228V5.25H15.9146V15H17.6956V14.272ZM20.8286 11.75C20.8286 12.764 20.1656 13.518 19.1906 13.518C18.2156 13.518 17.5526 12.764 17.5526 11.75C17.5526 10.736 18.2156 9.982 19.1906 9.982C20.1656 9.982 20.8286 10.736 20.8286 11.75ZM30.2561 12.881H28.3971C28.1891 13.323 27.6431 13.596 27.0191 13.596C25.9141 13.596 25.3421 12.933 25.2641 12.166H30.3341C30.4251 9.722 28.8521 8.357 26.9411 8.357C24.9651 8.357 23.5221 9.8 23.5221 11.737C23.5221 13.713 24.9391 15.143 26.9281 15.143C28.5791 15.143 29.8661 14.194 30.2561 12.881ZM26.8891 9.8C27.5001 9.8 28.1631 10.125 28.3841 10.996H25.3291C25.4981 10.281 26.0701 9.8 26.8891 9.8ZM31.6314 15H33.4124V5.25H31.6314V15Z" fill="#001E2B"/>
<path d="M1.222 35H3.874C6.708 35 8.788 33.024 8.788 30.385C8.788 27.746 6.708 25.77 3.874 25.77H1.222V35ZM2.431 33.869V26.901H3.874C6.097 26.901 7.566 28.383 7.566 30.385C7.566 32.387 6.097 33.869 3.874 33.869H2.431ZM16.2331 33.024H15.0891C14.6991 33.804 14.0101 34.116 13.2041 34.116C12.0341 34.116 11.0851 33.232 11.0461 32.049H16.3371C16.4931 30.034 15.2581 28.37 13.2171 28.37C11.1891 28.37 9.91514 29.852 9.91514 31.75C9.91514 33.687 11.2931 35.13 13.1911 35.13C14.8421 35.13 15.9081 34.168 16.2331 33.024ZM13.1781 29.358C14.1401 29.358 14.9461 29.956 15.1541 31.165H11.0981C11.3191 29.878 12.2421 29.358 13.1781 29.358ZM22.4355 33.245C22.4355 32.27 21.8505 31.594 20.7715 31.321L19.7315 31.048C19.0425 30.866 18.7435 30.593 18.7435 30.112C18.7435 29.618 19.2375 29.306 19.8615 29.306C20.4725 29.306 20.9405 29.657 21.1095 30.229H22.2275C22.1105 29.189 21.2525 28.37 19.8615 28.37C18.5485 28.37 17.6125 29.046 17.6125 30.125C17.6125 31.048 18.1715 31.75 19.2895 32.036L20.2255 32.283C20.9925 32.491 21.3045 32.803 21.3045 33.323C21.3045 33.895 20.7585 34.181 20.0565 34.181C19.3805 34.181 18.7045 33.908 18.5485 33.115H17.4045C17.4955 34.428 18.6525 35.13 20.0435 35.13C21.3955 35.13 22.4355 34.532 22.4355 33.245ZM30.1808 32.712H28.9848C28.6988 33.531 27.9188 34.103 26.9048 34.103C25.5528 34.103 24.6428 33.063 24.6428 31.75C24.6428 30.437 25.5528 29.397 26.9048 29.397C27.9188 29.397 28.6988 29.969 28.9848 30.788H30.1808C29.8168 29.384 28.5428 28.37 26.9048 28.37C24.9288 28.37 23.5118 29.891 23.5118 31.75C23.5118 33.609 24.9288 35.13 26.9048 35.13C28.5428 35.13 29.8168 34.116 30.1808 32.712ZM31.6614 35H32.7794V31.776C32.7794 30.255 33.6764 29.54 34.4954 29.54C34.7164 29.54 34.8984 29.566 35.1064 29.644V28.487C34.9244 28.448 34.7684 28.435 34.5994 28.435C33.8454 28.435 33.0394 28.929 32.7794 29.761V28.5H31.6614V35ZM37.7741 25.965C37.7741 25.536 37.4361 25.172 36.9941 25.172C36.5521 25.172 36.1881 25.536 36.1881 25.965C36.1881 26.407 36.5521 26.758 36.9941 26.758C37.4361 26.758 37.7741 26.407 37.7741 25.965ZM36.4221 35H37.5401V28.5H36.4221V35ZM39.6594 37.717H40.7774V33.999C41.2064 34.623 42.0904 35.13 43.0654 35.13C44.8724 35.13 46.2504 33.609 46.2504 31.75C46.2504 29.891 44.8724 28.37 43.0654 28.37C42.0904 28.37 41.2064 28.877 40.7774 29.501V28.5H39.6594V37.717ZM45.1064 31.75C45.1064 33.063 44.2094 34.103 42.8964 34.103C41.5834 34.103 40.6864 33.063 40.6864 31.75C40.6864 30.437 41.5834 29.397 42.8964 29.397C44.2094 29.397 45.1064 30.437 45.1064 31.75ZM51.2694 34.909V33.908C51.0614 33.986 50.7494 34.038 50.4764 34.038C49.7744 34.038 49.3974 33.765 49.3974 32.933V29.527H51.2694V28.5H49.3974V26.693H48.2794V28.5H46.9014V29.527H48.2794V33.076C48.2794 34.428 49.1374 35.065 50.2684 35.065C50.6714 35.065 50.9964 35 51.2694 34.909ZM54.0495 25.965C54.0495 25.536 53.7115 25.172 53.2695 25.172C52.8275 25.172 52.4635 25.536 52.4635 25.965C52.4635 26.407 52.8275 26.758 53.2695 26.758C53.7115 26.758 54.0495 26.407 54.0495 25.965ZM52.6975 35H53.8155V28.5H52.6975V35ZM62.2138 31.75C62.2138 29.878 60.7708 28.37 58.8208 28.37C56.8578 28.37 55.4148 29.878 55.4148 31.75C55.4148 33.622 56.8578 35.13 58.8208 35.13C60.7708 35.13 62.2138 33.622 62.2138 31.75ZM56.5588 31.75C56.5588 30.45 57.4688 29.41 58.8208 29.41C60.1728 29.41 61.0698 30.45 61.0698 31.75C61.0698 33.05 60.1728 34.09 58.8208 34.09C57.4688 34.09 56.5588 33.05 56.5588 31.75ZM63.8186 35H64.9366V31.776C64.9366 30.255 65.7686 29.397 66.8216 29.397C67.7316 29.397 68.3556 30.073 68.3556 31.165V35H69.4606V30.996C69.4606 29.384 68.4596 28.37 67.0036 28.37C66.1586 28.37 65.3786 28.734 64.9366 29.501V28.5H63.8186V35ZM73.0209 34.129C73.0209 33.609 72.5919 33.154 72.0589 33.154C71.5259 33.154 71.0969 33.609 71.0969 34.129C71.0969 34.662 71.5259 35.104 72.0589 35.104C72.5919 35.104 73.0209 34.662 73.0209 34.129Z" fill="#5C6C75"/>
<rect x="0.5" y="44.5" width="399" height="35" rx="5.5" fill="#F9FBFA"/>
<path d="M13.209 67V60.682H14.093L14.184 61.761H14.236C14.5653 61.4057 14.9207 61.111 15.302 60.877C15.6833 60.643 16.121 60.526 16.615 60.526C17.369 60.526 17.9193 60.7427 18.266 61.176C18.6213 61.6007 18.799 62.2333 18.799 63.074V67H17.733V63.217C17.733 62.619 17.6203 62.177 17.395 61.891C17.1697 61.5963 16.797 61.449 16.277 61.449C16.0863 61.449 15.9087 61.475 15.744 61.527C15.588 61.5703 15.432 61.6397 15.276 61.735C15.12 61.8303 14.9597 61.9517 14.795 62.099C14.6303 62.2377 14.457 62.4023 14.275 62.593V67H13.209ZM21.0039 69.665V60.682H21.8879L21.9789 61.488H22.0179C22.3126 61.2107 22.6506 60.981 23.0319 60.799C23.4219 60.617 23.8119 60.526 24.2019 60.526C24.6266 60.526 24.9993 60.604 25.3199 60.76C25.6493 60.9073 25.9223 61.124 26.1389 61.41C26.3643 61.6873 26.5333 62.0253 26.6459 62.424C26.7586 62.814 26.8149 63.256 26.8149 63.75C26.8149 64.2873 26.7369 64.7683 26.5809 65.193C26.4249 65.609 26.2126 65.9643 25.9439 66.259C25.6839 66.5537 25.3806 66.779 25.0339 66.935C24.6873 67.0823 24.3233 67.156 23.9419 67.156C23.6473 67.156 23.3266 67.0867 22.9799 66.948C22.6419 66.8007 22.3343 66.597 22.0569 66.337H22.0179L22.0699 67.533V69.665H21.0039ZM23.7599 66.259C24.3319 66.259 24.7999 66.038 25.1639 65.596C25.5279 65.154 25.7099 64.5387 25.7099 63.75C25.7099 63.4033 25.6753 63.087 25.6059 62.801C25.5366 62.515 25.4283 62.2723 25.2809 62.073C25.1423 61.865 24.9603 61.7047 24.7349 61.592C24.5096 61.4793 24.2409 61.423 23.9289 61.423C23.6516 61.423 23.3526 61.501 23.0319 61.657C22.7199 61.8043 22.3993 62.0427 22.0699 62.372V65.518C22.3733 65.7867 22.6766 65.9773 22.9799 66.09C23.2833 66.2027 23.5433 66.259 23.7599 66.259ZM28.3438 67V60.682H29.2018L29.2928 61.514H29.3188C29.4835 61.2193 29.6742 60.981 29.8908 60.799C30.1075 60.617 30.3978 60.526 30.7618 60.526C31.3772 60.526 31.7758 60.89 31.9578 61.618C32.1398 61.28 32.3392 61.0157 32.5558 60.825C32.7812 60.6257 33.0758 60.526 33.4398 60.526C33.8818 60.526 34.2242 60.695 34.4668 61.033C34.7182 61.3623 34.8438 61.8433 34.8438 62.476V67H33.7778V62.554C33.7778 61.8173 33.5525 61.449 33.1018 61.449C32.8765 61.449 32.6945 61.5313 32.5558 61.696C32.4172 61.852 32.2612 62.0947 32.0878 62.424V67H31.0998V62.554C31.0998 62.19 31.0478 61.917 30.9438 61.735C30.8485 61.5443 30.6838 61.449 30.4498 61.449C30.2245 61.449 30.0338 61.5313 29.8778 61.696C29.7218 61.852 29.5658 62.0947 29.4098 62.424V67H28.3438ZM47.2877 67V61.553H44.3497V60.682H48.3537V67H47.2877ZM47.7037 59.356C47.461 59.356 47.2574 59.2823 47.0927 59.135C46.928 58.979 46.8457 58.7753 46.8457 58.524C46.8457 58.2727 46.928 58.0733 47.0927 57.926C47.2574 57.77 47.461 57.692 47.7037 57.692C47.9464 57.692 48.15 57.77 48.3147 57.926C48.4794 58.0733 48.5617 58.2727 48.5617 58.524C48.5617 58.7753 48.4794 58.979 48.3147 59.135C48.15 59.2823 47.9464 59.356 47.7037 59.356ZM52.1836 67V60.682H53.0676L53.1586 61.761H53.2106C53.5399 61.4057 53.8953 61.111 54.2766 60.877C54.6579 60.643 55.0956 60.526 55.5896 60.526C56.3436 60.526 56.8939 60.7427 57.2406 61.176C57.5959 61.6007 57.7736 62.2333 57.7736 63.074V67H56.7076V63.217C56.7076 62.619 56.5949 62.177 56.3696 61.891C56.1443 61.5963 55.7716 61.449 55.2516 61.449C55.0609 61.449 54.8833 61.475 54.7186 61.527C54.5626 61.5703 54.4066 61.6397 54.2506 61.735C54.0946 61.8303 53.9343 61.9517 53.7696 62.099C53.6049 62.2377 53.4316 62.4023 53.2496 62.593V67H52.1836ZM62.7995 67.156C62.1755 67.156 61.5992 67.0607 61.0705 66.87C60.5419 66.6707 60.0825 66.4367 59.6925 66.168L60.1865 65.466C60.5505 65.726 60.9492 65.934 61.3825 66.09C61.8245 66.246 62.3402 66.324 62.9295 66.324C63.4669 66.324 63.8655 66.2287 64.1255 66.038C64.3942 65.8387 64.5285 65.6047 64.5285 65.336C64.5285 65.2147 64.5069 65.102 64.4635 64.998C64.4202 64.894 64.3249 64.7943 64.1775 64.699C64.0389 64.6037 63.8395 64.5127 63.5795 64.426C63.3195 64.3393 62.9772 64.2527 62.5525 64.166C61.7292 63.9927 61.1095 63.763 60.6935 63.477C60.2862 63.1823 60.0825 62.7967 60.0825 62.32C60.0825 62.0687 60.1389 61.8347 60.2515 61.618C60.3642 61.3927 60.5289 61.202 60.7455 61.046C60.9709 60.8813 61.2439 60.7557 61.5645 60.669C61.8939 60.5737 62.2752 60.526 62.7085 60.526C63.1939 60.526 63.6619 60.6083 64.1125 60.773C64.5632 60.929 64.9445 61.1153 65.2565 61.332L64.7365 62.021C64.4419 61.8217 64.1169 61.6613 63.7615 61.54C63.4062 61.4187 63.0249 61.358 62.6175 61.358C62.0802 61.358 61.7032 61.449 61.4865 61.631C61.2699 61.813 61.1615 62.0253 61.1615 62.268C61.1615 62.5453 61.3045 62.7577 61.5905 62.905C61.8765 63.0437 62.3445 63.1823 62.9945 63.321C63.5232 63.4337 63.9565 63.555 64.2945 63.685C64.6325 63.8063 64.8969 63.945 65.0875 64.101C65.2869 64.257 65.4212 64.4303 65.4905 64.621C65.5685 64.8117 65.6075 65.0283 65.6075 65.271C65.6075 65.531 65.5469 65.7737 65.4255 65.999C65.3042 66.2243 65.1222 66.4237 64.8795 66.597C64.6455 66.7703 64.3509 66.9047 63.9955 67C63.6489 67.104 63.2502 67.156 62.7995 67.156ZM71.6865 67.156C71.2271 67.156 70.8415 67.0953 70.5295 66.974C70.2175 66.844 69.9661 66.6663 69.7755 66.441C69.5848 66.207 69.4461 65.9297 69.3595 65.609C69.2815 65.2883 69.2425 64.933 69.2425 64.543V61.553H67.4615V60.747L69.2815 60.682L69.4245 58.654H70.3085V60.682H73.4155V61.553H70.3085V64.556C70.3085 64.842 70.3345 65.0933 70.3865 65.31C70.4385 65.518 70.5251 65.6957 70.6465 65.843C70.7678 65.9903 70.9325 66.103 71.1405 66.181C71.3485 66.2503 71.6041 66.285 71.9075 66.285C72.2108 66.285 72.4838 66.259 72.7265 66.207C72.9691 66.155 73.2031 66.0857 73.4285 65.999L73.6625 66.779C73.3765 66.883 73.0731 66.9697 72.7525 67.039C72.4405 67.117 72.0851 67.156 71.6865 67.156ZM77.5574 67.156C77.2627 67.156 76.9854 67.1127 76.7254 67.026C76.4654 66.948 76.2357 66.8353 76.0364 66.688C75.8457 66.532 75.694 66.3457 75.5814 66.129C75.4687 65.9037 75.4124 65.648 75.4124 65.362C75.4124 65.0067 75.4947 64.699 75.6594 64.439C75.8327 64.1703 76.1014 63.9407 76.4654 63.75C76.838 63.5593 77.3147 63.4033 77.8954 63.282C78.476 63.1607 79.1737 63.0653 79.9884 62.996C79.9797 62.7793 79.945 62.5757 79.8844 62.385C79.8237 62.1943 79.7284 62.0297 79.5984 61.891C79.4684 61.7437 79.295 61.6267 79.0784 61.54C78.8704 61.4533 78.6147 61.41 78.3114 61.41C77.8954 61.41 77.4967 61.4923 77.1154 61.657C76.734 61.813 76.396 61.982 76.1014 62.164L75.6854 61.436C75.8414 61.332 76.0234 61.228 76.2314 61.124C76.448 61.0113 76.6734 60.9117 76.9074 60.825C77.15 60.7383 77.4057 60.669 77.6744 60.617C77.943 60.5563 78.216 60.526 78.4934 60.526C79.36 60.526 80.0014 60.7643 80.4174 61.241C80.842 61.709 81.0544 62.3373 81.0544 63.126V67H80.1834L80.0924 66.142H80.0534C79.698 66.4193 79.3037 66.6577 78.8704 66.857C78.4457 67.0563 78.008 67.156 77.5574 67.156ZM77.8434 66.298C78.2074 66.298 78.5627 66.22 78.9094 66.064C79.2647 65.8993 79.6244 65.6653 79.9884 65.362V63.698C79.3124 63.75 78.7447 63.8237 78.2854 63.919C77.8347 64.0143 77.4707 64.1313 77.1934 64.27C76.9247 64.4 76.734 64.5517 76.6214 64.725C76.5087 64.8897 76.4524 65.076 76.4524 65.284C76.4524 65.466 76.4914 65.622 76.5694 65.752C76.6474 65.8733 76.747 65.9773 76.8684 66.064C76.9984 66.142 77.1457 66.2027 77.3104 66.246C77.4837 66.2807 77.6614 66.298 77.8434 66.298ZM87.4453 67.156C86.7693 67.156 86.2536 66.9653 85.8983 66.584C85.543 66.2027 85.3653 65.635 85.3653 64.881V58.615H83.1163V57.744H86.4313V64.959C86.4313 65.427 86.544 65.765 86.7693 65.973C86.9946 66.1723 87.298 66.272 87.6793 66.272C88.052 66.272 88.4463 66.1767 88.8623 65.986L89.1353 66.779C88.8406 66.9003 88.572 66.9913 88.3293 67.052C88.0866 67.1213 87.792 67.156 87.4453 67.156ZM95.2402 67.156C94.5642 67.156 94.0486 66.9653 93.6932 66.584C93.3379 66.2027 93.1602 65.635 93.1602 64.881V58.615H90.9112V57.744H94.2262V64.959C94.2262 65.427 94.3389 65.765 94.5642 65.973C94.7896 66.1723 95.0929 66.272 95.4742 66.272C95.8469 66.272 96.2412 66.1767 96.6572 65.986L96.9302 66.779C96.6356 66.9003 96.3669 66.9913 96.1242 67.052C95.8816 67.1213 95.5869 67.156 95.2402 67.156ZM109.972 68.872C109.461 68.872 108.975 68.7593 108.516 68.534C108.057 68.3173 107.654 67.9923 107.307 67.559C106.96 67.1343 106.683 66.6013 106.475 65.96C106.276 65.3187 106.176 64.582 106.176 63.75C106.176 62.918 106.271 62.19 106.462 61.566C106.661 60.942 106.934 60.422 107.281 60.006C107.628 59.59 108.031 59.278 108.49 59.07C108.958 58.8533 109.461 58.745 109.998 58.745C110.449 58.745 110.839 58.823 111.168 58.979C111.497 59.135 111.77 59.3517 111.987 59.629C112.204 59.9063 112.364 60.2357 112.468 60.617C112.581 60.9897 112.637 61.397 112.637 61.839V65.7H111.987L111.896 64.946H111.844C111.653 65.1887 111.402 65.401 111.09 65.583C110.787 65.765 110.466 65.856 110.128 65.856C109.894 65.856 109.673 65.817 109.465 65.739C109.266 65.661 109.088 65.5483 108.932 65.401C108.785 65.2537 108.668 65.076 108.581 64.868C108.494 64.6513 108.451 64.413 108.451 64.153C108.451 63.4857 108.746 62.983 109.335 62.645C109.924 62.307 110.774 62.0687 111.883 61.93V61.748C111.883 61.436 111.844 61.1413 111.766 60.864C111.697 60.5867 111.584 60.344 111.428 60.136C111.272 59.928 111.068 59.7633 110.817 59.642C110.574 59.5207 110.284 59.46 109.946 59.46C109.556 59.46 109.183 59.551 108.828 59.733C108.473 59.915 108.156 60.188 107.879 60.552C107.61 60.9073 107.394 61.358 107.229 61.904C107.073 62.4413 106.995 63.0697 106.995 63.789C106.995 64.4823 107.073 65.102 107.229 65.648C107.385 66.1853 107.597 66.6403 107.866 67.013C108.135 67.3857 108.451 67.6673 108.815 67.858C109.179 68.0573 109.573 68.157 109.998 68.157C110.388 68.157 110.726 68.105 111.012 68.001C111.307 67.9057 111.58 67.7627 111.831 67.572L112.195 68.157C111.857 68.391 111.51 68.5687 111.155 68.69C110.8 68.8113 110.405 68.872 109.972 68.872ZM110.349 65.102C110.834 65.102 111.32 64.8247 111.805 64.27V62.632C110.904 62.7533 110.262 62.9353 109.881 63.178C109.5 63.412 109.309 63.7283 109.309 64.127C109.309 64.4303 109.4 64.6687 109.582 64.842C109.773 65.0153 110.028 65.102 110.349 65.102ZM118.625 67.156C117.949 67.156 117.433 66.9653 117.078 66.584C116.723 66.2027 116.545 65.635 116.545 64.881V58.615H114.296V57.744H117.611V64.959C117.611 65.427 117.724 65.765 117.949 65.973C118.174 66.1723 118.478 66.272 118.859 66.272C119.232 66.272 119.626 66.1767 120.042 65.986L120.315 66.779C120.02 66.9003 119.752 66.9913 119.509 67.052C119.266 67.1213 118.972 67.156 118.625 67.156ZM125.419 67.156C124.942 67.156 124.496 67.0823 124.08 66.935C123.673 66.7877 123.313 66.571 123.001 66.285C122.698 65.999 122.455 65.6523 122.273 65.245C122.1 64.829 122.013 64.3567 122.013 63.828C122.013 63.3167 122.1 62.8573 122.273 62.45C122.455 62.0427 122.693 61.696 122.988 61.41C123.291 61.124 123.634 60.9073 124.015 60.76C124.405 60.604 124.812 60.526 125.237 60.526C125.688 60.526 126.091 60.5997 126.446 60.747C126.81 60.8857 127.113 61.085 127.356 61.345C127.607 61.605 127.798 61.917 127.928 62.281C128.058 62.645 128.123 63.048 128.123 63.49C128.123 63.6113 128.119 63.7283 128.11 63.841C128.101 63.9537 128.088 64.0533 128.071 64.14H123.092C123.161 64.8593 123.421 65.401 123.872 65.765C124.331 66.1203 124.89 66.298 125.549 66.298C125.93 66.298 126.273 66.246 126.576 66.142C126.888 66.0293 127.187 65.882 127.473 65.7L127.863 66.402C127.551 66.61 127.191 66.7877 126.784 66.935C126.385 67.0823 125.93 67.156 125.419 67.156ZM125.263 61.371C125.003 61.371 124.752 61.4143 124.509 61.501C124.275 61.5877 124.063 61.7133 123.872 61.878C123.681 62.034 123.521 62.2333 123.391 62.476C123.261 62.7187 123.17 62.996 123.118 63.308H127.148C127.105 62.658 126.914 62.1727 126.576 61.852C126.247 61.5313 125.809 61.371 125.263 61.371ZM132.122 67.156C131.827 67.156 131.55 67.1127 131.29 67.026C131.03 66.948 130.8 66.8353 130.601 66.688C130.41 66.532 130.258 66.3457 130.146 66.129C130.033 65.9037 129.977 65.648 129.977 65.362C129.977 65.0067 130.059 64.699 130.224 64.439C130.397 64.1703 130.666 63.9407 131.03 63.75C131.402 63.5593 131.879 63.4033 132.46 63.282C133.04 63.1607 133.738 63.0653 134.553 62.996C134.544 62.7793 134.509 62.5757 134.449 62.385C134.388 62.1943 134.293 62.0297 134.163 61.891C134.033 61.7437 133.859 61.6267 133.643 61.54C133.435 61.4533 133.179 61.41 132.876 61.41C132.46 61.41 132.061 61.4923 131.68 61.657C131.298 61.813 130.96 61.982 130.666 62.164L130.25 61.436C130.406 61.332 130.588 61.228 130.796 61.124C131.012 61.0113 131.238 60.9117 131.472 60.825C131.714 60.7383 131.97 60.669 132.239 60.617C132.507 60.5563 132.78 60.526 133.058 60.526C133.924 60.526 134.566 60.7643 134.982 61.241C135.406 61.709 135.619 62.3373 135.619 63.126V67H134.748L134.657 66.142H134.618C134.262 66.4193 133.868 66.6577 133.435 66.857C133.01 67.0563 132.572 67.156 132.122 67.156ZM132.408 66.298C132.772 66.298 133.127 66.22 133.474 66.064C133.829 65.8993 134.189 65.6653 134.553 65.362V63.698C133.877 63.75 133.309 63.8237 132.85 63.919C132.399 64.0143 132.035 64.1313 131.758 64.27C131.489 64.4 131.298 64.5517 131.186 64.725C131.073 64.8897 131.017 65.076 131.017 65.284C131.017 65.466 131.056 65.622 131.134 65.752C131.212 65.8733 131.311 65.9773 131.433 66.064C131.563 66.142 131.71 66.2027 131.875 66.246C132.048 66.2807 132.226 66.298 132.408 66.298ZM139.865 67V61.553H138.058V60.747L139.865 60.682V60.149C139.865 59.3777 140.068 58.758 140.476 58.29C140.892 57.822 141.537 57.588 142.413 57.588C143.037 57.588 143.643 57.7093 144.233 57.952L143.986 58.758C143.726 58.6367 143.483 58.5587 143.258 58.524C143.041 58.4807 142.794 58.459 142.517 58.459C141.945 58.459 141.533 58.6063 141.282 58.901C141.039 59.187 140.918 59.59 140.918 60.11V60.682H143.57V61.553H140.918V67H139.865ZM146.217 69.717C145.905 69.717 145.627 69.6737 145.385 69.587L145.606 68.742C145.692 68.768 145.783 68.7897 145.879 68.807C145.983 68.8243 146.082 68.833 146.178 68.833C146.62 68.833 146.979 68.703 147.257 68.443C147.534 68.1917 147.751 67.871 147.907 67.481L148.102 67.013L145.151 60.682H146.23L147.777 64.179C147.898 64.4563 148.024 64.7553 148.154 65.076C148.292 65.3967 148.427 65.7087 148.557 66.012H148.609C148.721 65.7087 148.834 65.401 148.947 65.089C149.068 64.7683 149.181 64.465 149.285 64.179L150.663 60.682H151.677L148.895 67.52C148.773 67.832 148.635 68.1223 148.479 68.391C148.323 68.6597 148.136 68.8893 147.92 69.08C147.703 69.2793 147.452 69.4353 147.166 69.548C146.888 69.6607 146.572 69.717 146.217 69.717ZM156.157 69.912C155.229 69.912 154.51 69.7603 153.999 69.457C153.496 69.1537 153.245 68.7203 153.245 68.157C153.245 67.9057 153.331 67.6587 153.505 67.416C153.687 67.1733 153.947 66.9523 154.285 66.753V66.701C154.111 66.6057 153.96 66.4757 153.83 66.311C153.7 66.1463 153.635 65.9297 153.635 65.661C153.635 65.4617 153.7 65.258 153.83 65.05C153.96 64.8333 154.146 64.6427 154.389 64.478V64.426C154.172 64.2613 153.986 64.0447 153.83 63.776C153.682 63.4987 153.609 63.1693 153.609 62.788C153.609 62.4413 153.674 62.1293 153.804 61.852C153.942 61.5747 154.124 61.3407 154.35 61.15C154.575 60.9507 154.835 60.799 155.13 60.695C155.433 60.5823 155.754 60.526 156.092 60.526C156.438 60.526 156.75 60.578 157.028 60.682H159.641V61.553H158.003C158.15 61.7003 158.276 61.8867 158.38 62.112C158.484 62.3373 158.536 62.5757 158.536 62.827C158.536 63.165 158.471 63.4683 158.341 63.737C158.219 64.0057 158.046 64.2353 157.821 64.426C157.604 64.608 157.344 64.751 157.041 64.855C156.746 64.9503 156.43 64.998 156.092 64.998C155.927 64.998 155.749 64.9807 155.559 64.946C155.377 64.9027 155.199 64.842 155.026 64.764C154.696 64.972 154.532 65.2147 154.532 65.492C154.532 65.7433 154.644 65.9297 154.87 66.051C155.104 66.1637 155.429 66.22 155.845 66.22H157.262C158.076 66.22 158.679 66.3327 159.069 66.558C159.467 66.7833 159.667 67.1647 159.667 67.702C159.667 67.9967 159.584 68.2783 159.42 68.547C159.255 68.8157 159.021 69.0497 158.718 69.249C158.414 69.4483 158.046 69.6087 157.613 69.73C157.179 69.8513 156.694 69.912 156.157 69.912ZM156.092 64.283C156.499 64.283 156.841 64.1487 157.119 63.88C157.405 63.6113 157.548 63.2473 157.548 62.788C157.548 62.5713 157.509 62.372 157.431 62.19C157.353 62.008 157.249 61.852 157.119 61.722C156.989 61.592 156.833 61.4923 156.651 61.423C156.477 61.345 156.291 61.306 156.092 61.306C155.892 61.306 155.702 61.345 155.52 61.423C155.346 61.4923 155.195 61.592 155.065 61.722C154.935 61.852 154.831 62.008 154.753 62.19C154.675 62.372 154.636 62.5713 154.636 62.788C154.636 63.2473 154.779 63.6113 155.065 63.88C155.351 64.1487 155.693 64.283 156.092 64.283ZM156.235 69.132C156.599 69.132 156.928 69.0973 157.223 69.028C157.517 68.9587 157.769 68.8633 157.977 68.742C158.185 68.6293 158.341 68.495 158.445 68.339C158.557 68.1917 158.614 68.0357 158.614 67.871C158.614 67.5677 158.492 67.364 158.25 67.26C158.016 67.156 157.656 67.104 157.171 67.104H155.936C155.754 67.104 155.58 67.0953 155.416 67.078C155.26 67.0693 155.112 67.0433 154.974 67C154.67 67.1647 154.458 67.3337 154.337 67.507C154.224 67.689 154.168 67.871 154.168 68.053C154.168 68.3823 154.341 68.6423 154.688 68.833C155.043 69.0323 155.559 69.132 156.235 69.132ZM162.002 67V60.682H162.886L162.977 62.177H163.016C163.345 61.6657 163.748 61.2627 164.225 60.968C164.71 60.6733 165.247 60.526 165.837 60.526C166.071 60.526 166.287 60.5477 166.487 60.591C166.686 60.6257 166.885 60.6907 167.085 60.786L166.838 61.709C166.612 61.631 166.422 61.5747 166.266 61.54C166.118 61.5053 165.919 61.488 165.668 61.488C165.191 61.488 164.732 61.6267 164.29 61.904C163.856 62.1727 163.449 62.6363 163.068 63.295V67H162.002ZM172.188 67.156C171.712 67.156 171.265 67.0823 170.849 66.935C170.442 66.7877 170.082 66.571 169.77 66.285C169.467 65.999 169.224 65.6523 169.042 65.245C168.869 64.829 168.782 64.3567 168.782 63.828C168.782 63.3167 168.869 62.8573 169.042 62.45C169.224 62.0427 169.463 61.696 169.757 61.41C170.061 61.124 170.403 60.9073 170.784 60.76C171.174 60.604 171.582 60.526 172.006 60.526C172.457 60.526 172.86 60.5997 173.215 60.747C173.579 60.8857 173.883 61.085 174.125 61.345C174.377 61.605 174.567 61.917 174.697 62.281C174.827 62.645 174.892 63.048 174.892 63.49C174.892 63.6113 174.888 63.7283 174.879 63.841C174.871 63.9537 174.858 64.0533 174.84 64.14H169.861C169.931 64.8593 170.191 65.401 170.641 65.765C171.101 66.1203 171.66 66.298 172.318 66.298C172.7 66.298 173.042 66.246 173.345 66.142C173.657 66.0293 173.956 65.882 174.242 65.7L174.632 66.402C174.32 66.61 173.961 66.7877 173.553 66.935C173.155 67.0823 172.7 67.156 172.188 67.156ZM172.032 61.371C171.772 61.371 171.521 61.4143 171.278 61.501C171.044 61.5877 170.832 61.7133 170.641 61.878C170.451 62.034 170.29 62.2333 170.16 62.476C170.03 62.7187 169.939 62.996 169.887 63.308H173.917C173.874 62.658 173.683 62.1727 173.345 61.852C173.016 61.5313 172.578 61.371 172.032 61.371ZM179.983 67.156C179.507 67.156 179.06 67.0823 178.644 66.935C178.237 66.7877 177.877 66.571 177.565 66.285C177.262 65.999 177.019 65.6523 176.837 65.245C176.664 64.829 176.577 64.3567 176.577 63.828C176.577 63.3167 176.664 62.8573 176.837 62.45C177.019 62.0427 177.258 61.696 177.552 61.41C177.856 61.124 178.198 60.9073 178.579 60.76C178.969 60.604 179.377 60.526 179.801 60.526C180.252 60.526 180.655 60.5997 181.01 60.747C181.374 60.8857 181.678 61.085 181.92 61.345C182.172 61.605 182.362 61.917 182.492 62.281C182.622 62.645 182.687 63.048 182.687 63.49C182.687 63.6113 182.683 63.7283 182.674 63.841C182.666 63.9537 182.653 64.0533 182.635 64.14H177.656C177.726 64.8593 177.986 65.401 178.436 65.765C178.896 66.1203 179.455 66.298 180.113 66.298C180.495 66.298 180.837 66.246 181.14 66.142C181.452 66.0293 181.751 65.882 182.037 65.7L182.427 66.402C182.115 66.61 181.756 66.7877 181.348 66.935C180.95 67.0823 180.495 67.156 179.983 67.156ZM179.827 61.371C179.567 61.371 179.316 61.4143 179.073 61.501C178.839 61.5877 178.627 61.7133 178.436 61.878C178.246 62.034 178.085 62.2333 177.955 62.476C177.825 62.7187 177.734 62.996 177.682 63.308H181.712C181.669 62.658 181.478 62.1727 181.14 61.852C180.811 61.5313 180.373 61.371 179.827 61.371ZM184.697 67V60.682H185.581L185.672 61.761H185.724C186.054 61.4057 186.409 61.111 186.79 60.877C187.172 60.643 187.609 60.526 188.103 60.526C188.857 60.526 189.408 60.7427 189.754 61.176C190.11 61.6007 190.287 62.2333 190.287 63.074V67H189.221V63.217C189.221 62.619 189.109 62.177 188.883 61.891C188.658 61.5963 188.285 61.449 187.765 61.449C187.575 61.449 187.397 61.475 187.232 61.527C187.076 61.5703 186.92 61.6397 186.764 61.735C186.608 61.8303 186.448 61.9517 186.283 62.099C186.119 62.2377 185.945 62.4023 185.763 62.593V67H184.697ZM192.388 63.113V62.307H197.978V63.113H192.388ZM202.276 67.156C201.513 67.156 200.954 66.9437 200.599 66.519C200.252 66.0857 200.079 65.4487 200.079 64.608V60.682H201.158V64.465C201.158 65.063 201.266 65.5093 201.483 65.804C201.708 66.09 202.085 66.233 202.614 66.233C202.978 66.233 203.307 66.142 203.602 65.96C203.897 65.7693 204.222 65.4703 204.577 65.063V60.682H205.643V67H204.772L204.681 65.895H204.629C204.308 66.2677 203.957 66.571 203.576 66.805C203.203 67.039 202.77 67.156 202.276 67.156ZM210.981 67V61.553H208.043V60.682H212.047V67H210.981ZM211.397 59.356C211.154 59.356 210.951 59.2823 210.786 59.135C210.621 58.979 210.539 58.7753 210.539 58.524C210.539 58.2727 210.621 58.0733 210.786 57.926C210.951 57.77 211.154 57.692 211.397 57.692C211.64 57.692 211.843 57.77 212.008 57.926C212.173 58.0733 212.255 58.2727 212.255 58.524C212.255 58.7753 212.173 58.979 212.008 59.135C211.843 59.2823 211.64 59.356 211.397 59.356Z" fill="#001E2B"/>
<path d="M322.5 44.5H394C397.038 44.5 399.5 46.9624 399.5 50V74C399.5 77.0376 397.038 79.5 394 79.5H322.5V44.5Z" fill="#F9FBFA"/>
<path d="M335 59.7143V64.2857C335 65.2325 335.768 66 336.714 66H339.75V61.1096C339.75 60.5441 339.977 60.0024 340.381 59.6062L342.674 57.3538C342.774 57.2552 342.884 57.1676 343 57.0918V56.7143C343 55.7675 342.232 55 341.286 55H339.8V58.4286C339.8 59.1387 339.224 59.7143 338.514 59.7143H335Z" fill="#889397"/>
<path d="M341.257 60.498C341.247 60.5075 341.237 60.5172 341.228 60.5271C341.222 60.5338 341.216 60.5407 341.21 60.5476C341.075 60.7029 341 60.9023 341 61.1096V61.7976H344.01C344.483 61.7976 344.867 61.4139 344.867 60.9405V58H344.151C343.926 58 343.71 58.0882 343.55 58.2456L341.257 60.498Z" fill="#889397"/>
<path d="M338.867 55H338.151C337.926 55 337.71 55.0882 337.55 55.2456L335.257 57.498C335.092 57.6592 335 57.8796 335 58.1096V58.7976H338.01C338.483 58.7976 338.867 58.4139 338.867 57.9405V55Z" fill="#889397"/>
<path d="M341 62.7143H344.514C345.224 62.7143 345.8 62.1387 345.8 61.4286V58H347.286C348.232 58 349 58.7675 349 59.7143V67.2857C349 68.2325 348.232 69 347.286 69H342.714C341.768 69 341 68.2325 341 67.2857V62.7143Z" fill="#889397"/>
<path d="M354.546 62.385C354.546 65.076 356.613 67.156 359.356 67.156C361.579 67.156 363.36 65.713 363.802 63.906H362.164C361.774 64.959 360.656 65.687 359.356 65.687C357.432 65.687 356.08 64.244 356.08 62.385C356.08 60.526 357.432 59.083 359.356 59.083C360.656 59.083 361.774 59.811 362.164 60.864H363.802C363.36 59.057 361.579 57.614 359.356 57.614C356.613 57.614 354.546 59.694 354.546 62.385ZM371.513 63.75C371.513 61.865 370.031 60.37 368.107 60.37C366.183 60.37 364.701 61.865 364.701 63.75C364.701 65.635 366.183 67.13 368.107 67.13C370.031 67.13 371.513 65.635 371.513 63.75ZM366.144 63.75C366.144 62.593 366.95 61.696 368.107 61.696C369.251 61.696 370.057 62.593 370.057 63.75C370.057 64.907 369.251 65.804 368.107 65.804C366.95 65.804 366.144 64.907 366.144 63.75ZM372.951 69.717H374.381V66.129C374.745 66.649 375.538 67.13 376.474 67.13C378.255 67.13 379.607 65.609 379.607 63.75C379.607 61.891 378.255 60.37 376.474 60.37C375.538 60.37 374.745 60.851 374.381 61.371V60.5H372.951V69.717ZM378.151 63.75C378.151 64.92 377.358 65.83 376.214 65.83C375.057 65.83 374.264 64.92 374.264 63.75C374.264 62.58 375.057 61.67 376.214 61.67C377.358 61.67 378.151 62.58 378.151 63.75ZM382.979 69.717L387.152 60.5H385.566L383.577 65.102L381.575 60.5H380.002L382.797 66.649L381.406 69.717H382.979Z" fill="#001E2B"/>
<path d="M322.5 44.5H394C397.038 44.5 399.5 46.9624 399.5 50V74C399.5 77.0376 397.038 79.5 394 79.5H322.5V44.5Z" stroke="#889397"/>
<rect x="0.5" y="44.5" width="399" height="35" rx="5.5" stroke="#E8EDEB"/>
</svg>
