<svg width="776" height="108" viewBox="0 0 776 108" fill="none" xmlns="http://www.w3.org/2000/svg">
<g filter="url(#filter0_d_2_14181)">
<path d="M6 26C6 12.7452 16.7452 2 30 2H746C759.255 2 770 12.7452 770 26V74C770 87.2548 759.255 98 746 98H30C16.7452 98 6 87.2548 6 74V26Z" fill="white"/>
<path d="M33.78 45H36.408V34.704H39.846V32.22H30.378V34.704H33.78V45ZM41.2603 45H43.7263V40.608C43.7263 38.88 44.5903 38.052 45.7243 38.052C46.7503 38.052 47.3083 38.844 47.3083 40.14V45H49.7743V39.726C49.7743 37.386 48.4783 35.802 46.3003 35.802C45.1303 35.802 44.1943 36.306 43.7263 37.026V31.5H41.2603V45ZM54.8437 32.958C54.8437 32.094 54.1417 31.392 53.2597 31.392C52.4137 31.392 51.6937 32.094 51.6937 32.958C51.6937 33.822 52.4137 34.524 53.2597 34.524C54.1417 34.524 54.8437 33.822 54.8437 32.958ZM52.0357 45H54.5017V36H52.0357V45ZM64.1056 42.462C64.1056 41.058 63.3676 40.122 61.6036 39.672L60.0196 39.24C59.4796 39.114 58.9936 38.916 58.9936 38.412C58.9936 37.98 59.4256 37.728 60.0556 37.728C60.5956 37.728 61.1176 37.962 61.2436 38.646H63.7276C63.5836 36.846 62.0716 35.802 60.0916 35.802C57.8416 35.802 56.4736 36.918 56.4736 38.466C56.4736 39.78 57.1936 40.86 58.7596 41.256L60.4516 41.688C61.2436 41.886 61.5856 42.12 61.5856 42.588C61.5856 43.02 61.1896 43.308 60.4156 43.308C59.6236 43.308 58.9396 42.93 58.8496 42.138H56.2756C56.3656 43.902 58.0216 45.198 60.3436 45.198C62.5216 45.198 64.1056 44.154 64.1056 42.462ZM72.7909 32.958C72.7909 32.094 72.0889 31.392 71.2069 31.392C70.3609 31.392 69.6409 32.094 69.6409 32.958C69.6409 33.822 70.3609 34.524 71.2069 34.524C72.0889 34.524 72.7909 33.822 72.7909 32.958ZM69.9829 45H72.4489V36H69.9829V45ZM82.0529 42.462C82.0529 41.058 81.3149 40.122 79.5509 39.672L77.9669 39.24C77.4269 39.114 76.9409 38.916 76.9409 38.412C76.9409 37.98 77.3729 37.728 78.0029 37.728C78.5429 37.728 79.0649 37.962 79.1909 38.646H81.6749C81.5309 36.846 80.0189 35.802 78.0389 35.802C75.7889 35.802 74.4209 36.918 74.4209 38.466C74.4209 39.78 75.1409 40.86 76.7069 41.256L78.3989 41.688C79.1909 41.886 79.5329 42.12 79.5329 42.588C79.5329 43.02 79.1369 43.308 78.3629 43.308C77.5709 43.308 76.8869 42.93 76.7969 42.138H74.2229C74.3129 43.902 75.9689 45.198 78.2909 45.198C80.4689 45.198 82.0529 44.154 82.0529 42.462ZM87.3542 40.5C87.3542 43.056 89.1902 45.198 91.5842 45.198C92.8262 45.198 93.7802 44.568 94.1762 43.992V45H96.6422V36H94.1762V37.008C93.7802 36.432 92.8262 35.802 91.5842 35.802C89.1902 35.802 87.3542 37.944 87.3542 40.5ZM94.3742 40.5C94.3742 41.904 93.4562 42.948 92.1062 42.948C90.7562 42.948 89.8382 41.904 89.8382 40.5C89.8382 39.096 90.7562 38.052 92.1062 38.052C93.4562 38.052 94.3742 39.096 94.3742 40.5ZM111.901 41.562H109.345C109.003 42.372 108.337 42.966 107.293 42.966C105.997 42.966 105.043 41.994 105.043 40.5C105.043 39.006 105.997 38.034 107.293 38.034C108.337 38.034 109.003 38.628 109.345 39.438H111.901C111.415 37.368 109.777 35.802 107.293 35.802C104.557 35.802 102.559 37.89 102.559 40.5C102.559 43.11 104.557 45.198 107.293 45.198C109.777 45.198 111.415 43.632 111.901 41.562ZM113.001 40.5C113.001 43.056 114.837 45.198 117.231 45.198C118.473 45.198 119.427 44.568 119.823 43.992V45H122.289V36H119.823V37.008C119.427 36.432 118.473 35.802 117.231 35.802C114.837 35.802 113.001 37.944 113.001 40.5ZM120.021 40.5C120.021 41.904 119.103 42.948 117.753 42.948C116.403 42.948 115.485 41.904 115.485 40.5C115.485 39.096 116.403 38.052 117.753 38.052C119.103 38.052 120.021 39.096 120.021 40.5ZM124.686 45H127.152V40.698C127.152 39.222 127.926 38.304 129.096 38.304C129.492 38.304 129.834 38.376 130.212 38.502V36C129.906 35.91 129.636 35.892 129.384 35.892C128.376 35.892 127.458 36.558 127.152 37.44V36H124.686V45ZM130.895 40.5C130.895 43.056 132.731 45.198 135.125 45.198C136.367 45.198 137.321 44.568 137.717 43.992V45H140.183V31.5H137.717V37.008C137.321 36.432 136.367 35.802 135.125 35.802C132.731 35.802 130.895 37.944 130.895 40.5ZM137.915 40.5C137.915 41.904 136.997 42.948 135.647 42.948C134.297 42.948 133.379 41.904 133.379 40.5C133.379 39.096 134.297 38.052 135.647 38.052C136.997 38.052 137.915 39.096 137.915 40.5Z" fill="#001E2B"/>
<path d="M31.222 69H32.431V59.77H31.222V69ZM34.6839 69H35.8019V65.776C35.8019 64.255 36.6339 63.397 37.6869 63.397C38.5969 63.397 39.2209 64.073 39.2209 65.165V69H40.3259V64.996C40.3259 63.384 39.3249 62.37 37.8689 62.37C37.0239 62.37 36.2439 62.734 35.8019 63.501V62.5H34.6839V69ZM48.7821 68.909V67.908C48.5741 67.986 48.2621 68.038 47.9891 68.038C47.2871 68.038 46.9101 67.765 46.9101 66.933V63.527H48.7821V62.5H46.9101V60.693H45.7921V62.5H44.4141V63.527H45.7921V67.076C45.7921 68.428 46.6501 69.065 47.7811 69.065C48.1841 69.065 48.5091 69 48.7821 68.909ZM50.1192 66.491C50.1192 68.103 51.0812 69.13 52.5112 69.13C53.3302 69.13 54.0842 68.753 54.5132 67.999V69H55.6312V62.5H54.5132V65.724C54.5132 67.219 53.7202 68.103 52.7062 68.103C51.8092 68.103 51.2372 67.414 51.2372 66.322V62.5H50.1192V66.491ZM61.2615 68.909V67.908C61.0535 67.986 60.7415 68.038 60.4685 68.038C59.7665 68.038 59.3895 67.765 59.3895 66.933V63.527H61.2615V62.5H59.3895V60.693H58.2715V62.5H56.8935V63.527H58.2715V67.076C58.2715 68.428 59.1295 69.065 60.2605 69.065C60.6635 69.065 60.9885 69 61.2615 68.909ZM68.8799 65.75C68.8799 63.878 67.4369 62.37 65.4869 62.37C63.5239 62.37 62.0809 63.878 62.0809 65.75C62.0809 67.622 63.5239 69.13 65.4869 69.13C67.4369 69.13 68.8799 67.622 68.8799 65.75ZM63.2249 65.75C63.2249 64.45 64.1349 63.41 65.4869 63.41C66.8389 63.41 67.7359 64.45 67.7359 65.75C67.7359 67.05 66.8389 68.09 65.4869 68.09C64.1349 68.09 63.2249 67.05 63.2249 65.75ZM70.4846 69H71.6026V65.776C71.6026 64.255 72.4996 63.54 73.3186 63.54C73.5396 63.54 73.7216 63.566 73.9296 63.644V62.487C73.7476 62.448 73.5916 62.435 73.4226 62.435C72.6686 62.435 71.8626 62.929 71.6026 63.761V62.5H70.4846V69ZM76.5974 59.965C76.5974 59.536 76.2594 59.172 75.8174 59.172C75.3754 59.172 75.0114 59.536 75.0114 59.965C75.0114 60.407 75.3754 60.758 75.8174 60.758C76.2594 60.758 76.5974 60.407 76.5974 59.965ZM75.2454 69H76.3634V62.5H75.2454V69ZM77.9757 65.75C77.9757 67.609 79.3407 69.13 81.1607 69.13C82.1357 69.13 83.0197 68.623 83.4487 67.999V69H84.5667V62.5H83.4487V63.501C83.0197 62.877 82.1357 62.37 81.1607 62.37C79.3407 62.37 77.9757 63.891 77.9757 65.75ZM83.5397 65.75C83.5397 67.063 82.6427 68.103 81.3297 68.103C80.0167 68.103 79.1067 67.063 79.1067 65.75C79.1067 64.437 80.0167 63.397 81.3297 63.397C82.6427 63.397 83.5397 64.437 83.5397 65.75ZM86.6712 69H87.7892V59.25H86.6712V69ZM94.3935 67.245C94.3935 66.27 93.8085 65.594 92.7295 65.321L91.6895 65.048C91.0005 64.866 90.7015 64.593 90.7015 64.112C90.7015 63.618 91.1955 63.306 91.8195 63.306C92.4305 63.306 92.8985 63.657 93.0675 64.229H94.1855C94.0685 63.189 93.2105 62.37 91.8195 62.37C90.5065 62.37 89.5705 63.046 89.5705 64.125C89.5705 65.048 90.1295 65.75 91.2475 66.036L92.1835 66.283C92.9505 66.491 93.2625 66.803 93.2625 67.323C93.2625 67.895 92.7165 68.181 92.0145 68.181C91.3385 68.181 90.6625 67.908 90.5065 67.115H89.3625C89.4535 68.428 90.6105 69.13 92.0015 69.13C93.3535 69.13 94.3935 68.532 94.3935 67.245ZM97.3678 68.714C97.4718 68.545 97.5498 68.35 97.5498 68.129C97.5498 67.609 97.1208 67.154 96.5878 67.154C96.0548 67.154 95.6258 67.609 95.6258 68.129C95.6258 68.519 95.8468 68.844 96.1588 69L95.2878 70.859H96.0288L97.3678 68.714ZM101.932 65.75C101.932 67.609 103.297 69.13 105.117 69.13C106.092 69.13 106.976 68.623 107.405 67.999V69H108.523V59.25H107.405V63.501C106.976 62.877 106.092 62.37 105.117 62.37C103.297 62.37 101.932 63.891 101.932 65.75ZM107.496 65.75C107.496 67.063 106.599 68.103 105.286 68.103C103.973 68.103 103.063 67.063 103.063 65.75C103.063 64.437 103.973 63.397 105.286 63.397C106.599 63.397 107.496 64.437 107.496 65.75ZM116.438 67.024H115.294C114.904 67.804 114.215 68.116 113.409 68.116C112.239 68.116 111.29 67.232 111.251 66.049H116.542C116.698 64.034 115.463 62.37 113.422 62.37C111.394 62.37 110.12 63.852 110.12 65.75C110.12 67.687 111.498 69.13 113.396 69.13C115.047 69.13 116.113 68.168 116.438 67.024ZM113.383 63.358C114.345 63.358 115.151 63.956 115.359 65.165H111.303C111.524 63.878 112.447 63.358 113.383 63.358ZM118.613 69H119.731V63.527H121.616V62.5H119.731V61.304C119.731 60.485 120.095 60.199 120.81 60.199C121.07 60.199 121.408 60.251 121.616 60.329V59.341C121.33 59.237 120.992 59.172 120.602 59.172C119.471 59.172 118.613 59.848 118.613 61.187V62.5H117.235V63.527H118.613V69ZM122.168 65.75C122.168 67.609 123.533 69.13 125.353 69.13C126.328 69.13 127.212 68.623 127.641 67.999V69H128.759V62.5H127.641V63.501C127.212 62.877 126.328 62.37 125.353 62.37C123.533 62.37 122.168 63.891 122.168 65.75ZM127.732 65.75C127.732 67.063 126.835 68.103 125.522 68.103C124.209 68.103 123.299 67.063 123.299 65.75C123.299 64.437 124.209 63.397 125.522 63.397C126.835 63.397 127.732 64.437 127.732 65.75ZM130.773 66.491C130.773 68.103 131.735 69.13 133.165 69.13C133.984 69.13 134.738 68.753 135.167 67.999V69H136.285V62.5H135.167V65.724C135.167 67.219 134.374 68.103 133.36 68.103C132.463 68.103 131.891 67.414 131.891 66.322V62.5H130.773V66.491ZM138.392 69H139.51V59.25H138.392V69ZM145.152 68.909V67.908C144.944 67.986 144.632 68.038 144.359 68.038C143.657 68.038 143.28 67.765 143.28 66.933V63.527H145.152V62.5H143.28V60.693H142.162V62.5H140.784V63.527H142.162V67.076C142.162 68.428 143.02 69.065 144.151 69.065C144.554 69.065 144.879 69 145.152 68.909ZM153.023 68.909V67.908C152.815 67.986 152.503 68.038 152.23 68.038C151.528 68.038 151.151 67.765 151.151 66.933V63.527H153.023V62.5H151.151V60.693H150.033V62.5H148.655V63.527H150.033V67.076C150.033 68.428 150.891 69.065 152.022 69.065C152.425 69.065 152.75 69 153.023 68.909ZM160.642 65.75C160.642 63.878 159.199 62.37 157.249 62.37C155.286 62.37 153.843 63.878 153.843 65.75C153.843 67.622 155.286 69.13 157.249 69.13C159.199 69.13 160.642 67.622 160.642 65.75ZM154.987 65.75C154.987 64.45 155.897 63.41 157.249 63.41C158.601 63.41 159.498 64.45 159.498 65.75C159.498 67.05 158.601 68.09 157.249 68.09C155.897 68.09 154.987 67.05 154.987 65.75ZM169.867 67.245C169.867 66.27 169.282 65.594 168.203 65.321L167.163 65.048C166.474 64.866 166.175 64.593 166.175 64.112C166.175 63.618 166.669 63.306 167.293 63.306C167.904 63.306 168.372 63.657 168.541 64.229H169.659C169.542 63.189 168.684 62.37 167.293 62.37C165.98 62.37 165.044 63.046 165.044 64.125C165.044 65.048 165.603 65.75 166.721 66.036L167.657 66.283C168.424 66.491 168.736 66.803 168.736 67.323C168.736 67.895 168.19 68.181 167.488 68.181C166.812 68.181 166.136 67.908 165.98 67.115H164.836C164.927 68.428 166.084 69.13 167.475 69.13C168.827 69.13 169.867 68.532 169.867 67.245ZM171.45 69H172.568V65.776C172.568 64.255 173.4 63.397 174.453 63.397C175.363 63.397 175.987 64.073 175.987 65.165V69H177.092V64.996C177.092 63.384 176.091 62.37 174.635 62.37C173.79 62.37 173.01 62.734 172.568 63.501V59.25H171.45V69ZM185.385 65.75C185.385 63.878 183.942 62.37 181.992 62.37C180.029 62.37 178.586 63.878 178.586 65.75C178.586 67.622 180.029 69.13 181.992 69.13C183.942 69.13 185.385 67.622 185.385 65.75ZM179.73 65.75C179.73 64.45 180.64 63.41 181.992 63.41C183.344 63.41 184.241 64.45 184.241 65.75C184.241 67.05 183.344 68.09 181.992 68.09C180.64 68.09 179.73 67.05 179.73 65.75ZM192.476 69H193.464L195.674 62.5H194.491L192.918 67.245L191.293 62.5H190.435L188.81 67.245L187.237 62.5H186.067L188.277 69H189.265L190.877 64.32L192.476 69ZM198.231 59.965C198.231 59.536 197.893 59.172 197.451 59.172C197.009 59.172 196.645 59.536 196.645 59.965C196.645 60.407 197.009 60.758 197.451 60.758C197.893 60.758 198.231 60.407 198.231 59.965ZM196.879 69H197.997V62.5H196.879V69ZM200.116 69H201.234V65.776C201.234 64.255 202.066 63.397 203.119 63.397C204.029 63.397 204.653 64.073 204.653 65.165V69H205.758V64.996C205.758 63.384 204.757 62.37 203.301 62.37C202.456 62.37 201.676 62.734 201.234 63.501V62.5H200.116V69ZM207.486 69.598C207.681 70.911 208.89 71.847 210.632 71.847C212.4 71.847 213.83 70.768 213.83 68.597V62.5H212.712V63.501C212.27 62.851 211.412 62.37 210.45 62.37C208.643 62.37 207.265 63.826 207.265 65.672C207.265 67.531 208.643 68.987 210.45 68.987C211.412 68.987 212.27 68.493 212.712 67.843V68.61C212.712 70.079 211.828 70.859 210.658 70.859C209.605 70.859 208.877 70.456 208.578 69.598H207.486ZM212.803 65.672C212.803 66.985 211.906 67.947 210.606 67.947C209.306 67.947 208.409 66.985 208.409 65.672C208.409 64.372 209.306 63.397 210.606 63.397C211.906 63.397 212.803 64.372 212.803 65.672ZM220.423 59.965C220.423 59.536 220.085 59.172 219.643 59.172C219.201 59.172 218.837 59.536 218.837 59.965C218.837 60.407 219.201 60.758 219.643 60.758C220.085 60.758 220.423 60.407 220.423 59.965ZM219.071 69H220.189V62.5H219.071V69ZM222.308 69H223.426V65.776C223.426 64.255 224.258 63.397 225.311 63.397C226.221 63.397 226.845 64.073 226.845 65.165V69H227.95V64.996C227.95 63.384 226.949 62.37 225.493 62.37C224.648 62.37 223.868 62.734 223.426 63.501V62.5H222.308V69ZM234.448 67.245C234.448 66.27 233.863 65.594 232.784 65.321L231.744 65.048C231.055 64.866 230.756 64.593 230.756 64.112C230.756 63.618 231.25 63.306 231.874 63.306C232.485 63.306 232.953 63.657 233.122 64.229H234.24C234.123 63.189 233.265 62.37 231.874 62.37C230.561 62.37 229.625 63.046 229.625 64.125C229.625 65.048 230.184 65.75 231.302 66.036L232.238 66.283C233.005 66.491 233.317 66.803 233.317 67.323C233.317 67.895 232.771 68.181 232.069 68.181C231.393 68.181 230.717 67.908 230.561 67.115H229.417C229.508 68.428 230.665 69.13 232.056 69.13C233.408 69.13 234.448 68.532 234.448 67.245ZM239.453 68.909V67.908C239.245 67.986 238.933 68.038 238.66 68.038C237.958 68.038 237.581 67.765 237.581 66.933V63.527H239.453V62.5H237.581V60.693H236.463V62.5H235.085V63.527H236.463V67.076C236.463 68.428 237.321 69.065 238.452 69.065C238.855 69.065 239.18 69 239.453 68.909ZM240.881 69H241.999V65.776C241.999 64.255 242.896 63.54 243.715 63.54C243.936 63.54 244.118 63.566 244.326 63.644V62.487C244.144 62.448 243.988 62.435 243.819 62.435C243.065 62.435 242.259 62.929 241.999 63.761V62.5H240.881V69ZM245.551 66.491C245.551 68.103 246.513 69.13 247.943 69.13C248.762 69.13 249.516 68.753 249.945 67.999V69H251.063V62.5H249.945V65.724C249.945 67.219 249.152 68.103 248.138 68.103C247.241 68.103 246.669 67.414 246.669 66.322V62.5H245.551V66.491ZM259.332 66.712H258.136C257.85 67.531 257.07 68.103 256.056 68.103C254.704 68.103 253.794 67.063 253.794 65.75C253.794 64.437 254.704 63.397 256.056 63.397C257.07 63.397 257.85 63.969 258.136 64.788H259.332C258.968 63.384 257.694 62.37 256.056 62.37C254.08 62.37 252.663 63.891 252.663 65.75C252.663 67.609 254.08 69.13 256.056 69.13C257.694 69.13 258.968 68.116 259.332 66.712ZM264.272 68.909V67.908C264.064 67.986 263.752 68.038 263.479 68.038C262.777 68.038 262.4 67.765 262.4 66.933V63.527H264.272V62.5H262.4V60.693H261.282V62.5H259.904V63.527H261.282V67.076C261.282 68.428 262.14 69.065 263.271 69.065C263.674 69.065 263.999 69 264.272 68.909ZM267.052 59.965C267.052 59.536 266.714 59.172 266.272 59.172C265.83 59.172 265.466 59.536 265.466 59.965C265.466 60.407 265.83 60.758 266.272 60.758C266.714 60.758 267.052 60.407 267.052 59.965ZM265.7 69H266.818V62.5H265.7V69ZM275.217 65.75C275.217 63.878 273.774 62.37 271.824 62.37C269.861 62.37 268.418 63.878 268.418 65.75C268.418 67.622 269.861 69.13 271.824 69.13C273.774 69.13 275.217 67.622 275.217 65.75ZM269.562 65.75C269.562 64.45 270.472 63.41 271.824 63.41C273.176 63.41 274.073 64.45 274.073 65.75C274.073 67.05 273.176 68.09 271.824 68.09C270.472 68.09 269.562 67.05 269.562 65.75ZM276.822 69H277.94V65.776C277.94 64.255 278.772 63.397 279.825 63.397C280.735 63.397 281.359 64.073 281.359 65.165V69H282.464V64.996C282.464 63.384 281.463 62.37 280.007 62.37C279.162 62.37 278.382 62.734 277.94 63.501V62.5H276.822V69ZM288.962 67.245C288.962 66.27 288.377 65.594 287.298 65.321L286.258 65.048C285.569 64.866 285.27 64.593 285.27 64.112C285.27 63.618 285.764 63.306 286.388 63.306C286.999 63.306 287.467 63.657 287.636 64.229H288.754C288.637 63.189 287.779 62.37 286.388 62.37C285.075 62.37 284.139 63.046 284.139 64.125C284.139 65.048 284.698 65.75 285.816 66.036L286.752 66.283C287.519 66.491 287.831 66.803 287.831 67.323C287.831 67.895 287.285 68.181 286.583 68.181C285.907 68.181 285.231 67.908 285.075 67.115H283.931C284.022 68.428 285.179 69.13 286.57 69.13C287.922 69.13 288.962 68.532 288.962 67.245ZM294.062 69H295.18V63.527H297.065V62.5H295.18V61.304C295.18 60.485 295.544 60.199 296.259 60.199C296.519 60.199 296.857 60.251 297.065 60.329V59.341C296.779 59.237 296.441 59.172 296.051 59.172C294.92 59.172 294.062 59.848 294.062 61.187V62.5H292.684V63.527H294.062V69ZM304.403 65.75C304.403 63.878 302.96 62.37 301.01 62.37C299.047 62.37 297.604 63.878 297.604 65.75C297.604 67.622 299.047 69.13 301.01 69.13C302.96 69.13 304.403 67.622 304.403 65.75ZM298.748 65.75C298.748 64.45 299.658 63.41 301.01 63.41C302.362 63.41 303.259 64.45 303.259 65.75C303.259 67.05 302.362 68.09 301.01 68.09C299.658 68.09 298.748 67.05 298.748 65.75ZM306.008 69H307.126V65.776C307.126 64.255 308.023 63.54 308.842 63.54C309.063 63.54 309.245 63.566 309.453 63.644V62.487C309.271 62.448 309.115 62.435 308.946 62.435C308.192 62.435 307.386 62.929 307.126 63.761V62.5H306.008V69ZM316.882 68.909V67.908C316.674 67.986 316.362 68.038 316.089 68.038C315.387 68.038 315.01 67.765 315.01 66.933V63.527H316.882V62.5H315.01V60.693H313.892V62.5H312.514V63.527H313.892V67.076C313.892 68.428 314.75 69.065 315.881 69.065C316.284 69.065 316.609 69 316.882 68.909ZM318.31 69H319.428V65.776C319.428 64.255 320.26 63.397 321.313 63.397C322.223 63.397 322.847 64.073 322.847 65.165V69H323.952V64.996C323.952 63.384 322.951 62.37 321.495 62.37C320.65 62.37 319.87 62.734 319.428 63.501V59.25H318.31V69ZM327.317 59.965C327.317 59.536 326.979 59.172 326.537 59.172C326.095 59.172 325.731 59.536 325.731 59.965C325.731 60.407 326.095 60.758 326.537 60.758C326.979 60.758 327.317 60.407 327.317 59.965ZM325.965 69H327.083V62.5H325.965V69ZM333.687 67.245C333.687 66.27 333.102 65.594 332.023 65.321L330.983 65.048C330.294 64.866 329.995 64.593 329.995 64.112C329.995 63.618 330.489 63.306 331.113 63.306C331.724 63.306 332.192 63.657 332.361 64.229H333.479C333.362 63.189 332.504 62.37 331.113 62.37C329.8 62.37 328.864 63.046 328.864 64.125C328.864 65.048 329.423 65.75 330.541 66.036L331.477 66.283C332.244 66.491 332.556 66.803 332.556 67.323C332.556 67.895 332.01 68.181 331.308 68.181C330.632 68.181 329.956 67.908 329.8 67.115H328.656C328.747 68.428 329.904 69.13 331.295 69.13C332.647 69.13 333.687 68.532 333.687 67.245ZM347.481 64.385C347.481 61.707 345.375 59.614 342.71 59.614C340.058 59.614 337.939 61.707 337.939 64.385C337.939 67.063 340.058 69.156 342.71 69.156C345.375 69.156 347.481 67.063 347.481 64.385ZM339.161 64.385C339.161 62.357 340.695 60.758 342.71 60.758C344.738 60.758 346.272 62.357 346.272 64.385C346.272 66.413 344.738 68.012 342.71 68.012C340.695 68.012 339.161 66.413 339.161 64.385ZM348.64 66.53C348.692 67.934 349.914 69.156 351.851 69.156C353.567 69.156 354.789 68.168 354.789 66.608C354.789 65.23 353.983 64.424 352.579 63.917L351.396 63.488C350.499 63.163 350.07 62.773 350.07 61.993C350.07 61.226 350.759 60.745 351.643 60.745C352.397 60.745 353.151 61.148 353.385 62.11H354.581C354.464 60.901 353.541 59.614 351.669 59.614C350.057 59.614 348.861 60.524 348.861 62.032C348.874 63.332 349.563 64.125 350.993 64.632L352.267 65.1C353.125 65.412 353.58 65.919 353.58 66.647C353.58 67.505 352.8 68.025 351.838 68.025C350.967 68.025 349.953 67.557 349.849 66.53H348.64ZM364.853 69H365.841L368.051 62.5H366.868L365.295 67.245L363.67 62.5H362.812L361.187 67.245L359.614 62.5H358.444L360.654 69H361.642L363.254 64.32L364.853 69ZM369.256 69H370.374V65.776C370.374 64.255 371.206 63.397 372.259 63.397C373.169 63.397 373.793 64.073 373.793 65.165V69H374.898V64.996C374.898 63.384 373.897 62.37 372.441 62.37C371.596 62.37 370.816 62.734 370.374 63.501V59.25H369.256V69ZM382.722 67.024H381.578C381.188 67.804 380.499 68.116 379.693 68.116C378.523 68.116 377.574 67.232 377.535 66.049H382.826C382.982 64.034 381.747 62.37 379.706 62.37C377.678 62.37 376.404 63.852 376.404 65.75C376.404 67.687 377.782 69.13 379.68 69.13C381.331 69.13 382.397 68.168 382.722 67.024ZM379.667 63.358C380.629 63.358 381.435 63.956 381.643 65.165H377.587C377.808 63.878 378.731 63.358 379.667 63.358ZM384.44 69H385.558V65.776C385.558 64.255 386.39 63.397 387.443 63.397C388.353 63.397 388.977 64.073 388.977 65.165V69H390.082V64.996C390.082 63.384 389.081 62.37 387.625 62.37C386.78 62.37 386 62.734 385.558 63.501V62.5H384.44V69ZM394.724 65.75C394.724 67.609 396.089 69.13 397.909 69.13C398.884 69.13 399.768 68.623 400.197 67.999V69H401.315V62.5H400.197V63.501C399.768 62.877 398.884 62.37 397.909 62.37C396.089 62.37 394.724 63.891 394.724 65.75ZM400.288 65.75C400.288 67.063 399.391 68.103 398.078 68.103C396.765 68.103 395.855 67.063 395.855 65.75C395.855 64.437 396.765 63.397 398.078 63.397C399.391 63.397 400.288 64.437 400.288 65.75ZM403.419 71.717H404.537V67.999C404.966 68.623 405.85 69.13 406.825 69.13C408.632 69.13 410.01 67.609 410.01 65.75C410.01 63.891 408.632 62.37 406.825 62.37C405.85 62.37 404.966 62.877 404.537 63.501V62.5H403.419V71.717ZM408.866 65.75C408.866 67.063 407.969 68.103 406.656 68.103C405.343 68.103 404.446 67.063 404.446 65.75C404.446 64.437 405.343 63.397 406.656 63.397C407.969 63.397 408.866 64.437 408.866 65.75ZM411.62 71.717H412.738V67.999C413.167 68.623 414.051 69.13 415.026 69.13C416.833 69.13 418.211 67.609 418.211 65.75C418.211 63.891 416.833 62.37 415.026 62.37C414.051 62.37 413.167 62.877 412.738 63.501V62.5H411.62V71.717ZM417.067 65.75C417.067 67.063 416.17 68.103 414.857 68.103C413.544 68.103 412.647 67.063 412.647 65.75C412.647 64.437 413.544 63.397 414.857 63.397C416.17 63.397 417.067 64.437 417.067 65.75ZM419.822 69H420.94V59.25H419.822V69ZM424.411 59.965C424.411 59.536 424.073 59.172 423.631 59.172C423.189 59.172 422.825 59.536 422.825 59.965C422.825 60.407 423.189 60.758 423.631 60.758C424.073 60.758 424.411 60.407 424.411 59.965ZM423.059 69H424.177V62.5H423.059V69ZM432.458 66.712H431.262C430.976 67.531 430.196 68.103 429.182 68.103C427.83 68.103 426.92 67.063 426.92 65.75C426.92 64.437 427.83 63.397 429.182 63.397C430.196 63.397 430.976 63.969 431.262 64.788H432.458C432.094 63.384 430.82 62.37 429.182 62.37C427.206 62.37 425.789 63.891 425.789 65.75C425.789 67.609 427.206 69.13 429.182 69.13C430.82 69.13 432.094 68.116 432.458 66.712ZM433.432 65.75C433.432 67.609 434.797 69.13 436.617 69.13C437.592 69.13 438.476 68.623 438.905 67.999V69H440.023V62.5H438.905V63.501C438.476 62.877 437.592 62.37 436.617 62.37C434.797 62.37 433.432 63.891 433.432 65.75ZM438.996 65.75C438.996 67.063 438.099 68.103 436.786 68.103C435.473 68.103 434.563 67.063 434.563 65.75C434.563 64.437 435.473 63.397 436.786 63.397C438.099 63.397 438.996 64.437 438.996 65.75ZM443.245 67.999C443.674 68.623 444.558 69.13 445.533 69.13C447.34 69.13 448.718 67.609 448.718 65.75C448.718 63.891 447.34 62.37 445.533 62.37C444.558 62.37 443.674 62.877 443.245 63.501V59.25H442.127V69H443.245V67.999ZM447.574 65.75C447.574 67.063 446.677 68.103 445.364 68.103C444.051 68.103 443.154 67.063 443.154 65.75C443.154 64.437 444.051 63.397 445.364 63.397C446.677 63.397 447.574 64.437 447.574 65.75ZM450.316 69H451.434V59.25H450.316V69ZM459.364 67.024H458.22C457.83 67.804 457.141 68.116 456.335 68.116C455.165 68.116 454.216 67.232 454.177 66.049H459.468C459.624 64.034 458.389 62.37 456.348 62.37C454.32 62.37 453.046 63.852 453.046 65.75C453.046 67.687 454.424 69.13 456.322 69.13C457.973 69.13 459.039 68.168 459.364 67.024ZM456.309 63.358C457.271 63.358 458.077 63.956 458.285 65.165H454.229C454.45 63.878 455.373 63.358 456.309 63.358ZM462.628 68.129C462.628 67.609 462.199 67.154 461.666 67.154C461.133 67.154 460.704 67.609 460.704 68.129C460.704 68.662 461.133 69.104 461.666 69.104C462.199 69.104 462.628 68.662 462.628 68.129Z" fill="#001E2B"/>
<path fill-rule="evenodd" clip-rule="evenodd" d="M743.546 42.1673C744.132 41.5816 744.132 40.6318 743.546 40.046L736.121 32.6213L735.061 31.5607C734.475 30.9749 733.525 30.9749 732.939 31.5607L731.879 32.6213L724.454 40.046C723.868 40.6317 723.868 41.5814 724.454 42.1673L725.515 43.228C726.1 43.8137 727.05 43.8137 727.636 43.228L734 36.864L740.364 43.228C740.95 43.8137 741.899 43.8137 742.485 43.228L743.546 42.1673Z" fill="#889397"/>
<path d="M30 3H746V1H30V3ZM769 26V74H771V26H769ZM746 97H30V99H746V97ZM7 74V26H5V74H7ZM30 97C17.2975 97 7 86.7025 7 74H5C5 87.8071 16.1929 99 30 99V97ZM769 74C769 86.7025 758.703 97 746 97V99C759.807 99 771 87.8071 771 74H769ZM746 3C758.703 3 769 13.2975 769 26H771C771 12.1929 759.807 1 746 1V3ZM30 1C16.1929 1 5 12.1929 5 26H7C7 13.2975 17.2975 3 30 3V1Z" fill="#E8EDEB"/>
</g>
<defs>
<filter id="filter0_d_2_14181" x="0" y="0" width="776" height="108" filterUnits="userSpaceOnUse" color-interpolation-filters="sRGB">
<feFlood flood-opacity="0" result="BackgroundImageFix"/>
<feColorMatrix in="SourceAlpha" type="matrix" values="0 0 0 0 0 0 0 0 0 0 0 0 0 0 0 0 0 0 127 0" result="hardAlpha"/>
<feMorphology radius="4" operator="erode" in="SourceAlpha" result="effect1_dropShadow_2_14181"/>
<feOffset dy="4"/>
<feGaussianBlur stdDeviation="5"/>
<feColorMatrix type="matrix" values="0 0 0 0 0 0 0 0 0 0.117647 0 0 0 0 0.168627 0 0 0 0.3 0"/>
<feBlend mode="normal" in2="BackgroundImageFix" result="effect1_dropShadow_2_14181"/>
<feBlend mode="normal" in="SourceGraphic" in2="effect1_dropShadow_2_14181" result="shape"/>
</filter>
</defs>
</svg>
