<svg width="1408" height="100" viewBox="0 0 1408 100" fill="none" xmlns="http://www.w3.org/2000/svg">
<g filter="url(#filter0_d_2_16103)">
<rect width="1400" height="92" transform="translate(4 5)" fill="white"/>
<rect x="1226.5" y="33.5" width="68" height="35" rx="5.5" fill="#F9FBFA"/>
<path d="M1238.55 51.385C1238.55 54.076 1240.61 56.156 1243.36 56.156C1245.58 56.156 1247.36 54.713 1247.8 52.906H1246.16C1245.77 53.959 1244.66 54.687 1243.36 54.687C1241.43 54.687 1240.08 53.244 1240.08 51.385C1240.08 49.526 1241.43 48.083 1243.36 48.083C1244.66 48.083 1245.77 48.811 1246.16 49.864H1247.8C1247.36 48.057 1245.58 46.614 1243.36 46.614C1240.61 46.614 1238.55 48.694 1238.55 51.385ZM1248.7 52.75C1248.7 54.609 1250.05 56.13 1251.83 56.13C1252.77 56.13 1253.55 55.649 1253.91 55.129V56H1255.34V49.5H1253.91V50.371C1253.55 49.851 1252.77 49.37 1251.83 49.37C1250.05 49.37 1248.7 50.891 1248.7 52.75ZM1254.03 52.75C1254.03 53.92 1253.25 54.83 1252.09 54.83C1250.94 54.83 1250.16 53.92 1250.16 52.75C1250.16 51.58 1250.94 50.67 1252.09 50.67C1253.25 50.67 1254.03 51.58 1254.03 52.75ZM1257.28 56H1258.71V52.802C1258.71 51.411 1259.44 50.67 1260.39 50.67C1261.22 50.67 1261.74 51.294 1261.74 52.321V56H1263.17V52.087C1263.17 50.436 1262.2 49.37 1260.69 49.37C1259.84 49.37 1259.1 49.734 1258.71 50.384V49.5H1257.28V56ZM1271.24 53.621H1269.73C1269.47 54.323 1268.84 54.83 1267.94 54.83C1266.78 54.83 1265.99 53.959 1265.99 52.75C1265.99 51.541 1266.78 50.67 1267.94 50.67C1268.84 50.67 1269.47 51.177 1269.73 51.879H1271.24C1270.89 50.436 1269.65 49.37 1267.94 49.37C1265.96 49.37 1264.53 50.878 1264.53 52.75C1264.53 54.622 1265.96 56.13 1267.94 56.13C1269.65 56.13 1270.89 55.064 1271.24 53.621ZM1278.65 53.959H1277.15C1276.86 54.583 1276.23 54.869 1275.52 54.869C1274.36 54.869 1273.61 54.089 1273.55 53.101H1278.73C1278.86 50.891 1277.47 49.37 1275.48 49.37C1273.48 49.37 1272.14 50.826 1272.14 52.75C1272.14 54.7 1273.53 56.13 1275.46 56.13C1277.12 56.13 1278.29 55.181 1278.65 53.959ZM1275.44 50.566C1276.23 50.566 1276.97 51.034 1277.19 52.087H1273.61C1273.8 51.086 1274.54 50.566 1275.44 50.566ZM1280.2 56H1281.63V46.25H1280.2V56Z" fill="#1C2D38"/>
<rect x="1226.5" y="33.5" width="68" height="35" rx="5.5" stroke="#889397"/>
<rect x="1305" y="33" width="75" height="36" rx="6" fill="#00684A"/>
<path d="M1317.55 51.385C1317.55 54.076 1319.61 56.156 1322.36 56.156C1324.58 56.156 1326.36 54.713 1326.8 52.906H1325.16C1324.77 53.959 1323.66 54.687 1322.36 54.687C1320.43 54.687 1319.08 53.244 1319.08 51.385C1319.08 49.526 1320.43 48.083 1322.36 48.083C1323.66 48.083 1324.77 48.811 1325.16 49.864H1326.8C1326.36 48.057 1324.58 46.614 1322.36 46.614C1319.61 46.614 1317.55 48.694 1317.55 51.385ZM1334.51 52.75C1334.51 50.865 1333.03 49.37 1331.11 49.37C1329.18 49.37 1327.7 50.865 1327.7 52.75C1327.7 54.635 1329.18 56.13 1331.11 56.13C1333.03 56.13 1334.51 54.635 1334.51 52.75ZM1329.14 52.75C1329.14 51.593 1329.95 50.696 1331.11 50.696C1332.25 50.696 1333.06 51.593 1333.06 52.75C1333.06 53.907 1332.25 54.804 1331.11 54.804C1329.95 54.804 1329.14 53.907 1329.14 52.75ZM1335.95 56H1337.38V52.802C1337.38 51.411 1338.11 50.67 1339.06 50.67C1339.89 50.67 1340.41 51.294 1340.41 52.321V56H1341.84V52.087C1341.84 50.436 1340.87 49.37 1339.36 49.37C1338.51 49.37 1337.77 49.734 1337.38 50.384V49.5H1335.95V56ZM1344.2 56H1345.63V50.774H1347.49V49.5H1345.63V48.577C1345.63 47.771 1345.99 47.472 1346.73 47.472C1347 47.472 1347.29 47.524 1347.49 47.602V46.328C1347.22 46.237 1346.87 46.172 1346.43 46.172C1345.18 46.172 1344.2 46.952 1344.2 48.408V49.5H1342.85V50.774H1344.2V56ZM1350.3 47.121C1350.3 46.601 1349.88 46.172 1349.35 46.172C1348.83 46.172 1348.39 46.601 1348.39 47.121C1348.39 47.654 1348.83 48.083 1349.35 48.083C1349.88 48.083 1350.3 47.654 1350.3 47.121ZM1348.63 56H1350.06V49.5H1348.63V56ZM1351.99 56H1353.42V52.828C1353.42 51.528 1354.16 50.839 1354.98 50.839C1355.24 50.839 1355.44 50.878 1355.69 50.956V49.487C1355.5 49.448 1355.31 49.435 1355.13 49.435C1354.39 49.435 1353.66 49.916 1353.42 50.657V49.5H1351.99V56ZM1356.92 56H1358.35V52.802C1358.35 51.437 1358.99 50.67 1359.91 50.67C1360.69 50.67 1361.07 51.333 1361.07 52.347V56H1362.5V52.802C1362.5 51.437 1363.12 50.67 1364.05 50.67C1364.83 50.67 1365.2 51.333 1365.2 52.347V56H1366.63V52.113C1366.63 50.449 1365.76 49.37 1364.29 49.37C1363.44 49.37 1362.6 49.825 1362.21 50.657C1361.86 49.851 1361.16 49.37 1360.2 49.37C1359.37 49.37 1358.72 49.773 1358.35 50.384V49.5H1356.92V56Z" fill="white"/>
</g>
<defs>
<filter id="filter0_d_2_16103" x="0" y="0" width="1408" height="100" filterUnits="userSpaceOnUse" color-interpolation-filters="sRGB">
<feFlood flood-opacity="0" result="BackgroundImageFix"/>
<feColorMatrix in="SourceAlpha" type="matrix" values="0 0 0 0 0 0 0 0 0 0 0 0 0 0 0 0 0 0 127 0" result="hardAlpha"/>
<feOffset dy="-1"/>
<feGaussianBlur stdDeviation="2"/>
<feComposite in2="hardAlpha" operator="out"/>
<feColorMatrix type="matrix" values="0 0 0 0 0 0 0 0 0 0 0 0 0 0 0 0 0 0 0.25 0"/>
<feBlend mode="normal" in2="BackgroundImageFix" result="effect1_dropShadow_2_16103"/>
<feBlend mode="normal" in="SourceGraphic" in2="effect1_dropShadow_2_16103" result="shape"/>
</filter>
</defs>
</svg>
