<svg width="3702" height="2390" viewBox="0 0 3702 2390" fill="none" xmlns="http://www.w3.org/2000/svg">
<rect x="1405" y="116" width="775" height="60" fill="#FF14BD"/>
<rect x="1405" y="192" width="375" height="60" fill="#11FF0C"/>
<rect x="1804" y="192" width="376" height="60" fill="#11FF0C"/>
<rect x="1405" y="268" width="242" height="60" fill="#50CDFF"/>
<rect x="1671" y="268" width="243" height="60" fill="#50CDFF"/>
<rect x="1938" y="268" width="242" height="60" fill="#50CDFF"/>
<rect x="1405" y="344" width="176" height="60" fill="#FF0808"/>
<rect x="1405" y="420" width="109" height="60" fill="#FFCD1E"/>
<rect x="1671" y="420" width="109" height="60" fill="#FFCD1E"/>
<rect x="1938" y="420" width="109" height="60" fill="#FFCD1E"/>
<rect x="1538" y="420" width="109" height="60" fill="#FFCD1E"/>
<rect x="1804" y="420" width="109" height="60" fill="#FFCD1E"/>
<rect x="2071" y="420" width="109" height="60" fill="#FFCD1E"/>
<rect x="1804" y="344" width="176" height="60" fill="#FF0808"/>
<rect x="1605" y="344" width="176" height="60" fill="#FF0808"/>
<rect x="2004" y="344" width="176" height="60" fill="#FF0808"/>
<rect x="1405" y="116" width="775" height="60" fill="#FF14BD"/>
<rect x="1405" y="192" width="375" height="60" fill="#11FF0C"/>
<rect x="1804" y="192" width="376" height="60" fill="#11FF0C"/>
<rect x="1405" y="268" width="242" height="60" fill="#50CDFF"/>
<rect x="1671" y="268" width="243" height="60" fill="#50CDFF"/>
<rect x="1938" y="268" width="242" height="60" fill="#50CDFF"/>
<rect x="1405" y="344" width="176" height="60" fill="#FF0808"/>
<rect x="1405" y="420" width="109" height="60" fill="#FFCD1E"/>
<rect x="1671" y="420" width="109" height="60" fill="#FFCD1E"/>
<rect x="1938" y="420" width="109" height="60" fill="#FFCD1E"/>
<rect x="1538" y="420" width="109" height="60" fill="#FFCD1E"/>
<rect x="1804" y="420" width="109" height="60" fill="#FFCD1E"/>
<rect x="2071" y="420" width="109" height="60" fill="#FFCD1E"/>
<rect x="1804" y="344" width="176" height="60" fill="#FF0808"/>
<rect x="1605" y="344" width="176" height="60" fill="#FF0808"/>
<rect x="2004" y="344" width="176" height="60" fill="#FF0808"/>
<rect x="1405" y="116" width="775" height="60" fill="#FF14BD"/>
<rect x="1405" y="192" width="375" height="60" fill="#11FF0C"/>
<rect x="1804" y="192" width="376" height="60" fill="#11FF0C"/>
<rect x="1405" y="268" width="242" height="60" fill="#50CDFF"/>
<rect x="1671" y="268" width="243" height="60" fill="#50CDFF"/>
<rect x="1938" y="268" width="242" height="60" fill="#50CDFF"/>
<rect x="1405" y="344" width="176" height="60" fill="#FF0808"/>
<rect x="1405" y="420" width="109" height="60" fill="#FFCD1E"/>
<rect x="1671" y="420" width="109" height="60" fill="#FFCD1E"/>
<rect x="1938" y="420" width="109" height="60" fill="#FFCD1E"/>
<rect x="1538" y="420" width="109" height="60" fill="#FFCD1E"/>
<rect x="1804" y="420" width="109" height="60" fill="#FFCD1E"/>
<rect x="2071" y="420" width="109" height="60" fill="#FFCD1E"/>
<rect x="1804" y="344" width="176" height="60" fill="#FF0808"/>
<rect x="1605" y="344" width="176" height="60" fill="#FF0808"/>
<rect x="2004" y="344" width="176" height="60" fill="#FF0808"/>
<rect x="2479" y="118" width="1191" height="60" fill="#FF14BD"/>
<rect x="2479" y="194" width="584" height="60" fill="#11FF0C"/>
<rect x="3087" y="194" width="583" height="60" fill="#11FF0C"/>
<rect x="2479" y="270" width="381" height="60" fill="#50CDFF"/>
<rect x="2884" y="270" width="381" height="60" fill="#50CDFF"/>
<rect x="3289" y="270" width="381" height="60" fill="#50CDFF"/>
<rect x="2479" y="346" width="280" height="60" fill="#FF0808"/>
<rect x="2479" y="422" width="179" height="60" fill="#FFCD1E"/>
<rect x="2884" y="422" width="179" height="60" fill="#FFCD1E"/>
<rect x="3289" y="422" width="179" height="60" fill="#FFCD1E"/>
<rect x="2682" y="422" width="178" height="60" fill="#FFCD1E"/>
<rect x="3087" y="422" width="178" height="60" fill="#FFCD1E"/>
<rect x="3492" y="422" width="178" height="60" fill="#FFCD1E"/>
<rect x="3087" y="346" width="279" height="60" fill="#FF0808"/>
<rect x="2783" y="346" width="280" height="60" fill="#FF0808"/>
<rect x="3390" y="346" width="280" height="60" fill="#FF0808"/>
<rect x="16" y="118" width="288" height="60" fill="#FF14BD"/>
<rect x="386" y="118" width="736" height="60" fill="#FF14BD"/>
<rect x="16" y="346" width="288" height="60" fill="#50CDFF"/>
<rect x="16" y="574" width="288" height="60" fill="#FF0909"/>
<rect x="16" y="802" width="288" height="60" fill="#FF0909"/>
<rect x="16" y="1030" width="136" height="60" fill="#FFCD1E"/>
<rect x="168" y="1030" width="136" height="60" fill="#FFCD1E"/>
<rect x="16" y="194" width="288" height="60" fill="#11FF0C"/>
<rect x="386" y="194" width="360" height="60" fill="#11FF0C"/>
<rect x="386" y="270" width="360" height="60" fill="#50CDFF"/>
<rect x="762" y="270" width="360" height="60" fill="#50CDFF"/>
<rect x="386" y="422" width="360" height="60" fill="#FF0808"/>
<rect x="386" y="346" width="360" height="60" fill="#50CDFF"/>
<rect x="386" y="498" width="360" height="60" fill="#FF0808"/>
<rect x="762" y="194" width="360" height="60" fill="#11FF0C"/>
<rect x="762" y="422" width="360" height="60" fill="#FF0808"/>
<rect x="762" y="346" width="360" height="60" fill="#FF0808"/>
<rect x="16" y="422" width="288" height="60" fill="#50CDFF"/>
<rect x="16" y="650" width="288" height="60" fill="#FF0909"/>
<rect x="16" y="878" width="136" height="60" fill="#FFCD1E"/>
<rect x="386" y="574" width="172" height="60" fill="#FFCD1E"/>
<rect x="762" y="498" width="172" height="60" fill="#FFCD1E"/>
<rect x="574" y="574" width="172" height="60" fill="#FFCD1E"/>
<rect x="950" y="498" width="172" height="60" fill="#FFCD1E"/>
<rect x="168" y="878" width="136" height="60" fill="#FFCD1E"/>
<rect x="16" y="270" width="288" height="60" fill="#11FF0C"/>
<rect x="16" y="498" width="288" height="60" fill="#50CDFF"/>
<rect x="16" y="726" width="288" height="60" fill="#FF0909"/>
<rect x="16" y="954" width="136" height="60" fill="#FFCD1E"/>
<rect x="762" y="574" width="172" height="60" fill="#FFCD1E"/>
<rect x="950" y="574" width="172" height="60" fill="#FFCD1E"/>
<rect x="168" y="954" width="136" height="60" fill="#FFCD1E"/>
<path d="M29.84 38V9.76H24.96L16.24 32.92L7.6 9.76H2.72V38H6.4C6.4 37.16 6 14.68 6 14.68L14.76 38H17.68L26.6 14.32C26.6 14.32 26.08 37.24 26.08 38H29.84ZM34.0609 28.6C34.0609 35.08 38.0209 38.6 43.3009 38.6C48.3409 38.6 52.5409 35.16 52.5409 28.4C52.5409 21.64 47.9809 18.56 43.5809 18.56C35.4209 18.56 34.0609 25.56 34.0609 28.6ZM37.5409 28.76C37.5409 27.56 37.5809 21.12 43.5409 21.12C47.8209 21.12 49.1009 24.92 49.1009 28.16C49.1009 33.04 47.1009 36.04 43.2609 36.04C38.2209 36.04 37.5409 31 37.5409 28.76ZM56.7406 9.76V38H59.9406V35.56C60.8206 36.72 62.7406 38.6 66.3806 38.6C72.2206 38.6 75.1006 34.12 75.1006 28.56C75.1006 22.24 71.3006 18.56 66.4206 18.56C63.9006 18.56 61.4206 19.56 59.9406 21.76V9.76H56.7406ZM59.8606 28.64C59.8606 23.08 63.3006 21.48 65.8606 21.48C68.9806 21.48 71.7006 23.8 71.7006 28.28C71.7006 34.32 68.3406 35.88 65.8606 35.88C61.3006 35.88 59.8606 31.88 59.8606 28.64ZM82.4416 13.44V9.76H79.3616V13.44H82.4416ZM82.4416 38V19.16H79.3616V38H82.4416ZM90.6419 38V9.76H87.6019V38H90.6419ZM98.2422 29.16H112.562V28.64C112.562 21.32 108.042 18.56 103.922 18.56C100.002 18.56 94.8022 21.24 94.8022 28.4C94.8022 35.84 99.4022 38.6 104.042 38.6C110.362 38.6 112.122 33.56 112.562 32.24L109.322 31.8C108.922 33.52 107.682 36.2 104.362 36.2C99.8422 36.2 98.2422 32.32 98.2422 29.4V29.16ZM98.3222 26.84C98.6022 23.84 100.282 21.04 103.682 21.04C106.882 21.04 109.082 23.72 109.082 26.84H98.3222ZM126.561 29.08C126.561 35.84 131.561 38.24 136.761 38.24C137.961 38.24 141.521 38.2 144.041 35.64C145.961 33.68 146.121 31.48 146.121 30.48C146.121 26.92 144.041 24.84 142.041 24.04C144.401 22.76 145.321 20.88 145.321 18.32C145.321 14.04 142.001 10.8 136.321 10.8C134.681 10.8 129.641 11.08 128.001 16.36C127.601 17.64 127.561 18.52 127.481 19.92L131.041 20.08C131.121 18.68 131.201 17.24 131.961 16C132.961 14.4 134.521 13.76 136.281 13.76C138.681 13.76 141.721 15.12 141.721 18.32C141.721 21.72 138.801 22.64 135.841 22.64C135.081 22.64 134.361 22.6 133.801 22.56V25.8C134.601 25.72 135.401 25.68 136.441 25.68C140.681 25.68 142.361 27.48 142.361 30.2C142.361 35 137.561 35.04 136.481 35.04C131.321 35.04 130.401 32.44 130.161 29.08H126.561ZM169.081 38V34.92H156.161C158.201 33.6 160.241 32.12 162.121 30.6C166.041 27.36 168.761 23.36 168.761 19.32C168.761 16.84 167.761 14.36 165.881 12.8C163.681 10.92 161.041 10.8 160.081 10.8C156.881 10.8 154.841 12.04 153.881 12.88C151.441 15.04 151.361 18.24 151.361 19.24C151.361 20.8 151.641 21.76 151.841 22.44H155.361C154.961 20.84 154.881 20.08 154.881 19.24C154.881 16.4 156.121 13.92 159.961 13.92C163.161 13.92 165.041 15.92 165.041 19.08C165.041 23 162.441 25.88 159.801 28.32C155.201 32.64 152.721 33.92 151.441 34.6V38H169.081ZM173.562 24.64C173.562 35.16 179.122 38.24 183.242 38.24C189.602 38.24 193.002 32.44 193.002 24.4C193.002 15.84 188.682 10.8 183.202 10.8C177.122 10.8 173.562 16.68 173.562 24.64ZM177.122 24.8C177.122 19.72 178.202 13.96 183.322 13.96C189.042 13.96 189.402 22.12 189.402 24.48C189.402 28.24 188.522 35.12 183.322 35.12C179.202 35.12 177.122 30.8 177.122 24.8ZM207.922 27.52V24.48H196.722V27.52H207.922ZM211.106 19.36H213.986V14.24H224.666C224.666 15.56 224.506 15.88 223.346 17.68L222.146 19.56C218.986 24.48 214.746 32 213.986 38H218.226C218.906 32.6 221.666 26.52 224.666 21.32L226.066 18.88C227.266 16.76 227.626 16.4 227.626 14.92V11.04H211.106V19.36ZM249.305 17.76C248.145 12.52 244.825 10.8 241.105 10.8C233.945 10.8 231.425 17.44 231.425 24.84C231.425 29.08 231.945 31.72 233.585 34.24C235.465 37.16 238.465 38.24 241.065 38.24C247.665 38.24 250.025 32.72 250.025 28.88C250.025 22.8 245.225 20.2 241.545 20.2C238.185 20.2 235.865 22 234.865 23.48C234.865 19.04 236.225 13.84 241.145 13.84C243.865 13.84 245.465 15.72 245.825 18.24L249.305 17.76ZM235.425 29.2C235.425 26.96 236.825 23.44 241.025 23.44C245.425 23.44 246.505 27.24 246.505 29.24C246.505 32.28 244.465 35.04 241.145 35.04C237.825 35.04 235.425 32.52 235.425 29.2ZM254.465 19.36H257.345V14.24H268.025C268.025 15.56 267.865 15.88 266.705 17.68L265.505 19.56C262.345 24.48 258.105 32 257.345 38H261.585C262.265 32.6 265.025 26.52 268.025 21.32L269.425 18.88C270.625 16.76 270.985 16.4 270.985 14.92V11.04H254.465V19.36ZM276.545 19.16V46.96H279.665V35.8C281.065 37.72 283.625 38.6 286.025 38.6C292.785 38.6 294.865 32.96 294.865 28.64C294.865 21.6 290.265 18.56 286.385 18.56C283.105 18.56 280.705 20.52 279.665 21.84V19.16H276.545ZM279.665 28.92C279.665 24.24 282.145 21.56 285.785 21.56C288.465 21.56 291.585 23.44 291.585 28.52C291.585 32.92 289.545 35.8 285.585 35.8C281.905 35.8 279.665 33.2 279.665 28.92ZM311.886 38L306.206 28.44L311.886 19.16H308.286L304.486 25.64L300.726 19.16H297.046L302.606 28.44L296.766 38H300.366L304.286 31.28L308.286 38H311.886Z" fill="black"/>
<path d="M391.12 13.04V9.76H370.44V13.04H378.92V38H382.68V13.04H391.12ZM401.418 26.72L398.538 26.92C396.138 27.08 392.818 27.6 390.898 29.04C389.098 30.4 388.858 32.24 388.858 33.12C388.858 36.36 391.498 38.52 395.258 38.52C398.898 38.52 400.818 36.4 401.698 35.44C401.738 36 402.218 37.2 402.978 37.76C403.658 38.24 404.818 38.24 404.978 38.24C405.498 38.24 406.058 38.2 407.018 37.88V35.2C406.658 35.28 406.458 35.36 406.058 35.36C404.658 35.36 404.618 34.28 404.618 33.16V26.52C404.618 23.16 404.458 21.2 401.778 19.68C400.218 18.76 398.218 18.56 397.058 18.56C390.378 18.56 389.818 23.84 389.818 24.76L393.138 24.96V24.68C393.138 22.32 394.578 21 397.218 21C401.378 21 401.418 24.32 401.418 26.08V26.72ZM401.458 28.8V30.28C401.458 35.12 397.658 35.84 395.938 35.84C393.418 35.84 392.378 34.44 392.378 33.04C392.378 31.2 394.098 30.4 394.698 30.16C396.178 29.52 399.978 29.04 401.458 28.8ZM410.178 9.76V38H413.378V35.56C414.258 36.72 416.178 38.6 419.818 38.6C425.658 38.6 428.538 34.12 428.538 28.56C428.538 22.24 424.738 18.56 419.858 18.56C417.338 18.56 414.858 19.56 413.378 21.76V9.76H410.178ZM413.298 28.64C413.298 23.08 416.738 21.48 419.298 21.48C422.418 21.48 425.138 23.8 425.138 28.28C425.138 34.32 421.778 35.88 419.298 35.88C414.738 35.88 413.298 31.88 413.298 28.64ZM435.759 38V9.76H432.719V38H435.759ZM443.359 29.16H457.679V28.64C457.679 21.32 453.159 18.56 449.039 18.56C445.119 18.56 439.919 21.24 439.919 28.4C439.919 35.84 444.519 38.6 449.159 38.6C455.479 38.6 457.239 33.56 457.679 32.24L454.439 31.8C454.039 33.52 452.799 36.2 449.479 36.2C444.959 36.2 443.359 32.32 443.359 29.4V29.16ZM443.439 26.84C443.719 23.84 445.399 21.04 448.799 21.04C451.999 21.04 454.199 23.72 454.199 26.84H443.439ZM466.179 21.8H469.579V19.16H466.179V13.2H462.899V19.16H459.859V21.8H462.899V34.92C462.899 37.08 463.419 38.32 466.539 38.32C467.779 38.32 469.299 38.04 469.579 38V35.36C468.699 35.68 467.939 35.8 467.579 35.8C466.579 35.8 466.179 35.28 466.179 33.92V21.8ZM485.598 19.36H488.478V14.24H499.158C499.158 15.56 498.998 15.88 497.838 17.68L496.638 19.56C493.478 24.48 489.238 32 488.478 38H492.718C493.398 32.6 496.158 26.52 499.158 21.32L500.558 18.88C501.758 16.76 502.118 16.4 502.118 14.92V11.04H485.598V19.36ZM523.798 17.76C522.638 12.52 519.318 10.8 515.598 10.8C508.438 10.8 505.918 17.44 505.918 24.84C505.918 29.08 506.438 31.72 508.078 34.24C509.958 37.16 512.958 38.24 515.558 38.24C522.158 38.24 524.518 32.72 524.518 28.88C524.518 22.8 519.718 20.2 516.038 20.2C512.678 20.2 510.358 22 509.358 23.48C509.358 19.04 510.718 13.84 515.638 13.84C518.358 13.84 519.958 15.72 520.318 18.24L523.798 17.76ZM509.918 29.2C509.918 26.96 511.318 23.44 515.518 23.44C519.918 23.44 520.998 27.24 520.998 29.24C520.998 32.28 518.958 35.04 515.638 35.04C512.318 35.04 509.918 32.52 509.918 29.2ZM545.137 23.52C547.417 22.16 548.177 20 548.177 17.96C548.177 15.96 547.577 10.8 539.337 10.8C533.457 10.8 530.377 13.44 530.377 17.96C530.377 20.44 531.297 22.12 533.377 23.52C530.977 24.8 529.697 27.32 529.697 29.96C529.697 33.76 532.417 38.24 539.297 38.24C546.057 38.24 548.937 34.12 548.937 29.88C548.937 25.84 546.497 24.36 545.137 23.52ZM544.577 17.72C544.577 18.92 544.377 22.12 539.297 22.12C534.657 22.12 533.937 19.48 533.937 17.88C533.937 14.96 536.417 13.88 539.137 13.88C543.337 13.88 544.577 16.12 544.577 17.72ZM533.337 29.92C533.337 27.88 534.577 25.12 539.177 25.12C542.097 25.12 545.217 26.16 545.217 29.96C545.217 33.92 541.777 34.96 539.377 34.96C536.817 34.96 533.337 33.8 533.337 29.92ZM563.938 27.52V24.48H552.738V27.52H563.938ZM580.022 38V11.04H577.342C577.302 11.36 577.102 12.52 576.502 13.44C575.582 14.92 573.942 15.8 570.462 15.8V18.28H576.262V38H580.022ZM586.96 24.64C586.96 35.16 592.52 38.24 596.64 38.24C603 38.24 606.4 32.44 606.4 24.4C606.4 15.84 602.08 10.8 596.6 10.8C590.52 10.8 586.96 16.68 586.96 24.64ZM590.52 24.8C590.52 19.72 591.6 13.96 596.72 13.96C602.44 13.96 602.8 22.12 602.8 24.48C602.8 28.24 601.92 35.12 596.72 35.12C592.6 35.12 590.52 30.8 590.52 24.8ZM629.12 38V34.92H616.2C618.24 33.6 620.28 32.12 622.16 30.6C626.08 27.36 628.8 23.36 628.8 19.32C628.8 16.84 627.8 14.36 625.92 12.8C623.72 10.92 621.08 10.8 620.12 10.8C616.92 10.8 614.88 12.04 613.92 12.88C611.48 15.04 611.4 18.24 611.4 19.24C611.4 20.8 611.68 21.76 611.88 22.44H615.4C615 20.84 614.92 20.08 614.92 19.24C614.92 16.4 616.16 13.92 620 13.92C623.2 13.92 625.08 15.92 625.08 19.08C625.08 23 622.48 25.88 619.84 28.32C615.24 32.64 612.76 33.92 611.48 34.6V38H629.12ZM652.921 31.52V28.48H649.001V11.04H646.201L633.321 28.28V31.52H645.521V38H649.001V31.52H652.921ZM636.961 28.48L645.681 16.4C645.681 16.4 645.521 27.92 645.521 28.48H636.961ZM657.561 19.16V46.96H660.681V35.8C662.081 37.72 664.641 38.6 667.041 38.6C673.801 38.6 675.881 32.96 675.881 28.64C675.881 21.6 671.281 18.56 667.401 18.56C664.121 18.56 661.721 20.52 660.681 21.84V19.16H657.561ZM660.681 28.92C660.681 24.24 663.161 21.56 666.801 21.56C669.481 21.56 672.601 23.44 672.601 28.52C672.601 32.92 670.561 35.8 666.601 35.8C662.921 35.8 660.681 33.2 660.681 28.92ZM692.902 38L687.222 28.44L692.902 19.16H689.302L685.502 25.64L681.742 19.16H678.062L683.622 28.44L677.782 38H681.382L685.302 31.28L689.302 38H692.902Z" fill="black"/>
<path d="M1191.12 9.76V38H1201.24C1211.44 38 1214.32 30.96 1214.32 23.92C1214.32 14.52 1209.12 9.76 1202.32 9.76H1191.12ZM1195 13.08H1201.48C1207.88 13.08 1210.48 17.76 1210.48 23.88C1210.48 30.56 1207.52 34.72 1201.68 34.72H1195V13.08ZM1221.32 29.16H1235.64V28.64C1235.64 21.32 1231.12 18.56 1227 18.56C1223.08 18.56 1217.88 21.24 1217.88 28.4C1217.88 35.84 1222.48 38.6 1227.12 38.6C1233.44 38.6 1235.2 33.56 1235.64 32.24L1232.4 31.8C1232 33.52 1230.76 36.2 1227.44 36.2C1222.92 36.2 1221.32 32.32 1221.32 29.4V29.16ZM1221.4 26.84C1221.68 23.84 1223.36 21.04 1226.76 21.04C1229.96 21.04 1232.16 23.72 1232.16 26.84H1221.4ZM1238.42 31.92C1238.98 35.6 1241.1 38.6 1247.18 38.6C1251.66 38.6 1255.06 36.24 1255.06 32.64C1255.06 29.2 1252.3 28 1248.78 27.16L1246.94 26.72C1244.06 26.04 1242.38 25.4 1242.38 23.76C1242.38 22.56 1243.5 21 1246.1 21C1248.82 21 1250.38 22.36 1250.86 23.4C1251.06 23.84 1251.1 24.24 1251.14 25.16L1254.58 24.76C1254.5 24.2 1254.34 23.04 1253.58 21.88C1252.66 20.52 1250.5 18.56 1246.54 18.56C1243.14 18.56 1239.22 20.04 1239.22 24.16C1239.22 26.8 1240.78 28.64 1245.94 29.64L1247.78 30C1249.5 30.32 1251.7 30.72 1251.7 33C1251.7 35.68 1248.9 36.16 1247.34 36.16C1245.78 36.16 1244.22 35.96 1243.1 34.72C1242.18 33.72 1242.06 32.64 1242.06 31.4L1238.42 31.92ZM1275.2 38L1266.6 26.6L1273.6 19.16H1269.68L1262.16 27.16V9.76H1258.92V38H1262.16V31.36L1264.44 28.96L1271.2 38H1275.2ZM1281.6 21.8H1285V19.16H1281.6V13.2H1278.32V19.16H1275.28V21.8H1278.32V34.92C1278.32 37.08 1278.84 38.32 1281.96 38.32C1283.2 38.32 1284.72 38.04 1285 38V35.36C1284.12 35.68 1283.36 35.8 1283 35.8C1282 35.8 1281.6 35.28 1281.6 33.92V21.8ZM1287.92 28.6C1287.92 35.08 1291.88 38.6 1297.16 38.6C1302.2 38.6 1306.4 35.16 1306.4 28.4C1306.4 21.64 1301.84 18.56 1297.44 18.56C1289.28 18.56 1287.92 25.56 1287.92 28.6ZM1291.4 28.76C1291.4 27.56 1291.44 21.12 1297.4 21.12C1301.68 21.12 1302.96 24.92 1302.96 28.16C1302.96 33.04 1300.96 36.04 1297.12 36.04C1292.08 36.04 1291.4 31 1291.4 28.76ZM1310.6 19.16V46.96H1313.72V35.8C1315.12 37.72 1317.68 38.6 1320.08 38.6C1326.84 38.6 1328.92 32.96 1328.92 28.64C1328.92 21.6 1324.32 18.56 1320.44 18.56C1317.16 18.56 1314.76 20.52 1313.72 21.84V19.16H1310.6ZM1313.72 28.92C1313.72 24.24 1316.2 21.56 1319.84 21.56C1322.52 21.56 1325.64 23.44 1325.64 28.52C1325.64 32.92 1323.6 35.8 1319.64 35.8C1315.96 35.8 1313.72 33.2 1313.72 28.92ZM1354.08 42.68C1349.52 39.08 1346.64 32.2 1346.64 24.88C1346.64 17.52 1348.96 12.08 1354 7.68L1352.68 6.08C1346.04 10.56 1342.92 18 1342.92 25.16C1342.92 33.04 1346.56 39.88 1352.8 44.52L1354.08 42.68ZM1355.42 28.96C1355.54 30.16 1355.9 34.32 1359.66 36.76C1362.62 38.68 1366.46 38.72 1367.38 38.72C1372.18 38.72 1374.74 37.2 1376.3 35.68C1378.5 33.52 1378.66 31 1378.66 29.88C1378.66 23.68 1372.78 22.4 1371.46 22.08L1366.3 20.84C1363.1 20.08 1360.66 19.12 1360.66 16.4C1360.66 12.92 1364.42 11.96 1367.1 11.96C1373.5 11.96 1374.38 16.36 1374.38 17.96L1378.18 17.72C1377.7 15.08 1377.06 13.04 1374.58 11.16C1372.3 9.4 1369.58 9.04 1366.78 9.04C1365.42 9.04 1362.18 9.12 1359.46 11.36C1357.78 12.76 1356.78 14.64 1356.78 16.88C1356.78 21.6 1360.34 23.64 1366.7 24.92L1369.26 25.44C1372.3 26.04 1374.62 26.96 1374.62 30.12C1374.62 34.84 1369.94 35.76 1367.58 35.76C1359.74 35.76 1359.5 29.56 1359.46 28.44L1355.42 28.96ZM1386.46 13.44V9.76H1383.38V13.44H1386.46ZM1386.46 38V19.16H1383.38V38H1386.46ZM1408.82 38V9.76H1405.62V21.64C1404.94 20.56 1402.58 18.56 1399.14 18.56C1395.3 18.56 1390.5 21.2 1390.5 28.52C1390.5 34.36 1393.66 38.6 1399.18 38.6C1402.9 38.6 1404.66 36.72 1405.62 35.6V38H1408.82ZM1393.94 28.64C1393.94 25.08 1395.58 21.48 1399.9 21.48C1403.46 21.48 1405.7 24.44 1405.7 28.32C1405.7 34.08 1402.62 35.76 1399.82 35.76C1395.26 35.76 1393.94 31.96 1393.94 28.64ZM1416.4 29.16H1430.72V28.64C1430.72 21.32 1426.2 18.56 1422.08 18.56C1418.16 18.56 1412.96 21.24 1412.96 28.4C1412.96 35.84 1417.56 38.6 1422.2 38.6C1428.52 38.6 1430.28 33.56 1430.72 32.24L1427.48 31.8C1427.08 33.52 1425.84 36.2 1422.52 36.2C1418 36.2 1416.4 32.32 1416.4 29.4V29.16ZM1416.48 26.84C1416.76 23.84 1418.44 21.04 1421.84 21.04C1425.04 21.04 1427.24 23.72 1427.24 26.84H1416.48ZM1434.86 9.76V38H1438.06V35.56C1438.94 36.72 1440.86 38.6 1444.5 38.6C1450.34 38.6 1453.22 34.12 1453.22 28.56C1453.22 22.24 1449.42 18.56 1444.54 18.56C1442.02 18.56 1439.54 19.56 1438.06 21.76V9.76H1434.86ZM1437.98 28.64C1437.98 23.08 1441.42 21.48 1443.98 21.48C1447.1 21.48 1449.82 23.8 1449.82 28.28C1449.82 34.32 1446.46 35.88 1443.98 35.88C1439.42 35.88 1437.98 31.88 1437.98 28.64ZM1468.56 26.72L1465.68 26.92C1463.28 27.08 1459.96 27.6 1458.04 29.04C1456.24 30.4 1456 32.24 1456 33.12C1456 36.36 1458.64 38.52 1462.4 38.52C1466.04 38.52 1467.96 36.4 1468.84 35.44C1468.88 36 1469.36 37.2 1470.12 37.76C1470.8 38.24 1471.96 38.24 1472.12 38.24C1472.64 38.24 1473.2 38.2 1474.16 37.88V35.2C1473.8 35.28 1473.6 35.36 1473.2 35.36C1471.8 35.36 1471.76 34.28 1471.76 33.16V26.52C1471.76 23.16 1471.6 21.2 1468.92 19.68C1467.36 18.76 1465.36 18.56 1464.2 18.56C1457.52 18.56 1456.96 23.84 1456.96 24.76L1460.28 24.96V24.68C1460.28 22.32 1461.72 21 1464.36 21C1468.52 21 1468.56 24.32 1468.56 26.08V26.72ZM1468.6 28.8V30.28C1468.6 35.12 1464.8 35.84 1463.08 35.84C1460.56 35.84 1459.52 34.44 1459.52 33.04C1459.52 31.2 1461.24 30.4 1461.84 30.16C1463.32 29.52 1467.12 29.04 1468.6 28.8ZM1477.32 19.16V38H1480.52V29.28C1480.52 27.44 1480.56 26.76 1480.8 25.8C1481.44 23.48 1483.44 22.24 1485.72 22.24C1486.12 22.24 1486.56 22.28 1486.96 22.36V18.92C1484.52 18.92 1483.04 19.84 1482.28 20.44C1481.52 21.04 1480.96 21.76 1480.52 22.6V19.16H1477.32ZM1521.2 38V34.72H1504.88V25.08H1518.64V21.8H1504.88V13.08H1520.72V9.76H1501.28V38H1521.2ZM1537.74 38L1532.06 28.44L1537.74 19.16H1534.14L1530.34 25.64L1526.58 19.16H1522.9L1528.46 28.44L1522.62 38H1526.22L1530.14 31.28L1534.14 38H1537.74ZM1540.72 19.16V46.96H1543.84V35.8C1545.24 37.72 1547.8 38.6 1550.2 38.6C1556.96 38.6 1559.04 32.96 1559.04 28.64C1559.04 21.6 1554.44 18.56 1550.56 18.56C1547.28 18.56 1544.88 20.52 1543.84 21.84V19.16H1540.72ZM1543.84 28.92C1543.84 24.24 1546.32 21.56 1549.96 21.56C1552.64 21.56 1555.76 23.44 1555.76 28.52C1555.76 32.92 1553.72 35.8 1549.76 35.8C1546.08 35.8 1543.84 33.2 1543.84 28.92ZM1574.42 26.72L1571.54 26.92C1569.14 27.08 1565.82 27.6 1563.9 29.04C1562.1 30.4 1561.86 32.24 1561.86 33.12C1561.86 36.36 1564.5 38.52 1568.26 38.52C1571.9 38.52 1573.82 36.4 1574.7 35.44C1574.74 36 1575.22 37.2 1575.98 37.76C1576.66 38.24 1577.82 38.24 1577.98 38.24C1578.5 38.24 1579.06 38.2 1580.02 37.88V35.2C1579.66 35.28 1579.46 35.36 1579.06 35.36C1577.66 35.36 1577.62 34.28 1577.62 33.16V26.52C1577.62 23.16 1577.46 21.2 1574.78 19.68C1573.22 18.76 1571.22 18.56 1570.06 18.56C1563.38 18.56 1562.82 23.84 1562.82 24.76L1566.14 24.96V24.68C1566.14 22.32 1567.58 21 1570.22 21C1574.38 21 1574.42 24.32 1574.42 26.08V26.72ZM1574.46 28.8V30.28C1574.46 35.12 1570.66 35.84 1568.94 35.84C1566.42 35.84 1565.38 34.44 1565.38 33.04C1565.38 31.2 1567.1 30.4 1567.7 30.16C1569.18 29.52 1572.98 29.04 1574.46 28.8ZM1598.78 38V26.08C1598.78 24.32 1598.7 22.68 1597.62 21.16C1595.94 18.8 1593.1 18.56 1592.26 18.56C1589.02 18.56 1587.14 20.52 1586.34 21.92V19.16H1583.14V38H1586.34V26.84C1586.34 23.48 1588.7 21.56 1591.34 21.56C1593.54 21.56 1595.62 22.72 1595.62 25.64V38H1598.78ZM1621.32 38V9.76H1618.12V21.64C1617.44 20.56 1615.08 18.56 1611.64 18.56C1607.8 18.56 1603 21.2 1603 28.52C1603 34.36 1606.16 38.6 1611.68 38.6C1615.4 38.6 1617.16 36.72 1618.12 35.6V38H1621.32ZM1606.44 28.64C1606.44 25.08 1608.08 21.48 1612.4 21.48C1615.96 21.48 1618.2 24.44 1618.2 28.32C1618.2 34.08 1615.12 35.76 1612.32 35.76C1607.76 35.76 1606.44 31.96 1606.44 28.64ZM1628.9 29.16H1643.22V28.64C1643.22 21.32 1638.7 18.56 1634.58 18.56C1630.66 18.56 1625.46 21.24 1625.46 28.4C1625.46 35.84 1630.06 38.6 1634.7 38.6C1641.02 38.6 1642.78 33.56 1643.22 32.24L1639.98 31.8C1639.58 33.52 1638.34 36.2 1635.02 36.2C1630.5 36.2 1628.9 32.32 1628.9 29.4V29.16ZM1628.98 26.84C1629.26 23.84 1630.94 21.04 1634.34 21.04C1637.54 21.04 1639.74 23.72 1639.74 26.84H1628.98ZM1664.64 38V9.76H1661.44V21.64C1660.76 20.56 1658.4 18.56 1654.96 18.56C1651.12 18.56 1646.32 21.2 1646.32 28.52C1646.32 34.36 1649.48 38.6 1655 38.6C1658.72 38.6 1660.48 36.72 1661.44 35.6V38H1664.64ZM1649.76 28.64C1649.76 25.08 1651.4 21.48 1655.72 21.48C1659.28 21.48 1661.52 24.44 1661.52 28.32C1661.52 34.08 1658.44 35.76 1655.64 35.76C1651.08 35.76 1649.76 31.96 1649.76 28.64ZM1667.38 7.8C1671.98 11.4 1674.82 18.24 1674.82 25.56C1674.82 32.92 1672.42 38.44 1667.42 42.84L1668.74 44.4C1675.02 40.24 1678.54 32.84 1678.54 25.32C1678.54 17.6 1675.06 10.64 1668.7 5.96L1667.38 7.8ZM1705.13 38V11.04H1702.45C1702.41 11.36 1702.21 12.52 1701.61 13.44C1700.69 14.92 1699.05 15.8 1695.57 15.8V18.28H1701.37V38H1705.13ZM1712.07 24.64C1712.07 35.16 1717.63 38.24 1721.75 38.24C1728.11 38.24 1731.51 32.44 1731.51 24.4C1731.51 15.84 1727.19 10.8 1721.71 10.8C1715.63 10.8 1712.07 16.68 1712.07 24.64ZM1715.63 24.8C1715.63 19.72 1716.71 13.96 1721.83 13.96C1727.55 13.96 1727.91 22.12 1727.91 24.48C1727.91 28.24 1727.03 35.12 1721.83 35.12C1717.71 35.12 1715.63 30.8 1715.63 24.8ZM1754.23 38V34.92H1741.31C1743.35 33.6 1745.39 32.12 1747.27 30.6C1751.19 27.36 1753.91 23.36 1753.91 19.32C1753.91 16.84 1752.91 14.36 1751.03 12.8C1748.83 10.92 1746.19 10.8 1745.23 10.8C1742.03 10.8 1739.99 12.04 1739.03 12.88C1736.59 15.04 1736.51 18.24 1736.51 19.24C1736.51 20.8 1736.79 21.76 1736.99 22.44H1740.51C1740.11 20.84 1740.03 20.08 1740.03 19.24C1740.03 16.4 1741.27 13.92 1745.11 13.92C1748.31 13.92 1750.19 15.92 1750.19 19.08C1750.19 23 1747.59 25.88 1744.95 28.32C1740.35 32.64 1737.87 33.92 1736.59 34.6V38H1754.23ZM1778.03 31.52V28.48H1774.11V11.04H1771.31L1758.43 28.28V31.52H1770.63V38H1774.11V31.52H1778.03ZM1762.07 28.48L1770.79 16.4C1770.79 16.4 1770.63 27.92 1770.63 28.48H1762.07ZM1793.07 27.52V24.48H1781.87V27.52H1793.07ZM1809.16 38V11.04H1806.48C1806.44 11.36 1806.24 12.52 1805.64 13.44C1804.72 14.92 1803.08 15.8 1799.6 15.8V18.28H1805.4V38H1809.16ZM1839.48 31.52V28.48H1835.56V11.04H1832.76L1819.88 28.28V31.52H1832.08V38H1835.56V31.52H1839.48ZM1823.52 28.48L1832.24 16.4C1832.24 16.4 1832.08 27.92 1832.08 28.48H1823.52ZM1843.12 29.08C1843.12 35.84 1848.12 38.24 1853.32 38.24C1854.52 38.24 1858.08 38.2 1860.6 35.64C1862.52 33.68 1862.68 31.48 1862.68 30.48C1862.68 26.92 1860.6 24.84 1858.6 24.04C1860.96 22.76 1861.88 20.88 1861.88 18.32C1861.88 14.04 1858.56 10.8 1852.88 10.8C1851.24 10.8 1846.2 11.08 1844.56 16.36C1844.16 17.64 1844.12 18.52 1844.04 19.92L1847.6 20.08C1847.68 18.68 1847.76 17.24 1848.52 16C1849.52 14.4 1851.08 13.76 1852.84 13.76C1855.24 13.76 1858.28 15.12 1858.28 18.32C1858.28 21.72 1855.36 22.64 1852.4 22.64C1851.64 22.64 1850.92 22.6 1850.36 22.56V25.8C1851.16 25.72 1851.96 25.68 1853 25.68C1857.24 25.68 1858.92 27.48 1858.92 30.2C1858.92 35 1854.12 35.04 1853.04 35.04C1847.88 35.04 1846.96 32.44 1846.72 29.08H1843.12ZM1868.62 31.52C1869.3 34.64 1871.74 38.24 1876.7 38.24C1879.94 38.24 1882.14 37.2 1883.7 35.16C1886.58 31.4 1886.7 26.08 1886.7 24.36C1886.7 15.96 1883.58 10.92 1876.9 10.92C1870.14 10.92 1867.78 16.08 1867.78 20.24C1867.78 25.48 1871.34 29.28 1876.58 29.28C1880.46 29.28 1882.42 26.92 1883.26 25.84C1883.26 28.28 1882.5 31.92 1880.62 33.76C1879.26 35.08 1877.58 35.2 1876.94 35.2C1873.94 35.2 1872.62 33.36 1872.1 30.88L1868.62 31.52ZM1882.9 20.6C1882.9 23.04 1881.22 26.08 1876.98 26.08C1874.1 26.08 1871.34 24.32 1871.34 20.44C1871.34 18.12 1872.3 13.92 1876.86 13.92C1880.82 13.92 1882.9 17.2 1882.9 20.6ZM1891.62 19.16V46.96H1894.74V35.8C1896.14 37.72 1898.7 38.6 1901.1 38.6C1907.86 38.6 1909.94 32.96 1909.94 28.64C1909.94 21.6 1905.34 18.56 1901.46 18.56C1898.18 18.56 1895.78 20.52 1894.74 21.84V19.16H1891.62ZM1894.74 28.92C1894.74 24.24 1897.22 21.56 1900.86 21.56C1903.54 21.56 1906.66 23.44 1906.66 28.52C1906.66 32.92 1904.62 35.8 1900.66 35.8C1896.98 35.8 1894.74 33.2 1894.74 28.92ZM1926.96 38L1921.28 28.44L1926.96 19.16H1923.36L1919.56 25.64L1915.8 19.16H1912.12L1917.68 28.44L1911.84 38H1915.44L1919.36 31.28L1923.36 38H1926.96Z" fill="black"/>
<path d="M1191.12 1261.76V1290H1201.24C1211.44 1290 1214.32 1282.96 1214.32 1275.92C1214.32 1266.52 1209.12 1261.76 1202.32 1261.76H1191.12ZM1195 1265.08H1201.48C1207.88 1265.08 1210.48 1269.76 1210.48 1275.88C1210.48 1282.56 1207.52 1286.72 1201.68 1286.72H1195V1265.08ZM1221.32 1281.16H1235.64V1280.64C1235.64 1273.32 1231.12 1270.56 1227 1270.56C1223.08 1270.56 1217.88 1273.24 1217.88 1280.4C1217.88 1287.84 1222.48 1290.6 1227.12 1290.6C1233.44 1290.6 1235.2 1285.56 1235.64 1284.24L1232.4 1283.8C1232 1285.52 1230.76 1288.2 1227.44 1288.2C1222.92 1288.2 1221.32 1284.32 1221.32 1281.4V1281.16ZM1221.4 1278.84C1221.68 1275.84 1223.36 1273.04 1226.76 1273.04C1229.96 1273.04 1232.16 1275.72 1232.16 1278.84H1221.4ZM1238.42 1283.92C1238.98 1287.6 1241.1 1290.6 1247.18 1290.6C1251.66 1290.6 1255.06 1288.24 1255.06 1284.64C1255.06 1281.2 1252.3 1280 1248.78 1279.16L1246.94 1278.72C1244.06 1278.04 1242.38 1277.4 1242.38 1275.76C1242.38 1274.56 1243.5 1273 1246.1 1273C1248.82 1273 1250.38 1274.36 1250.86 1275.4C1251.06 1275.84 1251.1 1276.24 1251.14 1277.16L1254.58 1276.76C1254.5 1276.2 1254.34 1275.04 1253.58 1273.88C1252.66 1272.52 1250.5 1270.56 1246.54 1270.56C1243.14 1270.56 1239.22 1272.04 1239.22 1276.16C1239.22 1278.8 1240.78 1280.64 1245.94 1281.64L1247.78 1282C1249.5 1282.32 1251.7 1282.72 1251.7 1285C1251.7 1287.68 1248.9 1288.16 1247.34 1288.16C1245.78 1288.16 1244.22 1287.96 1243.1 1286.72C1242.18 1285.72 1242.06 1284.64 1242.06 1283.4L1238.42 1283.92ZM1275.2 1290L1266.6 1278.6L1273.6 1271.16H1269.68L1262.16 1279.16V1261.76H1258.92V1290H1262.16V1283.36L1264.44 1280.96L1271.2 1290H1275.2ZM1281.6 1273.8H1285V1271.16H1281.6V1265.2H1278.32V1271.16H1275.28V1273.8H1278.32V1286.92C1278.32 1289.08 1278.84 1290.32 1281.96 1290.32C1283.2 1290.32 1284.72 1290.04 1285 1290V1287.36C1284.12 1287.68 1283.36 1287.8 1283 1287.8C1282 1287.8 1281.6 1287.28 1281.6 1285.92V1273.8ZM1287.92 1280.6C1287.92 1287.08 1291.88 1290.6 1297.16 1290.6C1302.2 1290.6 1306.4 1287.16 1306.4 1280.4C1306.4 1273.64 1301.84 1270.56 1297.44 1270.56C1289.28 1270.56 1287.92 1277.56 1287.92 1280.6ZM1291.4 1280.76C1291.4 1279.56 1291.44 1273.12 1297.4 1273.12C1301.68 1273.12 1302.96 1276.92 1302.96 1280.16C1302.96 1285.04 1300.96 1288.04 1297.12 1288.04C1292.08 1288.04 1291.4 1283 1291.4 1280.76ZM1310.6 1271.16V1298.96H1313.72V1287.8C1315.12 1289.72 1317.68 1290.6 1320.08 1290.6C1326.84 1290.6 1328.92 1284.96 1328.92 1280.64C1328.92 1273.6 1324.32 1270.56 1320.44 1270.56C1317.16 1270.56 1314.76 1272.52 1313.72 1273.84V1271.16H1310.6ZM1313.72 1280.92C1313.72 1276.24 1316.2 1273.56 1319.84 1273.56C1322.52 1273.56 1325.64 1275.44 1325.64 1280.52C1325.64 1284.92 1323.6 1287.8 1319.64 1287.8C1315.96 1287.8 1313.72 1285.2 1313.72 1280.92ZM1354.08 1294.68C1349.52 1291.08 1346.64 1284.2 1346.64 1276.88C1346.64 1269.52 1348.96 1264.08 1354 1259.68L1352.68 1258.08C1346.04 1262.56 1342.92 1270 1342.92 1277.16C1342.92 1285.04 1346.56 1291.88 1352.8 1296.52L1354.08 1294.68ZM1355.42 1280.96C1355.54 1282.16 1355.9 1286.32 1359.66 1288.76C1362.62 1290.68 1366.46 1290.72 1367.38 1290.72C1372.18 1290.72 1374.74 1289.2 1376.3 1287.68C1378.5 1285.52 1378.66 1283 1378.66 1281.88C1378.66 1275.68 1372.78 1274.4 1371.46 1274.08L1366.3 1272.84C1363.1 1272.08 1360.66 1271.12 1360.66 1268.4C1360.66 1264.92 1364.42 1263.96 1367.1 1263.96C1373.5 1263.96 1374.38 1268.36 1374.38 1269.96L1378.18 1269.72C1377.7 1267.08 1377.06 1265.04 1374.58 1263.16C1372.3 1261.4 1369.58 1261.04 1366.78 1261.04C1365.42 1261.04 1362.18 1261.12 1359.46 1263.36C1357.78 1264.76 1356.78 1266.64 1356.78 1268.88C1356.78 1273.6 1360.34 1275.64 1366.7 1276.92L1369.26 1277.44C1372.3 1278.04 1374.62 1278.96 1374.62 1282.12C1374.62 1286.84 1369.94 1287.76 1367.58 1287.76C1359.74 1287.76 1359.5 1281.56 1359.46 1280.44L1355.42 1280.96ZM1386.46 1265.44V1261.76H1383.38V1265.44H1386.46ZM1386.46 1290V1271.16H1383.38V1290H1386.46ZM1408.82 1290V1261.76H1405.62V1273.64C1404.94 1272.56 1402.58 1270.56 1399.14 1270.56C1395.3 1270.56 1390.5 1273.2 1390.5 1280.52C1390.5 1286.36 1393.66 1290.6 1399.18 1290.6C1402.9 1290.6 1404.66 1288.72 1405.62 1287.6V1290H1408.82ZM1393.94 1280.64C1393.94 1277.08 1395.58 1273.48 1399.9 1273.48C1403.46 1273.48 1405.7 1276.44 1405.7 1280.32C1405.7 1286.08 1402.62 1287.76 1399.82 1287.76C1395.26 1287.76 1393.94 1283.96 1393.94 1280.64ZM1416.4 1281.16H1430.72V1280.64C1430.72 1273.32 1426.2 1270.56 1422.08 1270.56C1418.16 1270.56 1412.96 1273.24 1412.96 1280.4C1412.96 1287.84 1417.56 1290.6 1422.2 1290.6C1428.52 1290.6 1430.28 1285.56 1430.72 1284.24L1427.48 1283.8C1427.08 1285.52 1425.84 1288.2 1422.52 1288.2C1418 1288.2 1416.4 1284.32 1416.4 1281.4V1281.16ZM1416.48 1278.84C1416.76 1275.84 1418.44 1273.04 1421.84 1273.04C1425.04 1273.04 1427.24 1275.72 1427.24 1278.84H1416.48ZM1434.86 1261.76V1290H1438.06V1287.56C1438.94 1288.72 1440.86 1290.6 1444.5 1290.6C1450.34 1290.6 1453.22 1286.12 1453.22 1280.56C1453.22 1274.24 1449.42 1270.56 1444.54 1270.56C1442.02 1270.56 1439.54 1271.56 1438.06 1273.76V1261.76H1434.86ZM1437.98 1280.64C1437.98 1275.08 1441.42 1273.48 1443.98 1273.48C1447.1 1273.48 1449.82 1275.8 1449.82 1280.28C1449.82 1286.32 1446.46 1287.88 1443.98 1287.88C1439.42 1287.88 1437.98 1283.88 1437.98 1280.64ZM1468.56 1278.72L1465.68 1278.92C1463.28 1279.08 1459.96 1279.6 1458.04 1281.04C1456.24 1282.4 1456 1284.24 1456 1285.12C1456 1288.36 1458.64 1290.52 1462.4 1290.52C1466.04 1290.52 1467.96 1288.4 1468.84 1287.44C1468.88 1288 1469.36 1289.2 1470.12 1289.76C1470.8 1290.24 1471.96 1290.24 1472.12 1290.24C1472.64 1290.24 1473.2 1290.2 1474.16 1289.88V1287.2C1473.8 1287.28 1473.6 1287.36 1473.2 1287.36C1471.8 1287.36 1471.76 1286.28 1471.76 1285.16V1278.52C1471.76 1275.16 1471.6 1273.2 1468.92 1271.68C1467.36 1270.76 1465.36 1270.56 1464.2 1270.56C1457.52 1270.56 1456.96 1275.84 1456.96 1276.76L1460.28 1276.96V1276.68C1460.28 1274.32 1461.72 1273 1464.36 1273C1468.52 1273 1468.56 1276.32 1468.56 1278.08V1278.72ZM1468.6 1280.8V1282.28C1468.6 1287.12 1464.8 1287.84 1463.08 1287.84C1460.56 1287.84 1459.52 1286.44 1459.52 1285.04C1459.52 1283.2 1461.24 1282.4 1461.84 1282.16C1463.32 1281.52 1467.12 1281.04 1468.6 1280.8ZM1477.32 1271.16V1290H1480.52V1281.28C1480.52 1279.44 1480.56 1278.76 1480.8 1277.8C1481.44 1275.48 1483.44 1274.24 1485.72 1274.24C1486.12 1274.24 1486.56 1274.28 1486.96 1274.36V1270.92C1484.52 1270.92 1483.04 1271.84 1482.28 1272.44C1481.52 1273.04 1480.96 1273.76 1480.52 1274.6V1271.16H1477.32ZM1523.72 1279.28C1522.8 1285 1518.76 1287.56 1514.36 1287.56C1508.68 1287.56 1504.24 1283.76 1504.24 1275.68C1504.24 1268.8 1507.88 1264.04 1514.32 1264.04C1519.6 1264.04 1522.44 1267.28 1523.44 1270.44L1527.24 1269.68C1525.36 1264.28 1521.08 1261.04 1514.36 1261.04C1505.4 1261.04 1500.08 1267.08 1500.08 1275.88C1500.08 1284.72 1505.4 1290.72 1513.88 1290.72C1522.8 1290.72 1526.84 1284.32 1527.8 1279.76L1523.72 1279.28ZM1530.26 1280.6C1530.26 1287.08 1534.22 1290.6 1539.5 1290.6C1544.54 1290.6 1548.74 1287.16 1548.74 1280.4C1548.74 1273.64 1544.18 1270.56 1539.78 1270.56C1531.62 1270.56 1530.26 1277.56 1530.26 1280.6ZM1533.74 1280.76C1533.74 1279.56 1533.78 1273.12 1539.74 1273.12C1544.02 1273.12 1545.3 1276.92 1545.3 1280.16C1545.3 1285.04 1543.3 1288.04 1539.46 1288.04C1534.42 1288.04 1533.74 1283 1533.74 1280.76ZM1556.06 1290V1261.76H1553.02V1290H1556.06ZM1564.38 1290V1261.76H1561.34V1290H1564.38ZM1580.82 1278.72L1577.94 1278.92C1575.54 1279.08 1572.22 1279.6 1570.3 1281.04C1568.5 1282.4 1568.26 1284.24 1568.26 1285.12C1568.26 1288.36 1570.9 1290.52 1574.66 1290.52C1578.3 1290.52 1580.22 1288.4 1581.1 1287.44C1581.14 1288 1581.62 1289.2 1582.38 1289.76C1583.06 1290.24 1584.22 1290.24 1584.38 1290.24C1584.9 1290.24 1585.46 1290.2 1586.42 1289.88V1287.2C1586.06 1287.28 1585.86 1287.36 1585.46 1287.36C1584.06 1287.36 1584.02 1286.28 1584.02 1285.16V1278.52C1584.02 1275.16 1583.86 1273.2 1581.18 1271.68C1579.62 1270.76 1577.62 1270.56 1576.46 1270.56C1569.78 1270.56 1569.22 1275.84 1569.22 1276.76L1572.54 1276.96V1276.68C1572.54 1274.32 1573.98 1273 1576.62 1273C1580.78 1273 1580.82 1276.32 1580.82 1278.08V1278.72ZM1580.86 1280.8V1282.28C1580.86 1287.12 1577.06 1287.84 1575.34 1287.84C1572.82 1287.84 1571.78 1286.44 1571.78 1285.04C1571.78 1283.2 1573.5 1282.4 1574.1 1282.16C1575.58 1281.52 1579.38 1281.04 1580.86 1280.8ZM1589.58 1271.16V1298.96H1592.7V1287.8C1594.1 1289.72 1596.66 1290.6 1599.06 1290.6C1605.82 1290.6 1607.9 1284.96 1607.9 1280.64C1607.9 1273.6 1603.3 1270.56 1599.42 1270.56C1596.14 1270.56 1593.74 1272.52 1592.7 1273.84V1271.16H1589.58ZM1592.7 1280.92C1592.7 1276.24 1595.18 1273.56 1598.82 1273.56C1601.5 1273.56 1604.62 1275.44 1604.62 1280.52C1604.62 1284.92 1602.58 1287.8 1598.62 1287.8C1594.94 1287.8 1592.7 1285.2 1592.7 1280.92ZM1610.69 1283.92C1611.25 1287.6 1613.37 1290.6 1619.45 1290.6C1623.93 1290.6 1627.33 1288.24 1627.33 1284.64C1627.33 1281.2 1624.57 1280 1621.05 1279.16L1619.21 1278.72C1616.33 1278.04 1614.65 1277.4 1614.65 1275.76C1614.65 1274.56 1615.77 1273 1618.37 1273C1621.09 1273 1622.65 1274.36 1623.13 1275.4C1623.33 1275.84 1623.37 1276.24 1623.41 1277.16L1626.85 1276.76C1626.77 1276.2 1626.61 1275.04 1625.85 1273.88C1624.93 1272.52 1622.77 1270.56 1618.81 1270.56C1615.41 1270.56 1611.49 1272.04 1611.49 1276.16C1611.49 1278.8 1613.05 1280.64 1618.21 1281.64L1620.05 1282C1621.77 1282.32 1623.97 1282.72 1623.97 1285C1623.97 1287.68 1621.17 1288.16 1619.61 1288.16C1618.05 1288.16 1616.49 1287.96 1615.37 1286.72C1614.45 1285.72 1614.33 1284.64 1614.33 1283.4L1610.69 1283.92ZM1633.59 1281.16H1647.91V1280.64C1647.91 1273.32 1643.39 1270.56 1639.27 1270.56C1635.35 1270.56 1630.15 1273.24 1630.15 1280.4C1630.15 1287.84 1634.75 1290.6 1639.39 1290.6C1645.71 1290.6 1647.47 1285.56 1647.91 1284.24L1644.67 1283.8C1644.27 1285.52 1643.03 1288.2 1639.71 1288.2C1635.19 1288.2 1633.59 1284.32 1633.59 1281.4V1281.16ZM1633.67 1278.84C1633.95 1275.84 1635.63 1273.04 1639.03 1273.04C1642.23 1273.04 1644.43 1275.72 1644.43 1278.84H1633.67ZM1669.33 1290V1261.76H1666.13V1273.64C1665.45 1272.56 1663.09 1270.56 1659.65 1270.56C1655.81 1270.56 1651.01 1273.2 1651.01 1280.52C1651.01 1286.36 1654.17 1290.6 1659.69 1290.6C1663.41 1290.6 1665.17 1288.72 1666.13 1287.6V1290H1669.33ZM1654.45 1280.64C1654.45 1277.08 1656.09 1273.48 1660.41 1273.48C1663.97 1273.48 1666.21 1276.44 1666.21 1280.32C1666.21 1286.08 1663.13 1287.76 1660.33 1287.76C1655.77 1287.76 1654.45 1283.96 1654.45 1280.64ZM1672.07 1259.8C1676.67 1263.4 1679.51 1270.24 1679.51 1277.56C1679.51 1284.92 1677.11 1290.44 1672.11 1294.84L1673.43 1296.4C1679.71 1292.24 1683.23 1284.84 1683.23 1277.32C1683.23 1269.6 1679.75 1262.64 1673.39 1257.96L1672.07 1259.8ZM1709.82 1290V1263.04H1707.14C1707.1 1263.36 1706.9 1264.52 1706.3 1265.44C1705.38 1266.92 1703.74 1267.8 1700.26 1267.8V1270.28H1706.06V1290H1709.82ZM1716.76 1276.64C1716.76 1287.16 1722.32 1290.24 1726.44 1290.24C1732.8 1290.24 1736.2 1284.44 1736.2 1276.4C1736.2 1267.84 1731.88 1262.8 1726.4 1262.8C1720.32 1262.8 1716.76 1268.68 1716.76 1276.64ZM1720.32 1276.8C1720.32 1271.72 1721.4 1265.96 1726.52 1265.96C1732.24 1265.96 1732.6 1274.12 1732.6 1276.48C1732.6 1280.24 1731.72 1287.12 1726.52 1287.12C1722.4 1287.12 1720.32 1282.8 1720.32 1276.8ZM1758.92 1290V1286.92H1746C1748.04 1285.6 1750.08 1284.12 1751.96 1282.6C1755.88 1279.36 1758.6 1275.36 1758.6 1271.32C1758.6 1268.84 1757.6 1266.36 1755.72 1264.8C1753.52 1262.92 1750.88 1262.8 1749.92 1262.8C1746.72 1262.8 1744.68 1264.04 1743.72 1264.88C1741.28 1267.04 1741.2 1270.24 1741.2 1271.24C1741.2 1272.8 1741.48 1273.76 1741.68 1274.44H1745.2C1744.8 1272.84 1744.72 1272.08 1744.72 1271.24C1744.72 1268.4 1745.96 1265.92 1749.8 1265.92C1753 1265.92 1754.88 1267.92 1754.88 1271.08C1754.88 1275 1752.28 1277.88 1749.64 1280.32C1745.04 1284.64 1742.56 1285.92 1741.28 1286.6V1290H1758.92ZM1782.72 1283.52V1280.48H1778.8V1263.04H1776L1763.12 1280.28V1283.52H1775.32V1290H1778.8V1283.52H1782.72ZM1766.76 1280.48L1775.48 1268.4C1775.48 1268.4 1775.32 1279.92 1775.32 1280.48H1766.76ZM1797.76 1279.52V1276.48H1786.56V1279.52H1797.76ZM1813.84 1290V1263.04H1811.16C1811.12 1263.36 1810.92 1264.52 1810.32 1265.44C1809.4 1266.92 1807.76 1267.8 1804.28 1267.8V1270.28H1810.08V1290H1813.84ZM1844.16 1283.52V1280.48H1840.24V1263.04H1837.44L1824.56 1280.28V1283.52H1836.76V1290H1840.24V1283.52H1844.16ZM1828.2 1280.48L1836.92 1268.4C1836.92 1268.4 1836.76 1279.92 1836.76 1280.48H1828.2ZM1847.8 1281.08C1847.8 1287.84 1852.8 1290.24 1858 1290.24C1859.2 1290.24 1862.76 1290.2 1865.28 1287.64C1867.2 1285.68 1867.36 1283.48 1867.36 1282.48C1867.36 1278.92 1865.28 1276.84 1863.28 1276.04C1865.64 1274.76 1866.56 1272.88 1866.56 1270.32C1866.56 1266.04 1863.24 1262.8 1857.56 1262.8C1855.92 1262.8 1850.88 1263.08 1849.24 1268.36C1848.84 1269.64 1848.8 1270.52 1848.72 1271.92L1852.28 1272.08C1852.36 1270.68 1852.44 1269.24 1853.2 1268C1854.2 1266.4 1855.76 1265.76 1857.52 1265.76C1859.92 1265.76 1862.96 1267.12 1862.96 1270.32C1862.96 1273.72 1860.04 1274.64 1857.08 1274.64C1856.32 1274.64 1855.6 1274.6 1855.04 1274.56V1277.8C1855.84 1277.72 1856.64 1277.68 1857.68 1277.68C1861.92 1277.68 1863.6 1279.48 1863.6 1282.2C1863.6 1287 1858.8 1287.04 1857.72 1287.04C1852.56 1287.04 1851.64 1284.44 1851.4 1281.08H1847.8ZM1873.3 1283.52C1873.98 1286.64 1876.42 1290.24 1881.38 1290.24C1884.62 1290.24 1886.82 1289.2 1888.38 1287.16C1891.26 1283.4 1891.38 1278.08 1891.38 1276.36C1891.38 1267.96 1888.26 1262.92 1881.58 1262.92C1874.82 1262.92 1872.46 1268.08 1872.46 1272.24C1872.46 1277.48 1876.02 1281.28 1881.26 1281.28C1885.14 1281.28 1887.1 1278.92 1887.94 1277.84C1887.94 1280.28 1887.18 1283.92 1885.3 1285.76C1883.94 1287.08 1882.26 1287.2 1881.62 1287.2C1878.62 1287.2 1877.3 1285.36 1876.78 1282.88L1873.3 1283.52ZM1887.58 1272.6C1887.58 1275.04 1885.9 1278.08 1881.66 1278.08C1878.78 1278.08 1876.02 1276.32 1876.02 1272.44C1876.02 1270.12 1876.98 1265.92 1881.54 1265.92C1885.5 1265.92 1887.58 1269.2 1887.58 1272.6ZM1896.3 1271.16V1298.96H1899.42V1287.8C1900.82 1289.72 1903.38 1290.6 1905.78 1290.6C1912.54 1290.6 1914.62 1284.96 1914.62 1280.64C1914.62 1273.6 1910.02 1270.56 1906.14 1270.56C1902.86 1270.56 1900.46 1272.52 1899.42 1273.84V1271.16H1896.3ZM1899.42 1280.92C1899.42 1276.24 1901.9 1273.56 1905.54 1273.56C1908.22 1273.56 1911.34 1275.44 1911.34 1280.52C1911.34 1284.92 1909.3 1287.8 1905.34 1287.8C1901.66 1287.8 1899.42 1285.2 1899.42 1280.92ZM1931.64 1290L1925.96 1280.44L1931.64 1271.16H1928.04L1924.24 1277.64L1920.48 1271.16H1916.8L1922.36 1280.44L1916.52 1290H1920.12L1924.04 1283.28L1928.04 1290H1931.64Z" fill="black"/>
<path d="M2268.12 9.76V38H2278.24C2288.44 38 2291.32 30.96 2291.32 23.92C2291.32 14.52 2286.12 9.76 2279.32 9.76H2268.12ZM2272 13.08H2278.48C2284.88 13.08 2287.48 17.76 2287.48 23.88C2287.48 30.56 2284.52 34.72 2278.68 34.72H2272V13.08ZM2298.32 29.16H2312.64V28.64C2312.64 21.32 2308.12 18.56 2304 18.56C2300.08 18.56 2294.88 21.24 2294.88 28.4C2294.88 35.84 2299.48 38.6 2304.12 38.6C2310.44 38.6 2312.2 33.56 2312.64 32.24L2309.4 31.8C2309 33.52 2307.76 36.2 2304.44 36.2C2299.92 36.2 2298.32 32.32 2298.32 29.4V29.16ZM2298.4 26.84C2298.68 23.84 2300.36 21.04 2303.76 21.04C2306.96 21.04 2309.16 23.72 2309.16 26.84H2298.4ZM2315.42 31.92C2315.98 35.6 2318.1 38.6 2324.18 38.6C2328.66 38.6 2332.06 36.24 2332.06 32.64C2332.06 29.2 2329.3 28 2325.78 27.16L2323.94 26.72C2321.06 26.04 2319.38 25.4 2319.38 23.76C2319.38 22.56 2320.5 21 2323.1 21C2325.82 21 2327.38 22.36 2327.86 23.4C2328.06 23.84 2328.1 24.24 2328.14 25.16L2331.58 24.76C2331.5 24.2 2331.34 23.04 2330.58 21.88C2329.66 20.52 2327.5 18.56 2323.54 18.56C2320.14 18.56 2316.22 20.04 2316.22 24.16C2316.22 26.8 2317.78 28.64 2322.94 29.64L2324.78 30C2326.5 30.32 2328.7 30.72 2328.7 33C2328.7 35.68 2325.9 36.16 2324.34 36.16C2322.78 36.16 2321.22 35.96 2320.1 34.72C2319.18 33.72 2319.06 32.64 2319.06 31.4L2315.42 31.92ZM2352.2 38L2343.6 26.6L2350.6 19.16H2346.68L2339.16 27.16V9.76H2335.92V38H2339.16V31.36L2341.44 28.96L2348.2 38H2352.2ZM2358.6 21.8H2362V19.16H2358.6V13.2H2355.32V19.16H2352.28V21.8H2355.32V34.92C2355.32 37.08 2355.84 38.32 2358.96 38.32C2360.2 38.32 2361.72 38.04 2362 38V35.36C2361.12 35.68 2360.36 35.8 2360 35.8C2359 35.8 2358.6 35.28 2358.6 33.92V21.8ZM2364.92 28.6C2364.92 35.08 2368.88 38.6 2374.16 38.6C2379.2 38.6 2383.4 35.16 2383.4 28.4C2383.4 21.64 2378.84 18.56 2374.44 18.56C2366.28 18.56 2364.92 25.56 2364.92 28.6ZM2368.4 28.76C2368.4 27.56 2368.44 21.12 2374.4 21.12C2378.68 21.12 2379.96 24.92 2379.96 28.16C2379.96 33.04 2377.96 36.04 2374.12 36.04C2369.08 36.04 2368.4 31 2368.4 28.76ZM2387.6 19.16V46.96H2390.72V35.8C2392.12 37.72 2394.68 38.6 2397.08 38.6C2403.84 38.6 2405.92 32.96 2405.92 28.64C2405.92 21.6 2401.32 18.56 2397.44 18.56C2394.16 18.56 2391.76 20.52 2390.72 21.84V19.16H2387.6ZM2390.72 28.92C2390.72 24.24 2393.2 21.56 2396.84 21.56C2399.52 21.56 2402.64 23.44 2402.64 28.52C2402.64 32.92 2400.6 35.8 2396.64 35.8C2392.96 35.8 2390.72 33.2 2390.72 28.92ZM2438.48 38V34.64H2424.8V9.76H2421.04V38H2438.48ZM2453.02 26.72L2450.14 26.92C2447.74 27.08 2444.42 27.6 2442.5 29.04C2440.7 30.4 2440.46 32.24 2440.46 33.12C2440.46 36.36 2443.1 38.52 2446.86 38.52C2450.5 38.52 2452.42 36.4 2453.3 35.44C2453.34 36 2453.82 37.2 2454.58 37.76C2455.26 38.24 2456.42 38.24 2456.58 38.24C2457.1 38.24 2457.66 38.2 2458.62 37.88V35.2C2458.26 35.28 2458.06 35.36 2457.66 35.36C2456.26 35.36 2456.22 34.28 2456.22 33.16V26.52C2456.22 23.16 2456.06 21.2 2453.38 19.68C2451.82 18.76 2449.82 18.56 2448.66 18.56C2441.98 18.56 2441.42 23.84 2441.42 24.76L2444.74 24.96V24.68C2444.74 22.32 2446.18 21 2448.82 21C2452.98 21 2453.02 24.32 2453.02 26.08V26.72ZM2453.06 28.8V30.28C2453.06 35.12 2449.26 35.84 2447.54 35.84C2445.02 35.84 2443.98 34.44 2443.98 33.04C2443.98 31.2 2445.7 30.4 2446.3 30.16C2447.78 29.52 2451.58 29.04 2453.06 28.8ZM2461.78 19.16V38H2464.98V29.28C2464.98 27.44 2465.02 26.76 2465.26 25.8C2465.9 23.48 2467.9 22.24 2470.18 22.24C2470.58 22.24 2471.02 22.28 2471.42 22.36V18.92C2468.98 18.92 2467.5 19.84 2466.74 20.44C2465.98 21.04 2465.42 21.76 2464.98 22.6V19.16H2461.78ZM2491.6 19.16H2488.28V21.72C2486.48 19.64 2484.48 18.56 2482.12 18.56C2475.36 18.56 2473.36 24.28 2473.36 28.68C2473.36 35 2477.28 38.6 2482.08 38.6C2483.6 38.6 2486.12 38.2 2488.28 35.24V38.88C2488.28 42.44 2487.04 44.56 2483.04 44.56C2480 44.56 2477.84 43.12 2477.84 40.16H2474.24C2474.68 45 2478.44 47.16 2482.8 47.16C2487.24 47.16 2491.6 45.32 2491.6 38.36V19.16ZM2488.4 28.32C2488.4 32.4 2486.72 35.72 2482.6 35.72C2478.48 35.72 2476.64 32.6 2476.64 28.6C2476.64 23.88 2479.24 21.44 2482.48 21.44C2485.92 21.44 2488.4 24 2488.4 28.32ZM2499.18 29.16H2513.5V28.64C2513.5 21.32 2508.98 18.56 2504.86 18.56C2500.94 18.56 2495.74 21.24 2495.74 28.4C2495.74 35.84 2500.34 38.6 2504.98 38.6C2511.3 38.6 2513.06 33.56 2513.5 32.24L2510.26 31.8C2509.86 33.52 2508.62 36.2 2505.3 36.2C2500.78 36.2 2499.18 32.32 2499.18 29.4V29.16ZM2499.26 26.84C2499.54 23.84 2501.22 21.04 2504.62 21.04C2507.82 21.04 2510.02 23.72 2510.02 26.84H2499.26ZM2538.66 42.68C2534.1 39.08 2531.22 32.2 2531.22 24.88C2531.22 17.52 2533.54 12.08 2538.58 7.68L2537.26 6.08C2530.62 10.56 2527.5 18 2527.5 25.16C2527.5 33.04 2531.14 39.88 2537.38 44.52L2538.66 42.68ZM2540 28.96C2540.12 30.16 2540.48 34.32 2544.24 36.76C2547.2 38.68 2551.04 38.72 2551.96 38.72C2556.76 38.72 2559.32 37.2 2560.88 35.68C2563.08 33.52 2563.24 31 2563.24 29.88C2563.24 23.68 2557.36 22.4 2556.04 22.08L2550.88 20.84C2547.68 20.08 2545.24 19.12 2545.24 16.4C2545.24 12.92 2549 11.96 2551.68 11.96C2558.08 11.96 2558.96 16.36 2558.96 17.96L2562.76 17.72C2562.28 15.08 2561.64 13.04 2559.16 11.16C2556.88 9.4 2554.16 9.04 2551.36 9.04C2550 9.04 2546.76 9.12 2544.04 11.36C2542.36 12.76 2541.36 14.64 2541.36 16.88C2541.36 21.6 2544.92 23.64 2551.28 24.92L2553.84 25.44C2556.88 26.04 2559.2 26.96 2559.2 30.12C2559.2 34.84 2554.52 35.76 2552.16 35.76C2544.32 35.76 2544.08 29.56 2544.04 28.44L2540 28.96ZM2571.04 13.44V9.76H2567.96V13.44H2571.04ZM2571.04 38V19.16H2567.96V38H2571.04ZM2593.4 38V9.76H2590.2V21.64C2589.52 20.56 2587.16 18.56 2583.72 18.56C2579.88 18.56 2575.08 21.2 2575.08 28.52C2575.08 34.36 2578.24 38.6 2583.76 38.6C2587.48 38.6 2589.24 36.72 2590.2 35.6V38H2593.4ZM2578.52 28.64C2578.52 25.08 2580.16 21.48 2584.48 21.48C2588.04 21.48 2590.28 24.44 2590.28 28.32C2590.28 34.08 2587.2 35.76 2584.4 35.76C2579.84 35.76 2578.52 31.96 2578.52 28.64ZM2600.98 29.16H2615.3V28.64C2615.3 21.32 2610.78 18.56 2606.66 18.56C2602.74 18.56 2597.54 21.24 2597.54 28.4C2597.54 35.84 2602.14 38.6 2606.78 38.6C2613.1 38.6 2614.86 33.56 2615.3 32.24L2612.06 31.8C2611.66 33.52 2610.42 36.2 2607.1 36.2C2602.58 36.2 2600.98 32.32 2600.98 29.4V29.16ZM2601.06 26.84C2601.34 23.84 2603.02 21.04 2606.42 21.04C2609.62 21.04 2611.82 23.72 2611.82 26.84H2601.06ZM2619.44 9.76V38H2622.64V35.56C2623.52 36.72 2625.44 38.6 2629.08 38.6C2634.92 38.6 2637.8 34.12 2637.8 28.56C2637.8 22.24 2634 18.56 2629.12 18.56C2626.6 18.56 2624.12 19.56 2622.64 21.76V9.76H2619.44ZM2622.56 28.64C2622.56 23.08 2626 21.48 2628.56 21.48C2631.68 21.48 2634.4 23.8 2634.4 28.28C2634.4 34.32 2631.04 35.88 2628.56 35.88C2624 35.88 2622.56 31.88 2622.56 28.64ZM2653.14 26.72L2650.26 26.92C2647.86 27.08 2644.54 27.6 2642.62 29.04C2640.82 30.4 2640.58 32.24 2640.58 33.12C2640.58 36.36 2643.22 38.52 2646.98 38.52C2650.62 38.52 2652.54 36.4 2653.42 35.44C2653.46 36 2653.94 37.2 2654.7 37.76C2655.38 38.24 2656.54 38.24 2656.7 38.24C2657.22 38.24 2657.78 38.2 2658.74 37.88V35.2C2658.38 35.28 2658.18 35.36 2657.78 35.36C2656.38 35.36 2656.34 34.28 2656.34 33.16V26.52C2656.34 23.16 2656.18 21.2 2653.5 19.68C2651.94 18.76 2649.94 18.56 2648.78 18.56C2642.1 18.56 2641.54 23.84 2641.54 24.76L2644.86 24.96V24.68C2644.86 22.32 2646.3 21 2648.94 21C2653.1 21 2653.14 24.32 2653.14 26.08V26.72ZM2653.18 28.8V30.28C2653.18 35.12 2649.38 35.84 2647.66 35.84C2645.14 35.84 2644.1 34.44 2644.1 33.04C2644.1 31.2 2645.82 30.4 2646.42 30.16C2647.9 29.52 2651.7 29.04 2653.18 28.8ZM2661.9 19.16V38H2665.1V29.28C2665.1 27.44 2665.14 26.76 2665.38 25.8C2666.02 23.48 2668.02 22.24 2670.3 22.24C2670.7 22.24 2671.14 22.28 2671.54 22.36V18.92C2669.1 18.92 2667.62 19.84 2666.86 20.44C2666.1 21.04 2665.54 21.76 2665.1 22.6V19.16H2661.9ZM2705.78 38V34.72H2689.46V25.08H2703.22V21.8H2689.46V13.08H2705.3V9.76H2685.86V38H2705.78ZM2722.32 38L2716.64 28.44L2722.32 19.16H2718.72L2714.92 25.64L2711.16 19.16H2707.48L2713.04 28.44L2707.2 38H2710.8L2714.72 31.28L2718.72 38H2722.32ZM2725.3 19.16V46.96H2728.42V35.8C2729.82 37.72 2732.38 38.6 2734.78 38.6C2741.54 38.6 2743.62 32.96 2743.62 28.64C2743.62 21.6 2739.02 18.56 2735.14 18.56C2731.86 18.56 2729.46 20.52 2728.42 21.84V19.16H2725.3ZM2728.42 28.92C2728.42 24.24 2730.9 21.56 2734.54 21.56C2737.22 21.56 2740.34 23.44 2740.34 28.52C2740.34 32.92 2738.3 35.8 2734.34 35.8C2730.66 35.8 2728.42 33.2 2728.42 28.92ZM2759 26.72L2756.12 26.92C2753.72 27.08 2750.4 27.6 2748.48 29.04C2746.68 30.4 2746.44 32.24 2746.44 33.12C2746.44 36.36 2749.08 38.52 2752.84 38.52C2756.48 38.52 2758.4 36.4 2759.28 35.44C2759.32 36 2759.8 37.2 2760.56 37.76C2761.24 38.24 2762.4 38.24 2762.56 38.24C2763.08 38.24 2763.64 38.2 2764.6 37.88V35.2C2764.24 35.28 2764.04 35.36 2763.64 35.36C2762.24 35.36 2762.2 34.28 2762.2 33.16V26.52C2762.2 23.16 2762.04 21.2 2759.36 19.68C2757.8 18.76 2755.8 18.56 2754.64 18.56C2747.96 18.56 2747.4 23.84 2747.4 24.76L2750.72 24.96V24.68C2750.72 22.32 2752.16 21 2754.8 21C2758.96 21 2759 24.32 2759 26.08V26.72ZM2759.04 28.8V30.28C2759.04 35.12 2755.24 35.84 2753.52 35.84C2751 35.84 2749.96 34.44 2749.96 33.04C2749.96 31.2 2751.68 30.4 2752.28 30.16C2753.76 29.52 2757.56 29.04 2759.04 28.8ZM2783.36 38V26.08C2783.36 24.32 2783.28 22.68 2782.2 21.16C2780.52 18.8 2777.68 18.56 2776.84 18.56C2773.6 18.56 2771.72 20.52 2770.92 21.92V19.16H2767.72V38H2770.92V26.84C2770.92 23.48 2773.28 21.56 2775.92 21.56C2778.12 21.56 2780.2 22.72 2780.2 25.64V38H2783.36ZM2805.9 38V9.76H2802.7V21.64C2802.02 20.56 2799.66 18.56 2796.22 18.56C2792.38 18.56 2787.58 21.2 2787.58 28.52C2787.58 34.36 2790.74 38.6 2796.26 38.6C2799.98 38.6 2801.74 36.72 2802.7 35.6V38H2805.9ZM2791.02 28.64C2791.02 25.08 2792.66 21.48 2796.98 21.48C2800.54 21.48 2802.78 24.44 2802.78 28.32C2802.78 34.08 2799.7 35.76 2796.9 35.76C2792.34 35.76 2791.02 31.96 2791.02 28.64ZM2813.48 29.16H2827.8V28.64C2827.8 21.32 2823.28 18.56 2819.16 18.56C2815.24 18.56 2810.04 21.24 2810.04 28.4C2810.04 35.84 2814.64 38.6 2819.28 38.6C2825.6 38.6 2827.36 33.56 2827.8 32.24L2824.56 31.8C2824.16 33.52 2822.92 36.2 2819.6 36.2C2815.08 36.2 2813.48 32.32 2813.48 29.4V29.16ZM2813.56 26.84C2813.84 23.84 2815.52 21.04 2818.92 21.04C2822.12 21.04 2824.32 23.72 2824.32 26.84H2813.56ZM2849.22 38V9.76H2846.02V21.64C2845.34 20.56 2842.98 18.56 2839.54 18.56C2835.7 18.56 2830.9 21.2 2830.9 28.52C2830.9 34.36 2834.06 38.6 2839.58 38.6C2843.3 38.6 2845.06 36.72 2846.02 35.6V38H2849.22ZM2834.34 28.64C2834.34 25.08 2835.98 21.48 2840.3 21.48C2843.86 21.48 2846.1 24.44 2846.1 28.32C2846.1 34.08 2843.02 35.76 2840.22 35.76C2835.66 35.76 2834.34 31.96 2834.34 28.64ZM2851.96 7.8C2856.56 11.4 2859.4 18.24 2859.4 25.56C2859.4 32.92 2857 38.44 2852 42.84L2853.32 44.4C2859.6 40.24 2863.12 32.84 2863.12 25.32C2863.12 17.6 2859.64 10.64 2853.28 5.96L2851.96 7.8ZM2889.71 38V11.04H2887.03C2886.99 11.36 2886.79 12.52 2886.19 13.44C2885.27 14.92 2883.63 15.8 2880.15 15.8V18.28H2885.95V38H2889.71ZM2920.03 31.52V28.48H2916.11V11.04H2913.31L2900.43 28.28V31.52H2912.63V38H2916.11V31.52H2920.03ZM2904.07 28.48L2912.79 16.4C2912.79 16.4 2912.63 27.92 2912.63 28.48H2904.07ZM2944.21 31.52V28.48H2940.29V11.04H2937.49L2924.61 28.28V31.52H2936.81V38H2940.29V31.52H2944.21ZM2928.25 28.48L2936.97 16.4C2936.97 16.4 2936.81 27.92 2936.81 28.48H2928.25ZM2949.07 24.64C2949.07 35.16 2954.63 38.24 2958.75 38.24C2965.11 38.24 2968.51 32.44 2968.51 24.4C2968.51 15.84 2964.19 10.8 2958.71 10.8C2952.63 10.8 2949.07 16.68 2949.07 24.64ZM2952.63 24.8C2952.63 19.72 2953.71 13.96 2958.83 13.96C2964.55 13.96 2964.91 22.12 2964.91 24.48C2964.91 28.24 2964.03 35.12 2958.83 35.12C2954.71 35.12 2952.63 30.8 2952.63 24.8ZM2995.67 27.52V24.4H2986.67V15.28H2983.15V24.4H2974.19V27.52H2983.15V36.68H2986.67V27.52H2995.67ZM3001.98 19.16V46.96H3005.1V35.8C3006.5 37.72 3009.06 38.6 3011.46 38.6C3018.22 38.6 3020.3 32.96 3020.3 28.64C3020.3 21.6 3015.7 18.56 3011.82 18.56C3008.54 18.56 3006.14 20.52 3005.1 21.84V19.16H3001.98ZM3005.1 28.92C3005.1 24.24 3007.58 21.56 3011.22 21.56C3013.9 21.56 3017.02 23.44 3017.02 28.52C3017.02 32.92 3014.98 35.8 3011.02 35.8C3007.34 35.8 3005.1 33.2 3005.1 28.92ZM3037.32 38L3031.64 28.44L3037.32 19.16H3033.72L3029.92 25.64L3026.16 19.16H3022.48L3028.04 28.44L3022.2 38H3025.8L3029.72 31.28L3033.72 38H3037.32Z" fill="black"/>
<path d="M2268.12 1261.76V1290H2278.24C2288.44 1290 2291.32 1282.96 2291.32 1275.92C2291.32 1266.52 2286.12 1261.76 2279.32 1261.76H2268.12ZM2272 1265.08H2278.48C2284.88 1265.08 2287.48 1269.76 2287.48 1275.88C2287.48 1282.56 2284.52 1286.72 2278.68 1286.72H2272V1265.08ZM2298.32 1281.16H2312.64V1280.64C2312.64 1273.32 2308.12 1270.56 2304 1270.56C2300.08 1270.56 2294.88 1273.24 2294.88 1280.4C2294.88 1287.84 2299.48 1290.6 2304.12 1290.6C2310.44 1290.6 2312.2 1285.56 2312.64 1284.24L2309.4 1283.8C2309 1285.52 2307.76 1288.2 2304.44 1288.2C2299.92 1288.2 2298.32 1284.32 2298.32 1281.4V1281.16ZM2298.4 1278.84C2298.68 1275.84 2300.36 1273.04 2303.76 1273.04C2306.96 1273.04 2309.16 1275.72 2309.16 1278.84H2298.4ZM2315.42 1283.92C2315.98 1287.6 2318.1 1290.6 2324.18 1290.6C2328.66 1290.6 2332.06 1288.24 2332.06 1284.64C2332.06 1281.2 2329.3 1280 2325.78 1279.16L2323.94 1278.72C2321.06 1278.04 2319.38 1277.4 2319.38 1275.76C2319.38 1274.56 2320.5 1273 2323.1 1273C2325.82 1273 2327.38 1274.36 2327.86 1275.4C2328.06 1275.84 2328.1 1276.24 2328.14 1277.16L2331.58 1276.76C2331.5 1276.2 2331.34 1275.04 2330.58 1273.88C2329.66 1272.52 2327.5 1270.56 2323.54 1270.56C2320.14 1270.56 2316.22 1272.04 2316.22 1276.16C2316.22 1278.8 2317.78 1280.64 2322.94 1281.64L2324.78 1282C2326.5 1282.32 2328.7 1282.72 2328.7 1285C2328.7 1287.68 2325.9 1288.16 2324.34 1288.16C2322.78 1288.16 2321.22 1287.96 2320.1 1286.72C2319.18 1285.72 2319.06 1284.64 2319.06 1283.4L2315.42 1283.92ZM2352.2 1290L2343.6 1278.6L2350.6 1271.16H2346.68L2339.16 1279.16V1261.76H2335.92V1290H2339.16V1283.36L2341.44 1280.96L2348.2 1290H2352.2ZM2358.6 1273.8H2362V1271.16H2358.6V1265.2H2355.32V1271.16H2352.28V1273.8H2355.32V1286.92C2355.32 1289.08 2355.84 1290.32 2358.96 1290.32C2360.2 1290.32 2361.72 1290.04 2362 1290V1287.36C2361.12 1287.68 2360.36 1287.8 2360 1287.8C2359 1287.8 2358.6 1287.28 2358.6 1285.92V1273.8ZM2364.92 1280.6C2364.92 1287.08 2368.88 1290.6 2374.16 1290.6C2379.2 1290.6 2383.4 1287.16 2383.4 1280.4C2383.4 1273.64 2378.84 1270.56 2374.44 1270.56C2366.28 1270.56 2364.92 1277.56 2364.92 1280.6ZM2368.4 1280.76C2368.4 1279.56 2368.44 1273.12 2374.4 1273.12C2378.68 1273.12 2379.96 1276.92 2379.96 1280.16C2379.96 1285.04 2377.96 1288.04 2374.12 1288.04C2369.08 1288.04 2368.4 1283 2368.4 1280.76ZM2387.6 1271.16V1298.96H2390.72V1287.8C2392.12 1289.72 2394.68 1290.6 2397.08 1290.6C2403.84 1290.6 2405.92 1284.96 2405.92 1280.64C2405.92 1273.6 2401.32 1270.56 2397.44 1270.56C2394.16 1270.56 2391.76 1272.52 2390.72 1273.84V1271.16H2387.6ZM2390.72 1280.92C2390.72 1276.24 2393.2 1273.56 2396.84 1273.56C2399.52 1273.56 2402.64 1275.44 2402.64 1280.52C2402.64 1284.92 2400.6 1287.8 2396.64 1287.8C2392.96 1287.8 2390.72 1285.2 2390.72 1280.92ZM2438.48 1290V1286.64H2424.8V1261.76H2421.04V1290H2438.48ZM2453.02 1278.72L2450.14 1278.92C2447.74 1279.08 2444.42 1279.6 2442.5 1281.04C2440.7 1282.4 2440.46 1284.24 2440.46 1285.12C2440.46 1288.36 2443.1 1290.52 2446.86 1290.52C2450.5 1290.52 2452.42 1288.4 2453.3 1287.44C2453.34 1288 2453.82 1289.2 2454.58 1289.76C2455.26 1290.24 2456.42 1290.24 2456.58 1290.24C2457.1 1290.24 2457.66 1290.2 2458.62 1289.88V1287.2C2458.26 1287.28 2458.06 1287.36 2457.66 1287.36C2456.26 1287.36 2456.22 1286.28 2456.22 1285.16V1278.52C2456.22 1275.16 2456.06 1273.2 2453.38 1271.68C2451.82 1270.76 2449.82 1270.56 2448.66 1270.56C2441.98 1270.56 2441.42 1275.84 2441.42 1276.76L2444.74 1276.96V1276.68C2444.74 1274.32 2446.18 1273 2448.82 1273C2452.98 1273 2453.02 1276.32 2453.02 1278.08V1278.72ZM2453.06 1280.8V1282.28C2453.06 1287.12 2449.26 1287.84 2447.54 1287.84C2445.02 1287.84 2443.98 1286.44 2443.98 1285.04C2443.98 1283.2 2445.7 1282.4 2446.3 1282.16C2447.78 1281.52 2451.58 1281.04 2453.06 1280.8ZM2461.78 1271.16V1290H2464.98V1281.28C2464.98 1279.44 2465.02 1278.76 2465.26 1277.8C2465.9 1275.48 2467.9 1274.24 2470.18 1274.24C2470.58 1274.24 2471.02 1274.28 2471.42 1274.36V1270.92C2468.98 1270.92 2467.5 1271.84 2466.74 1272.44C2465.98 1273.04 2465.42 1273.76 2464.98 1274.6V1271.16H2461.78ZM2491.6 1271.16H2488.28V1273.72C2486.48 1271.64 2484.48 1270.56 2482.12 1270.56C2475.36 1270.56 2473.36 1276.28 2473.36 1280.68C2473.36 1287 2477.28 1290.6 2482.08 1290.6C2483.6 1290.6 2486.12 1290.2 2488.28 1287.24V1290.88C2488.28 1294.44 2487.04 1296.56 2483.04 1296.56C2480 1296.56 2477.84 1295.12 2477.84 1292.16H2474.24C2474.68 1297 2478.44 1299.16 2482.8 1299.16C2487.24 1299.16 2491.6 1297.32 2491.6 1290.36V1271.16ZM2488.4 1280.32C2488.4 1284.4 2486.72 1287.72 2482.6 1287.72C2478.48 1287.72 2476.64 1284.6 2476.64 1280.6C2476.64 1275.88 2479.24 1273.44 2482.48 1273.44C2485.92 1273.44 2488.4 1276 2488.4 1280.32ZM2499.18 1281.16H2513.5V1280.64C2513.5 1273.32 2508.98 1270.56 2504.86 1270.56C2500.94 1270.56 2495.74 1273.24 2495.74 1280.4C2495.74 1287.84 2500.34 1290.6 2504.98 1290.6C2511.3 1290.6 2513.06 1285.56 2513.5 1284.24L2510.26 1283.8C2509.86 1285.52 2508.62 1288.2 2505.3 1288.2C2500.78 1288.2 2499.18 1284.32 2499.18 1281.4V1281.16ZM2499.26 1278.84C2499.54 1275.84 2501.22 1273.04 2504.62 1273.04C2507.82 1273.04 2510.02 1275.72 2510.02 1278.84H2499.26ZM2538.66 1294.68C2534.1 1291.08 2531.22 1284.2 2531.22 1276.88C2531.22 1269.52 2533.54 1264.08 2538.58 1259.68L2537.26 1258.08C2530.62 1262.56 2527.5 1270 2527.5 1277.16C2527.5 1285.04 2531.14 1291.88 2537.38 1296.52L2538.66 1294.68ZM2540 1280.96C2540.12 1282.16 2540.48 1286.32 2544.24 1288.76C2547.2 1290.68 2551.04 1290.72 2551.96 1290.72C2556.76 1290.72 2559.32 1289.2 2560.88 1287.68C2563.08 1285.52 2563.24 1283 2563.24 1281.88C2563.24 1275.68 2557.36 1274.4 2556.04 1274.08L2550.88 1272.84C2547.68 1272.08 2545.24 1271.12 2545.24 1268.4C2545.24 1264.92 2549 1263.96 2551.68 1263.96C2558.08 1263.96 2558.96 1268.36 2558.96 1269.96L2562.76 1269.72C2562.28 1267.08 2561.64 1265.04 2559.16 1263.16C2556.88 1261.4 2554.16 1261.04 2551.36 1261.04C2550 1261.04 2546.76 1261.12 2544.04 1263.36C2542.36 1264.76 2541.36 1266.64 2541.36 1268.88C2541.36 1273.6 2544.92 1275.64 2551.28 1276.92L2553.84 1277.44C2556.88 1278.04 2559.2 1278.96 2559.2 1282.12C2559.2 1286.84 2554.52 1287.76 2552.16 1287.76C2544.32 1287.76 2544.08 1281.56 2544.04 1280.44L2540 1280.96ZM2571.04 1265.44V1261.76H2567.96V1265.44H2571.04ZM2571.04 1290V1271.16H2567.96V1290H2571.04ZM2593.4 1290V1261.76H2590.2V1273.64C2589.52 1272.56 2587.16 1270.56 2583.72 1270.56C2579.88 1270.56 2575.08 1273.2 2575.08 1280.52C2575.08 1286.36 2578.24 1290.6 2583.76 1290.6C2587.48 1290.6 2589.24 1288.72 2590.2 1287.6V1290H2593.4ZM2578.52 1280.64C2578.52 1277.08 2580.16 1273.48 2584.48 1273.48C2588.04 1273.48 2590.28 1276.44 2590.28 1280.32C2590.28 1286.08 2587.2 1287.76 2584.4 1287.76C2579.84 1287.76 2578.52 1283.96 2578.52 1280.64ZM2600.98 1281.16H2615.3V1280.64C2615.3 1273.32 2610.78 1270.56 2606.66 1270.56C2602.74 1270.56 2597.54 1273.24 2597.54 1280.4C2597.54 1287.84 2602.14 1290.6 2606.78 1290.6C2613.1 1290.6 2614.86 1285.56 2615.3 1284.24L2612.06 1283.8C2611.66 1285.52 2610.42 1288.2 2607.1 1288.2C2602.58 1288.2 2600.98 1284.32 2600.98 1281.4V1281.16ZM2601.06 1278.84C2601.34 1275.84 2603.02 1273.04 2606.42 1273.04C2609.62 1273.04 2611.82 1275.72 2611.82 1278.84H2601.06ZM2619.44 1261.76V1290H2622.64V1287.56C2623.52 1288.72 2625.44 1290.6 2629.08 1290.6C2634.92 1290.6 2637.8 1286.12 2637.8 1280.56C2637.8 1274.24 2634 1270.56 2629.12 1270.56C2626.6 1270.56 2624.12 1271.56 2622.64 1273.76V1261.76H2619.44ZM2622.56 1280.64C2622.56 1275.08 2626 1273.48 2628.56 1273.48C2631.68 1273.48 2634.4 1275.8 2634.4 1280.28C2634.4 1286.32 2631.04 1287.88 2628.56 1287.88C2624 1287.88 2622.56 1283.88 2622.56 1280.64ZM2653.14 1278.72L2650.26 1278.92C2647.86 1279.08 2644.54 1279.6 2642.62 1281.04C2640.82 1282.4 2640.58 1284.24 2640.58 1285.12C2640.58 1288.36 2643.22 1290.52 2646.98 1290.52C2650.62 1290.52 2652.54 1288.4 2653.42 1287.44C2653.46 1288 2653.94 1289.2 2654.7 1289.76C2655.38 1290.24 2656.54 1290.24 2656.7 1290.24C2657.22 1290.24 2657.78 1290.2 2658.74 1289.88V1287.2C2658.38 1287.28 2658.18 1287.36 2657.78 1287.36C2656.38 1287.36 2656.34 1286.28 2656.34 1285.16V1278.52C2656.34 1275.16 2656.18 1273.2 2653.5 1271.68C2651.94 1270.76 2649.94 1270.56 2648.78 1270.56C2642.1 1270.56 2641.54 1275.84 2641.54 1276.76L2644.86 1276.96V1276.68C2644.86 1274.32 2646.3 1273 2648.94 1273C2653.1 1273 2653.14 1276.32 2653.14 1278.08V1278.72ZM2653.18 1280.8V1282.28C2653.18 1287.12 2649.38 1287.84 2647.66 1287.84C2645.14 1287.84 2644.1 1286.44 2644.1 1285.04C2644.1 1283.2 2645.82 1282.4 2646.42 1282.16C2647.9 1281.52 2651.7 1281.04 2653.18 1280.8ZM2661.9 1271.16V1290H2665.1V1281.28C2665.1 1279.44 2665.14 1278.76 2665.38 1277.8C2666.02 1275.48 2668.02 1274.24 2670.3 1274.24C2670.7 1274.24 2671.14 1274.28 2671.54 1274.36V1270.92C2669.1 1270.92 2667.62 1271.84 2666.86 1272.44C2666.1 1273.04 2665.54 1273.76 2665.1 1274.6V1271.16H2661.9ZM2708.3 1279.28C2707.38 1285 2703.34 1287.56 2698.94 1287.56C2693.26 1287.56 2688.82 1283.76 2688.82 1275.68C2688.82 1268.8 2692.46 1264.04 2698.9 1264.04C2704.18 1264.04 2707.02 1267.28 2708.02 1270.44L2711.82 1269.68C2709.94 1264.28 2705.66 1261.04 2698.94 1261.04C2689.98 1261.04 2684.66 1267.08 2684.66 1275.88C2684.66 1284.72 2689.98 1290.72 2698.46 1290.72C2707.38 1290.72 2711.42 1284.32 2712.38 1279.76L2708.3 1279.28ZM2714.84 1280.6C2714.84 1287.08 2718.8 1290.6 2724.08 1290.6C2729.12 1290.6 2733.32 1287.16 2733.32 1280.4C2733.32 1273.64 2728.76 1270.56 2724.36 1270.56C2716.2 1270.56 2714.84 1277.56 2714.84 1280.6ZM2718.32 1280.76C2718.32 1279.56 2718.36 1273.12 2724.32 1273.12C2728.6 1273.12 2729.88 1276.92 2729.88 1280.16C2729.88 1285.04 2727.88 1288.04 2724.04 1288.04C2719 1288.04 2718.32 1283 2718.32 1280.76ZM2740.64 1290V1261.76H2737.6V1290H2740.64ZM2748.96 1290V1261.76H2745.92V1290H2748.96ZM2765.4 1278.72L2762.52 1278.92C2760.12 1279.08 2756.8 1279.6 2754.88 1281.04C2753.08 1282.4 2752.84 1284.24 2752.84 1285.12C2752.84 1288.36 2755.48 1290.52 2759.24 1290.52C2762.88 1290.52 2764.8 1288.4 2765.68 1287.44C2765.72 1288 2766.2 1289.2 2766.96 1289.76C2767.64 1290.24 2768.8 1290.24 2768.96 1290.24C2769.48 1290.24 2770.04 1290.2 2771 1289.88V1287.2C2770.64 1287.28 2770.44 1287.36 2770.04 1287.36C2768.64 1287.36 2768.6 1286.28 2768.6 1285.16V1278.52C2768.6 1275.16 2768.44 1273.2 2765.76 1271.68C2764.2 1270.76 2762.2 1270.56 2761.04 1270.56C2754.36 1270.56 2753.8 1275.84 2753.8 1276.76L2757.12 1276.96V1276.68C2757.12 1274.32 2758.56 1273 2761.2 1273C2765.36 1273 2765.4 1276.32 2765.4 1278.08V1278.72ZM2765.44 1280.8V1282.28C2765.44 1287.12 2761.64 1287.84 2759.92 1287.84C2757.4 1287.84 2756.36 1286.44 2756.36 1285.04C2756.36 1283.2 2758.08 1282.4 2758.68 1282.16C2760.16 1281.52 2763.96 1281.04 2765.44 1280.8ZM2774.16 1271.16V1298.96H2777.28V1287.8C2778.68 1289.72 2781.24 1290.6 2783.64 1290.6C2790.4 1290.6 2792.48 1284.96 2792.48 1280.64C2792.48 1273.6 2787.88 1270.56 2784 1270.56C2780.72 1270.56 2778.32 1272.52 2777.28 1273.84V1271.16H2774.16ZM2777.28 1280.92C2777.28 1276.24 2779.76 1273.56 2783.4 1273.56C2786.08 1273.56 2789.2 1275.44 2789.2 1280.52C2789.2 1284.92 2787.16 1287.8 2783.2 1287.8C2779.52 1287.8 2777.28 1285.2 2777.28 1280.92ZM2795.26 1283.92C2795.82 1287.6 2797.94 1290.6 2804.02 1290.6C2808.5 1290.6 2811.9 1288.24 2811.9 1284.64C2811.9 1281.2 2809.14 1280 2805.62 1279.16L2803.78 1278.72C2800.9 1278.04 2799.22 1277.4 2799.22 1275.76C2799.22 1274.56 2800.34 1273 2802.94 1273C2805.66 1273 2807.22 1274.36 2807.7 1275.4C2807.9 1275.84 2807.94 1276.24 2807.98 1277.16L2811.42 1276.76C2811.34 1276.2 2811.18 1275.04 2810.42 1273.88C2809.5 1272.52 2807.34 1270.56 2803.38 1270.56C2799.98 1270.56 2796.06 1272.04 2796.06 1276.16C2796.06 1278.8 2797.62 1280.64 2802.78 1281.64L2804.62 1282C2806.34 1282.32 2808.54 1282.72 2808.54 1285C2808.54 1287.68 2805.74 1288.16 2804.18 1288.16C2802.62 1288.16 2801.06 1287.96 2799.94 1286.72C2799.02 1285.72 2798.9 1284.64 2798.9 1283.4L2795.26 1283.92ZM2818.16 1281.16H2832.48V1280.64C2832.48 1273.32 2827.96 1270.56 2823.84 1270.56C2819.92 1270.56 2814.72 1273.24 2814.72 1280.4C2814.72 1287.84 2819.32 1290.6 2823.96 1290.6C2830.28 1290.6 2832.04 1285.56 2832.48 1284.24L2829.24 1283.8C2828.84 1285.52 2827.6 1288.2 2824.28 1288.2C2819.76 1288.2 2818.16 1284.32 2818.16 1281.4V1281.16ZM2818.24 1278.84C2818.52 1275.84 2820.2 1273.04 2823.6 1273.04C2826.8 1273.04 2829 1275.72 2829 1278.84H2818.24ZM2853.9 1290V1261.76H2850.7V1273.64C2850.02 1272.56 2847.66 1270.56 2844.22 1270.56C2840.38 1270.56 2835.58 1273.2 2835.58 1280.52C2835.58 1286.36 2838.74 1290.6 2844.26 1290.6C2847.98 1290.6 2849.74 1288.72 2850.7 1287.6V1290H2853.9ZM2839.02 1280.64C2839.02 1277.08 2840.66 1273.48 2844.98 1273.48C2848.54 1273.48 2850.78 1276.44 2850.78 1280.32C2850.78 1286.08 2847.7 1287.76 2844.9 1287.76C2840.34 1287.76 2839.02 1283.96 2839.02 1280.64ZM2856.64 1259.8C2861.24 1263.4 2864.08 1270.24 2864.08 1277.56C2864.08 1284.92 2861.68 1290.44 2856.68 1294.84L2858 1296.4C2864.28 1292.24 2867.8 1284.84 2867.8 1277.32C2867.8 1269.6 2864.32 1262.64 2857.96 1257.96L2856.64 1259.8ZM2894.4 1290V1263.04H2891.72C2891.68 1263.36 2891.48 1264.52 2890.88 1265.44C2889.96 1266.92 2888.32 1267.8 2884.84 1267.8V1270.28H2890.64V1290H2894.4ZM2924.72 1283.52V1280.48H2920.8V1263.04H2918L2905.12 1280.28V1283.52H2917.32V1290H2920.8V1283.52H2924.72ZM2908.76 1280.48L2917.48 1268.4C2917.48 1268.4 2917.32 1279.92 2917.32 1280.48H2908.76ZM2948.9 1283.52V1280.48H2944.98V1263.04H2942.18L2929.3 1280.28V1283.52H2941.5V1290H2944.98V1283.52H2948.9ZM2932.94 1280.48L2941.66 1268.4C2941.66 1268.4 2941.5 1279.92 2941.5 1280.48H2932.94ZM2953.76 1276.64C2953.76 1287.16 2959.32 1290.24 2963.44 1290.24C2969.8 1290.24 2973.2 1284.44 2973.2 1276.4C2973.2 1267.84 2968.88 1262.8 2963.4 1262.8C2957.32 1262.8 2953.76 1268.68 2953.76 1276.64ZM2957.32 1276.8C2957.32 1271.72 2958.4 1265.96 2963.52 1265.96C2969.24 1265.96 2969.6 1274.12 2969.6 1276.48C2969.6 1280.24 2968.72 1287.12 2963.52 1287.12C2959.4 1287.12 2957.32 1282.8 2957.32 1276.8ZM3000.36 1279.52V1276.4H2991.36V1267.28H2987.84V1276.4H2978.88V1279.52H2987.84V1288.68H2991.36V1279.52H3000.36ZM3006.66 1271.16V1298.96H3009.78V1287.8C3011.18 1289.72 3013.74 1290.6 3016.14 1290.6C3022.9 1290.6 3024.98 1284.96 3024.98 1280.64C3024.98 1273.6 3020.38 1270.56 3016.5 1270.56C3013.22 1270.56 3010.82 1272.52 3009.78 1273.84V1271.16H3006.66ZM3009.78 1280.92C3009.78 1276.24 3012.26 1273.56 3015.9 1273.56C3018.58 1273.56 3021.7 1275.44 3021.7 1280.52C3021.7 1284.92 3019.66 1287.8 3015.7 1287.8C3012.02 1287.8 3009.78 1285.2 3009.78 1280.92ZM3042 1290L3036.32 1280.44L3042 1271.16H3038.4L3034.6 1277.64L3030.84 1271.16H3027.16L3032.72 1280.44L3026.88 1290H3030.48L3034.4 1283.28L3038.4 1290H3042Z" fill="black"/>
</svg>
