<svg width="16" height="17" viewBox="0 0 16 17" fill="none" xmlns="http://www.w3.org/2000/svg">
<path d="M5.8 4.8V1H4.9C4.6 1 4.4 1.1 4.2 1.3L1.3 4.2C1.1 4.4 1 4.6 1 4.9V5.8H4.8C5.4 5.8 5.8 5.4 5.8 4.8Z" fill="#001E2B"/>
<path d="M7.3 11.9L8.4 9.1C8.8 8.1 9.8 7.4 10.9 7.5H11V3C11 1.9 10.1 1 9 1H7V5.5C7 6.3 6.3 7 5.5 7H1V13C1 14.1 1.9 15 3 15H5.6C5.5 14.8 5.5 14.6 5.5 14.3C5.5 13.2 6.3 12.2 7.3 11.9Z" fill="#001E2B"/>
<path d="M13.6 11.4H15C15.6 11.4 16 11.9 16 12.5C16 13.1 15.6 13.5 15 13.5H14.1L12.6 15.6C12.4 15.9 12 16.1 11.6 16C11.2 15.9 10.9 15.6 10.8 15.2L10.4 13.5L10 14.7C9.9 15 9.5 15.3 9.1 15.3H8C7.4 15.3 7 14.9 7 14.3C7 13.7 7.4 13.3 8 13.3H8.4L9.8 9.6C9.9 9.2 10.4 9 10.8 9C11.2 9 11.6 9.4 11.7 9.7L12.3 12.5L12.8 11.8C13 11.6 13.3 11.4 13.6 11.4Z" fill="#001E2B"/>
</svg>
