<svg width="28" height="28" viewBox="0 0 28 28" fill="none" xmlns="http://www.w3.org/2000/svg">
<path d="M8.75 12C9.7165 12 10.5 12.7835 10.5 13.75C10.5 14.7165 9.7165 15.5 8.75 15.5C7.7835 15.5 7 14.7165 7 13.75C7 12.7835 7.7835 12 8.75 12Z" fill="#889397"/>
<path d="M13.75 12C14.7165 12 15.5 12.7835 15.5 13.75C15.5 14.7165 14.7165 15.5 13.75 15.5C12.7835 15.5 12 14.7165 12 13.75C12 12.7835 12.7835 12 13.75 12Z" fill="#889397"/>
<path d="M20.5 13.75C20.5 12.7835 19.7165 12 18.75 12C17.7835 12 17 12.7835 17 13.75C17 14.7165 17.7835 15.5 18.75 15.5C19.7165 15.5 20.5 14.7165 20.5 13.75Z" fill="#889397"/>
</svg>
