<svg width="127" height="32" viewBox="0 0 127 32" fill="none" xmlns="http://www.w3.org/2000/svg">
<path d="M9.49109 3.29488C8.23754 1.82282 7.168 0.327763 6.94949 0.0172507C6.92649 -0.00575022 6.89199 -0.00575022 6.86899 0.0172507C6.65048 0.327763 5.58094 1.82282 4.33889 3.29488C-6.32203 16.8769 6.01795 26.0313 6.01795 26.0313L6.12146 26.1003C6.21346 27.5148 6.44347 29.5504 6.44347 29.5504H6.90349H7.36351C7.36351 29.5504 7.59351 27.5263 7.68552 26.1003L7.78902 26.0198C7.80052 26.0313 20.152 16.8769 9.49109 3.29488ZM6.91499 25.8358C6.91499 25.8358 6.36297 25.3642 6.21346 25.1227V25.0997L6.88049 10.3102C6.88049 10.2642 6.94949 10.2642 6.94949 10.3102L7.61652 25.0997V25.1227C7.46701 25.3642 6.91499 25.8358 6.91499 25.8358Z" fill="#00684A"/>
<path d="M29.9619 22.8114L24.8442 10.3219L24.8327 10.2874H20.842V11.1269H21.4861C21.6816 11.1269 21.8656 11.2074 22.0036 11.3454C22.1416 11.4834 22.2106 11.6674 22.2106 11.8629L22.0956 24.4329C22.0956 24.8239 21.7736 25.146 21.3826 25.1575L20.727 25.169V25.997H24.6142V25.169L24.2117 25.1575C23.8207 25.146 23.4986 24.8239 23.4986 24.4329V12.5875L29.0764 25.9855C29.1569 26.181 29.3409 26.3075 29.5479 26.3075C29.7549 26.3075 29.9389 26.181 30.0194 25.9855L35.4821 12.875L35.5626 24.4214C35.5626 24.8239 35.2406 25.146 34.8381 25.1575H34.4241V25.9855H38.9897V25.1575H38.3687C37.9777 25.1575 37.6557 24.8239 37.6442 24.4329L37.6097 11.8629C37.6097 11.4604 37.9317 11.1384 38.3227 11.1269L38.9897 11.1154V10.2759H35.1026L29.9619 22.8114Z" fill="#00684A"/>
<path d="M65.7973 24.9621C65.6708 24.8356 65.6018 24.6631 65.6018 24.4561V18.2918C65.6018 17.1188 65.2568 16.1988 64.5667 15.5432C63.8882 14.8877 62.9452 14.5542 61.7721 14.5542C60.1276 14.5542 58.828 15.2212 57.9195 16.5323C57.908 16.5553 57.8735 16.5668 57.839 16.5668C57.8045 16.5668 57.7815 16.5438 57.7815 16.5093L57.3559 14.8647H56.6429L54.8143 15.9113V16.4863H55.2859C55.5044 16.4863 55.6884 16.5438 55.8149 16.6588C55.9414 16.7738 56.0104 16.9463 56.0104 17.1878V24.4446C56.0104 24.6516 55.9414 24.8241 55.8149 24.9506C55.6884 25.0771 55.5159 25.1461 55.3089 25.1461H54.8488V25.9856H59.058V25.1461H58.598C58.391 25.1461 58.2185 25.0771 58.092 24.9506C57.9655 24.8241 57.8965 24.6516 57.8965 24.4446V19.6604C57.8965 19.0509 58.0345 18.4414 58.2875 17.8433C58.552 17.2568 58.943 16.7623 59.4605 16.3828C59.978 16.0033 60.5991 15.8192 61.3121 15.8192C62.1171 15.8192 62.7267 16.0723 63.1062 16.5783C63.4857 17.0843 63.6812 17.7398 63.6812 18.5219V24.4561C63.6812 24.6631 63.6122 24.8356 63.4857 24.9621C63.3592 25.0886 63.1867 25.1576 62.9797 25.1576H62.5196V25.9971H66.7288V25.1576H66.2688C66.0963 25.1576 65.9238 25.1001 65.7973 24.9621Z" fill="#00684A"/>
<path d="M104.404 11.2306C103.231 10.6096 101.92 10.2876 100.506 10.2876H94.9854V11.1271H95.5259C95.7329 11.1271 95.9169 11.2076 96.101 11.3916C96.2735 11.5641 96.3655 11.7597 96.3655 11.9667V24.3411C96.3655 24.5482 96.2735 24.7437 96.101 24.9162C95.9284 25.0887 95.7329 25.1807 95.5259 25.1807H94.9854V26.0202H100.506C101.92 26.0202 103.231 25.6982 104.404 25.0772C105.577 24.4562 106.532 23.5361 107.222 22.3631C107.912 21.19 108.268 19.7755 108.268 18.1654C108.268 16.5553 107.912 15.1523 107.222 13.9677C106.532 12.7717 105.589 11.8517 104.404 11.2306ZM106.06 18.1424C106.06 19.6145 105.796 20.8565 105.278 21.857C104.761 22.8576 104.071 23.6051 103.22 24.0881C102.369 24.5712 101.426 24.8127 100.414 24.8127H99.2981C99.0911 24.8127 98.9071 24.7322 98.7231 24.5482C98.5506 24.3756 98.4585 24.1801 98.4585 23.9731V12.3117C98.4585 12.1047 98.5391 11.9207 98.7231 11.7367C98.8956 11.5641 99.0911 11.4721 99.2981 11.4721H100.414C101.426 11.4721 102.369 11.7137 103.22 12.1967C104.071 12.6797 104.761 13.4272 105.278 14.4278C105.796 15.4283 106.06 16.6703 106.06 18.1424Z" fill="#00684A"/>
<path d="M121.275 18.9702C120.769 18.3837 119.792 17.8892 118.642 17.6247C120.229 16.8311 121.045 15.7156 121.045 14.278C121.045 13.496 120.838 12.7945 120.424 12.1965C120.01 11.5984 119.424 11.1154 118.676 10.7819C117.929 10.4484 117.055 10.2759 116.066 10.2759H109.867V11.1154H110.362C110.569 11.1154 110.753 11.1959 110.937 11.3799C111.109 11.5524 111.201 11.7479 111.201 11.9549V24.3294C111.201 24.5364 111.109 24.7319 110.937 24.9045C110.764 25.077 110.569 25.169 110.362 25.169H109.821V26.0085H116.549C117.572 26.0085 118.527 25.836 119.389 25.491C120.252 25.146 120.942 24.6399 121.436 23.9729C121.942 23.3059 122.195 22.4894 122.195 21.5463C122.195 20.5343 121.885 19.6832 121.275 18.9702ZM113.57 24.5479C113.398 24.3754 113.306 24.1799 113.306 23.9729V18.4182H116.503C117.63 18.4182 118.492 18.7057 119.09 19.2807C119.688 19.8558 119.987 20.6033 119.987 21.5233C119.987 22.0753 119.849 22.6159 119.596 23.1104C119.332 23.6164 118.941 24.0189 118.412 24.3294C117.894 24.6399 117.25 24.8009 116.503 24.8009H114.145C113.927 24.8124 113.743 24.7319 113.57 24.5479ZM113.306 17.2336V12.3C113.306 12.0929 113.386 11.9089 113.57 11.7249C113.743 11.5524 113.938 11.4604 114.145 11.4604H115.663C116.756 11.4604 117.561 11.7364 118.067 12.2655C118.573 12.806 118.826 13.496 118.826 14.347C118.826 15.2211 118.584 15.9226 118.113 16.4516C117.641 16.9691 116.928 17.2336 115.985 17.2336H113.306V17.2336Z" fill="#00684A"/>
<path d="M49.7542 15.3015C48.8686 14.8184 47.8796 14.5654 46.81 14.5654C45.7405 14.5654 44.74 14.8069 43.8659 15.3015C42.9804 15.7845 42.2789 16.486 41.7613 17.3715C41.2438 18.2571 40.9793 19.2921 40.9793 20.4422C40.9793 21.5922 41.2438 22.6272 41.7613 23.5128C42.2789 24.3983 42.9804 25.0998 43.8659 25.5829C44.7515 26.0659 45.7405 26.3189 46.81 26.3189C47.8796 26.3189 48.8801 26.0774 49.7542 25.5829C50.6397 25.0998 51.3412 24.3983 51.8587 23.5128C52.3763 22.6272 52.6408 21.5922 52.6408 20.4422C52.6408 19.2921 52.3763 18.2571 51.8587 17.3715C51.3412 16.4745 50.6282 15.7845 49.7542 15.3015ZM50.6052 20.4422C50.6052 21.8567 50.2602 23.0068 49.5701 23.8348C48.8916 24.6628 47.9601 25.0883 46.81 25.0883C45.66 25.0883 44.7285 24.6628 44.0499 23.8348C43.3599 23.0068 43.0149 21.8567 43.0149 20.4422C43.0149 19.0276 43.3599 17.8776 44.0499 17.0495C44.7285 16.2215 45.66 15.796 46.81 15.796C47.9601 15.796 48.8916 16.2215 49.5701 17.0495C50.2602 17.8776 50.6052 19.0161 50.6052 20.4422Z" fill="#00684A"/>
<path d="M90.3392 15.3015C89.4537 14.8184 88.4647 14.5654 87.3951 14.5654C86.3256 14.5654 85.325 14.8069 84.451 15.3015C83.5655 15.7845 82.8639 16.486 82.3464 17.3715C81.8289 18.2571 81.5644 19.2921 81.5644 20.4422C81.5644 21.5922 81.8289 22.6272 82.3464 23.5128C82.8639 24.3983 83.5655 25.0998 84.451 25.5829C85.3365 26.0659 86.3256 26.3189 87.3951 26.3189C88.4647 26.3189 89.4652 26.0774 90.3392 25.5829C91.2248 25.0998 91.9263 24.3983 92.4438 23.5128C92.9613 22.6272 93.2258 21.5922 93.2258 20.4422C93.2258 19.2921 92.9613 18.2571 92.4438 17.3715C91.9263 16.4745 91.2248 15.7845 90.3392 15.3015ZM91.1903 20.4422C91.1903 21.8567 90.8453 23.0068 90.1552 23.8348C89.4767 24.6628 88.5452 25.0883 87.3951 25.0883C86.2451 25.0883 85.3135 24.6628 84.635 23.8348C83.945 23.0068 83.6 21.8567 83.6 20.4422C83.6 19.0161 83.945 17.8776 84.635 17.0495C85.3135 16.2215 86.2451 15.796 87.3951 15.796C88.5452 15.796 89.4767 16.2215 90.1552 17.0495C90.8453 17.8776 91.1903 19.0161 91.1903 20.4422Z" fill="#00684A"/>
<path d="M73.9626 14.5654C73.0426 14.5654 72.203 14.7609 71.444 15.152C70.685 15.543 70.0869 16.072 69.6614 16.7505C69.2359 17.4175 69.0174 18.1651 69.0174 18.9586C69.0174 19.6716 69.1784 20.3272 69.5119 20.9137C69.8339 21.4772 70.271 21.9487 70.823 22.3397L69.1784 24.5708C68.9714 24.8468 68.9484 25.2148 69.0979 25.5139C69.2589 25.8244 69.5579 26.0084 69.9029 26.0084H70.3745C69.9144 26.3189 69.5464 26.6869 69.2934 27.1239C68.9944 27.6184 68.8449 28.136 68.8449 28.665C68.8449 29.654 69.2819 30.4706 70.1445 31.0801C70.9955 31.6896 72.1915 32.0001 73.6981 32.0001C74.7446 32.0001 75.7452 31.8276 76.6537 31.4941C77.5737 31.1606 78.3213 30.6661 78.8733 30.022C79.4368 29.378 79.7243 28.596 79.7243 27.6989C79.7243 26.7559 79.3793 26.0889 78.5743 25.4449C77.8843 24.9043 76.8032 24.6168 75.4577 24.6168H70.8575C70.846 24.6168 70.8345 24.6053 70.8345 24.6053C70.8345 24.6053 70.823 24.5823 70.8345 24.5708L72.0305 22.9608C72.3525 23.1103 72.6515 23.2023 72.9161 23.2598C73.1921 23.3173 73.5026 23.3403 73.8476 23.3403C74.8136 23.3403 75.6877 23.1448 76.4467 22.7537C77.2057 22.3627 77.8153 21.8337 78.2523 21.1552C78.6893 20.4882 78.9078 19.7406 78.9078 18.9471C78.9078 18.0961 78.4938 16.5435 77.3667 15.75C77.3667 15.7385 77.3782 15.7385 77.3782 15.7385L79.8508 16.0145V14.8759H75.8947C75.2737 14.6689 74.6181 14.5654 73.9626 14.5654ZM75.3426 21.7647C74.9056 21.9947 74.4341 22.1212 73.9626 22.1212C73.1921 22.1212 72.5135 21.8452 71.9385 21.3047C71.3635 20.7642 71.076 19.9706 71.076 18.9586C71.076 17.9466 71.3635 17.153 71.9385 16.6125C72.5135 16.072 73.1921 15.796 73.9626 15.796C74.4456 15.796 74.9056 15.911 75.3426 16.1525C75.7797 16.3825 76.1362 16.739 76.4237 17.2105C76.6997 17.6821 76.8492 18.2686 76.8492 18.9586C76.8492 19.6601 76.7112 20.2467 76.4237 20.7067C76.1362 21.1782 75.7797 21.5232 75.3426 21.7647ZM72.2145 25.9969H75.3312C76.1937 25.9969 76.7457 26.1694 77.1137 26.5374C77.4817 26.9054 77.6657 27.3999 77.6657 27.975C77.6657 28.8145 77.3322 29.5045 76.6652 30.022C75.9982 30.5396 75.1011 30.8041 73.9971 30.8041C73.0311 30.8041 72.226 30.5856 71.6395 30.1715C71.053 29.7575 70.754 29.125 70.754 28.32C70.754 27.8139 70.892 27.3424 71.168 26.9284C71.4555 26.5144 71.789 26.2154 72.2145 25.9969Z" fill="#00684A"/>
<path d="M124.542 25.8589C124.312 25.7324 124.139 25.5484 124.001 25.3299C123.875 25.0999 123.806 24.8584 123.806 24.5939C123.806 24.3293 123.875 24.0763 124.001 23.8578C124.128 23.6278 124.312 23.4553 124.542 23.3288C124.772 23.2023 125.025 23.1333 125.312 23.1333C125.6 23.1333 125.853 23.2023 126.083 23.3288C126.313 23.4553 126.485 23.6393 126.623 23.8578C126.75 24.0878 126.819 24.3293 126.819 24.5939C126.819 24.8584 126.75 25.1114 126.623 25.3299C126.497 25.5599 126.313 25.7324 126.083 25.8589C125.853 25.9854 125.6 26.0544 125.312 26.0544C125.025 26.0544 124.772 25.9854 124.542 25.8589ZM125.956 25.6864C126.152 25.5829 126.29 25.4219 126.405 25.2379C126.508 25.0424 126.566 24.8239 126.566 24.5824C126.566 24.3408 126.508 24.1223 126.405 23.9268C126.301 23.7313 126.152 23.5818 125.956 23.4783C125.761 23.3748 125.554 23.3173 125.312 23.3173C125.071 23.3173 124.864 23.3748 124.668 23.4783C124.473 23.5818 124.335 23.7428 124.22 23.9268C124.116 24.1223 124.059 24.3408 124.059 24.5824C124.059 24.8239 124.116 25.0424 124.22 25.2379C124.323 25.4334 124.473 25.5829 124.668 25.6864C124.864 25.7899 125.071 25.8474 125.312 25.8474C125.554 25.8474 125.761 25.8014 125.956 25.6864ZM124.691 25.2839V25.1804L124.714 25.1689H124.783C124.806 25.1689 124.829 25.1574 124.841 25.1459C124.864 25.1229 124.864 25.1114 124.864 25.0884V24.0188C124.864 23.9958 124.852 23.9728 124.841 23.9613C124.818 23.9383 124.806 23.9383 124.783 23.9383H124.714L124.691 23.9268V23.8233L124.714 23.8118H125.312C125.485 23.8118 125.611 23.8463 125.715 23.9268C125.818 24.0073 125.864 24.1108 125.864 24.2488C125.864 24.3523 125.83 24.4559 125.749 24.5249C125.669 24.6054 125.577 24.6514 125.462 24.6629L125.6 24.7089L125.864 25.1344C125.887 25.1689 125.91 25.1804 125.945 25.1804H126.014L126.025 25.1919V25.2954L126.014 25.3069H125.657L125.634 25.2954L125.266 24.6744H125.174V25.0884C125.174 25.1114 125.186 25.1344 125.197 25.1459C125.22 25.1689 125.232 25.1689 125.255 25.1689H125.324L125.347 25.1804V25.2839L125.324 25.2954H124.714L124.691 25.2839ZM125.266 24.5364C125.358 24.5364 125.439 24.5134 125.485 24.4559C125.531 24.4099 125.565 24.3293 125.565 24.2373C125.565 24.1453 125.542 24.0763 125.496 24.0188C125.45 23.9613 125.381 23.9383 125.301 23.9383H125.255C125.232 23.9383 125.209 23.9498 125.197 23.9613C125.174 23.9843 125.174 23.9958 125.174 24.0188V24.5364H125.266Z" fill="#00684A"/>
</svg>
