<svg width="210" height="136" viewBox="0 0 210 136" fill="none" xmlns="http://www.w3.org/2000/svg">
<rect width="210" height="136" rx="12" fill="#001E2B"/>
<rect width="210" height="36" transform="translate(0 14)" fill="#001E2B"/>
<path d="M34.1429 32.1607C34.1429 34.1578 33.131 35.9186 31.592 36.9583L31.5765 36.9688C30.6561 37.5862 29.5487 37.9464 28.3571 37.9464L23.2143 37.9464C21.4391 37.9464 20 36.5073 20 34.7321C20 33.1668 21.1189 31.8628 22.6006 31.5764C22.8935 28.6554 25.359 26.375 28.3571 26.375C30.8813 26.375 33.0279 27.9914 33.8184 30.2456C34.0286 30.845 34.1429 31.4895 34.1429 32.1607Z" fill="#5C6C75"/>
<path d="M35.5491 32.1607C35.5491 34.4119 34.5148 36.4215 32.8955 37.7403C33.2867 37.8739 33.7063 37.9464 34.1429 37.9464C36.2731 37.9464 38 36.2195 38 34.0893C38 32.3759 36.8828 30.9234 35.3372 30.4206C35.4756 30.9778 35.5491 31.5607 35.5491 32.1607Z" fill="#5C6C75"/>
<path d="M55.131 37H60.877V35.544H56.652V27.77H55.131V37ZM61.4637 33.75C61.4637 35.609 62.8157 37.13 64.5967 37.13C65.5327 37.13 66.3127 36.649 66.6767 36.129V37H68.1067V30.5H66.6767V31.371C66.3127 30.851 65.5327 30.37 64.5967 30.37C62.8157 30.37 61.4637 31.891 61.4637 33.75ZM66.7937 33.75C66.7937 34.92 66.0137 35.83 64.8567 35.83C63.6997 35.83 62.9197 34.92 62.9197 33.75C62.9197 32.58 63.6997 31.67 64.8567 31.67C66.0137 31.67 66.7937 32.58 66.7937 33.75ZM71.474 36.129C71.838 36.649 72.631 37.13 73.567 37.13C75.348 37.13 76.7 35.609 76.7 33.75C76.7 31.891 75.348 30.37 73.567 30.37C72.631 30.37 71.838 30.851 71.474 31.371V27.25H70.044V37H71.474V36.129ZM75.244 33.75C75.244 34.92 74.451 35.83 73.307 35.83C72.15 35.83 71.357 34.92 71.357 33.75C71.357 32.58 72.15 31.67 73.307 31.67C74.451 31.67 75.244 32.58 75.244 33.75ZM84.2143 34.959H82.7193C82.4203 35.583 81.7963 35.869 81.0813 35.869C79.9243 35.869 79.1703 35.089 79.1183 34.101H84.2923C84.4223 31.891 83.0313 30.37 81.0423 30.37C79.0403 30.37 77.7013 31.826 77.7013 33.75C77.7013 35.7 79.0923 37.13 81.0293 37.13C82.6803 37.13 83.8503 36.181 84.2143 34.959ZM81.0033 31.566C81.7963 31.566 82.5373 32.034 82.7583 33.087H79.1703C79.3653 32.086 80.1063 31.566 81.0033 31.566ZM85.7608 37H87.1908V27.25H85.7608V37Z" fill="white"/>
<rect width="210" height="36" transform="translate(0 50)" fill="#001E2B"/>
<path d="M0 57V57C2.20914 57 4 58.7909 4 61V75C4 77.2091 2.20914 79 0 79V79V57Z" fill="#00ED64"/>
<path d="M34.1429 68.1607C34.1429 70.1578 33.131 71.9186 31.592 72.9583L31.5765 72.9688C30.6561 73.5862 29.5487 73.9464 28.3571 73.9464L23.2143 73.9464C21.4391 73.9464 20 72.5073 20 70.7321C20 69.1668 21.1189 67.8628 22.6006 67.5764C22.8935 64.6554 25.359 62.375 28.3571 62.375C30.8813 62.375 33.0279 63.9914 33.8184 66.2456C34.0286 66.845 34.1429 67.4895 34.1429 68.1607Z" fill="#00ED64"/>
<path d="M35.5491 68.1607C35.5491 70.4119 34.5148 72.4215 32.8955 73.7403C33.2867 73.8739 33.7063 73.9464 34.1429 73.9464C36.2731 73.9464 38 72.2195 38 70.0893C38 68.3759 36.8828 66.9234 35.3372 66.4206C35.4756 66.9778 35.5491 67.5607 35.5491 68.1607Z" fill="#00ED64"/>
<path d="M55.027 73H60.864V71.206H56.912V63.77H55.027V73ZM61.4752 69.75C61.4752 71.596 62.8012 73.143 64.5302 73.143C65.4272 73.143 66.1162 72.688 66.4022 72.272V73H68.1832V66.5H66.4022V67.228C66.1162 66.812 65.4272 66.357 64.5302 66.357C62.8012 66.357 61.4752 67.904 61.4752 69.75ZM66.5452 69.75C66.5452 70.764 65.8822 71.518 64.9072 71.518C63.9322 71.518 63.2692 70.764 63.2692 69.75C63.2692 68.736 63.9322 67.982 64.9072 67.982C65.8822 67.982 66.5452 68.736 66.5452 69.75ZM71.6956 72.272C71.9946 72.688 72.6836 73.143 73.5806 73.143C75.3096 73.143 76.6356 71.596 76.6356 69.75C76.6356 67.904 75.3096 66.357 73.5806 66.357C72.6836 66.357 71.9946 66.812 71.6956 67.228V63.25H69.9146V73H71.6956V72.272ZM74.8286 69.75C74.8286 70.764 74.1656 71.518 73.1906 71.518C72.2156 71.518 71.5526 70.764 71.5526 69.75C71.5526 68.736 72.2156 67.982 73.1906 67.982C74.1656 67.982 74.8286 68.736 74.8286 69.75ZM84.2561 70.881H82.3971C82.1891 71.323 81.6431 71.596 81.0191 71.596C79.9141 71.596 79.3421 70.933 79.2641 70.166H84.3341C84.4251 67.722 82.8521 66.357 80.9411 66.357C78.9651 66.357 77.5221 67.8 77.5221 69.737C77.5221 71.713 78.9391 73.143 80.9281 73.143C82.5791 73.143 83.8661 72.194 84.2561 70.881ZM80.8891 67.8C81.5001 67.8 82.1631 68.125 82.3841 68.996H79.3291C79.4981 68.281 80.0701 67.8 80.8891 67.8ZM85.6314 73H87.4124V63.25H85.6314V73Z" fill="#00ED64"/>
<rect width="210" height="36" transform="translate(0 86)" fill="#001E2B"/>
<path d="M34.1429 104.161C34.1429 106.158 33.131 107.919 31.592 108.958L31.5765 108.969C30.6561 109.586 29.5487 109.946 28.3571 109.946L23.2143 109.946C21.4391 109.946 20 108.507 20 106.732C20 105.167 21.1189 103.863 22.6006 103.576C22.8935 100.655 25.359 98.375 28.3571 98.375C30.8813 98.375 33.0279 99.9914 33.8184 102.246C34.0286 102.845 34.1429 103.49 34.1429 104.161Z" fill="#5C6C75"/>
<path d="M35.5491 104.161C35.5491 106.412 34.5148 108.422 32.8955 109.74C33.2867 109.874 33.7063 109.946 34.1429 109.946C36.2731 109.946 38 108.22 38 106.089C38 104.376 36.8828 102.923 35.3372 102.421C35.4756 102.978 35.5491 103.561 35.5491 104.161Z" fill="#5C6C75"/>
<path d="M55.131 109H60.877V107.544H56.652V99.77H55.131V109ZM61.4637 105.75C61.4637 107.609 62.8157 109.13 64.5967 109.13C65.5327 109.13 66.3127 108.649 66.6767 108.129V109H68.1067V102.5H66.6767V103.371C66.3127 102.851 65.5327 102.37 64.5967 102.37C62.8157 102.37 61.4637 103.891 61.4637 105.75ZM66.7937 105.75C66.7937 106.92 66.0137 107.83 64.8567 107.83C63.6997 107.83 62.9197 106.92 62.9197 105.75C62.9197 104.58 63.6997 103.67 64.8567 103.67C66.0137 103.67 66.7937 104.58 66.7937 105.75ZM71.474 108.129C71.838 108.649 72.631 109.13 73.567 109.13C75.348 109.13 76.7 107.609 76.7 105.75C76.7 103.891 75.348 102.37 73.567 102.37C72.631 102.37 71.838 102.851 71.474 103.371V99.25H70.044V109H71.474V108.129ZM75.244 105.75C75.244 106.92 74.451 107.83 73.307 107.83C72.15 107.83 71.357 106.92 71.357 105.75C71.357 104.58 72.15 103.67 73.307 103.67C74.451 103.67 75.244 104.58 75.244 105.75ZM84.2143 106.959H82.7193C82.4203 107.583 81.7963 107.869 81.0813 107.869C79.9243 107.869 79.1703 107.089 79.1183 106.101H84.2923C84.4223 103.891 83.0313 102.37 81.0423 102.37C79.0403 102.37 77.7013 103.826 77.7013 105.75C77.7013 107.7 79.0923 109.13 81.0293 109.13C82.6803 109.13 83.8503 108.181 84.2143 106.959ZM81.0033 103.566C81.7963 103.566 82.5373 104.034 82.7583 105.087H79.1703C79.3653 104.086 80.1063 103.566 81.0033 103.566ZM85.7608 109H87.1908V99.25H85.7608V109Z" fill="white"/>
</svg>
