<svg width="624" height="156" viewBox="0 0 624 156" fill="none" xmlns="http://www.w3.org/2000/svg">
<g filter="url(#filter0_d_2_35416)">
<path d="M12 28C12 14.7452 22.7452 4 36 4H588C601.255 4 612 14.7452 612 28V112C612 125.255 601.255 136 588 136H36C22.7452 136 12 125.255 12 112V28Z" fill="white"/>
<path d="M583.889 31.4037C583.499 31.0132 582.865 31.0132 582.475 31.4037L580 33.8786L577.525 31.4037C577.135 31.0132 576.501 31.0132 576.111 31.4037L575.404 32.1108C575.013 32.5014 575.013 33.1345 575.404 33.525L577.879 35.9999L575.404 38.4748C575.013 38.8653 575.013 39.4985 575.404 39.889L576.111 40.5961C576.501 40.9866 577.135 40.9866 577.525 40.5961L580 38.1212L582.475 40.5961C582.865 40.9866 583.499 40.9866 583.889 40.5961L584.596 39.889C584.987 39.4985 584.987 38.8653 584.596 38.4748L582.121 35.9999L584.596 33.525C584.987 33.1345 584.987 32.5014 584.596 32.1108L583.889 31.4037Z" fill="#5C6C75"/>
<path d="M50.088 69H56.712C59.952 69 62.208 66.84 62.208 64.008C62.208 61.896 61.032 60.6 59.472 59.952C60.408 59.256 61.056 58.176 61.056 56.664C61.056 54.12 59.016 51.96 55.968 51.96H50.088V69ZM52.896 59.136V54.528H55.824C57.36 54.528 58.296 55.584 58.296 56.832C58.296 58.128 57.36 59.136 55.824 59.136H52.896ZM52.896 66.432V61.536H56.64C58.464 61.536 59.472 62.592 59.472 63.984C59.472 65.4 58.44 66.432 56.64 66.432H52.896ZM64.0526 63C64.0526 66.432 66.5486 69.24 69.8366 69.24C71.5646 69.24 73.0046 68.352 73.6766 67.392V69H76.3166V57H73.6766V58.608C73.0046 57.648 71.5646 56.76 69.8366 56.76C66.5486 56.76 64.0526 59.568 64.0526 63ZM73.8926 63C73.8926 65.16 72.4526 66.84 70.3166 66.84C68.1806 66.84 66.7406 65.16 66.7406 63C66.7406 60.84 68.1806 59.16 70.3166 59.16C72.4526 59.16 73.8926 60.84 73.8926 63ZM88.8212 65.688C88.8212 63.864 87.7892 62.616 85.6292 62.064L83.6132 61.536C82.6052 61.272 82.0052 60.864 82.0052 60.096C82.0052 59.328 82.7492 58.872 83.7572 58.872C84.6932 58.872 85.4852 59.352 85.7252 60.36H88.3652C88.1732 58.2 86.3732 56.76 83.7812 56.76C81.0932 56.76 79.3172 58.104 79.3172 60.12C79.3172 61.872 80.3252 63.216 82.3892 63.744L84.3572 64.272C85.6052 64.584 86.1332 65.04 86.1332 65.856C86.1332 66.672 85.3412 67.128 84.1892 67.128C83.0132 67.128 81.9332 66.648 81.7172 65.352H78.9812C79.1252 67.752 81.3092 69.24 84.1172 69.24C86.8052 69.24 88.8212 68.016 88.8212 65.688ZM102.679 65.232H99.9188C99.3668 66.384 98.2148 66.912 96.8948 66.912C94.7588 66.912 93.3668 65.472 93.2708 63.648H102.823C103.063 59.568 100.495 56.76 96.8228 56.76C93.1268 56.76 90.6548 59.448 90.6548 63C90.6548 66.6 93.2228 69.24 96.7988 69.24C99.8468 69.24 102.007 67.488 102.679 65.232ZM96.7508 58.968C98.2148 58.968 99.5828 59.832 99.9908 61.776H93.3668C93.7268 59.928 95.0948 58.968 96.7508 58.968ZM111.182 69H113.822V63.096C113.822 60.576 114.998 59.16 116.702 59.16C118.142 59.16 118.838 60.384 118.838 62.256V69H121.478V63.096C121.478 60.576 122.63 59.16 124.334 59.16C125.774 59.16 126.47 60.384 126.47 62.256V69H129.11V61.824C129.11 58.752 127.502 56.76 124.79 56.76C123.206 56.76 121.67 57.6 120.95 59.136C120.302 57.648 119.006 56.76 117.23 56.76C115.694 56.76 114.494 57.504 113.822 58.632V57H111.182V69ZM144.199 63C144.199 59.52 141.463 56.76 137.911 56.76C134.359 56.76 131.623 59.52 131.623 63C131.623 66.48 134.359 69.24 137.911 69.24C141.463 69.24 144.199 66.48 144.199 63ZM134.287 63C134.287 60.864 135.775 59.208 137.911 59.208C140.023 59.208 141.511 60.864 141.511 63C141.511 65.136 140.023 66.792 137.911 66.792C135.775 66.792 134.287 65.136 134.287 63ZM145.99 63C145.99 66.432 148.486 69.24 151.774 69.24C153.502 69.24 154.942 68.352 155.614 67.392V69H158.254V51H155.614V58.608C154.942 57.648 153.502 56.76 151.774 56.76C148.486 56.76 145.99 59.568 145.99 63ZM155.83 63C155.83 65.16 154.39 66.84 152.254 66.84C150.118 66.84 148.678 65.16 148.678 63C148.678 60.84 150.118 59.16 152.254 59.16C154.39 59.16 155.83 60.84 155.83 63ZM160.967 63C160.967 66.432 163.463 69.24 166.751 69.24C168.479 69.24 169.919 68.352 170.591 67.392V69H173.231V57H170.591V58.608C169.919 57.648 168.479 56.76 166.751 56.76C163.463 56.76 160.967 59.568 160.967 63ZM170.807 63C170.807 65.16 169.367 66.84 167.231 66.84C165.095 66.84 163.655 65.16 163.655 63C163.655 60.84 165.095 59.16 167.231 59.16C169.367 59.16 170.807 60.84 170.807 63ZM176.807 69H179.447V51H176.807V69Z" fill="#001E2B"/>
<path d="M56.333 95.412V89.77H55.124V95.438C55.124 97.089 54.162 98.012 52.719 98.012C51.276 98.012 50.314 97.089 50.314 95.438V89.77H49.105V95.412C49.105 97.713 50.587 99.156 52.719 99.156C54.851 99.156 56.333 97.713 56.333 95.412ZM62.8437 97.245C62.8437 96.27 62.2587 95.594 61.1797 95.321L60.1397 95.048C59.4507 94.866 59.1517 94.593 59.1517 94.112C59.1517 93.618 59.6457 93.306 60.2697 93.306C60.8807 93.306 61.3487 93.657 61.5177 94.229H62.6357C62.5187 93.189 61.6607 92.37 60.2697 92.37C58.9567 92.37 58.0207 93.046 58.0207 94.125C58.0207 95.048 58.5797 95.75 59.6977 96.036L60.6337 96.283C61.4007 96.491 61.7127 96.803 61.7127 97.323C61.7127 97.895 61.1667 98.181 60.4647 98.181C59.7887 98.181 59.1127 97.908 58.9567 97.115H57.8127C57.9037 98.428 59.0607 99.13 60.4517 99.13C61.8037 99.13 62.8437 98.532 62.8437 97.245ZM70.238 97.024H69.094C68.704 97.804 68.015 98.116 67.209 98.116C66.039 98.116 65.09 97.232 65.051 96.049H70.342C70.498 94.034 69.263 92.37 67.222 92.37C65.194 92.37 63.92 93.852 63.92 95.75C63.92 97.687 65.298 99.13 67.196 99.13C68.847 99.13 69.913 98.168 70.238 97.024ZM67.183 93.358C68.145 93.358 68.951 93.956 69.159 95.165H65.103C65.324 93.878 66.247 93.358 67.183 93.358ZM78.3983 98.909V97.908C78.1903 97.986 77.8783 98.038 77.6053 98.038C76.9033 98.038 76.5263 97.765 76.5263 96.933V93.527H78.3983V92.5H76.5263V90.693H75.4083V92.5H74.0303V93.527H75.4083V97.076C75.4083 98.428 76.2663 99.065 77.3973 99.065C77.8003 99.065 78.1253 99 78.3983 98.909ZM79.8264 99H80.9444V95.776C80.9444 94.255 81.7764 93.397 82.8294 93.397C83.7394 93.397 84.3634 94.073 84.3634 95.165V99H85.4684V94.996C85.4684 93.384 84.4674 92.37 83.0114 92.37C82.1664 92.37 81.3864 92.734 80.9444 93.501V89.25H79.8264V99ZM88.8337 89.965C88.8337 89.536 88.4957 89.172 88.0537 89.172C87.6117 89.172 87.2477 89.536 87.2477 89.965C87.2477 90.407 87.6117 90.758 88.0537 90.758C88.4957 90.758 88.8337 90.407 88.8337 89.965ZM87.4817 99H88.5997V92.5H87.4817V99ZM95.204 97.245C95.204 96.27 94.619 95.594 93.54 95.321L92.5 95.048C91.811 94.866 91.512 94.593 91.512 94.112C91.512 93.618 92.006 93.306 92.63 93.306C93.241 93.306 93.709 93.657 93.878 94.229H94.996C94.879 93.189 94.021 92.37 92.63 92.37C91.317 92.37 90.381 93.046 90.381 94.125C90.381 95.048 90.94 95.75 92.058 96.036L92.994 96.283C93.761 96.491 94.073 96.803 94.073 97.323C94.073 97.895 93.527 98.181 92.825 98.181C92.149 98.181 91.473 97.908 91.317 97.115H90.173C90.264 98.428 91.421 99.13 92.812 99.13C94.164 99.13 95.204 98.532 95.204 97.245ZM99.9231 99H101.041V95.776C101.041 94.307 101.782 93.397 102.835 93.397C103.68 93.397 104.109 94.125 104.109 95.178V99H105.227V95.776C105.227 94.307 105.955 93.397 107.008 93.397C107.853 93.397 108.295 94.125 108.295 95.178V99H109.413V95.009C109.413 93.423 108.555 92.37 107.138 92.37C106.176 92.37 105.357 92.903 105.006 93.761C104.681 92.903 103.979 92.37 103.004 92.37C102.133 92.37 101.418 92.812 101.041 93.501V92.5H99.9231V99ZM117.704 95.75C117.704 93.878 116.261 92.37 114.311 92.37C112.348 92.37 110.905 93.878 110.905 95.75C110.905 97.622 112.348 99.13 114.311 99.13C116.261 99.13 117.704 97.622 117.704 95.75ZM112.049 95.75C112.049 94.45 112.959 93.41 114.311 93.41C115.663 93.41 116.56 94.45 116.56 95.75C116.56 97.05 115.663 98.09 114.311 98.09C112.959 98.09 112.049 97.05 112.049 95.75ZM118.802 95.75C118.802 97.609 120.167 99.13 121.987 99.13C122.962 99.13 123.846 98.623 124.275 97.999V99H125.393V89.25H124.275V93.501C123.846 92.877 122.962 92.37 121.987 92.37C120.167 92.37 118.802 93.891 118.802 95.75ZM124.366 95.75C124.366 97.063 123.469 98.103 122.156 98.103C120.843 98.103 119.933 97.063 119.933 95.75C119.933 94.437 120.843 93.397 122.156 93.397C123.469 93.397 124.366 94.437 124.366 95.75ZM126.99 95.75C126.99 97.609 128.355 99.13 130.175 99.13C131.15 99.13 132.034 98.623 132.463 97.999V99H133.581V92.5H132.463V93.501C132.034 92.877 131.15 92.37 130.175 92.37C128.355 92.37 126.99 93.891 126.99 95.75ZM132.554 95.75C132.554 97.063 131.657 98.103 130.344 98.103C129.031 98.103 128.121 97.063 128.121 95.75C128.121 94.437 129.031 93.397 130.344 93.397C131.657 93.397 132.554 94.437 132.554 95.75ZM135.686 99H136.804V89.25H135.686V99ZM142.44 99H143.558V93.527H145.443V92.5H143.558V91.304C143.558 90.485 143.922 90.199 144.637 90.199C144.897 90.199 145.235 90.251 145.443 90.329V89.341C145.157 89.237 144.819 89.172 144.429 89.172C143.298 89.172 142.44 89.848 142.44 91.187V92.5H141.062V93.527H142.44V99ZM152.781 95.75C152.781 93.878 151.338 92.37 149.388 92.37C147.425 92.37 145.982 93.878 145.982 95.75C145.982 97.622 147.425 99.13 149.388 99.13C151.338 99.13 152.781 97.622 152.781 95.75ZM147.126 95.75C147.126 94.45 148.036 93.41 149.388 93.41C150.74 93.41 151.637 94.45 151.637 95.75C151.637 97.05 150.74 98.09 149.388 98.09C148.036 98.09 147.126 97.05 147.126 95.75ZM154.386 99H155.504V95.776C155.504 94.255 156.401 93.54 157.22 93.54C157.441 93.54 157.623 93.566 157.831 93.644V92.487C157.649 92.448 157.493 92.435 157.324 92.435C156.57 92.435 155.764 92.929 155.504 93.761V92.5H154.386V99ZM168.114 96.712H166.918C166.632 97.531 165.852 98.103 164.838 98.103C163.486 98.103 162.576 97.063 162.576 95.75C162.576 94.437 163.486 93.397 164.838 93.397C165.852 93.397 166.632 93.969 166.918 94.788H168.114C167.75 93.384 166.476 92.37 164.838 92.37C162.862 92.37 161.445 93.891 161.445 95.75C161.445 97.609 162.862 99.13 164.838 99.13C166.476 99.13 167.75 98.116 168.114 96.712ZM169.595 99H170.713V95.776C170.713 94.255 171.61 93.54 172.429 93.54C172.65 93.54 172.832 93.566 173.04 93.644V92.487C172.858 92.448 172.702 92.435 172.533 92.435C171.779 92.435 170.973 92.929 170.713 93.761V92.5H169.595V99ZM179.938 97.024H178.794C178.404 97.804 177.715 98.116 176.909 98.116C175.739 98.116 174.79 97.232 174.751 96.049H180.042C180.198 94.034 178.963 92.37 176.922 92.37C174.894 92.37 173.62 93.852 173.62 95.75C173.62 97.687 174.998 99.13 176.896 99.13C178.547 99.13 179.613 98.168 179.938 97.024ZM176.883 93.358C177.845 93.358 178.651 93.956 178.859 95.165H174.803C175.024 93.878 175.947 93.358 176.883 93.358ZM181.149 95.75C181.149 97.609 182.514 99.13 184.334 99.13C185.309 99.13 186.193 98.623 186.622 97.999V99H187.74V92.5H186.622V93.501C186.193 92.877 185.309 92.37 184.334 92.37C182.514 92.37 181.149 93.891 181.149 95.75ZM186.713 95.75C186.713 97.063 185.816 98.103 184.503 98.103C183.19 98.103 182.28 97.063 182.28 95.75C182.28 94.437 183.19 93.397 184.503 93.397C185.816 93.397 186.713 94.437 186.713 95.75ZM193.367 98.909V97.908C193.159 97.986 192.847 98.038 192.574 98.038C191.872 98.038 191.495 97.765 191.495 96.933V93.527H193.367V92.5H191.495V90.693H190.377V92.5H188.999V93.527H190.377V97.076C190.377 98.428 191.235 99.065 192.366 99.065C192.769 99.065 193.094 99 193.367 98.909ZM196.147 89.965C196.147 89.536 195.809 89.172 195.367 89.172C194.925 89.172 194.561 89.536 194.561 89.965C194.561 90.407 194.925 90.758 195.367 90.758C195.809 90.758 196.147 90.407 196.147 89.965ZM194.795 99H195.913V92.5H194.795V99ZM198.032 99H199.15V95.776C199.15 94.255 199.982 93.397 201.035 93.397C201.945 93.397 202.569 94.073 202.569 95.165V99H203.674V94.996C203.674 93.384 202.673 92.37 201.217 92.37C200.372 92.37 199.592 92.734 199.15 93.501V92.5H198.032V99ZM205.402 99.598C205.597 100.911 206.806 101.847 208.548 101.847C210.316 101.847 211.746 100.768 211.746 98.597V92.5H210.628V93.501C210.186 92.851 209.328 92.37 208.366 92.37C206.559 92.37 205.181 93.826 205.181 95.672C205.181 97.531 206.559 98.987 208.366 98.987C209.328 98.987 210.186 98.493 210.628 97.843V98.61C210.628 100.079 209.744 100.859 208.574 100.859C207.521 100.859 206.793 100.456 206.494 99.598H205.402ZM210.719 95.672C210.719 96.985 209.822 97.947 208.522 97.947C207.222 97.947 206.325 96.985 206.325 95.672C206.325 94.372 207.222 93.397 208.522 93.397C209.822 93.397 210.719 94.372 210.719 95.672ZM223.149 96.712H221.953C221.667 97.531 220.887 98.103 219.873 98.103C218.521 98.103 217.611 97.063 217.611 95.75C217.611 94.437 218.521 93.397 219.873 93.397C220.887 93.397 221.667 93.969 221.953 94.788H223.149C222.785 93.384 221.511 92.37 219.873 92.37C217.897 92.37 216.48 93.891 216.48 95.75C216.48 97.609 217.897 99.13 219.873 99.13C221.511 99.13 222.785 98.116 223.149 96.712ZM224.538 96.491C224.538 98.103 225.5 99.13 226.93 99.13C227.749 99.13 228.503 98.753 228.932 97.999V99H230.05V92.5H228.932V95.724C228.932 97.219 228.139 98.103 227.125 98.103C226.228 98.103 225.656 97.414 225.656 96.322V92.5H224.538V96.491ZM236.642 97.245C236.642 96.27 236.057 95.594 234.978 95.321L233.938 95.048C233.249 94.866 232.95 94.593 232.95 94.112C232.95 93.618 233.444 93.306 234.068 93.306C234.679 93.306 235.147 93.657 235.316 94.229H236.434C236.317 93.189 235.459 92.37 234.068 92.37C232.755 92.37 231.819 93.046 231.819 94.125C231.819 95.048 232.378 95.75 233.496 96.036L234.432 96.283C235.199 96.491 235.511 96.803 235.511 97.323C235.511 97.895 234.965 98.181 234.263 98.181C233.587 98.181 232.911 97.908 232.755 97.115H231.611C231.702 98.428 232.859 99.13 234.25 99.13C235.602 99.13 236.642 98.532 236.642 97.245ZM241.647 98.909V97.908C241.439 97.986 241.127 98.038 240.854 98.038C240.152 98.038 239.775 97.765 239.775 96.933V93.527H241.647V92.5H239.775V90.693H238.657V92.5H237.279V93.527H238.657V97.076C238.657 98.428 239.515 99.065 240.646 99.065C241.049 99.065 241.374 99 241.647 98.909ZM249.266 95.75C249.266 93.878 247.823 92.37 245.873 92.37C243.91 92.37 242.467 93.878 242.467 95.75C242.467 97.622 243.91 99.13 245.873 99.13C247.823 99.13 249.266 97.622 249.266 95.75ZM243.611 95.75C243.611 94.45 244.521 93.41 245.873 93.41C247.225 93.41 248.122 94.45 248.122 95.75C248.122 97.05 247.225 98.09 245.873 98.09C244.521 98.09 243.611 97.05 243.611 95.75ZM250.87 99H251.988V95.776C251.988 94.307 252.729 93.397 253.782 93.397C254.627 93.397 255.056 94.125 255.056 95.178V99H256.174V95.776C256.174 94.307 256.902 93.397 257.955 93.397C258.8 93.397 259.242 94.125 259.242 95.178V99H260.36V95.009C260.36 93.423 259.502 92.37 258.085 92.37C257.123 92.37 256.304 92.903 255.953 93.761C255.628 92.903 254.926 92.37 253.951 92.37C253.08 92.37 252.365 92.812 251.988 93.501V92.5H250.87V99ZM265.508 99H266.626V95.776C266.626 94.307 267.367 93.397 268.42 93.397C269.265 93.397 269.694 94.125 269.694 95.178V99H270.812V95.776C270.812 94.307 271.54 93.397 272.593 93.397C273.438 93.397 273.88 94.125 273.88 95.178V99H274.998V95.009C274.998 93.423 274.14 92.37 272.723 92.37C271.761 92.37 270.942 92.903 270.591 93.761C270.266 92.903 269.564 92.37 268.589 92.37C267.718 92.37 267.003 92.812 266.626 93.501V92.5H265.508V99ZM283.289 95.75C283.289 93.878 281.846 92.37 279.896 92.37C277.933 92.37 276.49 93.878 276.49 95.75C276.49 97.622 277.933 99.13 279.896 99.13C281.846 99.13 283.289 97.622 283.289 95.75ZM277.634 95.75C277.634 94.45 278.544 93.41 279.896 93.41C281.248 93.41 282.145 94.45 282.145 95.75C282.145 97.05 281.248 98.09 279.896 98.09C278.544 98.09 277.634 97.05 277.634 95.75ZM284.387 95.75C284.387 97.609 285.752 99.13 287.572 99.13C288.547 99.13 289.431 98.623 289.86 97.999V99H290.978V89.25H289.86V93.501C289.431 92.877 288.547 92.37 287.572 92.37C285.752 92.37 284.387 93.891 284.387 95.75ZM289.951 95.75C289.951 97.063 289.054 98.103 287.741 98.103C286.428 98.103 285.518 97.063 285.518 95.75C285.518 94.437 286.428 93.397 287.741 93.397C289.054 93.397 289.951 94.437 289.951 95.75ZM292.575 95.75C292.575 97.609 293.94 99.13 295.76 99.13C296.735 99.13 297.619 98.623 298.048 97.999V99H299.166V92.5H298.048V93.501C297.619 92.877 296.735 92.37 295.76 92.37C293.94 92.37 292.575 93.891 292.575 95.75ZM298.139 95.75C298.139 97.063 297.242 98.103 295.929 98.103C294.616 98.103 293.706 97.063 293.706 95.75C293.706 94.437 294.616 93.397 295.929 93.397C297.242 93.397 298.139 94.437 298.139 95.75ZM301.271 99H302.389V89.25H301.271V99ZM308.993 97.245C308.993 96.27 308.408 95.594 307.329 95.321L306.289 95.048C305.6 94.866 305.301 94.593 305.301 94.112C305.301 93.618 305.795 93.306 306.419 93.306C307.03 93.306 307.498 93.657 307.667 94.229H308.785C308.668 93.189 307.81 92.37 306.419 92.37C305.106 92.37 304.17 93.046 304.17 94.125C304.17 95.048 304.729 95.75 305.847 96.036L306.783 96.283C307.55 96.491 307.862 96.803 307.862 97.323C307.862 97.895 307.316 98.181 306.614 98.181C305.938 98.181 305.262 97.908 305.106 97.115H303.962C304.053 98.428 305.21 99.13 306.601 99.13C307.953 99.13 308.993 98.532 308.993 97.245ZM312.123 98.129C312.123 97.609 311.694 97.154 311.161 97.154C310.628 97.154 310.199 97.609 310.199 98.129C310.199 98.662 310.628 99.104 311.161 99.104C311.694 99.104 312.123 98.662 312.123 98.129Z" fill="#001E2B"/>
</g>
<defs>
<filter id="filter0_d_2_35416" x="0" y="0" width="624" height="156" filterUnits="userSpaceOnUse" color-interpolation-filters="sRGB">
<feFlood flood-opacity="0" result="BackgroundImageFix"/>
<feColorMatrix in="SourceAlpha" type="matrix" values="0 0 0 0 0 0 0 0 0 0 0 0 0 0 0 0 0 0 127 0" result="hardAlpha"/>
<feMorphology radius="8" operator="erode" in="SourceAlpha" result="effect1_dropShadow_2_35416"/>
<feOffset dy="8"/>
<feGaussianBlur stdDeviation="10"/>
<feComposite in2="hardAlpha" operator="out"/>
<feColorMatrix type="matrix" values="0 0 0 0 0 0 0 0 0 0.117647 0 0 0 0 0.168627 0 0 0 0.6 0"/>
<feBlend mode="normal" in2="BackgroundImageFix" result="effect1_dropShadow_2_35416"/>
<feBlend mode="normal" in="SourceGraphic" in2="effect1_dropShadow_2_35416" result="shape"/>
</filter>
</defs>
</svg>
