<svg width="624" height="260" viewBox="0 0 624 260" fill="none" xmlns="http://www.w3.org/2000/svg">
<g filter="url(#filter0_d_2_35460)">
<path d="M12 28C12 14.7452 22.7452 4 36 4H588C601.255 4 612 14.7452 612 28V216C612 229.255 601.255 240 588 240H36C22.7452 240 12 229.255 12 216V28Z" fill="white"/>
<path d="M583.889 31.4037C583.499 31.0132 582.865 31.0132 582.475 31.4037L580 33.8786L577.525 31.4037C577.135 31.0132 576.501 31.0132 576.111 31.4037L575.404 32.1108C575.013 32.5014 575.013 33.1345 575.404 33.525L577.879 35.9999L575.404 38.4748C575.013 38.8653 575.013 39.4985 575.404 39.889L576.111 40.5961C576.501 40.9866 577.135 40.9866 577.525 40.5961L580 38.1212L582.475 40.5961C582.865 40.9866 583.499 40.9866 583.889 40.5961L584.596 39.889C584.987 39.4985 584.987 38.8653 584.596 38.4748L582.121 35.9999L584.596 33.525C584.987 33.1345 584.987 32.5014 584.596 32.1108L583.889 31.4037Z" fill="#5C6C75"/>
<path d="M49.008 60.48C49.008 65.448 52.824 69.288 57.888 69.288C61.992 69.288 65.28 66.624 66.096 63.288H63.072C62.352 65.232 60.288 66.576 57.888 66.576C54.336 66.576 51.84 63.912 51.84 60.48C51.84 57.048 54.336 54.384 57.888 54.384C60.288 54.384 62.352 55.728 63.072 57.672H66.096C65.28 54.336 61.992 51.672 57.888 51.672C52.824 51.672 49.008 55.512 49.008 60.48ZM80.3318 63C80.3318 59.52 77.5958 56.76 74.0438 56.76C70.4918 56.76 67.7558 59.52 67.7558 63C67.7558 66.48 70.4918 69.24 74.0438 69.24C77.5958 69.24 80.3318 66.48 80.3318 63ZM70.4198 63C70.4198 60.864 71.9078 59.208 74.0438 59.208C76.1558 59.208 77.6438 60.864 77.6438 63C77.6438 65.136 76.1558 66.792 74.0438 66.792C71.9078 66.792 70.4198 65.136 70.4198 63ZM82.9869 69H85.6269V63.096C85.6269 60.528 86.9709 59.16 88.7229 59.16C90.2589 59.16 91.2189 60.312 91.2189 62.208V69H93.8589V61.776C93.8589 58.728 92.0589 56.76 89.2749 56.76C87.7149 56.76 86.3469 57.432 85.6269 58.632V57H82.9869V69ZM98.2243 69H100.864V59.352H104.296V57H100.864V55.296C100.864 53.808 101.512 53.256 102.88 53.256C103.384 53.256 103.912 53.352 104.296 53.496V51.144C103.792 50.976 103.144 50.856 102.328 50.856C100.024 50.856 98.2243 52.296 98.2243 54.984V57H95.7283V59.352H98.2243V69ZM109.473 52.608C109.473 51.648 108.705 50.856 107.721 50.856C106.761 50.856 105.945 51.648 105.945 52.608C105.945 53.592 106.761 54.384 107.721 54.384C108.705 54.384 109.473 53.592 109.473 52.608ZM106.401 69H109.041V57H106.401V69ZM112.589 69H115.229V63.144C115.229 60.744 116.597 59.472 118.109 59.472C118.589 59.472 118.973 59.544 119.429 59.688V56.976C119.069 56.904 118.733 56.88 118.397 56.88C117.029 56.88 115.685 57.768 115.229 59.136V57H112.589V69ZM121.706 69H124.346V63.096C124.346 60.576 125.522 59.16 127.226 59.16C128.666 59.16 129.362 60.384 129.362 62.256V69H132.002V63.096C132.002 60.576 133.154 59.16 134.858 59.16C136.298 59.16 136.994 60.384 136.994 62.256V69H139.634V61.824C139.634 58.752 138.026 56.76 135.314 56.76C133.73 56.76 132.194 57.6 131.474 59.136C130.826 57.648 129.53 56.76 127.754 56.76C126.218 56.76 125.018 57.504 124.346 58.632V57H121.706V69ZM155.436 68.856V66.504C155.052 66.648 154.524 66.744 154.02 66.744C152.652 66.744 152.004 66.192 152.004 64.704V59.352H155.436V57H152.004V53.664H149.364V57H146.868V59.352H149.364V65.136C149.364 67.848 151.164 69.12 153.468 69.12C154.284 69.12 154.908 69.024 155.436 68.856ZM161.012 52.608C161.012 51.648 160.244 50.856 159.26 50.856C158.3 50.856 157.484 51.648 157.484 52.608C157.484 53.592 158.3 54.384 159.26 54.384C160.244 54.384 161.012 53.592 161.012 52.608ZM157.94 69H160.58V57H157.94V69ZM171.304 68.856V66.504C170.92 66.648 170.392 66.744 169.888 66.744C168.52 66.744 167.872 66.192 167.872 64.704V59.352H171.304V57H167.872V53.664H165.232V57H162.736V59.352H165.232V65.136C165.232 67.848 167.032 69.12 169.336 69.12C170.152 69.12 170.776 69.024 171.304 68.856ZM173.807 69H176.447V51H173.807V69ZM191.179 65.232H188.419C187.867 66.384 186.715 66.912 185.395 66.912C183.259 66.912 181.867 65.472 181.771 63.648H191.323C191.563 59.568 188.995 56.76 185.323 56.76C181.627 56.76 179.155 59.448 179.155 63C179.155 66.6 181.723 69.24 185.299 69.24C188.347 69.24 190.507 67.488 191.179 65.232ZM185.251 58.968C186.715 58.968 188.083 59.832 188.491 61.776H181.867C182.227 59.928 183.595 58.968 185.251 58.968ZM199.682 69H202.322V63.096C202.322 60.528 203.666 59.16 205.418 59.16C206.954 59.16 207.914 60.312 207.914 62.208V69H210.554V61.776C210.554 58.728 208.754 56.76 205.97 56.76C204.41 56.76 203.042 57.432 202.322 58.632V51H199.682V69ZM225.116 65.232H222.356C221.804 66.384 220.652 66.912 219.332 66.912C217.196 66.912 215.804 65.472 215.708 63.648H225.26C225.5 59.568 222.932 56.76 219.26 56.76C215.564 56.76 213.092 59.448 213.092 63C213.092 66.6 215.66 69.24 219.236 69.24C222.284 69.24 224.444 67.488 225.116 65.232ZM219.188 58.968C220.652 58.968 222.02 59.832 222.428 61.776H215.804C216.164 59.928 217.532 58.968 219.188 58.968ZM227.971 69H230.611V63.144C230.611 60.744 231.979 59.472 233.491 59.472C233.971 59.472 234.355 59.544 234.811 59.688V56.976C234.451 56.904 234.115 56.88 233.779 56.88C232.411 56.88 231.067 57.768 230.611 59.136V57H227.971V69ZM247.851 65.232H245.091C244.539 66.384 243.387 66.912 242.067 66.912C239.931 66.912 238.539 65.472 238.443 63.648H247.995C248.235 59.568 245.667 56.76 241.995 56.76C238.299 56.76 235.827 59.448 235.827 63C235.827 66.6 238.395 69.24 241.971 69.24C245.019 69.24 247.179 67.488 247.851 65.232ZM241.923 58.968C243.387 58.968 244.755 59.832 245.163 61.776H238.539C238.899 59.928 240.267 58.968 241.923 58.968Z" fill="#001E2B"/>
<path d="M52.043 89.77H49.222V99H50.431V95.633H52.043C53.967 95.633 55.215 94.372 55.215 92.708C55.215 91.044 53.967 89.77 52.043 89.77ZM52.043 94.515H50.431V90.901H52.043C53.317 90.901 54.019 91.681 54.019 92.708C54.019 93.735 53.317 94.515 52.043 94.515ZM56.6448 99H57.7628V89.25H56.6448V99ZM65.6931 97.024H64.5491C64.1591 97.804 63.4701 98.116 62.6641 98.116C61.4941 98.116 60.5451 97.232 60.5061 96.049H65.7971C65.9531 94.034 64.7181 92.37 62.6771 92.37C60.6491 92.37 59.3751 93.852 59.3751 95.75C59.3751 97.687 60.7531 99.13 62.6511 99.13C64.3021 99.13 65.3681 98.168 65.6931 97.024ZM62.6381 93.358C63.6001 93.358 64.4061 93.956 64.6141 95.165H60.5581C60.7791 93.878 61.7021 93.358 62.6381 93.358ZM66.9034 95.75C66.9034 97.609 68.2684 99.13 70.0884 99.13C71.0634 99.13 71.9474 98.623 72.3764 97.999V99H73.4944V92.5H72.3764V93.501C71.9474 92.877 71.0634 92.37 70.0884 92.37C68.2684 92.37 66.9034 93.891 66.9034 95.75ZM72.4674 95.75C72.4674 97.063 71.5704 98.103 70.2574 98.103C68.9444 98.103 68.0344 97.063 68.0344 95.75C68.0344 94.437 68.9444 93.397 70.2574 93.397C71.5704 93.397 72.4674 94.437 72.4674 95.75ZM80.0839 97.245C80.0839 96.27 79.4989 95.594 78.4199 95.321L77.3799 95.048C76.6909 94.866 76.3919 94.593 76.3919 94.112C76.3919 93.618 76.8859 93.306 77.5099 93.306C78.1209 93.306 78.5889 93.657 78.7579 94.229H79.8759C79.7589 93.189 78.9009 92.37 77.5099 92.37C76.1969 92.37 75.2609 93.046 75.2609 94.125C75.2609 95.048 75.8199 95.75 76.9379 96.036L77.8739 96.283C78.6409 96.491 78.9529 96.803 78.9529 97.323C78.9529 97.895 78.4069 98.181 77.7049 98.181C77.0289 98.181 76.3529 97.908 76.1969 97.115H75.0529C75.1439 98.428 76.3009 99.13 77.6919 99.13C79.0439 99.13 80.0839 98.532 80.0839 97.245ZM87.4783 97.024H86.3343C85.9443 97.804 85.2553 98.116 84.4493 98.116C83.2793 98.116 82.3303 97.232 82.2913 96.049H87.5823C87.7383 94.034 86.5033 92.37 84.4623 92.37C82.4343 92.37 81.1603 93.852 81.1603 95.75C81.1603 97.687 82.5383 99.13 84.4363 99.13C86.0873 99.13 87.1533 98.168 87.4783 97.024ZM84.4233 93.358C85.3853 93.358 86.1913 93.956 86.3993 95.165H82.3433C82.5643 93.878 83.4873 93.358 84.4233 93.358ZM91.8243 95.75C91.8243 97.609 93.1893 99.13 95.0093 99.13C95.9843 99.13 96.8683 98.623 97.2973 97.999V99H98.4153V89.25H97.2973V93.501C96.8683 92.877 95.9843 92.37 95.0093 92.37C93.1893 92.37 91.8243 93.891 91.8243 95.75ZM97.3883 95.75C97.3883 97.063 96.4913 98.103 95.1783 98.103C93.8653 98.103 92.9553 97.063 92.9553 95.75C92.9553 94.437 93.8653 93.397 95.1783 93.397C96.4913 93.397 97.3883 94.437 97.3883 95.75ZM106.799 95.75C106.799 93.878 105.356 92.37 103.406 92.37C101.443 92.37 99.9998 93.878 99.9998 95.75C99.9998 97.622 101.443 99.13 103.406 99.13C105.356 99.13 106.799 97.622 106.799 95.75ZM101.144 95.75C101.144 94.45 102.054 93.41 103.406 93.41C104.758 93.41 105.655 94.45 105.655 95.75C105.655 97.05 104.758 98.09 103.406 98.09C102.054 98.09 101.144 97.05 101.144 95.75ZM111.539 99H112.657V95.776C112.657 94.255 113.489 93.397 114.542 93.397C115.452 93.397 116.076 94.073 116.076 95.165V99H117.181V94.996C117.181 93.384 116.18 92.37 114.724 92.37C113.879 92.37 113.099 92.734 112.657 93.501V92.5H111.539V99ZM125.474 95.75C125.474 93.878 124.031 92.37 122.081 92.37C120.118 92.37 118.675 93.878 118.675 95.75C118.675 97.622 120.118 99.13 122.081 99.13C124.031 99.13 125.474 97.622 125.474 95.75ZM119.819 95.75C119.819 94.45 120.729 93.41 122.081 93.41C123.433 93.41 124.33 94.45 124.33 95.75C124.33 97.05 123.433 98.09 122.081 98.09C120.729 98.09 119.819 97.05 119.819 95.75ZM130.487 98.909V97.908C130.279 97.986 129.967 98.038 129.694 98.038C128.992 98.038 128.615 97.765 128.615 96.933V93.527H130.487V92.5H128.615V90.693H127.497V92.5H126.119V93.527H127.497V97.076C127.497 98.428 128.355 99.065 129.486 99.065C129.889 99.065 130.214 99 130.487 98.909ZM135.051 99H136.169V95.776C136.169 94.255 137.001 93.397 138.054 93.397C138.964 93.397 139.588 94.073 139.588 95.165V99H140.693V94.996C140.693 93.384 139.692 92.37 138.236 92.37C137.391 92.37 136.611 92.734 136.169 93.501V92.5H135.051V99ZM148.517 97.024H147.373C146.983 97.804 146.294 98.116 145.488 98.116C144.318 98.116 143.369 97.232 143.33 96.049H148.621C148.777 94.034 147.542 92.37 145.501 92.37C143.473 92.37 142.199 93.852 142.199 95.75C142.199 97.687 143.577 99.13 145.475 99.13C147.126 99.13 148.192 98.168 148.517 97.024ZM145.462 93.358C146.424 93.358 147.23 93.956 147.438 95.165H143.382C143.603 93.878 144.526 93.358 145.462 93.358ZM154.72 97.245C154.72 96.27 154.135 95.594 153.056 95.321L152.016 95.048C151.327 94.866 151.028 94.593 151.028 94.112C151.028 93.618 151.522 93.306 152.146 93.306C152.757 93.306 153.225 93.657 153.394 94.229H154.512C154.395 93.189 153.537 92.37 152.146 92.37C150.833 92.37 149.897 93.046 149.897 94.125C149.897 95.048 150.456 95.75 151.574 96.036L152.51 96.283C153.277 96.491 153.589 96.803 153.589 97.323C153.589 97.895 153.043 98.181 152.341 98.181C151.665 98.181 150.989 97.908 150.833 97.115H149.689C149.78 98.428 150.937 99.13 152.328 99.13C153.68 99.13 154.72 98.532 154.72 97.245ZM159.724 98.909V97.908C159.516 97.986 159.204 98.038 158.931 98.038C158.229 98.038 157.852 97.765 157.852 96.933V93.527H159.724V92.5H157.852V90.693H156.734V92.5H155.356V93.527H156.734V97.076C156.734 98.428 157.592 99.065 158.723 99.065C159.126 99.065 159.451 99 159.724 98.909ZM170.567 95.75C170.567 93.878 169.124 92.37 167.174 92.37C165.211 92.37 163.768 93.878 163.768 95.75C163.768 97.622 165.211 99.13 167.174 99.13C169.124 99.13 170.567 97.622 170.567 95.75ZM164.912 95.75C164.912 94.45 165.822 93.41 167.174 93.41C168.526 93.41 169.423 94.45 169.423 95.75C169.423 97.05 168.526 98.09 167.174 98.09C165.822 98.09 164.912 97.05 164.912 95.75ZM175.581 98.909V97.908C175.373 97.986 175.061 98.038 174.788 98.038C174.086 98.038 173.709 97.765 173.709 96.933V93.527H175.581V92.5H173.709V90.693H172.591V92.5H171.213V93.527H172.591V97.076C172.591 98.428 173.449 99.065 174.58 99.065C174.983 99.065 175.308 99 175.581 98.909ZM177.009 99H178.127V95.776C178.127 94.255 178.959 93.397 180.012 93.397C180.922 93.397 181.546 94.073 181.546 95.165V99H182.651V94.996C182.651 93.384 181.65 92.37 180.194 92.37C179.349 92.37 178.569 92.734 178.127 93.501V89.25H177.009V99ZM190.475 97.024H189.331C188.941 97.804 188.252 98.116 187.446 98.116C186.276 98.116 185.327 97.232 185.288 96.049H190.579C190.735 94.034 189.5 92.37 187.459 92.37C185.431 92.37 184.157 93.852 184.157 95.75C184.157 97.687 185.535 99.13 187.433 99.13C189.084 99.13 190.15 98.168 190.475 97.024ZM187.42 93.358C188.382 93.358 189.188 93.956 189.396 95.165H185.34C185.561 93.878 186.484 93.358 187.42 93.358ZM192.193 99H193.311V95.776C193.311 94.255 194.208 93.54 195.027 93.54C195.248 93.54 195.43 93.566 195.638 93.644V92.487C195.456 92.448 195.3 92.435 195.131 92.435C194.377 92.435 193.571 92.929 193.311 93.761V92.5H192.193V99ZM205.921 96.712H204.725C204.439 97.531 203.659 98.103 202.645 98.103C201.293 98.103 200.383 97.063 200.383 95.75C200.383 94.437 201.293 93.397 202.645 93.397C203.659 93.397 204.439 93.969 204.725 94.788H205.921C205.557 93.384 204.283 92.37 202.645 92.37C200.669 92.37 199.252 93.891 199.252 95.75C199.252 97.609 200.669 99.13 202.645 99.13C204.283 99.13 205.557 98.116 205.921 96.712ZM213.681 95.75C213.681 93.878 212.238 92.37 210.288 92.37C208.325 92.37 206.882 93.878 206.882 95.75C206.882 97.622 208.325 99.13 210.288 99.13C212.238 99.13 213.681 97.622 213.681 95.75ZM208.026 95.75C208.026 94.45 208.936 93.41 210.288 93.41C211.64 93.41 212.537 94.45 212.537 95.75C212.537 97.05 211.64 98.09 210.288 98.09C208.936 98.09 208.026 97.05 208.026 95.75ZM215.285 99H216.403V95.776C216.403 94.307 217.144 93.397 218.197 93.397C219.042 93.397 219.471 94.125 219.471 95.178V99H220.589V95.776C220.589 94.307 221.317 93.397 222.37 93.397C223.215 93.397 223.657 94.125 223.657 95.178V99H224.775V95.009C224.775 93.423 223.917 92.37 222.5 92.37C221.538 92.37 220.719 92.903 220.368 93.761C220.043 92.903 219.341 92.37 218.366 92.37C217.495 92.37 216.78 92.812 216.403 93.501V92.5H215.285V99ZM226.787 101.717H227.905V97.999C228.334 98.623 229.218 99.13 230.193 99.13C232 99.13 233.378 97.609 233.378 95.75C233.378 93.891 232 92.37 230.193 92.37C229.218 92.37 228.334 92.877 227.905 93.501V92.5H226.787V101.717ZM232.234 95.75C232.234 97.063 231.337 98.103 230.024 98.103C228.711 98.103 227.814 97.063 227.814 95.75C227.814 94.437 228.711 93.397 230.024 93.397C231.337 93.397 232.234 94.437 232.234 95.75ZM241.268 95.75C241.268 93.878 239.825 92.37 237.875 92.37C235.912 92.37 234.469 93.878 234.469 95.75C234.469 97.622 235.912 99.13 237.875 99.13C239.825 99.13 241.268 97.622 241.268 95.75ZM235.613 95.75C235.613 94.45 236.523 93.41 237.875 93.41C239.227 93.41 240.124 94.45 240.124 95.75C240.124 97.05 239.227 98.09 237.875 98.09C236.523 98.09 235.613 97.05 235.613 95.75ZM242.872 99H243.99V95.776C243.99 94.255 244.822 93.397 245.875 93.397C246.785 93.397 247.409 94.073 247.409 95.165V99H248.514V94.996C248.514 93.384 247.513 92.37 246.057 92.37C245.212 92.37 244.432 92.734 243.99 93.501V92.5H242.872V99ZM256.339 97.024H255.195C254.805 97.804 254.116 98.116 253.31 98.116C252.14 98.116 251.191 97.232 251.152 96.049H256.443C256.599 94.034 255.364 92.37 253.323 92.37C251.295 92.37 250.021 93.852 250.021 95.75C250.021 97.687 251.399 99.13 253.297 99.13C254.948 99.13 256.014 98.168 256.339 97.024ZM253.284 93.358C254.246 93.358 255.052 93.956 255.26 95.165H251.204C251.425 93.878 252.348 93.358 253.284 93.358ZM258.056 99H259.174V95.776C259.174 94.255 260.006 93.397 261.059 93.397C261.969 93.397 262.593 94.073 262.593 95.165V99H263.698V94.996C263.698 93.384 262.697 92.37 261.241 92.37C260.396 92.37 259.616 92.734 259.174 93.501V92.5H258.056V99ZM269.158 98.909V97.908C268.95 97.986 268.638 98.038 268.365 98.038C267.663 98.038 267.286 97.765 267.286 96.933V93.527H269.158V92.5H267.286V90.693H266.168V92.5H264.79V93.527H266.168V97.076C266.168 98.428 267.026 99.065 268.157 99.065C268.56 99.065 268.885 99 269.158 98.909ZM275.071 97.245C275.071 96.27 274.486 95.594 273.407 95.321L272.367 95.048C271.678 94.866 271.379 94.593 271.379 94.112C271.379 93.618 271.873 93.306 272.497 93.306C273.108 93.306 273.576 93.657 273.745 94.229H274.863C274.746 93.189 273.888 92.37 272.497 92.37C271.184 92.37 270.248 93.046 270.248 94.125C270.248 95.048 270.807 95.75 271.925 96.036L272.861 96.283C273.628 96.491 273.94 96.803 273.94 97.323C273.94 97.895 273.394 98.181 272.692 98.181C272.016 98.181 271.34 97.908 271.184 97.115H270.04C270.131 98.428 271.288 99.13 272.679 99.13C274.031 99.13 275.071 98.532 275.071 97.245ZM281.142 89.965C281.142 89.536 280.804 89.172 280.362 89.172C279.92 89.172 279.556 89.536 279.556 89.965C279.556 90.407 279.92 90.758 280.362 90.758C280.804 90.758 281.142 90.407 281.142 89.965ZM279.79 99H280.908V92.5H279.79V99ZM283.028 99H284.146V95.776C284.146 94.255 284.978 93.397 286.031 93.397C286.941 93.397 287.565 94.073 287.565 95.165V99H288.67V94.996C288.67 93.384 287.669 92.37 286.213 92.37C285.368 92.37 284.588 92.734 284.146 93.501V92.5H283.028V99ZM297.126 98.909V97.908C296.918 97.986 296.606 98.038 296.333 98.038C295.631 98.038 295.254 97.765 295.254 96.933V93.527H297.126V92.5H295.254V90.693H294.136V92.5H292.758V93.527H294.136V97.076C294.136 98.428 294.994 99.065 296.125 99.065C296.528 99.065 296.853 99 297.126 98.909ZM298.554 99H299.672V95.776C299.672 94.255 300.504 93.397 301.557 93.397C302.467 93.397 303.091 94.073 303.091 95.165V99H304.196V94.996C304.196 93.384 303.195 92.37 301.739 92.37C300.894 92.37 300.114 92.734 299.672 93.501V89.25H298.554V99ZM307.561 89.965C307.561 89.536 307.223 89.172 306.781 89.172C306.339 89.172 305.975 89.536 305.975 89.965C305.975 90.407 306.339 90.758 306.781 90.758C307.223 90.758 307.561 90.407 307.561 89.965ZM306.209 99H307.327V92.5H306.209V99ZM313.932 97.245C313.932 96.27 313.347 95.594 312.268 95.321L311.228 95.048C310.539 94.866 310.24 94.593 310.24 94.112C310.24 93.618 310.734 93.306 311.358 93.306C311.969 93.306 312.437 93.657 312.606 94.229H313.724C313.607 93.189 312.749 92.37 311.358 92.37C310.045 92.37 309.109 93.046 309.109 94.125C309.109 95.048 309.668 95.75 310.786 96.036L311.722 96.283C312.489 96.491 312.801 96.803 312.801 97.323C312.801 97.895 312.255 98.181 311.553 98.181C310.877 98.181 310.201 97.908 310.045 97.115H308.901C308.992 98.428 310.149 99.13 311.54 99.13C312.892 99.13 313.932 98.532 313.932 97.245ZM318.651 99H319.769V95.776C319.769 94.307 320.51 93.397 321.563 93.397C322.408 93.397 322.837 94.125 322.837 95.178V99H323.955V95.776C323.955 94.307 324.683 93.397 325.736 93.397C326.581 93.397 327.023 94.125 327.023 95.178V99H328.141V95.009C328.141 93.423 327.283 92.37 325.866 92.37C324.904 92.37 324.085 92.903 323.734 93.761C323.409 92.903 322.707 92.37 321.732 92.37C320.861 92.37 320.146 92.812 319.769 93.501V92.5H318.651V99ZM336.432 95.75C336.432 93.878 334.989 92.37 333.039 92.37C331.076 92.37 329.633 93.878 329.633 95.75C329.633 97.622 331.076 99.13 333.039 99.13C334.989 99.13 336.432 97.622 336.432 95.75ZM330.777 95.75C330.777 94.45 331.687 93.41 333.039 93.41C334.391 93.41 335.288 94.45 335.288 95.75C335.288 97.05 334.391 98.09 333.039 98.09C331.687 98.09 330.777 97.05 330.777 95.75ZM337.529 95.75C337.529 97.609 338.894 99.13 340.714 99.13C341.689 99.13 342.573 98.623 343.002 97.999V99H344.12V89.25H343.002V93.501C342.573 92.877 341.689 92.37 340.714 92.37C338.894 92.37 337.529 93.891 337.529 95.75ZM343.093 95.75C343.093 97.063 342.196 98.103 340.883 98.103C339.57 98.103 338.66 97.063 338.66 95.75C338.66 94.437 339.57 93.397 340.883 93.397C342.196 93.397 343.093 94.437 343.093 95.75ZM345.718 95.75C345.718 97.609 347.083 99.13 348.903 99.13C349.878 99.13 350.762 98.623 351.191 97.999V99H352.309V92.5H351.191V93.501C350.762 92.877 349.878 92.37 348.903 92.37C347.083 92.37 345.718 93.891 345.718 95.75ZM351.282 95.75C351.282 97.063 350.385 98.103 349.072 98.103C347.759 98.103 346.849 97.063 346.849 95.75C346.849 94.437 347.759 93.397 349.072 93.397C350.385 93.397 351.282 94.437 351.282 95.75ZM354.413 99H355.531V89.25H354.413V99ZM359.198 98.129C359.198 97.609 358.769 97.154 358.236 97.154C357.703 97.154 357.274 97.609 357.274 98.129C357.274 98.662 357.703 99.104 358.236 99.104C358.769 99.104 359.198 98.662 359.198 98.129ZM371.342 95.412V89.77H370.133V95.438C370.133 97.089 369.171 98.012 367.728 98.012C366.285 98.012 365.323 97.089 365.323 95.438V89.77H364.114V95.412C364.114 97.713 365.596 99.156 367.728 99.156C369.86 99.156 371.342 97.713 371.342 95.412ZM377.852 97.245C377.852 96.27 377.267 95.594 376.188 95.321L375.148 95.048C374.459 94.866 374.16 94.593 374.16 94.112C374.16 93.618 374.654 93.306 375.278 93.306C375.889 93.306 376.357 93.657 376.526 94.229H377.644C377.527 93.189 376.669 92.37 375.278 92.37C373.965 92.37 373.029 93.046 373.029 94.125C373.029 95.048 373.588 95.75 374.706 96.036L375.642 96.283C376.409 96.491 376.721 96.803 376.721 97.323C376.721 97.895 376.175 98.181 375.473 98.181C374.797 98.181 374.121 97.908 373.965 97.115H372.821C372.912 98.428 374.069 99.13 375.46 99.13C376.812 99.13 377.852 98.532 377.852 97.245ZM385.247 97.024H384.103C383.713 97.804 383.024 98.116 382.218 98.116C381.048 98.116 380.099 97.232 380.06 96.049H385.351C385.507 94.034 384.272 92.37 382.231 92.37C380.203 92.37 378.929 93.852 378.929 95.75C378.929 97.687 380.307 99.13 382.205 99.13C383.856 99.13 384.922 98.168 385.247 97.024ZM382.192 93.358C383.154 93.358 383.96 93.956 384.168 95.165H380.112C380.333 93.878 381.256 93.358 382.192 93.358ZM393.407 98.909V97.908C393.199 97.986 392.887 98.038 392.614 98.038C391.912 98.038 391.535 97.765 391.535 96.933V93.527H393.407V92.5H391.535V90.693H390.417V92.5H389.039V93.527H390.417V97.076C390.417 98.428 391.275 99.065 392.406 99.065C392.809 99.065 393.134 99 393.407 98.909ZM394.835 99H395.953V95.776C395.953 94.255 396.785 93.397 397.838 93.397C398.748 93.397 399.372 94.073 399.372 95.165V99H400.477V94.996C400.477 93.384 399.476 92.37 398.02 92.37C397.175 92.37 396.395 92.734 395.953 93.501V89.25H394.835V99ZM408.301 97.024H407.158C406.768 97.804 406.079 98.116 405.273 98.116C404.103 98.116 403.153 97.232 403.115 96.049H408.406C408.562 94.034 407.327 92.37 405.286 92.37C403.258 92.37 401.984 93.852 401.984 95.75C401.984 97.687 403.362 99.13 405.259 99.13C406.911 99.13 407.977 98.168 408.301 97.024ZM405.247 93.358C406.209 93.358 407.015 93.956 407.223 95.165H403.167C403.388 93.878 404.311 93.358 405.247 93.358ZM412.804 91.915C412.7 92.084 412.635 92.279 412.635 92.5C412.635 93.02 413.051 93.475 413.597 93.475C414.13 93.475 414.559 93.02 414.559 92.5C414.559 92.11 414.325 91.785 414.026 91.629L414.897 89.77H414.156L412.804 91.915ZM415.222 91.915C415.118 92.084 415.053 92.279 415.053 92.5C415.053 93.02 415.469 93.475 416.015 93.475C416.548 93.475 416.977 93.02 416.977 92.5C416.977 92.11 416.743 91.785 416.444 91.629L417.315 89.77H416.574L415.222 91.915ZM423.523 96.296L426.851 91.824V99H428.047V89.77H426.955L423.523 94.372L420.091 89.77H418.986V99H420.195V91.824L423.523 96.296ZM436.496 95.75C436.496 93.878 435.053 92.37 433.103 92.37C431.14 92.37 429.697 93.878 429.697 95.75C429.697 97.622 431.14 99.13 433.103 99.13C435.053 99.13 436.496 97.622 436.496 95.75ZM430.841 95.75C430.841 94.45 431.751 93.41 433.103 93.41C434.455 93.41 435.352 94.45 435.352 95.75C435.352 97.05 434.455 98.09 433.103 98.09C431.751 98.09 430.841 97.05 430.841 95.75ZM437.594 95.75C437.594 97.609 438.959 99.13 440.779 99.13C441.754 99.13 442.638 98.623 443.067 97.999V99H444.185V89.25H443.067V93.501C442.638 92.877 441.754 92.37 440.779 92.37C438.959 92.37 437.594 93.891 437.594 95.75ZM443.158 95.75C443.158 97.063 442.261 98.103 440.948 98.103C439.635 98.103 438.725 97.063 438.725 95.75C438.725 94.437 439.635 93.397 440.948 93.397C442.261 93.397 443.158 94.437 443.158 95.75ZM445.782 95.75C445.782 97.609 447.147 99.13 448.967 99.13C449.942 99.13 450.826 98.623 451.255 97.999V99H452.373V92.5H451.255V93.501C450.826 92.877 449.942 92.37 448.967 92.37C447.147 92.37 445.782 93.891 445.782 95.75ZM451.346 95.75C451.346 97.063 450.449 98.103 449.136 98.103C447.823 98.103 446.913 97.063 446.913 95.75C446.913 94.437 447.823 93.397 449.136 93.397C450.449 93.397 451.346 94.437 451.346 95.75ZM454.478 99H455.596V89.25H454.478V99ZM460.643 95.919H463.958V94.801H460.643V95.919ZM469.17 99H472.472C474.344 99 475.566 97.843 475.566 96.309C475.566 95.074 474.864 94.424 473.967 94.099C474.552 93.735 474.955 93.124 474.955 92.214C474.955 90.914 473.915 89.77 472.199 89.77H469.17V99ZM470.379 93.735V90.862H472.199C473.187 90.862 473.772 91.525 473.772 92.305C473.772 93.124 473.187 93.735 472.199 93.735H470.379ZM470.379 97.908V94.775H472.537C473.759 94.775 474.383 95.451 474.383 96.348C474.383 97.258 473.759 97.908 472.524 97.908H470.379ZM476.67 95.75C476.67 97.609 478.035 99.13 479.855 99.13C480.83 99.13 481.714 98.623 482.143 97.999V99H483.261V92.5H482.143V93.501C481.714 92.877 480.83 92.37 479.855 92.37C478.035 92.37 476.67 93.891 476.67 95.75ZM482.234 95.75C482.234 97.063 481.337 98.103 480.024 98.103C478.711 98.103 477.801 97.063 477.801 95.75C477.801 94.437 478.711 93.397 480.024 93.397C481.337 93.397 482.234 94.437 482.234 95.75ZM489.851 97.245C489.851 96.27 489.266 95.594 488.187 95.321L487.147 95.048C486.458 94.866 486.159 94.593 486.159 94.112C486.159 93.618 486.653 93.306 487.277 93.306C487.888 93.306 488.356 93.657 488.525 94.229H489.643C489.526 93.189 488.668 92.37 487.277 92.37C485.964 92.37 485.028 93.046 485.028 94.125C485.028 95.048 485.587 95.75 486.705 96.036L487.641 96.283C488.408 96.491 488.72 96.803 488.72 97.323C488.72 97.895 488.174 98.181 487.472 98.181C486.796 98.181 486.12 97.908 485.964 97.115H484.82C484.911 98.428 486.068 99.13 487.459 99.13C488.811 99.13 489.851 98.532 489.851 97.245ZM497.245 97.024H496.101C495.711 97.804 495.022 98.116 494.216 98.116C493.046 98.116 492.097 97.232 492.058 96.049H497.349C497.505 94.034 496.27 92.37 494.229 92.37C492.201 92.37 490.927 93.852 490.927 95.75C490.927 97.687 492.305 99.13 494.203 99.13C495.854 99.13 496.92 98.168 497.245 97.024ZM494.19 93.358C495.152 93.358 495.958 93.956 496.166 95.165H492.11C492.331 93.878 493.254 93.358 494.19 93.358ZM504.23 101.08C503.125 98.935 502.657 96.972 502.657 94.84C502.657 92.708 503.125 90.745 504.23 88.6H503.32C502.202 90.628 501.656 92.695 501.656 94.84C501.656 96.985 502.202 99.052 503.32 101.08H504.23ZM505.847 99H508.499C511.333 99 513.413 97.024 513.413 94.385C513.413 91.746 511.333 89.77 508.499 89.77H505.847V99ZM507.056 97.869V90.901H508.499C510.722 90.901 512.191 92.383 512.191 94.385C512.191 96.387 510.722 97.869 508.499 97.869H507.056ZM520.858 97.024H519.714C519.324 97.804 518.635 98.116 517.829 98.116C516.659 98.116 515.71 97.232 515.671 96.049H520.962C521.118 94.034 519.883 92.37 517.842 92.37C515.814 92.37 514.54 93.852 514.54 95.75C514.54 97.687 515.918 99.13 517.816 99.13C519.467 99.13 520.533 98.168 520.858 97.024ZM517.803 93.358C518.765 93.358 519.571 93.956 519.779 95.165H515.723C515.944 93.878 516.867 93.358 517.803 93.358ZM523.033 99H524.151V93.527H526.036V92.5H524.151V91.304C524.151 90.485 524.515 90.199 525.23 90.199C525.49 90.199 525.828 90.251 526.036 90.329V89.341C525.75 89.237 525.412 89.172 525.022 89.172C523.891 89.172 523.033 89.848 523.033 91.187V92.5H521.655V93.527H523.033V99ZM526.588 95.75C526.588 97.609 527.953 99.13 529.773 99.13C530.748 99.13 531.632 98.623 532.061 97.999V99H533.179V92.5H532.061V93.501C531.632 92.877 530.748 92.37 529.773 92.37C527.953 92.37 526.588 93.891 526.588 95.75ZM532.152 95.75C532.152 97.063 531.255 98.103 529.942 98.103C528.629 98.103 527.719 97.063 527.719 95.75C527.719 94.437 528.629 93.397 529.942 93.397C531.255 93.397 532.152 94.437 532.152 95.75ZM535.192 96.491C535.192 98.103 536.154 99.13 537.584 99.13C538.403 99.13 539.157 98.753 539.586 97.999V99H540.704V92.5H539.586V95.724C539.586 97.219 538.793 98.103 537.779 98.103C536.882 98.103 536.31 97.414 536.31 96.322V92.5H535.192V96.491ZM542.812 99H543.93V89.25H542.812V99ZM549.572 98.909V97.908C549.364 97.986 549.052 98.038 548.779 98.038C548.077 98.038 547.7 97.765 547.7 96.933V93.527H549.572V92.5H547.7V90.693H546.582V92.5H545.204V93.527H546.582V97.076C546.582 98.428 547.44 99.065 548.571 99.065C548.974 99.065 549.299 99 549.572 98.909ZM550.273 101.08H551.183C552.301 99.052 552.847 96.985 552.847 94.84C552.847 92.695 552.301 90.628 551.183 88.6H550.273C551.378 90.745 551.846 92.708 551.846 94.84C551.846 96.972 551.378 98.935 550.273 101.08ZM556.181 91.174C556.285 91.005 556.363 90.797 556.363 90.589C556.363 90.056 555.934 89.614 555.401 89.614C554.855 89.614 554.426 90.056 554.426 90.589C554.426 90.966 554.66 91.304 554.959 91.46L554.088 93.319H554.842L556.181 91.174ZM558.599 91.174C558.703 91.005 558.781 90.797 558.781 90.589C558.781 90.056 558.352 89.614 557.819 89.614C557.273 89.614 556.844 90.056 556.844 90.589C556.844 90.966 557.078 91.304 557.377 91.46L556.506 93.319H557.26L558.599 91.174ZM55.215 116.712H54.019C53.733 117.531 52.953 118.103 51.939 118.103C50.587 118.103 49.677 117.063 49.677 115.75C49.677 114.437 50.587 113.397 51.939 113.397C52.953 113.397 53.733 113.969 54.019 114.788H55.215C54.851 113.384 53.577 112.37 51.939 112.37C49.963 112.37 48.546 113.891 48.546 115.75C48.546 117.609 49.963 119.13 51.939 119.13C53.577 119.13 54.851 118.116 55.215 116.712ZM62.9746 115.75C62.9746 113.878 61.5316 112.37 59.5816 112.37C57.6186 112.37 56.1756 113.878 56.1756 115.75C56.1756 117.622 57.6186 119.13 59.5816 119.13C61.5316 119.13 62.9746 117.622 62.9746 115.75ZM57.3196 115.75C57.3196 114.45 58.2296 113.41 59.5816 113.41C60.9336 113.41 61.8306 114.45 61.8306 115.75C61.8306 117.05 60.9336 118.09 59.5816 118.09C58.2296 118.09 57.3196 117.05 57.3196 115.75ZM64.5794 119H65.6974V115.776C65.6974 114.307 66.4384 113.397 67.4914 113.397C68.3364 113.397 68.7654 114.125 68.7654 115.178V119H69.8834V115.776C69.8834 114.307 70.6114 113.397 71.6644 113.397C72.5094 113.397 72.9514 114.125 72.9514 115.178V119H74.0694V115.009C74.0694 113.423 73.2114 112.37 71.7944 112.37C70.8324 112.37 70.0134 112.903 69.6624 113.761C69.3374 112.903 68.6354 112.37 67.6604 112.37C66.7894 112.37 66.0744 112.812 65.6974 113.501V112.5H64.5794V119ZM76.0813 121.717H77.1993V117.999C77.6283 118.623 78.5123 119.13 79.4873 119.13C81.2943 119.13 82.6723 117.609 82.6723 115.75C82.6723 113.891 81.2943 112.37 79.4873 112.37C78.5123 112.37 77.6283 112.877 77.1993 113.501V112.5H76.0813V121.717ZM81.5283 115.75C81.5283 117.063 80.6313 118.103 79.3183 118.103C78.0053 118.103 77.1083 117.063 77.1083 115.75C77.1083 114.437 78.0053 113.397 79.3183 113.397C80.6313 113.397 81.5283 114.437 81.5283 115.75ZM90.5615 115.75C90.5615 113.878 89.1185 112.37 87.1685 112.37C85.2055 112.37 83.7625 113.878 83.7625 115.75C83.7625 117.622 85.2055 119.13 87.1685 119.13C89.1185 119.13 90.5615 117.622 90.5615 115.75ZM84.9065 115.75C84.9065 114.45 85.8165 113.41 87.1685 113.41C88.5205 113.41 89.4175 114.45 89.4175 115.75C89.4175 117.05 88.5205 118.09 87.1685 118.09C85.8165 118.09 84.9065 117.05 84.9065 115.75ZM92.1663 119H93.2843V115.776C93.2843 114.255 94.1163 113.397 95.1693 113.397C96.0793 113.397 96.7033 114.073 96.7033 115.165V119H97.8083V114.996C97.8083 113.384 96.8073 112.37 95.3513 112.37C94.5063 112.37 93.7263 112.734 93.2843 113.501V112.5H92.1663V119ZM105.633 117.024H104.489C104.099 117.804 103.41 118.116 102.604 118.116C101.434 118.116 100.485 117.232 100.446 116.049H105.737C105.893 114.034 104.658 112.37 102.617 112.37C100.589 112.37 99.3146 113.852 99.3146 115.75C99.3146 117.687 100.693 119.13 102.591 119.13C104.242 119.13 105.308 118.168 105.633 117.024ZM102.578 113.358C103.54 113.358 104.346 113.956 104.554 115.165H100.498C100.719 113.878 101.642 113.358 102.578 113.358ZM107.35 119H108.468V115.776C108.468 114.255 109.3 113.397 110.353 113.397C111.263 113.397 111.887 114.073 111.887 115.165V119H112.992V114.996C112.992 113.384 111.991 112.37 110.535 112.37C109.69 112.37 108.91 112.734 108.468 113.501V112.5H107.35V119ZM118.452 118.909V117.908C118.244 117.986 117.932 118.038 117.659 118.038C116.957 118.038 116.58 117.765 116.58 116.933V113.527H118.452V112.5H116.58V110.693H115.462V112.5H114.084V113.527H115.462V117.076C115.462 118.428 116.32 119.065 117.451 119.065C117.854 119.065 118.179 119 118.452 118.909ZM124.368 109.965C124.368 109.536 124.03 109.172 123.588 109.172C123.146 109.172 122.782 109.536 122.782 109.965C122.782 110.407 123.146 110.758 123.588 110.758C124.03 110.758 124.368 110.407 124.368 109.965ZM123.016 119H124.134V112.5H123.016V119ZM126.253 119H127.371V115.776C127.371 114.255 128.203 113.397 129.256 113.397C130.166 113.397 130.79 114.073 130.79 115.165V119H131.895V114.996C131.895 113.384 130.894 112.37 129.438 112.37C128.593 112.37 127.813 112.734 127.371 113.501V112.5H126.253V119ZM143.323 115.75C143.323 113.878 141.88 112.37 139.93 112.37C137.967 112.37 136.524 113.878 136.524 115.75C136.524 117.622 137.967 119.13 139.93 119.13C141.88 119.13 143.323 117.622 143.323 115.75ZM137.668 115.75C137.668 114.45 138.578 113.41 139.93 113.41C141.282 113.41 142.179 114.45 142.179 115.75C142.179 117.05 141.282 118.09 139.93 118.09C138.578 118.09 137.668 117.05 137.668 115.75ZM144.837 116.491C144.837 118.103 145.799 119.13 147.229 119.13C148.048 119.13 148.802 118.753 149.231 117.999V119H150.349V112.5H149.231V115.724C149.231 117.219 148.438 118.103 147.424 118.103C146.527 118.103 145.955 117.414 145.955 116.322V112.5H144.837V116.491ZM152.456 119H153.574V115.776C153.574 114.255 154.471 113.54 155.29 113.54C155.511 113.54 155.693 113.566 155.901 113.644V112.487C155.719 112.448 155.563 112.435 155.394 112.435C154.64 112.435 153.834 112.929 153.574 113.761V112.5H152.456V119ZM160.023 119H161.141V109.25H160.023V119ZM164.612 109.965C164.612 109.536 164.274 109.172 163.832 109.172C163.39 109.172 163.026 109.536 163.026 109.965C163.026 110.407 163.39 110.758 163.832 110.758C164.274 110.758 164.612 110.407 164.612 109.965ZM163.26 119H164.378V112.5H163.26V119ZM167.615 117.999C168.044 118.623 168.928 119.13 169.903 119.13C171.71 119.13 173.088 117.609 173.088 115.75C173.088 113.891 171.71 112.37 169.903 112.37C168.928 112.37 168.044 112.877 167.615 113.501V109.25H166.497V119H167.615V117.999ZM171.944 115.75C171.944 117.063 171.047 118.103 169.734 118.103C168.421 118.103 167.524 117.063 167.524 115.75C167.524 114.437 168.421 113.397 169.734 113.397C171.047 113.397 171.944 114.437 171.944 115.75ZM174.686 119H175.804V115.776C175.804 114.255 176.701 113.54 177.52 113.54C177.741 113.54 177.923 113.566 178.131 113.644V112.487C177.949 112.448 177.793 112.435 177.624 112.435C176.87 112.435 176.064 112.929 175.804 113.761V112.5H174.686V119ZM178.724 115.75C178.724 117.609 180.089 119.13 181.909 119.13C182.884 119.13 183.768 118.623 184.197 117.999V119H185.315V112.5H184.197V113.501C183.768 112.877 182.884 112.37 181.909 112.37C180.089 112.37 178.724 113.891 178.724 115.75ZM184.288 115.75C184.288 117.063 183.391 118.103 182.078 118.103C180.765 118.103 179.855 117.063 179.855 115.75C179.855 114.437 180.765 113.397 182.078 113.397C183.391 113.397 184.288 114.437 184.288 115.75ZM187.419 119H188.537V115.776C188.537 114.255 189.434 113.54 190.253 113.54C190.474 113.54 190.656 113.566 190.864 113.644V112.487C190.682 112.448 190.526 112.435 190.357 112.435C189.603 112.435 188.797 112.929 188.537 113.761V112.5H187.419V119ZM193.909 121.717L198.173 112.5H196.925L194.702 117.427L192.466 112.5H191.231L194.078 118.662L192.661 121.717H193.909ZM203.485 109.965C203.485 109.536 203.147 109.172 202.705 109.172C202.263 109.172 201.899 109.536 201.899 109.965C201.899 110.407 202.263 110.758 202.705 110.758C203.147 110.758 203.485 110.407 203.485 109.965ZM202.133 119H203.251V112.5H202.133V119ZM205.916 119H207.034V113.527H208.919V112.5H207.034V111.304C207.034 110.485 207.398 110.199 208.113 110.199C208.373 110.199 208.711 110.251 208.919 110.329V109.341C208.633 109.237 208.295 109.172 207.905 109.172C206.774 109.172 205.916 109.848 205.916 111.187V112.5H204.538V113.527H205.916V119ZM214.361 121.717L218.625 112.5H217.377L215.154 117.427L212.918 112.5H211.683L214.53 118.662L213.113 121.717H214.361ZM225.881 115.75C225.881 113.878 224.438 112.37 222.488 112.37C220.525 112.37 219.082 113.878 219.082 115.75C219.082 117.622 220.525 119.13 222.488 119.13C224.438 119.13 225.881 117.622 225.881 115.75ZM220.226 115.75C220.226 114.45 221.136 113.41 222.488 113.41C223.84 113.41 224.737 114.45 224.737 115.75C224.737 117.05 223.84 118.09 222.488 118.09C221.136 118.09 220.226 117.05 220.226 115.75ZM227.395 116.491C227.395 118.103 228.357 119.13 229.787 119.13C230.606 119.13 231.36 118.753 231.789 117.999V119H232.907V112.5H231.789V115.724C231.789 117.219 230.996 118.103 229.982 118.103C229.085 118.103 228.513 117.414 228.513 116.322V112.5H227.395V116.491ZM243.433 119H244.421L246.631 112.5H245.448L243.875 117.245L242.25 112.5H241.392L239.767 117.245L238.194 112.5H237.024L239.234 119H240.222L241.834 114.32L243.433 119ZM247.304 115.75C247.304 117.609 248.669 119.13 250.489 119.13C251.464 119.13 252.348 118.623 252.777 117.999V119H253.895V112.5H252.777V113.501C252.348 112.877 251.464 112.37 250.489 112.37C248.669 112.37 247.304 113.891 247.304 115.75ZM252.868 115.75C252.868 117.063 251.971 118.103 250.658 118.103C249.345 118.103 248.435 117.063 248.435 115.75C248.435 114.437 249.345 113.397 250.658 113.397C251.971 113.397 252.868 114.437 252.868 115.75ZM255.999 119H257.117V115.776C257.117 114.255 257.949 113.397 259.002 113.397C259.912 113.397 260.536 114.073 260.536 115.165V119H261.641V114.996C261.641 113.384 260.64 112.37 259.184 112.37C258.339 112.37 257.559 112.734 257.117 113.501V112.5H255.999V119ZM267.101 118.909V117.908C266.893 117.986 266.581 118.038 266.308 118.038C265.606 118.038 265.229 117.765 265.229 116.933V113.527H267.101V112.5H265.229V110.693H264.111V112.5H262.733V113.527H264.111V117.076C264.111 118.428 264.969 119.065 266.1 119.065C266.503 119.065 266.828 119 267.101 118.909ZM274.972 118.909V117.908C274.764 117.986 274.452 118.038 274.179 118.038C273.477 118.038 273.1 117.765 273.1 116.933V113.527H274.972V112.5H273.1V110.693H271.982V112.5H270.604V113.527H271.982V117.076C271.982 118.428 272.84 119.065 273.971 119.065C274.374 119.065 274.699 119 274.972 118.909ZM282.591 115.75C282.591 113.878 281.148 112.37 279.198 112.37C277.235 112.37 275.792 113.878 275.792 115.75C275.792 117.622 277.235 119.13 279.198 119.13C281.148 119.13 282.591 117.622 282.591 115.75ZM276.936 115.75C276.936 114.45 277.846 113.41 279.198 113.41C280.55 113.41 281.447 114.45 281.447 115.75C281.447 117.05 280.55 118.09 279.198 118.09C277.846 118.09 276.936 117.05 276.936 115.75ZM286.824 115.75C286.824 117.609 288.189 119.13 290.009 119.13C290.984 119.13 291.868 118.623 292.297 117.999V119H293.415V112.5H292.297V113.501C291.868 112.877 290.984 112.37 290.009 112.37C288.189 112.37 286.824 113.891 286.824 115.75ZM292.388 115.75C292.388 117.063 291.491 118.103 290.178 118.103C288.865 118.103 287.955 117.063 287.955 115.75C287.955 114.437 288.865 113.397 290.178 113.397C291.491 113.397 292.388 114.437 292.388 115.75ZM295.013 115.75C295.013 117.609 296.378 119.13 298.198 119.13C299.173 119.13 300.057 118.623 300.486 117.999V119H301.604V109.25H300.486V113.501C300.057 112.877 299.173 112.37 298.198 112.37C296.378 112.37 295.013 113.891 295.013 115.75ZM300.577 115.75C300.577 117.063 299.68 118.103 298.367 118.103C297.054 118.103 296.144 117.063 296.144 115.75C296.144 114.437 297.054 113.397 298.367 113.397C299.68 113.397 300.577 114.437 300.577 115.75ZM303.201 115.75C303.201 117.609 304.566 119.13 306.386 119.13C307.361 119.13 308.245 118.623 308.674 117.999V119H309.792V109.25H308.674V113.501C308.245 112.877 307.361 112.37 306.386 112.37C304.566 112.37 303.201 113.891 303.201 115.75ZM308.765 115.75C308.765 117.063 307.868 118.103 306.555 118.103C305.242 118.103 304.332 117.063 304.332 115.75C304.332 114.437 305.242 113.397 306.555 113.397C307.868 113.397 308.765 114.437 308.765 115.75ZM315.413 119H316.531V113.527H318.416V112.5H316.531V111.304C316.531 110.485 316.895 110.199 317.61 110.199C317.87 110.199 318.208 110.251 318.416 110.329V109.341C318.13 109.237 317.792 109.172 317.402 109.172C316.271 109.172 315.413 109.848 315.413 111.187V112.5H314.035V113.527H315.413V119ZM325.755 115.75C325.755 113.878 324.312 112.37 322.362 112.37C320.399 112.37 318.956 113.878 318.956 115.75C318.956 117.622 320.399 119.13 322.362 119.13C324.312 119.13 325.755 117.622 325.755 115.75ZM320.1 115.75C320.1 114.45 321.01 113.41 322.362 113.41C323.714 113.41 324.611 114.45 324.611 115.75C324.611 117.05 323.714 118.09 322.362 118.09C321.01 118.09 320.1 117.05 320.1 115.75ZM327.36 119H328.478V115.776C328.478 114.255 329.375 113.54 330.194 113.54C330.415 113.54 330.597 113.566 330.805 113.644V112.487C330.623 112.448 330.467 112.435 330.298 112.435C329.544 112.435 328.738 112.929 328.478 113.761V112.5H327.36V119ZM332.12 119H333.238V115.776C333.238 114.307 333.979 113.397 335.032 113.397C335.877 113.397 336.306 114.125 336.306 115.178V119H337.424V115.776C337.424 114.307 338.152 113.397 339.205 113.397C340.05 113.397 340.492 114.125 340.492 115.178V119H341.61V115.009C341.61 113.423 340.752 112.37 339.335 112.37C338.373 112.37 337.554 112.903 337.203 113.761C336.878 112.903 336.176 112.37 335.201 112.37C334.33 112.37 333.615 112.812 333.238 113.501V112.5H332.12V119ZM352.569 117.024H351.425C351.035 117.804 350.346 118.116 349.54 118.116C348.37 118.116 347.421 117.232 347.382 116.049H352.673C352.829 114.034 351.594 112.37 349.553 112.37C347.525 112.37 346.251 113.852 346.251 115.75C346.251 117.687 347.629 119.13 349.527 119.13C351.178 119.13 352.244 118.168 352.569 117.024ZM349.514 113.358C350.476 113.358 351.282 113.956 351.49 115.165H347.434C347.655 113.878 348.578 113.358 349.514 113.358ZM354.286 119H355.404V109.25H354.286V119ZM363.335 117.024H362.191C361.801 117.804 361.112 118.116 360.306 118.116C359.136 118.116 358.187 117.232 358.148 116.049H363.439C363.595 114.034 362.36 112.37 360.319 112.37C358.291 112.37 357.017 113.852 357.017 115.75C357.017 117.687 358.395 119.13 360.293 119.13C361.944 119.13 363.01 118.168 363.335 117.024ZM360.28 113.358C361.242 113.358 362.048 113.956 362.256 115.165H358.2C358.421 113.878 359.344 113.358 360.28 113.358ZM365.052 119H366.17V115.776C366.17 114.307 366.911 113.397 367.964 113.397C368.809 113.397 369.238 114.125 369.238 115.178V119H370.356V115.776C370.356 114.307 371.084 113.397 372.137 113.397C372.982 113.397 373.424 114.125 373.424 115.178V119H374.542V115.009C374.542 113.423 373.684 112.37 372.267 112.37C371.305 112.37 370.486 112.903 370.135 113.761C369.81 112.903 369.108 112.37 368.133 112.37C367.262 112.37 366.547 112.812 366.17 113.501V112.5H365.052V119ZM382.365 117.024H381.221C380.831 117.804 380.142 118.116 379.336 118.116C378.166 118.116 377.217 117.232 377.178 116.049H382.469C382.625 114.034 381.39 112.37 379.349 112.37C377.321 112.37 376.047 113.852 376.047 115.75C376.047 117.687 377.425 119.13 379.323 119.13C380.974 119.13 382.04 118.168 382.365 117.024ZM379.31 113.358C380.272 113.358 381.078 113.956 381.286 115.165H377.23C377.451 113.878 378.374 113.358 379.31 113.358ZM384.082 119H385.2V115.776C385.2 114.255 386.032 113.397 387.085 113.397C387.995 113.397 388.619 114.073 388.619 115.165V119H389.724V114.996C389.724 113.384 388.723 112.37 387.267 112.37C386.422 112.37 385.642 112.734 385.2 113.501V112.5H384.082V119ZM395.184 118.909V117.908C394.976 117.986 394.664 118.038 394.391 118.038C393.689 118.038 393.312 117.765 393.312 116.933V113.527H395.184V112.5H393.312V110.693H392.194V112.5H390.816V113.527H392.194V117.076C392.194 118.428 393.052 119.065 394.183 119.065C394.586 119.065 394.911 119 395.184 118.909ZM401.098 117.245C401.098 116.27 400.513 115.594 399.434 115.321L398.394 115.048C397.705 114.866 397.406 114.593 397.406 114.112C397.406 113.618 397.9 113.306 398.524 113.306C399.135 113.306 399.603 113.657 399.772 114.229H400.89C400.773 113.189 399.915 112.37 398.524 112.37C397.211 112.37 396.275 113.046 396.275 114.125C396.275 115.048 396.834 115.75 397.952 116.036L398.888 116.283C399.655 116.491 399.967 116.803 399.967 117.323C399.967 117.895 399.421 118.181 398.719 118.181C398.043 118.181 397.367 117.908 397.211 117.115H396.067C396.158 118.428 397.315 119.13 398.706 119.13C400.058 119.13 401.098 118.532 401.098 117.245ZM412.096 115.75C412.096 113.878 410.653 112.37 408.703 112.37C406.74 112.37 405.297 113.878 405.297 115.75C405.297 117.622 406.74 119.13 408.703 119.13C410.653 119.13 412.096 117.622 412.096 115.75ZM406.441 115.75C406.441 114.45 407.351 113.41 408.703 113.41C410.055 113.41 410.952 114.45 410.952 115.75C410.952 117.05 410.055 118.09 408.703 118.09C407.351 118.09 406.441 117.05 406.441 115.75ZM413.7 119H414.818V115.776C414.818 114.255 415.715 113.54 416.534 113.54C416.755 113.54 416.937 113.566 417.145 113.644V112.487C416.963 112.448 416.807 112.435 416.638 112.435C415.884 112.435 415.078 112.929 414.818 113.761V112.5H413.7V119ZM427.546 115.75C427.546 113.878 426.103 112.37 424.153 112.37C422.19 112.37 420.747 113.878 420.747 115.75C420.747 117.622 422.19 119.13 424.153 119.13C426.103 119.13 427.546 117.622 427.546 115.75ZM421.891 115.75C421.891 114.45 422.801 113.41 424.153 113.41C425.505 113.41 426.402 114.45 426.402 115.75C426.402 117.05 425.505 118.09 424.153 118.09C422.801 118.09 421.891 117.05 421.891 115.75ZM432.559 118.909V117.908C432.351 117.986 432.039 118.038 431.766 118.038C431.064 118.038 430.687 117.765 430.687 116.933V113.527H432.559V112.5H430.687V110.693H429.569V112.5H428.191V113.527H429.569V117.076C429.569 118.428 430.427 119.065 431.558 119.065C431.961 119.065 432.286 119 432.559 118.909ZM433.988 119H435.106V115.776C435.106 114.255 435.938 113.397 436.991 113.397C437.901 113.397 438.525 114.073 438.525 115.165V119H439.63V114.996C439.63 113.384 438.629 112.37 437.173 112.37C436.328 112.37 435.548 112.734 435.106 113.501V109.25H433.988V119ZM447.454 117.024H446.31C445.92 117.804 445.231 118.116 444.425 118.116C443.255 118.116 442.306 117.232 442.267 116.049H447.558C447.714 114.034 446.479 112.37 444.438 112.37C442.41 112.37 441.136 113.852 441.136 115.75C441.136 117.687 442.514 119.13 444.412 119.13C446.063 119.13 447.129 118.168 447.454 117.024ZM444.399 113.358C445.361 113.358 446.167 113.956 446.375 115.165H442.319C442.54 113.878 443.463 113.358 444.399 113.358ZM449.171 119H450.289V115.776C450.289 114.255 451.186 113.54 452.005 113.54C452.226 113.54 452.408 113.566 452.616 113.644V112.487C452.434 112.448 452.278 112.435 452.109 112.435C451.355 112.435 450.549 112.929 450.289 113.761V112.5H449.171V119ZM462.9 116.712H461.704C461.418 117.531 460.638 118.103 459.624 118.103C458.272 118.103 457.362 117.063 457.362 115.75C457.362 114.437 458.272 113.397 459.624 113.397C460.638 113.397 461.418 113.969 461.704 114.788H462.9C462.536 113.384 461.262 112.37 459.624 112.37C457.648 112.37 456.231 113.891 456.231 115.75C456.231 117.609 457.648 119.13 459.624 119.13C461.262 119.13 462.536 118.116 462.9 116.712ZM470.659 115.75C470.659 113.878 469.216 112.37 467.266 112.37C465.303 112.37 463.86 113.878 463.86 115.75C463.86 117.622 465.303 119.13 467.266 119.13C469.216 119.13 470.659 117.622 470.659 115.75ZM465.004 115.75C465.004 114.45 465.914 113.41 467.266 113.41C468.618 113.41 469.515 114.45 469.515 115.75C469.515 117.05 468.618 118.09 467.266 118.09C465.914 118.09 465.004 117.05 465.004 115.75ZM472.264 119H473.382V115.776C473.382 114.307 474.123 113.397 475.176 113.397C476.021 113.397 476.45 114.125 476.45 115.178V119H477.568V115.776C477.568 114.307 478.296 113.397 479.349 113.397C480.194 113.397 480.636 114.125 480.636 115.178V119H481.754V115.009C481.754 113.423 480.896 112.37 479.479 112.37C478.517 112.37 477.698 112.903 477.347 113.761C477.022 112.903 476.32 112.37 475.345 112.37C474.474 112.37 473.759 112.812 473.382 113.501V112.5H472.264V119ZM483.766 121.717H484.884V117.999C485.313 118.623 486.197 119.13 487.172 119.13C488.979 119.13 490.357 117.609 490.357 115.75C490.357 113.891 488.979 112.37 487.172 112.37C486.197 112.37 485.313 112.877 484.884 113.501V112.5H483.766V121.717ZM489.213 115.75C489.213 117.063 488.316 118.103 487.003 118.103C485.69 118.103 484.793 117.063 484.793 115.75C484.793 114.437 485.69 113.397 487.003 113.397C488.316 113.397 489.213 114.437 489.213 115.75ZM498.246 115.75C498.246 113.878 496.803 112.37 494.853 112.37C492.89 112.37 491.447 113.878 491.447 115.75C491.447 117.622 492.89 119.13 494.853 119.13C496.803 119.13 498.246 117.622 498.246 115.75ZM492.591 115.75C492.591 114.45 493.501 113.41 494.853 113.41C496.205 113.41 497.102 114.45 497.102 115.75C497.102 117.05 496.205 118.09 494.853 118.09C493.501 118.09 492.591 117.05 492.591 115.75ZM499.851 119H500.969V115.776C500.969 114.255 501.801 113.397 502.854 113.397C503.764 113.397 504.388 114.073 504.388 115.165V119H505.493V114.996C505.493 113.384 504.492 112.37 503.036 112.37C502.191 112.37 501.411 112.734 500.969 113.501V112.5H499.851V119ZM513.317 117.024H512.173C511.783 117.804 511.094 118.116 510.288 118.116C509.118 118.116 508.169 117.232 508.13 116.049H513.421C513.577 114.034 512.342 112.37 510.301 112.37C508.273 112.37 506.999 113.852 506.999 115.75C506.999 117.687 508.377 119.13 510.275 119.13C511.926 119.13 512.992 118.168 513.317 117.024ZM510.262 113.358C511.224 113.358 512.03 113.956 512.238 115.165H508.182C508.403 113.878 509.326 113.358 510.262 113.358ZM515.034 119H516.152V115.776C516.152 114.255 516.984 113.397 518.037 113.397C518.947 113.397 519.571 114.073 519.571 115.165V119H520.676V114.996C520.676 113.384 519.675 112.37 518.219 112.37C517.374 112.37 516.594 112.734 516.152 113.501V112.5H515.034V119ZM526.137 118.909V117.908C525.929 117.986 525.617 118.038 525.344 118.038C524.642 118.038 524.265 117.765 524.265 116.933V113.527H526.137V112.5H524.265V110.693H523.147V112.5H521.769V113.527H523.147V117.076C523.147 118.428 524.005 119.065 525.136 119.065C525.539 119.065 525.864 119 526.137 118.909ZM532.05 117.245C532.05 116.27 531.465 115.594 530.386 115.321L529.346 115.048C528.657 114.866 528.358 114.593 528.358 114.112C528.358 113.618 528.852 113.306 529.476 113.306C530.087 113.306 530.555 113.657 530.724 114.229H531.842C531.725 113.189 530.867 112.37 529.476 112.37C528.163 112.37 527.227 113.046 527.227 114.125C527.227 115.048 527.786 115.75 528.904 116.036L529.84 116.283C530.607 116.491 530.919 116.803 530.919 117.323C530.919 117.895 530.373 118.181 529.671 118.181C528.995 118.181 528.319 117.908 528.163 117.115H527.019C527.11 118.428 528.267 119.13 529.658 119.13C531.01 119.13 532.05 118.532 532.05 117.245ZM542.052 119H543.04L545.25 112.5H544.067L542.494 117.245L540.869 112.5H540.011L538.386 117.245L536.813 112.5H535.643L537.853 119H538.841L540.453 114.32L542.052 119ZM547.807 109.965C547.807 109.536 547.469 109.172 547.027 109.172C546.585 109.172 546.221 109.536 546.221 109.965C546.221 110.407 546.585 110.758 547.027 110.758C547.469 110.758 547.807 110.407 547.807 109.965ZM546.455 119H547.573V112.5H546.455V119ZM553.216 118.909V117.908C553.008 117.986 552.696 118.038 552.423 118.038C551.721 118.038 551.344 117.765 551.344 116.933V113.527H553.216V112.5H551.344V110.693H550.226V112.5H548.848V113.527H550.226V117.076C550.226 118.428 551.084 119.065 552.215 119.065C552.618 119.065 552.943 119 553.216 118.909ZM554.644 119H555.762V115.776C555.762 114.255 556.594 113.397 557.647 113.397C558.557 113.397 559.181 114.073 559.181 115.165V119H560.286V114.996C560.286 113.384 559.285 112.37 557.829 112.37C556.984 112.37 556.204 112.734 555.762 113.501V109.25H554.644V119ZM563.651 109.965C563.651 109.536 563.313 109.172 562.871 109.172C562.429 109.172 562.065 109.536 562.065 109.965C562.065 110.407 562.429 110.758 562.871 110.758C563.313 110.758 563.651 110.407 563.651 109.965ZM562.299 119H563.417V112.5H562.299V119ZM565.536 119H566.654V115.776C566.654 114.255 567.486 113.397 568.539 113.397C569.449 113.397 570.073 114.073 570.073 115.165V119H571.178V114.996C571.178 113.384 570.177 112.37 568.721 112.37C567.876 112.37 567.096 112.734 566.654 113.501V112.5H565.536V119ZM48.546 135.75C48.546 137.609 49.911 139.13 51.731 139.13C52.706 139.13 53.59 138.623 54.019 137.999V139H55.137V132.5H54.019V133.501C53.59 132.877 52.706 132.37 51.731 132.37C49.911 132.37 48.546 133.891 48.546 135.75ZM54.11 135.75C54.11 137.063 53.213 138.103 51.9 138.103C50.587 138.103 49.677 137.063 49.677 135.75C49.677 134.437 50.587 133.397 51.9 133.397C53.213 133.397 54.11 134.437 54.11 135.75ZM60.3772 139H61.4952V135.776C61.4952 134.307 62.2362 133.397 63.2892 133.397C64.1342 133.397 64.5632 134.125 64.5632 135.178V139H65.6812V135.776C65.6812 134.307 66.4092 133.397 67.4622 133.397C68.3072 133.397 68.7492 134.125 68.7492 135.178V139H69.8672V135.009C69.8672 133.423 69.0092 132.37 67.5922 132.37C66.6302 132.37 65.8112 132.903 65.4602 133.761C65.1352 132.903 64.4332 132.37 63.4582 132.37C62.5872 132.37 61.8722 132.812 61.4952 133.501V132.5H60.3772V139ZM78.1582 135.75C78.1582 133.878 76.7152 132.37 74.7652 132.37C72.8022 132.37 71.3592 133.878 71.3592 135.75C71.3592 137.622 72.8022 139.13 74.7652 139.13C76.7152 139.13 78.1582 137.622 78.1582 135.75ZM72.5032 135.75C72.5032 134.45 73.4132 133.41 74.7652 133.41C76.1172 133.41 77.0142 134.45 77.0142 135.75C77.0142 137.05 76.1172 138.09 74.7652 138.09C73.4132 138.09 72.5032 137.05 72.5032 135.75ZM79.256 135.75C79.256 137.609 80.621 139.13 82.441 139.13C83.416 139.13 84.3 138.623 84.729 137.999V139H85.847V129.25H84.729V133.501C84.3 132.877 83.416 132.37 82.441 132.37C80.621 132.37 79.256 133.891 79.256 135.75ZM84.82 135.75C84.82 137.063 83.923 138.103 82.61 138.103C81.297 138.103 80.387 137.063 80.387 135.75C80.387 134.437 81.297 133.397 82.61 133.397C83.923 133.397 84.82 134.437 84.82 135.75ZM87.4444 135.75C87.4444 137.609 88.8094 139.13 90.6294 139.13C91.6044 139.13 92.4884 138.623 92.9174 137.999V139H94.0354V132.5H92.9174V133.501C92.4884 132.877 91.6044 132.37 90.6294 132.37C88.8094 132.37 87.4444 133.891 87.4444 135.75ZM93.0084 135.75C93.0084 137.063 92.1114 138.103 90.7984 138.103C89.4854 138.103 88.5754 137.063 88.5754 135.75C88.5754 134.437 89.4854 133.397 90.7984 133.397C92.1114 133.397 93.0084 134.437 93.0084 135.75ZM96.1399 139H97.2579V129.25H96.1399V139ZM100.924 138.129C100.924 137.609 100.495 137.154 99.9622 137.154C99.4292 137.154 99.0002 137.609 99.0002 138.129C99.0002 138.662 99.4292 139.104 99.9622 139.104C100.495 139.104 100.924 138.662 100.924 138.129ZM107.398 139H108.581V130.914H111.454V129.77H104.525V130.914H107.398V139ZM112.644 139H113.762V135.776C113.762 134.255 114.594 133.397 115.647 133.397C116.557 133.397 117.181 134.073 117.181 135.165V139H118.286V134.996C118.286 133.384 117.285 132.37 115.829 132.37C114.984 132.37 114.204 132.734 113.762 133.501V129.25H112.644V139ZM121.651 129.965C121.651 129.536 121.313 129.172 120.871 129.172C120.429 129.172 120.065 129.536 120.065 129.965C120.065 130.407 120.429 130.758 120.871 130.758C121.313 130.758 121.651 130.407 121.651 129.965ZM120.299 139H121.417V132.5H120.299V139ZM128.021 137.245C128.021 136.27 127.436 135.594 126.357 135.321L125.317 135.048C124.628 134.866 124.329 134.593 124.329 134.112C124.329 133.618 124.823 133.306 125.447 133.306C126.058 133.306 126.526 133.657 126.695 134.229H127.813C127.696 133.189 126.838 132.37 125.447 132.37C124.134 132.37 123.198 133.046 123.198 134.125C123.198 135.048 123.757 135.75 124.875 136.036L125.811 136.283C126.578 136.491 126.89 136.803 126.89 137.323C126.89 137.895 126.344 138.181 125.642 138.181C124.966 138.181 124.29 137.908 124.134 137.115H122.99C123.081 138.428 124.238 139.13 125.629 139.13C126.981 139.13 128.021 138.532 128.021 137.245ZM132.741 139H133.859V135.776C133.859 134.307 134.6 133.397 135.653 133.397C136.498 133.397 136.927 134.125 136.927 135.178V139H138.045V135.776C138.045 134.307 138.773 133.397 139.826 133.397C140.671 133.397 141.113 134.125 141.113 135.178V139H142.231V135.009C142.231 133.423 141.373 132.37 139.956 132.37C138.994 132.37 138.175 132.903 137.824 133.761C137.499 132.903 136.797 132.37 135.822 132.37C134.951 132.37 134.236 132.812 133.859 133.501V132.5H132.741V139ZM150.521 135.75C150.521 133.878 149.078 132.37 147.128 132.37C145.165 132.37 143.722 133.878 143.722 135.75C143.722 137.622 145.165 139.13 147.128 139.13C149.078 139.13 150.521 137.622 150.521 135.75ZM144.866 135.75C144.866 134.45 145.776 133.41 147.128 133.41C148.48 133.41 149.377 134.45 149.377 135.75C149.377 137.05 148.48 138.09 147.128 138.09C145.776 138.09 144.866 137.05 144.866 135.75ZM151.619 135.75C151.619 137.609 152.984 139.13 154.804 139.13C155.779 139.13 156.663 138.623 157.092 137.999V139H158.21V129.25H157.092V133.501C156.663 132.877 155.779 132.37 154.804 132.37C152.984 132.37 151.619 133.891 151.619 135.75ZM157.183 135.75C157.183 137.063 156.286 138.103 154.973 138.103C153.66 138.103 152.75 137.063 152.75 135.75C152.75 134.437 153.66 133.397 154.973 133.397C156.286 133.397 157.183 134.437 157.183 135.75ZM159.808 135.75C159.808 137.609 161.173 139.13 162.993 139.13C163.968 139.13 164.852 138.623 165.281 137.999V139H166.399V132.5H165.281V133.501C164.852 132.877 163.968 132.37 162.993 132.37C161.173 132.37 159.808 133.891 159.808 135.75ZM165.372 135.75C165.372 137.063 164.475 138.103 163.162 138.103C161.849 138.103 160.939 137.063 160.939 135.75C160.939 134.437 161.849 133.397 163.162 133.397C164.475 133.397 165.372 134.437 165.372 135.75ZM168.503 139H169.621V129.25H168.503V139ZM176.228 129.965C176.228 129.536 175.89 129.172 175.448 129.172C175.006 129.172 174.642 129.536 174.642 129.965C174.642 130.407 175.006 130.758 175.448 130.758C175.89 130.758 176.228 130.407 176.228 129.965ZM174.876 139H175.994V132.5H174.876V139ZM182.599 137.245C182.599 136.27 182.014 135.594 180.935 135.321L179.895 135.048C179.206 134.866 178.907 134.593 178.907 134.112C178.907 133.618 179.401 133.306 180.025 133.306C180.636 133.306 181.104 133.657 181.273 134.229H182.391C182.274 133.189 181.416 132.37 180.025 132.37C178.712 132.37 177.776 133.046 177.776 134.125C177.776 135.048 178.335 135.75 179.453 136.036L180.389 136.283C181.156 136.491 181.468 136.803 181.468 137.323C181.468 137.895 180.922 138.181 180.22 138.181C179.544 138.181 178.868 137.908 178.712 137.115H177.568C177.659 138.428 178.816 139.13 180.207 139.13C181.559 139.13 182.599 138.532 182.599 137.245ZM190.625 138.909V137.908C190.417 137.986 190.105 138.038 189.832 138.038C189.13 138.038 188.753 137.765 188.753 136.933V133.527H190.625V132.5H188.753V130.693H187.635V132.5H186.257V133.527H187.635V137.076C187.635 138.428 188.493 139.065 189.624 139.065C190.027 139.065 190.352 139 190.625 138.909ZM198.243 135.75C198.243 133.878 196.8 132.37 194.85 132.37C192.887 132.37 191.444 133.878 191.444 135.75C191.444 137.622 192.887 139.13 194.85 139.13C196.8 139.13 198.243 137.622 198.243 135.75ZM192.588 135.75C192.588 134.45 193.498 133.41 194.85 133.41C196.202 133.41 197.099 134.45 197.099 135.75C197.099 137.05 196.202 138.09 194.85 138.09C193.498 138.09 192.588 137.05 192.588 135.75ZM204.102 137.999C204.531 138.623 205.415 139.13 206.39 139.13C208.197 139.13 209.575 137.609 209.575 135.75C209.575 133.891 208.197 132.37 206.39 132.37C205.415 132.37 204.531 132.877 204.102 133.501V129.25H202.984V139H204.102V137.999ZM208.431 135.75C208.431 137.063 207.534 138.103 206.221 138.103C204.908 138.103 204.011 137.063 204.011 135.75C204.011 134.437 204.908 133.397 206.221 133.397C207.534 133.397 208.431 134.437 208.431 135.75ZM216.983 137.024H215.839C215.449 137.804 214.76 138.116 213.954 138.116C212.784 138.116 211.835 137.232 211.796 136.049H217.087C217.243 134.034 216.008 132.37 213.967 132.37C211.939 132.37 210.665 133.852 210.665 135.75C210.665 137.687 212.043 139.13 213.941 139.13C215.592 139.13 216.658 138.168 216.983 137.024ZM213.928 133.358C214.89 133.358 215.696 133.956 215.904 135.165H211.848C212.069 133.878 212.992 133.358 213.928 133.358ZM221.745 136.491C221.745 138.103 222.707 139.13 224.137 139.13C224.956 139.13 225.71 138.753 226.139 137.999V139H227.257V132.5H226.139V135.724C226.139 137.219 225.346 138.103 224.332 138.103C223.435 138.103 222.863 137.414 222.863 136.322V132.5H221.745V136.491ZM233.85 137.245C233.85 136.27 233.265 135.594 232.186 135.321L231.146 135.048C230.457 134.866 230.158 134.593 230.158 134.112C230.158 133.618 230.652 133.306 231.276 133.306C231.887 133.306 232.355 133.657 232.524 134.229H233.642C233.525 133.189 232.667 132.37 231.276 132.37C229.963 132.37 229.027 133.046 229.027 134.125C229.027 135.048 229.586 135.75 230.704 136.036L231.64 136.283C232.407 136.491 232.719 136.803 232.719 137.323C232.719 137.895 232.173 138.181 231.471 138.181C230.795 138.181 230.119 137.908 229.963 137.115H228.819C228.91 138.428 230.067 139.13 231.458 139.13C232.81 139.13 233.85 138.532 233.85 137.245ZM241.244 137.024H240.1C239.71 137.804 239.021 138.116 238.215 138.116C237.045 138.116 236.096 137.232 236.057 136.049H241.348C241.504 134.034 240.269 132.37 238.228 132.37C236.2 132.37 234.926 133.852 234.926 135.75C234.926 137.687 236.304 139.13 238.202 139.13C239.853 139.13 240.919 138.168 241.244 137.024ZM238.189 133.358C239.151 133.358 239.957 133.956 240.165 135.165H236.109C236.33 133.878 237.253 133.358 238.189 133.358ZM242.454 135.75C242.454 137.609 243.819 139.13 245.639 139.13C246.614 139.13 247.498 138.623 247.927 137.999V139H249.045V129.25H247.927V133.501C247.498 132.877 246.614 132.37 245.639 132.37C243.819 132.37 242.454 133.891 242.454 135.75ZM248.018 135.75C248.018 137.063 247.121 138.103 245.808 138.103C244.495 138.103 243.585 137.063 243.585 135.75C243.585 134.437 244.495 133.397 245.808 133.397C247.121 133.397 248.018 134.437 248.018 135.75ZM260.096 137.024H258.952C258.562 137.804 257.873 138.116 257.067 138.116C255.897 138.116 254.948 137.232 254.909 136.049H260.2C260.356 134.034 259.121 132.37 257.08 132.37C255.052 132.37 253.778 133.852 253.778 135.75C253.778 137.687 255.156 139.13 257.054 139.13C258.705 139.13 259.771 138.168 260.096 137.024ZM257.041 133.358C258.003 133.358 258.809 133.956 259.017 135.165H254.961C255.182 133.878 256.105 133.358 257.041 133.358ZM260.598 139H261.989L263.965 136.543L265.941 139H267.319L264.667 135.711L267.111 132.5H265.746L263.965 134.84L262.171 132.5H260.819L263.263 135.711L260.598 139ZM274.387 136.712H273.191C272.905 137.531 272.125 138.103 271.111 138.103C269.759 138.103 268.849 137.063 268.849 135.75C268.849 134.437 269.759 133.397 271.111 133.397C272.125 133.397 272.905 133.969 273.191 134.788H274.387C274.023 133.384 272.749 132.37 271.111 132.37C269.135 132.37 267.718 133.891 267.718 135.75C267.718 137.609 269.135 139.13 271.111 139.13C272.749 139.13 274.023 138.116 274.387 136.712ZM275.867 139H276.985V129.25H275.867V139ZM279.014 136.491C279.014 138.103 279.976 139.13 281.406 139.13C282.225 139.13 282.979 138.753 283.408 137.999V139H284.526V132.5H283.408V135.724C283.408 137.219 282.615 138.103 281.601 138.103C280.704 138.103 280.132 137.414 280.132 136.322V132.5H279.014V136.491ZM291.118 137.245C291.118 136.27 290.533 135.594 289.454 135.321L288.414 135.048C287.725 134.866 287.426 134.593 287.426 134.112C287.426 133.618 287.92 133.306 288.544 133.306C289.155 133.306 289.623 133.657 289.792 134.229H290.91C290.793 133.189 289.935 132.37 288.544 132.37C287.231 132.37 286.295 133.046 286.295 134.125C286.295 135.048 286.854 135.75 287.972 136.036L288.908 136.283C289.675 136.491 289.987 136.803 289.987 137.323C289.987 137.895 289.441 138.181 288.739 138.181C288.063 138.181 287.387 137.908 287.231 137.115H286.087C286.178 138.428 287.335 139.13 288.726 139.13C290.078 139.13 291.118 138.532 291.118 137.245ZM294.053 129.965C294.053 129.536 293.715 129.172 293.273 129.172C292.831 129.172 292.467 129.536 292.467 129.965C292.467 130.407 292.831 130.758 293.273 130.758C293.715 130.758 294.053 130.407 294.053 129.965ZM292.701 139H293.819V132.5H292.701V139ZM297.967 139H298.903L301.906 132.5H300.658L298.435 137.414L296.212 132.5H294.964L297.967 139ZM308.707 137.024H307.563C307.173 137.804 306.484 138.116 305.678 138.116C304.508 138.116 303.559 137.232 303.52 136.049H308.811C308.967 134.034 307.732 132.37 305.691 132.37C303.663 132.37 302.389 133.852 302.389 135.75C302.389 137.687 303.767 139.13 305.665 139.13C307.316 139.13 308.382 138.168 308.707 137.024ZM305.652 133.358C306.614 133.358 307.42 133.956 307.628 135.165H303.572C303.793 133.878 304.716 133.358 305.652 133.358ZM310.424 139H311.542V129.25H310.424V139ZM315.39 141.717L319.654 132.5H318.406L316.183 137.427L313.947 132.5H312.712L315.559 138.662L314.142 141.717H315.39ZM323.108 135.75C323.108 137.609 324.473 139.13 326.293 139.13C327.268 139.13 328.152 138.623 328.581 137.999V139H329.699V132.5H328.581V133.501C328.152 132.877 327.268 132.37 326.293 132.37C324.473 132.37 323.108 133.891 323.108 135.75ZM328.672 135.75C328.672 137.063 327.775 138.103 326.462 138.103C325.149 138.103 324.239 137.063 324.239 135.75C324.239 134.437 325.149 133.397 326.462 133.397C327.775 133.397 328.672 134.437 328.672 135.75ZM336.288 137.245C336.288 136.27 335.703 135.594 334.624 135.321L333.584 135.048C332.895 134.866 332.596 134.593 332.596 134.112C332.596 133.618 333.09 133.306 333.714 133.306C334.325 133.306 334.793 133.657 334.962 134.229H336.08C335.963 133.189 335.105 132.37 333.714 132.37C332.401 132.37 331.465 133.046 331.465 134.125C331.465 135.048 332.024 135.75 333.142 136.036L334.078 136.283C334.845 136.491 335.157 136.803 335.157 137.323C335.157 137.895 334.611 138.181 333.909 138.181C333.233 138.181 332.557 137.908 332.401 137.115H331.257C331.348 138.428 332.505 139.13 333.896 139.13C335.248 139.13 336.288 138.532 336.288 137.245ZM340.5 135.75C340.5 137.609 341.865 139.13 343.685 139.13C344.66 139.13 345.544 138.623 345.973 137.999V139H347.091V132.5H345.973V133.501C345.544 132.877 344.66 132.37 343.685 132.37C341.865 132.37 340.5 133.891 340.5 135.75ZM346.064 135.75C346.064 137.063 345.167 138.103 343.854 138.103C342.541 138.103 341.631 137.063 341.631 135.75C341.631 134.437 342.541 133.397 343.854 133.397C345.167 133.397 346.064 134.437 346.064 135.75ZM358.493 136.712H357.297C357.011 137.531 356.231 138.103 355.217 138.103C353.865 138.103 352.955 137.063 352.955 135.75C352.955 134.437 353.865 133.397 355.217 133.397C356.231 133.397 357.011 133.969 357.297 134.788H358.493C358.129 133.384 356.855 132.37 355.217 132.37C353.241 132.37 351.824 133.891 351.824 135.75C351.824 137.609 353.241 139.13 355.217 139.13C356.855 139.13 358.129 138.116 358.493 136.712ZM366.253 135.75C366.253 133.878 364.81 132.37 362.86 132.37C360.897 132.37 359.454 133.878 359.454 135.75C359.454 137.622 360.897 139.13 362.86 139.13C364.81 139.13 366.253 137.622 366.253 135.75ZM360.598 135.75C360.598 134.45 361.508 133.41 362.86 133.41C364.212 133.41 365.109 134.45 365.109 135.75C365.109 137.05 364.212 138.09 362.86 138.09C361.508 138.09 360.598 137.05 360.598 135.75ZM367.858 139H368.976V135.776C368.976 134.255 369.808 133.397 370.861 133.397C371.771 133.397 372.395 134.073 372.395 135.165V139H373.5V134.996C373.5 133.384 372.499 132.37 371.043 132.37C370.198 132.37 369.418 132.734 368.976 133.501V132.5H367.858V139ZM375.983 139H377.101V133.527H378.986V132.5H377.101V131.304C377.101 130.485 377.465 130.199 378.18 130.199C378.44 130.199 378.778 130.251 378.986 130.329V129.341C378.7 129.237 378.362 129.172 377.972 129.172C376.841 129.172 375.983 129.848 375.983 131.187V132.5H374.605V133.527H375.983V139ZM381.562 129.965C381.562 129.536 381.224 129.172 380.782 129.172C380.34 129.172 379.976 129.536 379.976 129.965C379.976 130.407 380.34 130.758 380.782 130.758C381.224 130.758 381.562 130.407 381.562 129.965ZM380.21 139H381.328V132.5H380.21V139ZM383.448 139H384.566V135.776C384.566 134.255 385.463 133.54 386.282 133.54C386.503 133.54 386.685 133.566 386.893 133.644V132.487C386.711 132.448 386.555 132.435 386.386 132.435C385.632 132.435 384.826 132.929 384.566 133.761V132.5H383.448V139ZM388.208 139H389.326V135.776C389.326 134.307 390.067 133.397 391.12 133.397C391.965 133.397 392.394 134.125 392.394 135.178V139H393.512V135.776C393.512 134.307 394.24 133.397 395.293 133.397C396.138 133.397 396.58 134.125 396.58 135.178V139H397.698V135.009C397.698 133.423 396.84 132.37 395.423 132.37C394.461 132.37 393.642 132.903 393.291 133.761C392.966 132.903 392.264 132.37 391.289 132.37C390.418 132.37 389.703 132.812 389.326 133.501V132.5H388.208V139ZM399.203 135.75C399.203 137.609 400.568 139.13 402.388 139.13C403.363 139.13 404.247 138.623 404.676 137.999V139H405.794V132.5H404.676V133.501C404.247 132.877 403.363 132.37 402.388 132.37C400.568 132.37 399.203 133.891 399.203 135.75ZM404.767 135.75C404.767 137.063 403.87 138.103 402.557 138.103C401.244 138.103 400.334 137.063 400.334 135.75C400.334 134.437 401.244 133.397 402.557 133.397C403.87 133.397 404.767 134.437 404.767 135.75ZM411.422 138.909V137.908C411.214 137.986 410.902 138.038 410.629 138.038C409.927 138.038 409.55 137.765 409.55 136.933V133.527H411.422V132.5H409.55V130.693H408.432V132.5H407.054V133.527H408.432V137.076C408.432 138.428 409.29 139.065 410.421 139.065C410.824 139.065 411.149 139 411.422 138.909ZM414.202 129.965C414.202 129.536 413.864 129.172 413.422 129.172C412.98 129.172 412.616 129.536 412.616 129.965C412.616 130.407 412.98 130.758 413.422 130.758C413.864 130.758 414.202 130.407 414.202 129.965ZM412.85 139H413.968V132.5H412.85V139ZM422.366 135.75C422.366 133.878 420.923 132.37 418.973 132.37C417.01 132.37 415.567 133.878 415.567 135.75C415.567 137.622 417.01 139.13 418.973 139.13C420.923 139.13 422.366 137.622 422.366 135.75ZM416.711 135.75C416.711 134.45 417.621 133.41 418.973 133.41C420.325 133.41 421.222 134.45 421.222 135.75C421.222 137.05 420.325 138.09 418.973 138.09C417.621 138.09 416.711 137.05 416.711 135.75ZM423.971 139H425.089V135.776C425.089 134.255 425.921 133.397 426.974 133.397C427.884 133.397 428.508 134.073 428.508 135.165V139H429.613V134.996C429.613 133.384 428.612 132.37 427.156 132.37C426.311 132.37 425.531 132.734 425.089 133.501V132.5H423.971V139ZM434.762 139H435.88V135.776C435.88 134.307 436.621 133.397 437.674 133.397C438.519 133.397 438.948 134.125 438.948 135.178V139H440.066V135.776C440.066 134.307 440.794 133.397 441.847 133.397C442.692 133.397 443.134 134.125 443.134 135.178V139H444.252V135.009C444.252 133.423 443.394 132.37 441.977 132.37C441.015 132.37 440.196 132.903 439.845 133.761C439.52 132.903 438.818 132.37 437.843 132.37C436.972 132.37 436.257 132.812 435.88 133.501V132.5H434.762V139ZM452.543 135.75C452.543 133.878 451.1 132.37 449.15 132.37C447.187 132.37 445.744 133.878 445.744 135.75C445.744 137.622 447.187 139.13 449.15 139.13C451.1 139.13 452.543 137.622 452.543 135.75ZM446.888 135.75C446.888 134.45 447.798 133.41 449.15 133.41C450.502 133.41 451.399 134.45 451.399 135.75C451.399 137.05 450.502 138.09 449.15 138.09C447.798 138.09 446.888 137.05 446.888 135.75ZM453.641 135.75C453.641 137.609 455.006 139.13 456.826 139.13C457.801 139.13 458.685 138.623 459.114 137.999V139H460.232V129.25H459.114V133.501C458.685 132.877 457.801 132.37 456.826 132.37C455.006 132.37 453.641 133.891 453.641 135.75ZM459.205 135.75C459.205 137.063 458.308 138.103 456.995 138.103C455.682 138.103 454.772 137.063 454.772 135.75C454.772 134.437 455.682 133.397 456.995 133.397C458.308 133.397 459.205 134.437 459.205 135.75ZM461.829 135.75C461.829 137.609 463.194 139.13 465.014 139.13C465.989 139.13 466.873 138.623 467.302 137.999V139H468.42V132.5H467.302V133.501C466.873 132.877 465.989 132.37 465.014 132.37C463.194 132.37 461.829 133.891 461.829 135.75ZM467.393 135.75C467.393 137.063 466.496 138.103 465.183 138.103C463.87 138.103 462.96 137.063 462.96 135.75C462.96 134.437 463.87 133.397 465.183 133.397C466.496 133.397 467.393 134.437 467.393 135.75ZM470.525 139H471.643V129.25H470.525V139ZM475.309 138.129C475.309 137.609 474.88 137.154 474.347 137.154C473.814 137.154 473.385 137.609 473.385 138.129C473.385 138.662 473.814 139.104 474.347 139.104C474.88 139.104 475.309 138.662 475.309 138.129Z" fill="#001E2B"/>
<rect x="422.5" y="168.5" width="68" height="35" rx="5.5" fill="#F9FBFA"/>
<path d="M434.546 186.385C434.546 189.076 436.613 191.156 439.356 191.156C441.579 191.156 443.36 189.713 443.802 187.906H442.164C441.774 188.959 440.656 189.687 439.356 189.687C437.432 189.687 436.08 188.244 436.08 186.385C436.08 184.526 437.432 183.083 439.356 183.083C440.656 183.083 441.774 183.811 442.164 184.864H443.802C443.36 183.057 441.579 181.614 439.356 181.614C436.613 181.614 434.546 183.694 434.546 186.385ZM444.701 187.75C444.701 189.609 446.053 191.13 447.834 191.13C448.77 191.13 449.55 190.649 449.914 190.129V191H451.344V184.5H449.914V185.371C449.55 184.851 448.77 184.37 447.834 184.37C446.053 184.37 444.701 185.891 444.701 187.75ZM450.031 187.75C450.031 188.92 449.251 189.83 448.094 189.83C446.937 189.83 446.157 188.92 446.157 187.75C446.157 186.58 446.937 185.67 448.094 185.67C449.251 185.67 450.031 186.58 450.031 187.75ZM453.281 191H454.711V187.802C454.711 186.411 455.439 185.67 456.388 185.67C457.22 185.67 457.74 186.294 457.74 187.321V191H459.17V187.087C459.17 185.436 458.195 184.37 456.687 184.37C455.842 184.37 455.101 184.734 454.711 185.384V184.5H453.281V191ZM467.24 188.621H465.732C465.472 189.323 464.835 189.83 463.938 189.83C462.781 189.83 461.988 188.959 461.988 187.75C461.988 186.541 462.781 185.67 463.938 185.67C464.835 185.67 465.472 186.177 465.732 186.879H467.24C466.889 185.436 465.654 184.37 463.938 184.37C461.962 184.37 460.532 185.878 460.532 187.75C460.532 189.622 461.962 191.13 463.938 191.13C465.654 191.13 466.889 190.064 467.24 188.621ZM474.65 188.959H473.155C472.856 189.583 472.232 189.869 471.517 189.869C470.36 189.869 469.606 189.089 469.554 188.101H474.728C474.858 185.891 473.467 184.37 471.478 184.37C469.476 184.37 468.137 185.826 468.137 187.75C468.137 189.7 469.528 191.13 471.465 191.13C473.116 191.13 474.286 190.181 474.65 188.959ZM471.439 185.566C472.232 185.566 472.973 186.034 473.194 187.087H469.606C469.801 186.086 470.542 185.566 471.439 185.566ZM476.196 191H477.626V181.25H476.196V191Z" fill="#1C2D38"/>
<rect x="422.5" y="168.5" width="68" height="35" rx="5.5" stroke="#889397"/>
<rect x="501" y="168" width="75" height="36" rx="6" fill="#00684A"/>
<path d="M513.546 186.385C513.546 189.076 515.613 191.156 518.356 191.156C520.579 191.156 522.36 189.713 522.802 187.906H521.164C520.774 188.959 519.656 189.687 518.356 189.687C516.432 189.687 515.08 188.244 515.08 186.385C515.08 184.526 516.432 183.083 518.356 183.083C519.656 183.083 520.774 183.811 521.164 184.864H522.802C522.36 183.057 520.579 181.614 518.356 181.614C515.613 181.614 513.546 183.694 513.546 186.385ZM530.513 187.75C530.513 185.865 529.031 184.37 527.107 184.37C525.183 184.37 523.701 185.865 523.701 187.75C523.701 189.635 525.183 191.13 527.107 191.13C529.031 191.13 530.513 189.635 530.513 187.75ZM525.144 187.75C525.144 186.593 525.95 185.696 527.107 185.696C528.251 185.696 529.057 186.593 529.057 187.75C529.057 188.907 528.251 189.804 527.107 189.804C525.95 189.804 525.144 188.907 525.144 187.75ZM531.951 191H533.381V187.802C533.381 186.411 534.109 185.67 535.058 185.67C535.89 185.67 536.41 186.294 536.41 187.321V191H537.84V187.087C537.84 185.436 536.865 184.37 535.357 184.37C534.512 184.37 533.771 184.734 533.381 185.384V184.5H531.951V191ZM540.205 191H541.635V185.774H543.494V184.5H541.635V183.577C541.635 182.771 541.986 182.472 542.727 182.472C543 182.472 543.286 182.524 543.494 182.602V181.328C543.221 181.237 542.87 181.172 542.428 181.172C541.18 181.172 540.205 181.952 540.205 183.408V184.5H538.853V185.774H540.205V191ZM546.298 182.121C546.298 181.601 545.882 181.172 545.349 181.172C544.829 181.172 544.387 181.601 544.387 182.121C544.387 182.654 544.829 183.083 545.349 183.083C545.882 183.083 546.298 182.654 546.298 182.121ZM544.634 191H546.064V184.5H544.634V191ZM547.985 191H549.415V187.828C549.415 186.528 550.156 185.839 550.975 185.839C551.235 185.839 551.443 185.878 551.69 185.956V184.487C551.495 184.448 551.313 184.435 551.131 184.435C550.39 184.435 549.662 184.916 549.415 185.657V184.5H547.985V191ZM552.924 191H554.354V187.802C554.354 186.437 554.991 185.67 555.914 185.67C556.694 185.67 557.071 186.333 557.071 187.347V191H558.501V187.802C558.501 186.437 559.125 185.67 560.048 185.67C560.828 185.67 561.205 186.333 561.205 187.347V191H562.635V187.113C562.635 185.449 561.764 184.37 560.295 184.37C559.437 184.37 558.605 184.825 558.215 185.657C557.864 184.851 557.162 184.37 556.2 184.37C555.368 184.37 554.718 184.773 554.354 185.384V184.5H552.924V191Z" fill="white"/>
</g>
<defs>
<filter id="filter0_d_2_35460" x="0" y="0" width="624" height="260" filterUnits="userSpaceOnUse" color-interpolation-filters="sRGB">
<feFlood flood-opacity="0" result="BackgroundImageFix"/>
<feColorMatrix in="SourceAlpha" type="matrix" values="0 0 0 0 0 0 0 0 0 0 0 0 0 0 0 0 0 0 127 0" result="hardAlpha"/>
<feMorphology radius="8" operator="erode" in="SourceAlpha" result="effect1_dropShadow_2_35460"/>
<feOffset dy="8"/>
<feGaussianBlur stdDeviation="10"/>
<feComposite in2="hardAlpha" operator="out"/>
<feColorMatrix type="matrix" values="0 0 0 0 0 0 0 0 0 0.117647 0 0 0 0 0.168627 0 0 0 0.6 0"/>
<feBlend mode="normal" in2="BackgroundImageFix" result="effect1_dropShadow_2_35460"/>
<feBlend mode="normal" in="SourceGraphic" in2="effect1_dropShadow_2_35460" result="shape"/>
</filter>
</defs>
</svg>
