<svg width="116" height="54" viewBox="0 0 116 54" fill="none" xmlns="http://www.w3.org/2000/svg">
<g filter="url(#filter0_d_2_38509)">
<rect x="3" y="3" width="110" height="48" rx="6" fill="white"/>
<path d="M28.3297 32H30.2147V28.113H30.6827L33.8417 32H36.1167L32.8017 27.905C34.0237 27.515 34.6997 26.735 34.6997 25.5C34.6997 23.966 33.5947 22.77 31.8657 22.77H28.3297V32ZM30.2147 26.501V24.499H31.6447C32.3467 24.499 32.8277 24.863 32.8277 25.5C32.8277 26.124 32.3467 26.501 31.6447 26.501H30.2147ZM36.0221 28.75C36.0221 30.596 37.3481 32.143 39.0771 32.143C39.9741 32.143 40.6631 31.688 40.9491 31.272V32H42.7301V25.5H40.9491V26.228C40.6631 25.812 39.9741 25.357 39.0771 25.357C37.3481 25.357 36.0221 26.904 36.0221 28.75ZM41.0921 28.75C41.0921 29.764 40.4291 30.518 39.4541 30.518C38.4791 30.518 37.8161 29.764 37.8161 28.75C37.8161 27.736 38.4791 26.982 39.4541 26.982C40.4291 26.982 41.0921 27.736 41.0921 28.75ZM44.0455 28.75C44.0455 30.596 45.3715 32.143 47.1005 32.143C47.9975 32.143 48.6865 31.688 48.9725 31.272V32H50.7535V22.25H48.9725V26.228C48.6865 25.812 47.9975 25.357 47.1005 25.357C45.3715 25.357 44.0455 26.904 44.0455 28.75ZM49.1155 28.75C49.1155 29.764 48.4525 30.518 47.4775 30.518C46.5025 30.518 45.8395 29.764 45.8395 28.75C45.8395 27.736 46.5025 26.982 47.4775 26.982C48.4525 26.982 49.1155 27.736 49.1155 28.75ZM54.513 23.303C54.513 22.679 54.006 22.172 53.369 22.172C52.758 22.172 52.238 22.679 52.238 23.303C52.238 23.927 52.758 24.434 53.369 24.434C54.006 24.434 54.513 23.927 54.513 23.303ZM52.485 32H54.266V25.5H52.485V32ZM62.3852 28.75C62.3852 26.852 60.8512 25.357 58.9662 25.357C57.0812 25.357 55.5472 26.852 55.5472 28.75C55.5472 30.648 57.0812 32.143 58.9662 32.143C60.8512 32.143 62.3852 30.648 62.3852 28.75ZM57.3412 28.75C57.3412 27.749 58.0302 27.021 58.9662 27.021C59.9022 27.021 60.5782 27.749 60.5782 28.75C60.5782 29.751 59.9022 30.479 58.9662 30.479C58.0302 30.479 57.3412 29.751 57.3412 28.75ZM66.7965 32H70.6965C72.3345 32 73.5565 30.817 73.5565 29.283C73.5565 28.243 72.9975 27.489 72.1915 27.099C72.6335 26.709 72.9195 26.15 72.9195 25.448C72.9195 23.979 71.7235 22.77 70.1765 22.77H66.7965V32ZM68.6815 26.553V24.486H69.9945C70.6445 24.486 71.0865 24.967 71.0865 25.526C71.0865 26.098 70.6445 26.553 69.9945 26.553H68.6815ZM68.6815 30.271V28.152H70.5665C71.2685 28.152 71.7235 28.62 71.7235 29.218C71.7235 29.816 71.2685 30.271 70.5665 30.271H68.6815ZM81.2758 28.75C81.2758 26.852 79.7418 25.357 77.8568 25.357C75.9718 25.357 74.4378 26.852 74.4378 28.75C74.4378 30.648 75.9718 32.143 77.8568 32.143C79.7418 32.143 81.2758 30.648 81.2758 28.75ZM76.2318 28.75C76.2318 27.749 76.9208 27.021 77.8568 27.021C78.7928 27.021 79.4688 27.749 79.4688 28.75C79.4688 29.751 78.7928 30.479 77.8568 30.479C76.9208 30.479 76.2318 29.751 76.2318 28.75ZM81.3603 32H83.5053L85.0133 30.076L86.5213 32H88.6533L86.1313 28.815L88.5883 25.5H86.4693L85.0003 27.489L83.5313 25.5H81.4253L83.8823 28.815L81.3603 32Z" fill="#21313C"/>
</g>
<defs>
<filter id="filter0_d_2_38509" x="0" y="0" width="116" height="54" filterUnits="userSpaceOnUse" color-interpolation-filters="sRGB">
<feFlood flood-opacity="0" result="BackgroundImageFix"/>
<feColorMatrix in="SourceAlpha" type="matrix" values="0 0 0 0 0 0 0 0 0 0 0 0 0 0 0 0 0 0 127 0" result="hardAlpha"/>
<feMorphology radius="3" operator="dilate" in="SourceAlpha" result="effect1_dropShadow_2_38509"/>
<feOffset/>
<feComposite in2="hardAlpha" operator="out"/>
<feColorMatrix type="matrix" values="0 0 0 0 0 0 0 0 0 0.639216 0 0 0 0 0.360784 0 0 0 1 0"/>
<feBlend mode="normal" in2="BackgroundImageFix" result="effect1_dropShadow_2_38509"/>
<feBlend mode="normal" in="SourceGraphic" in2="effect1_dropShadow_2_38509" result="shape"/>
</filter>
</defs>
</svg>
