<svg width="269" height="20" viewBox="0 0 269 20" fill="none" xmlns="http://www.w3.org/2000/svg">
<circle cx="7" cy="10" r="6" stroke="#3D4F58" stroke-width="2"/>
<path d="M23.027 15H24.912V11.113H25.38L28.539 15H30.814L27.499 10.905C28.721 10.515 29.397 9.735 29.397 8.5C29.397 6.966 28.292 5.77 26.563 5.77H23.027V15ZM24.912 9.501V7.499H26.342C27.044 7.499 27.525 7.863 27.525 8.5C27.525 9.124 27.044 9.501 26.342 9.501H24.912ZM30.7193 11.75C30.7193 13.596 32.0453 15.143 33.7743 15.143C34.6713 15.143 35.3603 14.688 35.6463 14.272V15H37.4273V8.5H35.6463V9.228C35.3603 8.812 34.6713 8.357 33.7743 8.357C32.0453 8.357 30.7193 9.904 30.7193 11.75ZM35.7893 11.75C35.7893 12.764 35.1263 13.518 34.1513 13.518C33.1763 13.518 32.5133 12.764 32.5133 11.75C32.5133 10.736 33.1763 9.982 34.1513 9.982C35.1263 9.982 35.7893 10.736 35.7893 11.75ZM38.7428 11.75C38.7428 13.596 40.0688 15.143 41.7978 15.143C42.6948 15.143 43.3838 14.688 43.6698 14.272V15H45.4508V5.25H43.6698V9.228C43.3838 8.812 42.6948 8.357 41.7978 8.357C40.0688 8.357 38.7428 9.904 38.7428 11.75ZM43.8128 11.75C43.8128 12.764 43.1498 13.518 42.1748 13.518C41.1998 13.518 40.5368 12.764 40.5368 11.75C40.5368 10.736 41.1998 9.982 42.1748 9.982C43.1498 9.982 43.8128 10.736 43.8128 11.75ZM49.2102 6.303C49.2102 5.679 48.7032 5.172 48.0662 5.172C47.4552 5.172 46.9352 5.679 46.9352 6.303C46.9352 6.927 47.4552 7.434 48.0662 7.434C48.7032 7.434 49.2102 6.927 49.2102 6.303ZM47.1822 15H48.9632V8.5H47.1822V15ZM57.0824 11.75C57.0824 9.852 55.5484 8.357 53.6634 8.357C51.7784 8.357 50.2444 9.852 50.2444 11.75C50.2444 13.648 51.7784 15.143 53.6634 15.143C55.5484 15.143 57.0824 13.648 57.0824 11.75ZM52.0384 11.75C52.0384 10.749 52.7274 10.021 53.6634 10.021C54.5994 10.021 55.2754 10.749 55.2754 11.75C55.2754 12.751 54.5994 13.479 53.6634 13.479C52.7274 13.479 52.0384 12.751 52.0384 11.75ZM61.4938 15H63.3788V5.77H61.4938V15ZM65.1334 15H66.9144V11.828C66.9144 10.58 67.5384 9.982 68.3574 9.982C69.0984 9.982 69.5014 10.554 69.5014 11.49V15H71.2824V11.191C71.2824 9.501 70.3464 8.357 68.7734 8.357C67.9284 8.357 67.2524 8.721 66.9144 9.241V8.5H65.1334V15ZM72.9156 17.717H74.6966V14.272C74.9956 14.688 75.6846 15.143 76.5816 15.143C78.3106 15.143 79.6366 13.596 79.6366 11.75C79.6366 9.904 78.3106 8.357 76.5816 8.357C75.6846 8.357 74.9956 8.812 74.6966 9.228V8.5H72.9156V17.717ZM77.8296 11.75C77.8296 12.764 77.1666 13.518 76.1916 13.518C75.2166 13.518 74.5536 12.764 74.5536 11.75C74.5536 10.736 75.2166 9.982 76.1916 9.982C77.1666 9.982 77.8296 10.736 77.8296 11.75ZM80.8611 12.27C80.8611 13.999 81.7321 15.143 83.3051 15.143C84.1371 15.143 84.7481 14.779 85.0861 14.259V15H86.8671V8.5H85.0861V11.672C85.0861 12.933 84.5401 13.518 83.7471 13.518C82.9801 13.518 82.6421 12.946 82.6421 11.971V8.5H80.8611V12.27ZM92.8586 14.935V13.362C92.6506 13.44 92.4166 13.479 92.1306 13.479C91.3636 13.479 91.0256 13.167 91.0256 12.374V10.06H92.8586V8.5H91.0256V6.693H89.2446V8.5H87.9316V10.06H89.2446V12.725C89.2446 14.311 90.3496 15.078 91.7276 15.078C92.2216 15.078 92.5726 15.026 92.8586 14.935ZM97.2565 15H103.093V13.206H99.1415V5.77H97.2565V15ZM103.705 11.75C103.705 13.596 105.031 15.143 106.76 15.143C107.657 15.143 108.346 14.688 108.632 14.272V15H110.413V8.5H108.632V9.228C108.346 8.812 107.657 8.357 106.76 8.357C105.031 8.357 103.705 9.904 103.705 11.75ZM108.775 11.75C108.775 12.764 108.112 13.518 107.137 13.518C106.162 13.518 105.499 12.764 105.499 11.75C105.499 10.736 106.162 9.982 107.137 9.982C108.112 9.982 108.775 10.736 108.775 11.75ZM113.925 14.272C114.224 14.688 114.913 15.143 115.81 15.143C117.539 15.143 118.865 13.596 118.865 11.75C118.865 9.904 117.539 8.357 115.81 8.357C114.913 8.357 114.224 8.812 113.925 9.228V5.25H112.144V15H113.925V14.272ZM117.058 11.75C117.058 12.764 116.395 13.518 115.42 13.518C114.445 13.518 113.782 12.764 113.782 11.75C113.782 10.736 114.445 9.982 115.42 9.982C116.395 9.982 117.058 10.736 117.058 11.75ZM126.486 12.881H124.627C124.419 13.323 123.873 13.596 123.249 13.596C122.144 13.596 121.572 12.933 121.494 12.166H126.564C126.655 9.722 125.082 8.357 123.171 8.357C121.195 8.357 119.752 9.8 119.752 11.737C119.752 13.713 121.169 15.143 123.158 15.143C124.809 15.143 126.096 14.194 126.486 12.881ZM123.119 9.8C123.73 9.8 124.393 10.125 124.614 10.996H121.559C121.728 10.281 122.3 9.8 123.119 9.8ZM127.861 15H129.642V5.25H127.861V15ZM137.04 17.08C135.935 14.935 135.467 12.972 135.467 10.84C135.467 8.708 135.935 6.745 137.04 4.6H135.623C134.505 6.628 133.959 8.695 133.959 10.84C133.959 12.985 134.505 15.052 135.623 17.08H137.04ZM138.364 15H140.249V5.77H138.364V15ZM142.004 15H143.785V11.828C143.785 10.58 144.409 9.982 145.228 9.982C145.969 9.982 146.372 10.554 146.372 11.49V15H148.153V11.191C148.153 9.501 147.217 8.357 145.644 8.357C144.799 8.357 144.123 8.721 143.785 9.241V8.5H142.004V15ZM149.37 11.75C149.37 13.596 150.696 15.143 152.425 15.143C153.322 15.143 154.011 14.688 154.297 14.272V15H156.078V8.5H154.297V9.228C154.011 8.812 153.322 8.357 152.425 8.357C150.696 8.357 149.37 9.904 149.37 11.75ZM154.44 11.75C154.44 12.764 153.777 13.518 152.802 13.518C151.827 13.518 151.164 12.764 151.164 11.75C151.164 10.736 151.827 9.982 152.802 9.982C153.777 9.982 154.44 10.736 154.44 11.75ZM164.14 12.517H162.294C162.047 13.102 161.566 13.531 160.812 13.531C159.876 13.531 159.187 12.829 159.187 11.75C159.187 10.671 159.876 9.969 160.812 9.969C161.566 9.969 162.047 10.398 162.294 10.983H164.14C163.789 9.488 162.606 8.357 160.812 8.357C158.836 8.357 157.393 9.865 157.393 11.75C157.393 13.635 158.836 15.143 160.812 15.143C162.606 15.143 163.789 14.012 164.14 12.517ZM169.538 14.935V13.362C169.33 13.44 169.096 13.479 168.81 13.479C168.043 13.479 167.705 13.167 167.705 12.374V10.06H169.538V8.5H167.705V6.693H165.924V8.5H164.611V10.06H165.924V12.725C165.924 14.311 167.029 15.078 168.407 15.078C168.901 15.078 169.252 15.026 169.538 14.935ZM172.837 6.303C172.837 5.679 172.33 5.172 171.693 5.172C171.082 5.172 170.562 5.679 170.562 6.303C170.562 6.927 171.082 7.434 171.693 7.434C172.33 7.434 172.837 6.927 172.837 6.303ZM170.809 15H172.59V8.5H170.809V15ZM176.328 15H177.953L180.839 8.5H178.85L177.134 12.66L175.418 8.5H173.455L176.328 15ZM187.829 12.881H185.97C185.762 13.323 185.216 13.596 184.592 13.596C183.487 13.596 182.915 12.933 182.837 12.166H187.907C187.998 9.722 186.425 8.357 184.514 8.357C182.538 8.357 181.095 9.8 181.095 11.737C181.095 13.713 182.512 15.143 184.501 15.143C186.152 15.143 187.439 14.194 187.829 12.881ZM184.462 9.8C185.073 9.8 185.736 10.125 185.957 10.996H182.902C183.071 10.281 183.643 9.8 184.462 9.8ZM188.188 17.08H189.605C190.723 15.052 191.269 12.985 191.269 10.84C191.269 8.695 190.723 6.628 189.605 4.6H188.188C189.293 6.745 189.761 8.708 189.761 10.84C189.761 12.972 189.293 14.935 188.188 17.08Z" fill="#001E2B"/>
</svg>
