<svg width="465" height="38" viewBox="0 0 465 38" fill="none" xmlns="http://www.w3.org/2000/svg">
<path d="M3.63559 22H5.18359L8.71159 13.48H6.79159L4.41559 19.396L2.00359 13.48H0.119593L3.63559 22ZM10.08 22H11.82V13.48H10.08V22ZM14.1128 22H19.4168V20.344H15.8528V18.544H18.6968V16.888H15.8528V15.136H19.4168V13.48H14.1128V22ZM28.0292 22H29.6612L31.7132 13.48H29.8652L28.5692 19.144L26.1572 13.336L23.7452 19.144L22.4492 13.48H20.6012L22.6532 22H24.2852L26.1572 17.476L28.0292 22Z" fill="#5C6C75"/>
<g filter="url(#filter0_di_2_42069)">
<rect x="41" width="423" height="36" rx="8" fill="#F9FBFA" shape-rendering="crispEdges"/>
<path d="M44 9C44 5.68629 46.6863 3 50 3H140C143.314 3 146 5.68629 146 9V27C146 30.3137 143.314 33 140 33H50C46.6863 33 44 30.3137 44 27V9Z" fill="#001E2B"/>
<path d="M59 13.5439C59 12.1632 60.1193 11.0439 61.5 11.0439H62.5C62.7762 11.0439 63 11.2678 63 11.5439L63 12.6491C63 12.8442 62.8419 13.0023 62.6469 13.0023L61.8577 13.0023C61.384 13.0023 61 13.3863 61 13.86L61 16.6615C61 17.2436 60.6684 17.7483 60.1838 17.9969C60.6684 18.2456 61 18.7502 61 19.3323V22.1348C61.0005 22.6081 61.3843 22.9916 61.8577 22.9916H62.6469C62.8419 22.9916 63 23.1497 63 23.3447L63 24.4499C63 24.7261 62.7762 24.9499 62.5 24.9499H61.5C60.1193 24.9499 59 23.8307 59 22.4499L59 20.494C59 19.6655 58.3285 18.994 57.5 18.994C57.2239 18.994 57 18.7701 57 18.494L57 17.494C57 17.2178 57.2239 16.994 57.5 16.994C58.3284 16.994 59 16.3224 59 15.494L59 13.5439Z" fill="white"/>
<path d="M69 22.45C69 23.8307 67.8807 24.95 66.5 24.95L65.5 24.95C65.2238 24.95 65 24.7261 65 24.45L65 23.3448C65 23.1497 65.1581 22.9916 65.3531 22.9916H66.1423C66.616 22.9916 67 22.6076 67 22.1339L67 19.3324C67 18.7503 67.3316 18.2456 67.8162 17.997C67.3316 17.7483 67 17.2437 67 16.6615V13.8591C66.9995 13.3858 66.6157 13.0023 66.1423 13.0023H65.3531C65.1581 13.0023 65 12.8442 65 12.6492L65 11.544C65 11.2678 65.2238 11.044 65.5 11.044L66.5 11.044C67.8807 11.0439 69 12.1632 69 13.544L69 15.4999C69 16.3284 69.6715 16.9999 70.5 16.9999C70.7761 16.9999 71 17.2238 71 17.4999L71 18.4999C71 18.7761 70.7761 18.9999 70.5 18.9999C69.6716 18.9999 69 19.6715 69 20.4999L69 22.45Z" fill="white"/>
<path d="M78.8883 20.348C78.9533 21.804 80.1883 23.156 82.2553 23.156C84.0753 23.156 85.3233 22.077 85.3233 20.517C85.3233 19.113 84.4783 18.242 83.0353 17.774L81.8913 17.41C81.0723 17.137 80.6433 16.773 80.6433 16.097C80.6563 15.434 81.2673 15.031 82.0343 15.031C82.6973 15.031 83.3863 15.382 83.6073 16.253H85.1283C85.0373 14.966 83.9843 13.614 82.0603 13.614C80.3313 13.614 79.1093 14.576 79.1223 16.175C79.1223 17.527 79.9283 18.372 81.3843 18.84L82.5153 19.217C83.3863 19.503 83.7893 19.945 83.7893 20.569C83.7893 21.297 83.1133 21.739 82.2423 21.739C81.3973 21.739 80.5263 21.284 80.4093 20.348H78.8883ZM92.9043 20.959H91.4093C91.1103 21.583 90.4863 21.869 89.7713 21.869C88.6143 21.869 87.8603 21.089 87.8083 20.101H92.9823C93.1123 17.891 91.7213 16.37 89.7323 16.37C87.7303 16.37 86.3913 17.826 86.3913 19.75C86.3913 21.7 87.7823 23.13 89.7193 23.13C91.3703 23.13 92.5403 22.181 92.9043 20.959ZM89.6933 17.566C90.4863 17.566 91.2273 18.034 91.4483 19.087H87.8603C88.0553 18.086 88.7963 17.566 89.6933 17.566ZM94.2298 23.507C94.3988 24.859 95.6078 25.847 97.3888 25.847C99.1308 25.847 100.626 24.859 100.626 22.597V16.5H99.1958V17.371C98.8058 16.799 98.0128 16.37 97.1158 16.37C95.3608 16.37 93.9958 17.826 93.9958 19.659C93.9958 21.505 95.3608 22.961 97.1158 22.961C98.0128 22.961 98.8058 22.519 99.1958 21.947V22.714C99.1958 23.975 98.4028 24.625 97.4278 24.625C96.5178 24.625 95.8938 24.274 95.6338 23.507H94.2298ZM99.3128 19.659C99.3128 20.816 98.4808 21.648 97.3758 21.648C96.2708 21.648 95.4388 20.816 95.4388 19.659C95.4388 18.502 96.2708 17.67 97.3758 17.67C98.4808 17.67 99.3128 18.502 99.3128 19.659ZM102.55 23H103.98V19.802C103.98 18.437 104.617 17.67 105.54 17.67C106.32 17.67 106.697 18.333 106.697 19.347V23H108.127V19.802C108.127 18.437 108.751 17.67 109.674 17.67C110.454 17.67 110.831 18.333 110.831 19.347V23H112.261V19.113C112.261 17.449 111.39 16.37 109.921 16.37C109.063 16.37 108.231 16.825 107.841 17.657C107.49 16.851 106.788 16.37 105.826 16.37C104.994 16.37 104.344 16.773 103.98 17.384V16.5H102.55V23ZM120.148 20.959H118.653C118.354 21.583 117.73 21.869 117.015 21.869C115.858 21.869 115.104 21.089 115.052 20.101H120.226C120.356 17.891 118.965 16.37 116.976 16.37C114.974 16.37 113.635 17.826 113.635 19.75C113.635 21.7 115.026 23.13 116.963 23.13C118.614 23.13 119.784 22.181 120.148 20.959ZM116.937 17.566C117.73 17.566 118.471 18.034 118.692 19.087H115.104C115.299 18.086 116.04 17.566 116.937 17.566ZM121.695 23H123.125V19.802C123.125 18.411 123.853 17.67 124.802 17.67C125.634 17.67 126.154 18.294 126.154 19.321V23H127.584V19.087C127.584 17.436 126.609 16.37 125.101 16.37C124.256 16.37 123.515 16.734 123.125 17.384V16.5H121.695V23ZM133.224 22.922V21.648C133.016 21.726 132.73 21.778 132.457 21.778C131.716 21.778 131.365 21.479 131.365 20.673V17.774H133.224V16.5H131.365V14.693H129.935V16.5H128.583V17.774H129.935V20.907C129.935 22.376 130.91 23.065 132.158 23.065C132.6 23.065 132.938 23.013 133.224 22.922Z" fill="white"/>
<path d="M167.109 23.2623C167.057 23.5335 167.234 23.7959 167.505 23.8484L168.242 23.9908C168.513 24.0433 168.775 23.8659 168.827 23.5946L170.926 12.7377C170.978 12.4665 170.801 12.2041 170.53 12.1516L169.793 12.0092C169.522 11.9567 169.26 12.1341 169.208 12.4054L167.109 23.2623Z" fill="#5C6C75"/>
<path d="M162.36 17.2456L164.976 15.1112C165.188 14.9381 165.503 14.9662 165.68 15.1739L166.32 15.9261C166.497 16.1338 166.468 16.4425 166.256 16.6156L164.562 17.9977L166.256 19.3799C166.468 19.553 166.497 19.8617 166.32 20.0694L165.68 20.8216C165.503 21.0293 165.188 21.0574 164.976 20.8843L162.36 18.7499C162.132 18.5639 162 18.2883 162 17.9977C162 17.7072 162.132 17.4316 162.36 17.2456Z" fill="#5C6C75"/>
<path d="M175.636 17.2456L173.02 15.1112C172.808 14.9381 172.493 14.9662 172.316 15.1739L171.676 15.9261C171.499 16.1338 171.528 16.4425 171.74 16.6156L173.434 17.9977L171.74 19.3799C171.528 19.553 171.499 19.8617 171.676 20.0694L172.316 20.8216C172.493 21.0293 172.808 21.0574 173.02 20.8843L175.636 18.7499C175.864 18.5639 175.996 18.2883 175.996 17.9977C175.996 17.7072 175.864 17.4316 175.636 17.2456Z" fill="#5C6C75"/>
<path d="M183.888 20.348C183.953 21.804 185.188 23.156 187.255 23.156C189.075 23.156 190.323 22.077 190.323 20.517C190.323 19.113 189.478 18.242 188.035 17.774L186.891 17.41C186.072 17.137 185.643 16.773 185.643 16.097C185.656 15.434 186.267 15.031 187.034 15.031C187.697 15.031 188.386 15.382 188.607 16.253H190.128C190.037 14.966 188.984 13.614 187.06 13.614C185.331 13.614 184.109 14.576 184.122 16.175C184.122 17.527 184.928 18.372 186.384 18.84L187.515 19.217C188.386 19.503 188.789 19.945 188.789 20.569C188.789 21.297 188.113 21.739 187.242 21.739C186.397 21.739 185.526 21.284 185.409 20.348H183.888ZM197.904 20.959H196.409C196.11 21.583 195.486 21.869 194.771 21.869C193.614 21.869 192.86 21.089 192.808 20.101H197.982C198.112 17.891 196.721 16.37 194.732 16.37C192.73 16.37 191.391 17.826 191.391 19.75C191.391 21.7 192.782 23.13 194.719 23.13C196.37 23.13 197.54 22.181 197.904 20.959ZM194.693 17.566C195.486 17.566 196.227 18.034 196.448 19.087H192.86C193.055 18.086 193.796 17.566 194.693 17.566ZM199.23 23.507C199.399 24.859 200.608 25.847 202.389 25.847C204.131 25.847 205.626 24.859 205.626 22.597V16.5H204.196V17.371C203.806 16.799 203.013 16.37 202.116 16.37C200.361 16.37 198.996 17.826 198.996 19.659C198.996 21.505 200.361 22.961 202.116 22.961C203.013 22.961 203.806 22.519 204.196 21.947V22.714C204.196 23.975 203.403 24.625 202.428 24.625C201.518 24.625 200.894 24.274 200.634 23.507H199.23ZM204.313 19.659C204.313 20.816 203.481 21.648 202.376 21.648C201.271 21.648 200.439 20.816 200.439 19.659C200.439 18.502 201.271 17.67 202.376 17.67C203.481 17.67 204.313 18.502 204.313 19.659ZM207.55 23H208.98V19.802C208.98 18.437 209.617 17.67 210.54 17.67C211.32 17.67 211.697 18.333 211.697 19.347V23H213.127V19.802C213.127 18.437 213.751 17.67 214.674 17.67C215.454 17.67 215.831 18.333 215.831 19.347V23H217.261V19.113C217.261 17.449 216.39 16.37 214.921 16.37C214.063 16.37 213.231 16.825 212.841 17.657C212.49 16.851 211.788 16.37 210.826 16.37C209.994 16.37 209.344 16.773 208.98 17.384V16.5H207.55V23ZM225.148 20.959H223.653C223.354 21.583 222.73 21.869 222.015 21.869C220.858 21.869 220.104 21.089 220.052 20.101H225.226C225.356 17.891 223.965 16.37 221.976 16.37C219.974 16.37 218.635 17.826 218.635 19.75C218.635 21.7 220.026 23.13 221.963 23.13C223.614 23.13 224.784 22.181 225.148 20.959ZM221.937 17.566C222.73 17.566 223.471 18.034 223.692 19.087H220.104C220.299 18.086 221.04 17.566 221.937 17.566ZM226.695 23H228.125V19.802C228.125 18.411 228.853 17.67 229.802 17.67C230.634 17.67 231.154 18.294 231.154 19.321V23H232.584V19.087C232.584 17.436 231.609 16.37 230.101 16.37C229.256 16.37 228.515 16.734 228.125 17.384V16.5H226.695V23ZM238.224 22.922V21.648C238.016 21.726 237.73 21.778 237.457 21.778C236.716 21.778 236.365 21.479 236.365 20.673V17.774H238.224V16.5H236.365V14.693H234.935V16.5H233.583V17.774H234.935V20.907C234.935 22.376 235.91 23.065 237.158 23.065C237.6 23.065 237.938 23.013 238.224 22.922Z" fill="#5C6C75"/>
<rect x="252" y="9" width="1" height="18" fill="#C1C7C6"/>
<path fill-rule="evenodd" clip-rule="evenodd" d="M280 18C280 21.3137 277.314 24 274 24C270.686 24 268 21.3137 268 18C268 14.6863 270.686 12 274 12C277.314 12 280 14.6863 280 18ZM274.699 22.6989C274.471 22.7326 274.237 22.75 274 22.75C272.862 22.75 271.818 22.35 271 21.6829V20L269.257 18.2568C269.252 18.1718 269.25 18.0862 269.25 18C269.25 15.3767 271.377 13.25 274 13.25V14.5L272.5 16V17L272 17.5L271.5 17L270.5 18L271 18.5H273.5L274 19V20L273 21L274.699 22.6989ZM278.746 18.2034C278.749 18.136 278.75 18.0681 278.75 18C278.75 16.9434 278.405 15.9674 277.822 15.1785L276.5 16.5V19H277.75L278.746 18.2034Z" fill="#5C6C75"/>
<path d="M288.888 20.348C288.953 21.804 290.188 23.156 292.255 23.156C294.075 23.156 295.323 22.077 295.323 20.517C295.323 19.113 294.478 18.242 293.035 17.774L291.891 17.41C291.072 17.137 290.643 16.773 290.643 16.097C290.656 15.434 291.267 15.031 292.034 15.031C292.697 15.031 293.386 15.382 293.607 16.253H295.128C295.037 14.966 293.984 13.614 292.06 13.614C290.331 13.614 289.109 14.576 289.122 16.175C289.122 17.527 289.928 18.372 291.384 18.84L292.515 19.217C293.386 19.503 293.789 19.945 293.789 20.569C293.789 21.297 293.113 21.739 292.242 21.739C291.397 21.739 290.526 21.284 290.409 20.348H288.888ZM302.904 20.959H301.409C301.11 21.583 300.486 21.869 299.771 21.869C298.614 21.869 297.86 21.089 297.808 20.101H302.982C303.112 17.891 301.721 16.37 299.732 16.37C297.73 16.37 296.391 17.826 296.391 19.75C296.391 21.7 297.782 23.13 299.719 23.13C301.37 23.13 302.54 22.181 302.904 20.959ZM299.693 17.566C300.486 17.566 301.227 18.034 301.448 19.087H297.86C298.055 18.086 298.796 17.566 299.693 17.566ZM304.23 23.507C304.399 24.859 305.608 25.847 307.389 25.847C309.131 25.847 310.626 24.859 310.626 22.597V16.5H309.196V17.371C308.806 16.799 308.013 16.37 307.116 16.37C305.361 16.37 303.996 17.826 303.996 19.659C303.996 21.505 305.361 22.961 307.116 22.961C308.013 22.961 308.806 22.519 309.196 21.947V22.714C309.196 23.975 308.403 24.625 307.428 24.625C306.518 24.625 305.894 24.274 305.634 23.507H304.23ZM309.313 19.659C309.313 20.816 308.481 21.648 307.376 21.648C306.271 21.648 305.439 20.816 305.439 19.659C305.439 18.502 306.271 17.67 307.376 17.67C308.481 17.67 309.313 18.502 309.313 19.659ZM312.55 23H313.98V19.802C313.98 18.437 314.617 17.67 315.54 17.67C316.32 17.67 316.697 18.333 316.697 19.347V23H318.127V19.802C318.127 18.437 318.751 17.67 319.674 17.67C320.454 17.67 320.831 18.333 320.831 19.347V23H322.261V19.113C322.261 17.449 321.39 16.37 319.921 16.37C319.063 16.37 318.231 16.825 317.841 17.657C317.49 16.851 316.788 16.37 315.826 16.37C314.994 16.37 314.344 16.773 313.98 17.384V16.5H312.55V23ZM330.148 20.959H328.653C328.354 21.583 327.73 21.869 327.015 21.869C325.858 21.869 325.104 21.089 325.052 20.101H330.226C330.356 17.891 328.965 16.37 326.976 16.37C324.974 16.37 323.635 17.826 323.635 19.75C323.635 21.7 325.026 23.13 326.963 23.13C328.614 23.13 329.784 22.181 330.148 20.959ZM326.937 17.566C327.73 17.566 328.471 18.034 328.692 19.087H325.104C325.299 18.086 326.04 17.566 326.937 17.566ZM331.695 23H333.125V19.802C333.125 18.411 333.853 17.67 334.802 17.67C335.634 17.67 336.154 18.294 336.154 19.321V23H337.584V19.087C337.584 17.436 336.609 16.37 335.101 16.37C334.256 16.37 333.515 16.734 333.125 17.384V16.5H331.695V23ZM343.224 22.922V21.648C343.016 21.726 342.73 21.778 342.457 21.778C341.716 21.778 341.365 21.479 341.365 20.673V17.774H343.224V16.5H341.365V14.693H339.935V16.5H338.583V17.774H339.935V20.907C339.935 22.376 340.91 23.065 342.158 23.065C342.6 23.065 342.938 23.013 343.224 22.922Z" fill="#5C6C75"/>
<rect x="357" y="9" width="1" height="18" fill="#C1C7C6"/>
<path d="M378.538 11.1097C378.709 10.6991 379.291 10.6991 379.462 11.1097L380.999 14.8053C381.071 14.9785 381.233 15.0967 381.42 15.1117L385.41 15.4316C385.853 15.4671 386.033 16.0204 385.695 16.3097L382.656 18.9136C382.513 19.0355 382.451 19.2269 382.495 19.4093L383.423 23.3026C383.526 23.7352 383.056 24.0771 382.676 23.8453L379.261 21.759C379.101 21.6613 378.899 21.6613 378.739 21.759L375.324 23.8453C374.944 24.0771 374.473 23.7352 374.577 23.3026L375.505 19.4093C375.549 19.2269 375.487 19.0355 375.344 18.9136L372.304 16.3097C371.967 16.0204 372.146 15.4671 372.59 15.4316L376.579 15.1117C376.766 15.0967 376.929 14.9785 377.001 14.8053L378.538 11.1097Z" fill="#5C6C75"/>
<path d="M393.888 20.348C393.953 21.804 395.188 23.156 397.255 23.156C399.075 23.156 400.323 22.077 400.323 20.517C400.323 19.113 399.478 18.242 398.035 17.774L396.891 17.41C396.072 17.137 395.643 16.773 395.643 16.097C395.656 15.434 396.267 15.031 397.034 15.031C397.697 15.031 398.386 15.382 398.607 16.253H400.128C400.037 14.966 398.984 13.614 397.06 13.614C395.331 13.614 394.109 14.576 394.122 16.175C394.122 17.527 394.928 18.372 396.384 18.84L397.515 19.217C398.386 19.503 398.789 19.945 398.789 20.569C398.789 21.297 398.113 21.739 397.242 21.739C396.397 21.739 395.526 21.284 395.409 20.348H393.888ZM407.904 20.959H406.409C406.11 21.583 405.486 21.869 404.771 21.869C403.614 21.869 402.86 21.089 402.808 20.101H407.982C408.112 17.891 406.721 16.37 404.732 16.37C402.73 16.37 401.391 17.826 401.391 19.75C401.391 21.7 402.782 23.13 404.719 23.13C406.37 23.13 407.54 22.181 407.904 20.959ZM404.693 17.566C405.486 17.566 406.227 18.034 406.448 19.087H402.86C403.055 18.086 403.796 17.566 404.693 17.566ZM409.23 23.507C409.399 24.859 410.608 25.847 412.389 25.847C414.131 25.847 415.626 24.859 415.626 22.597V16.5H414.196V17.371C413.806 16.799 413.013 16.37 412.116 16.37C410.361 16.37 408.996 17.826 408.996 19.659C408.996 21.505 410.361 22.961 412.116 22.961C413.013 22.961 413.806 22.519 414.196 21.947V22.714C414.196 23.975 413.403 24.625 412.428 24.625C411.518 24.625 410.894 24.274 410.634 23.507H409.23ZM414.313 19.659C414.313 20.816 413.481 21.648 412.376 21.648C411.271 21.648 410.439 20.816 410.439 19.659C410.439 18.502 411.271 17.67 412.376 17.67C413.481 17.67 414.313 18.502 414.313 19.659ZM417.55 23H418.98V19.802C418.98 18.437 419.617 17.67 420.54 17.67C421.32 17.67 421.697 18.333 421.697 19.347V23H423.127V19.802C423.127 18.437 423.751 17.67 424.674 17.67C425.454 17.67 425.831 18.333 425.831 19.347V23H427.261V19.113C427.261 17.449 426.39 16.37 424.921 16.37C424.063 16.37 423.231 16.825 422.841 17.657C422.49 16.851 421.788 16.37 420.826 16.37C419.994 16.37 419.344 16.773 418.98 17.384V16.5H417.55V23ZM435.148 20.959H433.653C433.354 21.583 432.73 21.869 432.015 21.869C430.858 21.869 430.104 21.089 430.052 20.101H435.226C435.356 17.891 433.965 16.37 431.976 16.37C429.974 16.37 428.635 17.826 428.635 19.75C428.635 21.7 430.026 23.13 431.963 23.13C433.614 23.13 434.784 22.181 435.148 20.959ZM431.937 17.566C432.73 17.566 433.471 18.034 433.692 19.087H430.104C430.299 18.086 431.04 17.566 431.937 17.566ZM436.695 23H438.125V19.802C438.125 18.411 438.853 17.67 439.802 17.67C440.634 17.67 441.154 18.294 441.154 19.321V23H442.584V19.087C442.584 17.436 441.609 16.37 440.101 16.37C439.256 16.37 438.515 16.734 438.125 17.384V16.5H436.695V23ZM448.224 22.922V21.648C448.016 21.726 447.73 21.778 447.457 21.778C446.716 21.778 446.365 21.479 446.365 20.673V17.774H448.224V16.5H446.365V14.693H444.935V16.5H443.583V17.774H444.935V20.907C444.935 22.376 445.91 23.065 447.158 23.065C447.6 23.065 447.938 23.013 448.224 22.922Z" fill="#5C6C75"/>
</g>
<defs>
<filter id="filter0_di_2_42069" x="40" y="0" width="425" height="38" filterUnits="userSpaceOnUse" color-interpolation-filters="sRGB">
<feFlood flood-opacity="0" result="BackgroundImageFix"/>
<feColorMatrix in="SourceAlpha" type="matrix" values="0 0 0 0 0 0 0 0 0 0 0 0 0 0 0 0 0 0 127 0" result="hardAlpha"/>
<feOffset dy="1"/>
<feGaussianBlur stdDeviation="0.5"/>
<feComposite in2="hardAlpha" operator="out"/>
<feColorMatrix type="matrix" values="0 0 0 0 0.905882 0 0 0 0 0.933333 0 0 0 0 0.92549 0 0 0 1 0"/>
<feBlend mode="normal" in2="BackgroundImageFix" result="effect1_dropShadow_2_42069"/>
<feBlend mode="normal" in="SourceGraphic" in2="effect1_dropShadow_2_42069" result="shape"/>
<feColorMatrix in="SourceAlpha" type="matrix" values="0 0 0 0 0 0 0 0 0 0 0 0 0 0 0 0 0 0 127 0" result="hardAlpha"/>
<feOffset dy="1"/>
<feGaussianBlur stdDeviation="1"/>
<feComposite in2="hardAlpha" operator="arithmetic" k2="-1" k3="1"/>
<feColorMatrix type="matrix" values="0 0 0 0 0 0 0 0 0 0 0 0 0 0 0 0 0 0 0.3 0"/>
<feBlend mode="normal" in2="shape" result="effect2_innerShadow_2_42069"/>
</filter>
</defs>
</svg>
