<svg width="214" height="389" viewBox="0 0 214 389" fill="none" xmlns="http://www.w3.org/2000/svg">
<path d="M8.027 15H13.864V13.206H9.912V5.77H8.027V15ZM14.4752 11.75C14.4752 13.596 15.8012 15.143 17.5302 15.143C18.4272 15.143 19.1162 14.688 19.4022 14.272V15H21.1832V8.5H19.4022V9.228C19.1162 8.812 18.4272 8.357 17.5302 8.357C15.8012 8.357 14.4752 9.904 14.4752 11.75ZM19.5452 11.75C19.5452 12.764 18.8822 13.518 17.9072 13.518C16.9322 13.518 16.2692 12.764 16.2692 11.75C16.2692 10.736 16.9322 9.982 17.9072 9.982C18.8822 9.982 19.5452 10.736 19.5452 11.75ZM24.6956 14.272C24.9946 14.688 25.6836 15.143 26.5806 15.143C28.3096 15.143 29.6356 13.596 29.6356 11.75C29.6356 9.904 28.3096 8.357 26.5806 8.357C25.6836 8.357 24.9946 8.812 24.6956 9.228V5.25H22.9146V15H24.6956V14.272ZM27.8286 11.75C27.8286 12.764 27.1656 13.518 26.1906 13.518C25.2156 13.518 24.5526 12.764 24.5526 11.75C24.5526 10.736 25.2156 9.982 26.1906 9.982C27.1656 9.982 27.8286 10.736 27.8286 11.75ZM37.2561 12.881H35.3971C35.1891 13.323 34.6431 13.596 34.0191 13.596C32.9141 13.596 32.3421 12.933 32.2641 12.166H37.3341C37.4251 9.722 35.8521 8.357 33.9411 8.357C31.9651 8.357 30.5221 9.8 30.5221 11.737C30.5221 13.713 31.9391 15.143 33.9281 15.143C35.5791 15.143 36.8661 14.194 37.2561 12.881ZM33.8891 9.8C34.5001 9.8 35.1631 10.125 35.3841 10.996H32.3291C32.4981 10.281 33.0701 9.8 33.8891 9.8ZM38.6314 15H40.4124V5.25H38.6314V15Z" fill="#001E2B"/>
<path d="M8.222 35H10.874C13.708 35 15.788 33.024 15.788 30.385C15.788 27.746 13.708 25.77 10.874 25.77H8.222V35ZM9.431 33.869V26.901H10.874C13.097 26.901 14.566 28.383 14.566 30.385C14.566 32.387 13.097 33.869 10.874 33.869H9.431ZM23.2331 33.024H22.0891C21.6991 33.804 21.0101 34.116 20.2041 34.116C19.0341 34.116 18.0851 33.232 18.0461 32.049H23.3371C23.4931 30.034 22.2581 28.37 20.2171 28.37C18.1891 28.37 16.9151 29.852 16.9151 31.75C16.9151 33.687 18.2931 35.13 20.1911 35.13C21.8421 35.13 22.9081 34.168 23.2331 33.024ZM20.1781 29.358C21.1401 29.358 21.9461 29.956 22.1541 31.165H18.0981C18.3191 29.878 19.2421 29.358 20.1781 29.358ZM29.4355 33.245C29.4355 32.27 28.8505 31.594 27.7715 31.321L26.7315 31.048C26.0425 30.866 25.7435 30.593 25.7435 30.112C25.7435 29.618 26.2375 29.306 26.8615 29.306C27.4725 29.306 27.9405 29.657 28.1095 30.229H29.2275C29.1105 29.189 28.2525 28.37 26.8615 28.37C25.5485 28.37 24.6125 29.046 24.6125 30.125C24.6125 31.048 25.1715 31.75 26.2895 32.036L27.2255 32.283C27.9925 32.491 28.3045 32.803 28.3045 33.323C28.3045 33.895 27.7585 34.181 27.0565 34.181C26.3805 34.181 25.7045 33.908 25.5485 33.115H24.4045C24.4955 34.428 25.6525 35.13 27.0435 35.13C28.3955 35.13 29.4355 34.532 29.4355 33.245ZM37.1808 32.712H35.9848C35.6988 33.531 34.9188 34.103 33.9048 34.103C32.5528 34.103 31.6428 33.063 31.6428 31.75C31.6428 30.437 32.5528 29.397 33.9048 29.397C34.9188 29.397 35.6988 29.969 35.9848 30.788H37.1808C36.8168 29.384 35.5428 28.37 33.9048 28.37C31.9288 28.37 30.5118 29.891 30.5118 31.75C30.5118 33.609 31.9288 35.13 33.9048 35.13C35.5428 35.13 36.8168 34.116 37.1808 32.712ZM38.6614 35H39.7794V31.776C39.7794 30.255 40.6764 29.54 41.4954 29.54C41.7164 29.54 41.8984 29.566 42.1064 29.644V28.487C41.9244 28.448 41.7684 28.435 41.5994 28.435C40.8454 28.435 40.0394 28.929 39.7794 29.761V28.5H38.6614V35ZM44.7741 25.965C44.7741 25.536 44.4361 25.172 43.9941 25.172C43.5521 25.172 43.1881 25.536 43.1881 25.965C43.1881 26.407 43.5521 26.758 43.9941 26.758C44.4361 26.758 44.7741 26.407 44.7741 25.965ZM43.4221 35H44.5401V28.5H43.4221V35ZM46.6594 37.717H47.7774V33.999C48.2064 34.623 49.0904 35.13 50.0654 35.13C51.8724 35.13 53.2504 33.609 53.2504 31.75C53.2504 29.891 51.8724 28.37 50.0654 28.37C49.0904 28.37 48.2064 28.877 47.7774 29.501V28.5H46.6594V37.717ZM52.1064 31.75C52.1064 33.063 51.2094 34.103 49.8964 34.103C48.5834 34.103 47.6864 33.063 47.6864 31.75C47.6864 30.437 48.5834 29.397 49.8964 29.397C51.2094 29.397 52.1064 30.437 52.1064 31.75ZM58.2694 34.909V33.908C58.0614 33.986 57.7494 34.038 57.4764 34.038C56.7744 34.038 56.3974 33.765 56.3974 32.933V29.527H58.2694V28.5H56.3974V26.693H55.2794V28.5H53.9014V29.527H55.2794V33.076C55.2794 34.428 56.1374 35.065 57.2684 35.065C57.6714 35.065 57.9964 35 58.2694 34.909ZM61.0495 25.965C61.0495 25.536 60.7115 25.172 60.2695 25.172C59.8275 25.172 59.4635 25.536 59.4635 25.965C59.4635 26.407 59.8275 26.758 60.2695 26.758C60.7115 26.758 61.0495 26.407 61.0495 25.965ZM59.6975 35H60.8155V28.5H59.6975V35ZM69.2138 31.75C69.2138 29.878 67.7708 28.37 65.8208 28.37C63.8578 28.37 62.4148 29.878 62.4148 31.75C62.4148 33.622 63.8578 35.13 65.8208 35.13C67.7708 35.13 69.2138 33.622 69.2138 31.75ZM63.5588 31.75C63.5588 30.45 64.4688 29.41 65.8208 29.41C67.1728 29.41 68.0698 30.45 68.0698 31.75C68.0698 33.05 67.1728 34.09 65.8208 34.09C64.4688 34.09 63.5588 33.05 63.5588 31.75ZM70.8186 35H71.9366V31.776C71.9366 30.255 72.7686 29.397 73.8216 29.397C74.7316 29.397 75.3556 30.073 75.3556 31.165V35H76.4606V30.996C76.4606 29.384 75.4596 28.37 74.0036 28.37C73.1586 28.37 72.3786 28.734 71.9366 29.501V28.5H70.8186V35ZM80.0209 34.129C80.0209 33.609 79.5919 33.154 79.0589 33.154C78.5259 33.154 78.0969 33.609 78.0969 34.129C78.0969 34.662 78.5259 35.104 79.0589 35.104C79.5919 35.104 80.0209 34.662 80.0209 34.129ZM15.411 55H16.49L19.012 45.77H17.751L15.814 52.972L13.149 45.614L10.497 52.972L8.56 45.77H7.299L9.821 55H10.9L13.162 48.734L15.411 55ZM20.3675 55H21.4855V51.776C21.4855 50.255 22.3175 49.397 23.3705 49.397C24.2805 49.397 24.9045 50.073 24.9045 51.165V55H26.0095V50.996C26.0095 49.384 25.0085 48.37 23.5525 48.37C22.7075 48.37 21.9275 48.734 21.4855 49.501V45.25H20.3675V55ZM29.3747 45.965C29.3747 45.536 29.0367 45.172 28.5947 45.172C28.1527 45.172 27.7887 45.536 27.7887 45.965C27.7887 46.407 28.1527 46.758 28.5947 46.758C29.0367 46.758 29.3747 46.407 29.3747 45.965ZM28.0227 55H29.1407V48.5H28.0227V55ZM37.422 52.712H36.226C35.94 53.531 35.16 54.103 34.146 54.103C32.794 54.103 31.884 53.063 31.884 51.75C31.884 50.437 32.794 49.397 34.146 49.397C35.16 49.397 35.94 49.969 36.226 50.788H37.422C37.058 49.384 35.784 48.37 34.146 48.37C32.17 48.37 30.753 49.891 30.753 51.75C30.753 53.609 32.17 55.13 34.146 55.13C35.784 55.13 37.058 54.116 37.422 52.712ZM38.9026 55H40.0206V51.776C40.0206 50.255 40.8526 49.397 41.9056 49.397C42.8156 49.397 43.4396 50.073 43.4396 51.165V55H44.5446V50.996C44.5446 49.384 43.5436 48.37 42.0876 48.37C41.2426 48.37 40.4626 48.734 40.0206 49.501V45.25H38.9026V55ZM55.8556 52.712H54.6596C54.3736 53.531 53.5936 54.103 52.5796 54.103C51.2276 54.103 50.3176 53.063 50.3176 51.75C50.3176 50.437 51.2276 49.397 52.5796 49.397C53.5936 49.397 54.3736 49.969 54.6596 50.788H55.8556C55.4916 49.384 54.2176 48.37 52.5796 48.37C50.6036 48.37 49.1866 49.891 49.1866 51.75C49.1866 53.609 50.6036 55.13 52.5796 55.13C54.2176 55.13 55.4916 54.116 55.8556 52.712ZM56.8292 51.75C56.8292 53.609 58.1942 55.13 60.0142 55.13C60.9892 55.13 61.8732 54.623 62.3022 53.999V55H63.4202V48.5H62.3022V49.501C61.8732 48.877 60.9892 48.37 60.0142 48.37C58.1942 48.37 56.8292 49.891 56.8292 51.75ZM62.3932 51.75C62.3932 53.063 61.4962 54.103 60.1832 54.103C58.8702 54.103 57.9602 53.063 57.9602 51.75C57.9602 50.437 58.8702 49.397 60.1832 49.397C61.4962 49.397 62.3932 50.437 62.3932 51.75ZM65.5247 55H66.6427V51.776C66.6427 50.255 67.4747 49.397 68.5277 49.397C69.4377 49.397 70.0617 50.073 70.0617 51.165V55H71.1667V50.996C71.1667 49.384 70.1657 48.37 68.7097 48.37C67.8647 48.37 67.0847 48.734 66.6427 49.501V48.5H65.5247V55ZM80.8007 53.245C80.8007 52.27 80.2157 51.594 79.1367 51.321L78.0967 51.048C77.4077 50.866 77.1087 50.593 77.1087 50.112C77.1087 49.618 77.6027 49.306 78.2267 49.306C78.8377 49.306 79.3057 49.657 79.4747 50.229H80.5927C80.4757 49.189 79.6177 48.37 78.2267 48.37C76.9137 48.37 75.9777 49.046 75.9777 50.125C75.9777 51.048 76.5367 51.75 77.6547 52.036L78.5907 52.283C79.3577 52.491 79.6697 52.803 79.6697 53.323C79.6697 53.895 79.1237 54.181 78.4217 54.181C77.7457 54.181 77.0697 53.908 76.9137 53.115H75.7697C75.8607 54.428 77.0177 55.13 78.4087 55.13C79.7607 55.13 80.8007 54.532 80.8007 53.245ZM82.3841 57.717H83.5021V53.999C83.9311 54.623 84.8151 55.13 85.7901 55.13C87.5971 55.13 88.9751 53.609 88.9751 51.75C88.9751 49.891 87.5971 48.37 85.7901 48.37C84.8151 48.37 83.9311 48.877 83.5021 49.501V48.5H82.3841V57.717ZM87.8311 51.75C87.8311 53.063 86.9341 54.103 85.6211 54.103C84.3081 54.103 83.4111 53.063 83.4111 51.75C83.4111 50.437 84.3081 49.397 85.6211 49.397C86.9341 49.397 87.8311 50.437 87.8311 51.75ZM90.0782 51.75C90.0782 53.609 91.4432 55.13 93.2632 55.13C94.2382 55.13 95.1222 54.623 95.5512 53.999V55H96.6692V48.5H95.5512V49.501C95.1222 48.877 94.2382 48.37 93.2632 48.37C91.4432 48.37 90.0782 49.891 90.0782 51.75ZM95.6422 51.75C95.6422 53.063 94.7452 54.103 93.4322 54.103C92.1192 54.103 91.2092 53.063 91.2092 51.75C91.2092 50.437 92.1192 49.397 93.4322 49.397C94.7452 49.397 95.6422 50.437 95.6422 51.75ZM98.7737 55H99.8917V51.776C99.8917 50.255 100.724 49.397 101.777 49.397C102.687 49.397 103.311 50.073 103.311 51.165V55H104.416V50.996C104.416 49.384 103.415 48.37 101.959 48.37C101.114 48.37 100.334 48.734 99.8917 49.501V48.5H98.7737V55ZM115.129 53.921H110.527C110.748 52.855 111.827 52.322 112.893 51.542C114.401 50.45 115.025 49.67 115.025 48.318C115.025 46.524 113.712 45.614 112.178 45.614C110.475 45.614 109.136 46.758 109.136 48.526H110.28C110.293 47.33 111.177 46.706 112.191 46.706C113.192 46.706 113.881 47.343 113.881 48.305C113.881 49.384 113.309 49.865 112.243 50.658C110.878 51.672 109.149 52.582 109.149 54.558V55H115.129V53.921ZM119.949 55H121.067V45.25H119.949V55ZM124.539 45.965C124.539 45.536 124.201 45.172 123.759 45.172C123.317 45.172 122.953 45.536 122.953 45.965C122.953 46.407 123.317 46.758 123.759 46.758C124.201 46.758 124.539 46.407 124.539 45.965ZM123.187 55H124.305V48.5H123.187V55ZM126.424 55H127.542V51.776C127.542 50.255 128.374 49.397 129.427 49.397C130.337 49.397 130.961 50.073 130.961 51.165V55H132.066V50.996C132.066 49.384 131.065 48.37 129.609 48.37C128.764 48.37 127.984 48.734 127.542 49.501V48.5H126.424V55ZM139.89 53.024H138.746C138.356 53.804 137.667 54.116 136.861 54.116C135.691 54.116 134.742 53.232 134.703 52.049H139.994C140.15 50.034 138.915 48.37 136.874 48.37C134.846 48.37 133.572 49.852 133.572 51.75C133.572 53.687 134.95 55.13 136.848 55.13C138.499 55.13 139.565 54.168 139.89 53.024ZM136.835 49.358C137.797 49.358 138.603 49.956 138.811 51.165H134.755C134.976 49.878 135.899 49.358 136.835 49.358ZM146.093 53.245C146.093 52.27 145.508 51.594 144.429 51.321L143.389 51.048C142.7 50.866 142.401 50.593 142.401 50.112C142.401 49.618 142.895 49.306 143.519 49.306C144.13 49.306 144.598 49.657 144.767 50.229H145.885C145.768 49.189 144.91 48.37 143.519 48.37C142.206 48.37 141.27 49.046 141.27 50.125C141.27 51.048 141.829 51.75 142.947 52.036L143.883 52.283C144.65 52.491 144.962 52.803 144.962 53.323C144.962 53.895 144.416 54.181 143.714 54.181C143.038 54.181 142.362 53.908 142.206 53.115H141.062C141.153 54.428 142.31 55.13 143.701 55.13C145.053 55.13 146.093 54.532 146.093 53.245ZM149.223 54.129C149.223 53.609 148.794 53.154 148.261 53.154C147.728 53.154 147.299 53.609 147.299 54.129C147.299 54.662 147.728 55.104 148.261 55.104C148.794 55.104 149.223 54.662 149.223 54.129Z" fill="#5C6C75"/>
<g filter="url(#filter0_d_2_42091)">
<rect x="7" y="64" width="200" height="36" rx="6" fill="white"/>
<path d="M19.559 84.03C19.611 85.434 20.833 86.656 22.77 86.656C24.486 86.656 25.708 85.668 25.708 84.108C25.708 82.73 24.902 81.924 23.498 81.417L22.315 80.988C21.418 80.663 20.989 80.273 20.989 79.493C20.989 78.726 21.678 78.245 22.562 78.245C23.316 78.245 24.07 78.648 24.304 79.61H25.5C25.383 78.401 24.46 77.114 22.588 77.114C20.976 77.114 19.78 78.024 19.78 79.532C19.793 80.832 20.482 81.625 21.912 82.132L23.186 82.6C24.044 82.912 24.499 83.419 24.499 84.147C24.499 85.005 23.719 85.525 22.757 85.525C21.886 85.525 20.872 85.057 20.768 84.03H19.559ZM33.1638 84.524H32.0198C31.6298 85.304 30.9408 85.616 30.1348 85.616C28.9648 85.616 28.0158 84.732 27.9768 83.549H33.2678C33.4238 81.534 32.1888 79.87 30.1478 79.87C28.1198 79.87 26.8458 81.352 26.8458 83.25C26.8458 85.187 28.2238 86.63 30.1218 86.63C31.7728 86.63 32.8388 85.668 33.1638 84.524ZM30.1088 80.858C31.0708 80.858 31.8768 81.456 32.0848 82.665H28.0288C28.2498 81.378 29.1728 80.858 30.1088 80.858ZM34.8811 86.5H35.9991V76.75H34.8811V86.5ZM43.9294 84.524H42.7854C42.3954 85.304 41.7064 85.616 40.9004 85.616C39.7304 85.616 38.7814 84.732 38.7424 83.549H44.0334C44.1894 81.534 42.9544 79.87 40.9134 79.87C38.8854 79.87 37.6114 81.352 37.6114 83.25C37.6114 85.187 38.9894 86.63 40.8874 86.63C42.5384 86.63 43.6044 85.668 43.9294 84.524ZM40.8744 80.858C41.8364 80.858 42.6424 81.456 42.8504 82.665H38.7944C39.0154 81.378 39.9384 80.858 40.8744 80.858ZM51.8088 84.212H50.6128C50.3268 85.031 49.5468 85.603 48.5328 85.603C47.1808 85.603 46.2708 84.563 46.2708 83.25C46.2708 81.937 47.1808 80.897 48.5328 80.897C49.5468 80.897 50.3268 81.469 50.6128 82.288H51.8088C51.4448 80.884 50.1708 79.87 48.5328 79.87C46.5568 79.87 45.1398 81.391 45.1398 83.25C45.1398 85.109 46.5568 86.63 48.5328 86.63C50.1708 86.63 51.4448 85.616 51.8088 84.212ZM56.7489 86.409V85.408C56.5409 85.486 56.2289 85.538 55.9559 85.538C55.2539 85.538 54.8769 85.265 54.8769 84.433V81.027H56.7489V80H54.8769V78.193H53.7589V80H52.3809V81.027H53.7589V84.576C53.7589 85.928 54.6169 86.565 55.7479 86.565C56.1509 86.565 56.4759 86.5 56.7489 86.409ZM60.8058 83.25C60.8058 85.109 62.1708 86.63 63.9908 86.63C64.9658 86.63 65.8498 86.123 66.2788 85.499V86.5H67.3968V80H66.2788V81.001C65.8498 80.377 64.9658 79.87 63.9908 79.87C62.1708 79.87 60.8058 81.391 60.8058 83.25ZM66.3698 83.25C66.3698 84.563 65.4728 85.603 64.1598 85.603C62.8468 85.603 61.9368 84.563 61.9368 83.25C61.9368 81.937 62.8468 80.897 64.1598 80.897C65.4728 80.897 66.3698 81.937 66.3698 83.25ZM69.5012 86.5H70.6192V83.276C70.6192 81.755 71.4512 80.897 72.5042 80.897C73.4142 80.897 74.0382 81.573 74.0382 82.665V86.5H75.1432V82.496C75.1432 80.884 74.1422 79.87 72.6862 79.87C71.8412 79.87 71.0612 80.234 70.6192 81.001V80H69.5012V86.5ZM78.5085 77.465C78.5085 77.036 78.1705 76.672 77.7285 76.672C77.2865 76.672 76.9225 77.036 76.9225 77.465C76.9225 77.907 77.2865 78.258 77.7285 78.258C78.1705 78.258 78.5085 77.907 78.5085 77.465ZM77.1565 86.5H78.2745V80H77.1565V86.5ZM80.3938 86.5H81.5118V83.276C81.5118 81.807 82.2528 80.897 83.3058 80.897C84.1508 80.897 84.5798 81.625 84.5798 82.678V86.5H85.6978V83.276C85.6978 81.807 86.4258 80.897 87.4788 80.897C88.3238 80.897 88.7658 81.625 88.7658 82.678V86.5H89.8838V82.509C89.8838 80.923 89.0258 79.87 87.6088 79.87C86.6468 79.87 85.8278 80.403 85.4768 81.261C85.1518 80.403 84.4498 79.87 83.4748 79.87C82.6038 79.87 81.8888 80.312 81.5118 81.001V80H80.3938V86.5ZM91.3888 83.25C91.3888 85.109 92.7538 86.63 94.5738 86.63C95.5488 86.63 96.4328 86.123 96.8618 85.499V86.5H97.9798V80H96.8618V81.001C96.4328 80.377 95.5488 79.87 94.5738 79.87C92.7538 79.87 91.3888 81.391 91.3888 83.25ZM96.9528 83.25C96.9528 84.563 96.0558 85.603 94.7428 85.603C93.4298 85.603 92.5198 84.563 92.5198 83.25C92.5198 81.937 93.4298 80.897 94.7428 80.897C96.0558 80.897 96.9528 81.937 96.9528 83.25ZM100.084 86.5H101.202V76.75H100.084V86.5Z" fill="#5C6C75"/>
<path d="M195.429 83.7962C195.203 84.0679 194.797 84.0679 194.571 83.7962L191.39 79.9765C191.071 79.5943 191.332 79 191.819 79H198.181C198.668 79 198.929 79.5943 198.61 79.9765L195.429 83.7962Z" fill="#3D4F58"/>
<rect x="7.5" y="64.5" width="199" height="35" rx="5.5" stroke="#889397"/>
</g>
<g filter="url(#filter1_d_2_42091)">
<rect x="7" y="106" width="200" height="272" rx="12" fill="white"/>
<rect width="200" height="32" transform="translate(7 114)" fill="white"/>
<path fill-rule="evenodd" clip-rule="evenodd" d="M25.3059 131.05L30.7611 125.595C31.1517 125.205 31.7848 125.205 32.1754 125.595L32.8825 126.302C33.273 126.693 33.273 127.326 32.8825 127.716L25.8153 134.784C25.3882 135.211 24.683 135.165 24.3151 134.686L21.2664 130.716C20.93 130.278 21.0124 129.65 21.4504 129.314L22.0452 128.857C22.5927 128.437 23.3775 128.54 23.798 129.087L25.3059 131.05Z" fill="#016BF8"/>
<path d="M47.442 132.14C47.52 133.661 48.781 135.156 50.991 135.156C52.928 135.156 54.202 133.986 54.202 132.413C54.202 130.983 53.305 130.034 51.81 129.618L50.731 129.319C49.977 129.098 49.561 128.786 49.574 128.214C49.587 127.668 50.107 127.356 50.77 127.356C51.316 127.356 51.927 127.642 52.135 128.422H54.007C53.942 127.044 52.759 125.614 50.77 125.614C48.924 125.614 47.663 126.641 47.676 128.344C47.689 129.748 48.638 130.658 50.094 131.074L51.069 131.36C51.953 131.607 52.304 131.984 52.304 132.478C52.304 133.063 51.745 133.414 50.991 133.414C50.172 133.414 49.457 132.972 49.327 132.14H47.442ZM61.8821 132.881H60.0231C59.8151 133.323 59.2691 133.596 58.6451 133.596C57.5401 133.596 56.9681 132.933 56.8901 132.166H61.9601C62.0511 129.722 60.4781 128.357 58.5671 128.357C56.5911 128.357 55.1481 129.8 55.1481 131.737C55.1481 133.713 56.5651 135.143 58.5541 135.143C60.2051 135.143 61.4921 134.194 61.8821 132.881ZM58.5151 129.8C59.1261 129.8 59.7891 130.125 60.0101 130.996H56.9551C57.1241 130.281 57.6961 129.8 58.5151 129.8ZM63.2574 135H65.0384V125.25H63.2574V135ZM73.0666 132.881H71.2076C70.9996 133.323 70.4536 133.596 69.8296 133.596C68.7246 133.596 68.1526 132.933 68.0746 132.166H73.1446C73.2356 129.722 71.6626 128.357 69.7516 128.357C67.7756 128.357 66.3326 129.8 66.3326 131.737C66.3326 133.713 67.7496 135.143 69.7386 135.143C71.3896 135.143 72.6766 134.194 73.0666 132.881ZM69.6996 129.8C70.3106 129.8 70.9736 130.125 71.1946 130.996H68.1396C68.3086 130.281 68.8806 129.8 69.6996 129.8ZM80.773 132.517H78.927C78.68 133.102 78.199 133.531 77.445 133.531C76.509 133.531 75.82 132.829 75.82 131.75C75.82 130.671 76.509 129.969 77.445 129.969C78.199 129.969 78.68 130.398 78.927 130.983H80.773C80.422 129.488 79.239 128.357 77.445 128.357C75.469 128.357 74.026 129.865 74.026 131.75C74.026 133.635 75.469 135.143 77.445 135.143C79.239 135.143 80.422 134.012 80.773 132.517ZM86.1711 134.935V133.362C85.9631 133.44 85.7291 133.479 85.4431 133.479C84.6761 133.479 84.3381 133.167 84.3381 132.374V130.06H86.1711V128.5H84.3381V126.693H82.5571V128.5H81.2441V130.06H82.5571V132.725C82.5571 134.311 83.6621 135.078 85.0401 135.078C85.5341 135.078 85.8851 135.026 86.1711 134.935ZM89.984 131.75C89.984 133.596 91.31 135.143 93.039 135.143C93.936 135.143 94.625 134.688 94.911 134.272V135H96.692V128.5H94.911V129.228C94.625 128.812 93.936 128.357 93.039 128.357C91.31 128.357 89.984 129.904 89.984 131.75ZM95.054 131.75C95.054 132.764 94.391 133.518 93.416 133.518C92.441 133.518 91.778 132.764 91.778 131.75C91.778 130.736 92.441 129.982 93.416 129.982C94.391 129.982 95.054 130.736 95.054 131.75ZM98.4234 135H100.204V131.828C100.204 130.58 100.828 129.982 101.647 129.982C102.388 129.982 102.791 130.554 102.791 131.49V135H104.572V131.191C104.572 129.501 103.636 128.357 102.063 128.357C101.218 128.357 100.542 128.721 100.204 129.241V128.5H98.4234V135ZM108.234 126.303C108.234 125.679 107.727 125.172 107.09 125.172C106.479 125.172 105.959 125.679 105.959 126.303C105.959 126.927 106.479 127.434 107.09 127.434C107.727 127.434 108.234 126.927 108.234 126.303ZM106.206 135H107.987V128.5H106.206V135ZM109.697 135H111.478V131.828C111.478 130.58 112.011 129.982 112.778 129.982C113.48 129.982 113.792 130.567 113.792 131.529V135H115.573V131.828C115.573 130.58 116.106 129.982 116.873 129.982C117.575 129.982 117.887 130.567 117.887 131.529V135H119.668V131.23C119.668 129.475 118.784 128.357 117.237 128.357C116.496 128.357 115.625 128.747 115.222 129.553C114.832 128.799 114.156 128.357 113.207 128.357C112.414 128.357 111.829 128.734 111.478 129.241V128.5H109.697V135ZM120.884 131.75C120.884 133.596 122.21 135.143 123.939 135.143C124.836 135.143 125.525 134.688 125.811 134.272V135H127.592V128.5H125.811V129.228C125.525 128.812 124.836 128.357 123.939 128.357C122.21 128.357 120.884 129.904 120.884 131.75ZM125.954 131.75C125.954 132.764 125.291 133.518 124.316 133.518C123.341 133.518 122.678 132.764 122.678 131.75C122.678 130.736 123.341 129.982 124.316 129.982C125.291 129.982 125.954 130.736 125.954 131.75ZM129.324 135H131.105V125.25H129.324V135Z" fill="#001E2B"/>
<rect width="200" height="32" transform="translate(7 146)" fill="white"/>
<path d="M47.078 167H48.326L49.509 164.309H53.812L54.995 167H56.256L52.161 157.77H51.16L47.078 167ZM49.977 163.217L51.654 159.408L53.331 163.217H49.977ZM56.7628 163.75C56.7628 165.609 58.1278 167.13 59.9478 167.13C60.9228 167.13 61.8068 166.623 62.2358 165.999V167H63.3538V160.5H62.2358V161.501C61.8068 160.877 60.9228 160.37 59.9478 160.37C58.1278 160.37 56.7628 161.891 56.7628 163.75ZM62.3268 163.75C62.3268 165.063 61.4298 166.103 60.1168 166.103C58.8038 166.103 57.8938 165.063 57.8938 163.75C57.8938 162.437 58.8038 161.397 60.1168 161.397C61.4298 161.397 62.3268 162.437 62.3268 163.75ZM64.9513 163.75C64.9513 165.609 66.3163 167.13 68.1363 167.13C69.1113 167.13 69.9953 166.623 70.4243 165.999V167H71.5423V157.25H70.4243V161.501C69.9953 160.877 69.1113 160.37 68.1363 160.37C66.3163 160.37 64.9513 161.891 64.9513 163.75ZM70.5153 163.75C70.5153 165.063 69.6183 166.103 68.3053 166.103C66.9923 166.103 66.0823 165.063 66.0823 163.75C66.0823 162.437 66.9923 161.397 68.3053 161.397C69.6183 161.397 70.5153 162.437 70.5153 163.75ZM75.6748 167H76.6108L79.6138 160.5H78.3658L76.1428 165.414L73.9198 160.5H72.6718L75.6748 167ZM80.1095 163.75C80.1095 165.609 81.4745 167.13 83.2945 167.13C84.2695 167.13 85.1535 166.623 85.5825 165.999V167H86.7005V160.5H85.5825V161.501C85.1535 160.877 84.2695 160.37 83.2945 160.37C81.4745 160.37 80.1095 161.891 80.1095 163.75ZM85.6735 163.75C85.6735 165.063 84.7765 166.103 83.4635 166.103C82.1505 166.103 81.2405 165.063 81.2405 163.75C81.2405 162.437 82.1505 161.397 83.4635 161.397C84.7765 161.397 85.6735 162.437 85.6735 163.75ZM88.805 167H89.923V163.776C89.923 162.255 90.82 161.54 91.639 161.54C91.86 161.54 92.042 161.566 92.25 161.644V160.487C92.068 160.448 91.912 160.435 91.743 160.435C90.989 160.435 90.183 160.929 89.923 161.761V160.5H88.805V167ZM93.5657 167H94.6837V163.75L98.2067 167H99.7147L95.8017 163.373L98.9997 160.5H97.5177L94.6837 163.035V157.25H93.5657V167Z" fill="#001E2B"/>
<rect width="200" height="32" transform="translate(7 178)" fill="white"/>
<path d="M47.078 199H48.326L49.509 196.309H53.812L54.995 199H56.256L52.161 189.77H51.16L47.078 199ZM49.977 195.217L51.654 191.408L53.331 195.217H49.977ZM57.3841 199H58.5021V195.776C58.5021 194.255 59.3341 193.397 60.3871 193.397C61.2971 193.397 61.9211 194.073 61.9211 195.165V199H63.0261V194.996C63.0261 193.384 62.0251 192.37 60.5691 192.37C59.7241 192.37 58.9441 192.734 58.5021 193.501V192.5H57.3841V199ZM68.4862 198.909V197.908C68.2782 197.986 67.9662 198.038 67.6932 198.038C66.9912 198.038 66.6142 197.765 66.6142 196.933V193.527H68.4862V192.5H66.6142V190.693H65.4962V192.5H64.1182V193.527H65.4962V197.076C65.4962 198.428 66.3542 199.065 67.4852 199.065C67.8882 199.065 68.2132 199 68.4862 198.909ZM75.6365 197.024H74.4925C74.1025 197.804 73.4135 198.116 72.6075 198.116C71.4375 198.116 70.4885 197.232 70.4495 196.049H75.7405C75.8965 194.034 74.6615 192.37 72.6205 192.37C70.5925 192.37 69.3185 193.852 69.3185 195.75C69.3185 197.687 70.6965 199.13 72.5945 199.13C74.2455 199.13 75.3115 198.168 75.6365 197.024ZM72.5815 193.358C73.5435 193.358 74.3495 193.956 74.5575 195.165H70.5015C70.7225 193.878 71.6455 193.358 72.5815 193.358ZM77.3538 199H78.4718V189.25H77.3538V199ZM86.8701 195.75C86.8701 193.878 85.4271 192.37 83.4771 192.37C81.5141 192.37 80.0711 193.878 80.0711 195.75C80.0711 197.622 81.5141 199.13 83.4771 199.13C85.4271 199.13 86.8701 197.622 86.8701 195.75ZM81.2151 195.75C81.2151 194.45 82.1251 193.41 83.4771 193.41C84.8291 193.41 85.7261 194.45 85.7261 195.75C85.7261 197.05 84.8291 198.09 83.4771 198.09C82.1251 198.09 81.2151 197.05 81.2151 195.75ZM88.4749 201.717H89.5929V197.999C90.0219 198.623 90.9059 199.13 91.8809 199.13C93.6879 199.13 95.0659 197.609 95.0659 195.75C95.0659 193.891 93.6879 192.37 91.8809 192.37C90.9059 192.37 90.0219 192.877 89.5929 193.501V192.5H88.4749V201.717ZM93.9219 195.75C93.9219 197.063 93.0249 198.103 91.7119 198.103C90.3989 198.103 89.5019 197.063 89.5019 195.75C89.5019 194.437 90.3989 193.397 91.7119 193.397C93.0249 193.397 93.9219 194.437 93.9219 195.75ZM102.487 197.024H101.343C100.953 197.804 100.264 198.116 99.458 198.116C98.288 198.116 97.339 197.232 97.3 196.049H102.591C102.747 194.034 101.512 192.37 99.471 192.37C97.443 192.37 96.169 193.852 96.169 195.75C96.169 197.687 97.547 199.13 99.445 199.13C101.096 199.13 102.162 198.168 102.487 197.024ZM99.432 193.358C100.394 193.358 101.2 193.956 101.408 195.165H97.352C97.573 193.878 98.496 193.358 99.432 193.358Z" fill="#001E2B"/>
<rect width="200" height="32" transform="translate(7 210)" fill="white"/>
<rect width="200" height="16" transform="translate(7 224)" fill="white"/>
<path d="M19.948 236H25.336V234.344H21.688V227.48H19.948V236ZM26.0214 236H27.8214L28.6494 234.056H32.2734L33.1014 236H34.9254L31.2414 227.48H29.6934L26.0214 236ZM29.2854 232.532L30.4614 229.76L31.6374 232.532H29.2854ZM36.2753 236H39.8753C41.3873 236 42.5153 234.908 42.5153 233.492C42.5153 232.532 41.9993 231.836 41.2553 231.476C41.6633 231.116 41.9273 230.6 41.9273 229.952C41.9273 228.596 40.8233 227.48 39.3953 227.48H36.2753V236ZM38.0153 230.972V229.064H39.2273C39.8273 229.064 40.2353 229.508 40.2353 230.024C40.2353 230.552 39.8273 230.972 39.2273 230.972H38.0153ZM38.0153 234.404V232.448H39.7553C40.4033 232.448 40.8233 232.88 40.8233 233.432C40.8233 233.984 40.4033 234.404 39.7553 234.404H38.0153ZM44.2808 236H49.5848V234.344H46.0208V232.544H48.8648V230.888H46.0208V229.136H49.5848V227.48H44.2808V236ZM51.5011 236H56.8891V234.344H53.2411V227.48H51.5011V236Z" fill="#5C6C75"/>
<rect width="200" height="32" transform="translate(7 242)" fill="white"/>
<path d="M48.222 263H49.431V258.853H52.72V257.709H49.431V254.914H53.591V253.77H48.222V263ZM56.2986 253.965C56.2986 253.536 55.9606 253.172 55.5186 253.172C55.0766 253.172 54.7126 253.536 54.7126 253.965C54.7126 254.407 55.0766 254.758 55.5186 254.758C55.9606 254.758 56.2986 254.407 56.2986 253.965ZM54.9466 263H56.0646V256.5H54.9466V263ZM62.6689 261.245C62.6689 260.27 62.0839 259.594 61.0049 259.321L59.9649 259.048C59.2759 258.866 58.9769 258.593 58.9769 258.112C58.9769 257.618 59.4709 257.306 60.0949 257.306C60.7059 257.306 61.1739 257.657 61.3429 258.229H62.4609C62.3439 257.189 61.4859 256.37 60.0949 256.37C58.7819 256.37 57.8459 257.046 57.8459 258.125C57.8459 259.048 58.4049 259.75 59.5229 260.036L60.4589 260.283C61.2259 260.491 61.5379 260.803 61.5379 261.323C61.5379 261.895 60.9919 262.181 60.2899 262.181C59.6139 262.181 58.9379 261.908 58.7819 261.115H57.6379C57.7289 262.428 58.8859 263.13 60.2769 263.13C61.6289 263.13 62.6689 262.532 62.6689 261.245ZM64.2522 263H65.3702V259.776C65.3702 258.255 66.2022 257.397 67.2552 257.397C68.1652 257.397 68.7892 258.073 68.7892 259.165V263H69.8942V258.996C69.8942 257.384 68.8932 256.37 67.4372 256.37C66.5922 256.37 65.8122 256.734 65.3702 257.501V253.25H64.2522V263Z" fill="#001E2B"/>
<rect width="200" height="32" transform="translate(7 274)" fill="white"/>
<path d="M50.094 295H51.277V286.914H54.15V285.77H47.221V286.914H50.094V295ZM54.2081 292.491C54.2081 294.103 55.1701 295.13 56.6001 295.13C57.4191 295.13 58.1731 294.753 58.6021 293.999V295H59.7201V288.5H58.6021V291.724C58.6021 293.219 57.8091 294.103 56.7951 294.103C55.8981 294.103 55.3261 293.414 55.3261 292.322V288.5H54.2081V292.491ZM61.8274 295H62.9454V291.776C62.9454 290.255 63.8424 289.54 64.6614 289.54C64.8824 289.54 65.0644 289.566 65.2724 289.644V288.487C65.0904 288.448 64.9344 288.435 64.7654 288.435C64.0114 288.435 63.2054 288.929 62.9454 289.761V288.5H61.8274V295ZM70.1112 294.909V293.908C69.9032 293.986 69.5912 294.038 69.3182 294.038C68.6162 294.038 68.2392 293.765 68.2392 292.933V289.527H70.1112V288.5H68.2392V286.693H67.1212V288.5H65.7432V289.527H67.1212V293.076C67.1212 294.428 67.9792 295.065 69.1102 295.065C69.5132 295.065 69.8382 295 70.1112 294.909ZM71.5393 295H72.6573V285.25H71.5393V295ZM80.5876 293.024H79.4436C79.0536 293.804 78.3646 294.116 77.5586 294.116C76.3886 294.116 75.4396 293.232 75.4006 292.049H80.6916C80.8476 290.034 79.6126 288.37 77.5716 288.37C75.5436 288.37 74.2696 289.852 74.2696 291.75C74.2696 293.687 75.6476 295.13 77.5456 295.13C79.1966 295.13 80.2626 294.168 80.5876 293.024ZM77.5326 289.358C78.4946 289.358 79.3006 289.956 79.5086 291.165H75.4526C75.6736 289.878 76.5966 289.358 77.5326 289.358Z" fill="#001E2B"/>
<rect width="200" height="32" transform="translate(7 306)" fill="white"/>
<path d="M47.559 324.53C47.611 325.934 48.833 327.156 50.77 327.156C52.486 327.156 53.708 326.168 53.708 324.608C53.708 323.23 52.902 322.424 51.498 321.917L50.315 321.488C49.418 321.163 48.989 320.773 48.989 319.993C48.989 319.226 49.678 318.745 50.562 318.745C51.316 318.745 52.07 319.148 52.304 320.11H53.5C53.383 318.901 52.46 317.614 50.588 317.614C48.976 317.614 47.78 318.524 47.78 320.032C47.793 321.332 48.482 322.125 49.912 322.632L51.186 323.1C52.044 323.412 52.499 323.919 52.499 324.647C52.499 325.505 51.719 326.025 50.757 326.025C49.886 326.025 48.872 325.557 48.768 324.53H47.559ZM55.2766 327H56.3946V323.776C56.3946 322.255 57.2266 321.397 58.2796 321.397C59.1896 321.397 59.8136 322.073 59.8136 323.165V327H60.9186V322.996C60.9186 321.384 59.9176 320.37 58.4616 320.37C57.6166 320.37 56.8366 320.734 56.3946 321.501V320.5H55.2766V327ZM62.4249 323.75C62.4249 325.609 63.7899 327.13 65.6099 327.13C66.5849 327.13 67.4689 326.623 67.8979 325.999V327H69.0159V320.5H67.8979V321.501C67.4689 320.877 66.5849 320.37 65.6099 320.37C63.7899 320.37 62.4249 321.891 62.4249 323.75ZM67.9889 323.75C67.9889 325.063 67.0919 326.103 65.7789 326.103C64.4659 326.103 63.5559 325.063 63.5559 323.75C63.5559 322.437 64.4659 321.397 65.7789 321.397C67.0919 321.397 67.9889 322.437 67.9889 323.75ZM71.1204 327H72.2384V323.75L75.7614 327H77.2694L73.3564 323.373L76.5544 320.5H75.0724L72.2384 323.035V317.25H71.1204V327ZM83.5202 325.024H82.3763C81.9863 325.804 81.2973 326.116 80.4913 326.116C79.3213 326.116 78.3722 325.232 78.3333 324.049H83.6243C83.7803 322.034 82.5453 320.37 80.5043 320.37C78.4763 320.37 77.2023 321.852 77.2023 323.75C77.2023 325.687 78.5803 327.13 80.4782 327.13C82.1293 327.13 83.1953 326.168 83.5202 325.024ZM80.4653 321.358C81.4273 321.358 82.2333 321.956 82.4413 323.165H78.3853C78.6063 321.878 79.5293 321.358 80.4653 321.358Z" fill="#001E2B"/>
<rect width="200" height="32" transform="translate(7 338)" fill="white"/>
<path d="M47.442 359H54.176V357.856H49.041L54.046 350.576V349.77H47.585V350.914H52.447L47.442 358.194V359ZM61.2654 357.024H60.1214C59.7314 357.804 59.0424 358.116 58.2364 358.116C57.0664 358.116 56.1174 357.232 56.0784 356.049H61.3694C61.5254 354.034 60.2904 352.37 58.2494 352.37C56.2214 352.37 54.9474 353.852 54.9474 355.75C54.9474 357.687 56.3254 359.13 58.2234 359.13C59.8744 359.13 60.9404 358.168 61.2654 357.024ZM58.2104 353.358C59.1724 353.358 59.9784 353.956 60.1864 355.165H56.1304C56.3514 353.878 57.2744 353.358 58.2104 353.358ZM64.1007 357.999C64.5297 358.623 65.4137 359.13 66.3887 359.13C68.1957 359.13 69.5737 357.609 69.5737 355.75C69.5737 353.891 68.1957 352.37 66.3887 352.37C65.4137 352.37 64.5297 352.877 64.1007 353.501V349.25H62.9827V359H64.1007V357.999ZM68.4297 355.75C68.4297 357.063 67.5327 358.103 66.2197 358.103C64.9067 358.103 64.0097 357.063 64.0097 355.75C64.0097 354.437 64.9067 353.397 66.2197 353.397C67.5327 353.397 68.4297 354.437 68.4297 355.75ZM71.1712 359H72.2892V355.776C72.2892 354.255 73.1862 353.54 74.0052 353.54C74.2262 353.54 74.4082 353.566 74.6162 353.644V352.487C74.4342 352.448 74.2782 352.435 74.1092 352.435C73.3552 352.435 72.5492 352.929 72.2892 353.761V352.5H71.1712V359ZM75.2091 355.75C75.2091 357.609 76.5741 359.13 78.3941 359.13C79.3691 359.13 80.2531 358.623 80.6821 357.999V359H81.8001V352.5H80.6821V353.501C80.2531 352.877 79.3691 352.37 78.3941 352.37C76.5741 352.37 75.2091 353.891 75.2091 355.75ZM80.7731 355.75C80.7731 357.063 79.8761 358.103 78.5631 358.103C77.2501 358.103 76.3401 357.063 76.3401 355.75C76.3401 354.437 77.2501 353.397 78.5631 353.397C79.8761 353.397 80.7731 354.437 80.7731 355.75Z" fill="#001E2B"/>
<rect x="7.5" y="106.5" width="199" height="271" rx="11.5" stroke="#E8EDEB"/>
</g>
<defs>
<filter id="filter0_d_2_42091" x="4" y="61" width="206" height="42" filterUnits="userSpaceOnUse" color-interpolation-filters="sRGB">
<feFlood flood-opacity="0" result="BackgroundImageFix"/>
<feColorMatrix in="SourceAlpha" type="matrix" values="0 0 0 0 0 0 0 0 0 0 0 0 0 0 0 0 0 0 127 0" result="hardAlpha"/>
<feMorphology radius="3" operator="dilate" in="SourceAlpha" result="effect1_dropShadow_2_42091"/>
<feOffset/>
<feComposite in2="hardAlpha" operator="out"/>
<feColorMatrix type="matrix" values="0 0 0 0 0.909804 0 0 0 0 0.92549 0 0 0 0 0.921569 0 0 0 1 0"/>
<feBlend mode="normal" in2="BackgroundImageFix" result="effect1_dropShadow_2_42091"/>
<feBlend mode="normal" in="SourceGraphic" in2="effect1_dropShadow_2_42091" result="shape"/>
</filter>
<filter id="filter1_d_2_42091" x="0" y="103" width="214" height="286" filterUnits="userSpaceOnUse" color-interpolation-filters="sRGB">
<feFlood flood-opacity="0" result="BackgroundImageFix"/>
<feColorMatrix in="SourceAlpha" type="matrix" values="0 0 0 0 0 0 0 0 0 0 0 0 0 0 0 0 0 0 127 0" result="hardAlpha"/>
<feOffset dy="4"/>
<feGaussianBlur stdDeviation="3.5"/>
<feColorMatrix type="matrix" values="0 0 0 0 0 0 0 0 0 0 0 0 0 0 0 0 0 0 0.15 0"/>
<feBlend mode="normal" in2="BackgroundImageFix" result="effect1_dropShadow_2_42091"/>
<feBlend mode="normal" in="SourceGraphic" in2="effect1_dropShadow_2_42091" result="shape"/>
</filter>
</defs>
</svg>
