<svg width="204" height="1000" viewBox="0 0 204 1000" fill="none" xmlns="http://www.w3.org/2000/svg">
<rect width="184" height="1000" fill="#F9FBFA"/>
<path d="M30 28.1111C30 28.2087 29.9993 28.3041 29.9979 28.3971C29.9993 28.4313 30 28.4655 30 28.5V28.75C30 29.0775 29.8516 29.392 29.5278 29.7005C29.1982 30.0144 28.7096 30.2975 28.1036 30.5343C26.8929 31.0072 25.3317 31.25 24 31.25C22.6683 31.25 21.1071 31.0072 19.8964 30.5343C19.2904 30.2975 18.8018 30.0144 18.4722 29.7005C18.1484 29.392 18 29.0775 18 28.75V28.5C18 28.4614 18.0009 28.423 18.0026 28.3848C18.0009 28.2958 18 28.2046 18 28.1111C18 26 21.0413 25 24 25C26.9587 25 30 26 30 28.1111Z" fill="#00684A"/>
<path d="M18 30.6153V32.75C18 33.0775 18.1484 33.392 18.4722 33.7005C18.8018 34.0144 19.2904 34.2975 19.8964 34.5343C21.1071 35.0072 22.6683 35.25 24 35.25C25.3317 35.25 26.8929 35.0072 28.1036 34.5343C28.7096 34.2975 29.1982 34.0144 29.5278 33.7005C29.8516 33.392 30 33.0775 30 32.75V30.6153C29.5721 30.9618 29.0398 31.2421 28.4675 31.4657C27.1185 31.9927 25.4297 32.25 24 32.25C22.5703 32.25 20.8815 31.9927 19.5325 31.4657C18.9602 31.2421 18.4279 30.9618 18 30.6153Z" fill="#00684A"/>
<path d="M28.4675 35.4657C29.0398 35.2421 29.5721 34.9618 30 34.6153V35.5C30 35.5383 29.9991 35.5764 29.9974 35.6142C29.9991 35.7047 30 35.7962 30 35.8889C30 38 26.9587 39 24 39C21.0413 39 18 38 18 35.8889C18 35.792 18.0007 35.6964 18.002 35.6021C18.0007 35.5682 18 35.5342 18 35.5V34.6153C18.4279 34.9618 18.9602 35.2421 19.5325 35.4657C20.8815 35.9927 22.5703 36.25 24 36.25C25.4297 36.25 27.1185 35.9927 28.4675 35.4657Z" fill="#00684A"/>
<path d="M40.948 36H43.756C46.204 36 48.136 34.116 48.136 31.74C48.136 29.364 46.204 27.48 43.756 27.48H40.948V36ZM42.688 34.404V29.076H43.756C45.328 29.076 46.384 30.264 46.384 31.74C46.384 33.216 45.328 34.404 43.756 34.404H42.688ZM48.6268 36H50.4268L51.2548 34.056H54.8788L55.7068 36H57.5308L53.8468 27.48H52.2988L48.6268 36ZM51.8908 32.532L53.0668 29.76L54.2428 32.532H51.8908ZM59.6208 36H61.3728V29.136H63.6648V27.48H57.3528V29.136H59.6208V36ZM63.4893 36H65.2893L66.1173 34.056H69.7413L70.5693 36H72.3933L68.7093 27.48H67.1613L63.4893 36ZM66.7533 32.532L67.9293 29.76L69.1053 32.532H66.7533ZM75.9588 33.36C76.0308 34.764 77.1948 36.144 79.2348 36.144C81.0228 36.144 82.1988 35.064 82.1988 33.612C82.1988 32.292 81.3708 31.416 79.9908 31.032L78.9948 30.756C78.2988 30.552 77.9148 30.264 77.9268 29.736C77.9388 29.232 78.4188 28.944 79.0308 28.944C79.5348 28.944 80.0988 29.208 80.2908 29.928H82.0188C81.9588 28.656 80.8668 27.336 79.0308 27.336C77.3268 27.336 76.1628 28.284 76.1748 29.856C76.1868 31.152 77.0628 31.992 78.4068 32.376L79.3068 32.64C80.1228 32.868 80.4468 33.216 80.4468 33.672C80.4468 34.212 79.9308 34.536 79.2348 34.536C78.4788 34.536 77.8188 34.128 77.6988 33.36H75.9588ZM85.4083 36H87.1603V29.136H89.4523V27.48H83.1403V29.136H85.4083V36ZM99.009 31.74C99.009 29.304 97.041 27.336 94.605 27.336C92.169 27.336 90.201 29.304 90.201 31.74C90.201 34.176 92.169 36.144 94.605 36.144C97.041 36.144 99.009 34.176 99.009 31.74ZM91.953 31.74C91.953 30.252 93.117 29.016 94.605 29.016C96.093 29.016 97.257 30.252 97.257 31.74C97.257 33.228 96.093 34.464 94.605 34.464C93.117 34.464 91.953 33.228 91.953 31.74ZM100.796 36H102.536V32.412H102.968L105.884 36H107.984L104.924 32.22C106.052 31.86 106.676 31.14 106.676 30C106.676 28.584 105.656 27.48 104.06 27.48H100.796V36ZM102.536 30.924V29.076H103.856C104.504 29.076 104.948 29.412 104.948 30C104.948 30.576 104.504 30.924 103.856 30.924H102.536ZM108.135 36H109.935L110.763 34.056H114.387L115.215 36H117.039L113.355 27.48H111.807L108.135 36ZM111.399 32.532L112.575 29.76L113.751 32.532H111.399ZM117.534 31.74C117.534 34.212 119.418 36.144 122.022 36.144C124.554 36.144 126.606 34.404 126.222 30.9H121.818V32.532H124.422C124.23 33.708 123.402 34.464 122.022 34.464C120.366 34.464 119.286 33.264 119.286 31.74C119.286 30.216 120.366 29.016 121.998 29.016C122.814 29.016 123.606 29.376 124.026 30H126.018C125.442 28.392 123.786 27.336 121.998 27.336C119.418 27.336 117.534 29.268 117.534 31.74ZM128.082 36H133.386V34.344H129.822V32.544H132.666V30.888H129.822V29.136H133.386V27.48H128.082V36Z" fill="#00684A"/>
<rect width="184" height="32" transform="translate(0 48)" fill="#E3FCF7"/>
<path d="M0 53V53C2.20914 53 4 54.7909 4 57V71C4 73.2091 2.20914 75 0 75V75V53Z" fill="#00A35C"/>
<path d="M16.494 64.385C16.494 67.063 18.535 69.156 21.33 69.156C23.423 69.156 25.295 67.817 25.802 65.854H23.761C23.371 66.777 22.37 67.336 21.33 67.336C19.562 67.336 18.392 66.036 18.392 64.385C18.392 62.734 19.562 61.434 21.33 61.434C22.37 61.434 23.371 61.993 23.761 62.916H25.802C25.295 60.953 23.423 59.614 21.33 59.614C18.535 59.614 16.494 61.707 16.494 64.385ZM27.0016 69H28.7826V59.25H27.0016V69ZM30.4148 66.27C30.4148 67.999 31.2858 69.143 32.8588 69.143C33.6908 69.143 34.3018 68.779 34.6398 68.259V69H36.4208V62.5H34.6398V65.672C34.6398 66.933 34.0938 67.518 33.3008 67.518C32.5338 67.518 32.1958 66.946 32.1958 65.971V62.5H30.4148V66.27ZM43.3613 67.167C43.3613 66.153 42.8283 65.477 41.5543 65.152L40.4103 64.84C40.0203 64.749 39.6693 64.606 39.6693 64.242C39.6693 63.93 39.9813 63.748 40.4363 63.748C40.8263 63.748 41.2033 63.917 41.2943 64.411H43.0883C42.9843 63.111 41.8923 62.357 40.4623 62.357C38.8373 62.357 37.8493 63.163 37.8493 64.281C37.8493 65.23 38.3693 66.01 39.5003 66.296L40.7223 66.608C41.2943 66.751 41.5413 66.92 41.5413 67.258C41.5413 67.57 41.2553 67.778 40.6963 67.778C40.1243 67.778 39.6303 67.505 39.5653 66.933H37.7063C37.7713 68.207 38.9673 69.143 40.6443 69.143C42.2173 69.143 43.3613 68.389 43.3613 67.167ZM48.7727 68.935V67.362C48.5647 67.44 48.3307 67.479 48.0447 67.479C47.2777 67.479 46.9397 67.167 46.9397 66.374V64.06H48.7727V62.5H46.9397V60.693H45.1587V62.5H43.8457V64.06H45.1587V66.725C45.1587 68.311 46.2637 69.078 47.6417 69.078C48.1357 69.078 48.4867 69.026 48.7727 68.935ZM56.2727 66.881H54.4137C54.2057 67.323 53.6597 67.596 53.0357 67.596C51.9307 67.596 51.3587 66.933 51.2807 66.166H56.3507C56.4417 63.722 54.8687 62.357 52.9577 62.357C50.9817 62.357 49.5387 63.8 49.5387 65.737C49.5387 67.713 50.9557 69.143 52.9447 69.143C54.5957 69.143 55.8827 68.194 56.2727 66.881ZM52.9057 63.8C53.5167 63.8 54.1797 64.125 54.4007 64.996H51.3457C51.5147 64.281 52.0867 63.8 52.9057 63.8ZM57.648 69H59.429V65.893C59.429 64.827 59.988 64.164 60.833 64.164C61.119 64.164 61.366 64.216 61.639 64.307V62.5C61.418 62.435 61.223 62.422 61.041 62.422C60.313 62.422 59.65 62.903 59.429 63.54V62.5H57.648V69ZM67.8887 67.167C67.8887 66.153 67.3557 65.477 66.0817 65.152L64.9377 64.84C64.5477 64.749 64.1967 64.606 64.1967 64.242C64.1967 63.93 64.5087 63.748 64.9637 63.748C65.3537 63.748 65.7307 63.917 65.8217 64.411H67.6157C67.5117 63.111 66.4197 62.357 64.9897 62.357C63.3647 62.357 62.3767 63.163 62.3767 64.281C62.3767 65.23 62.8967 66.01 64.0277 66.296L65.2497 66.608C65.8217 66.751 66.0687 66.92 66.0687 67.258C66.0687 67.57 65.7827 67.778 65.2237 67.778C64.6517 67.778 64.1577 67.505 64.0927 66.933H62.2337C62.2987 68.207 63.4947 69.143 65.1717 69.143C66.7447 69.143 67.8887 68.389 67.8887 67.167Z" fill="#00684A"/>
<path d="M19.094 101H20.277V92.914H23.15V91.77H16.221V92.914H19.094V101ZM23.261 101H24.379V97.776C24.379 96.255 25.276 95.54 26.095 95.54C26.316 95.54 26.498 95.566 26.706 95.644V94.487C26.524 94.448 26.368 94.435 26.199 94.435C25.445 94.435 24.639 94.929 24.379 95.761V94.5H23.261V101ZM29.3738 91.965C29.3738 91.536 29.0358 91.172 28.5938 91.172C28.1518 91.172 27.7878 91.536 27.7878 91.965C27.7878 92.407 28.1518 92.758 28.5938 92.758C29.0358 92.758 29.3738 92.407 29.3738 91.965ZM28.0218 101H29.1398V94.5H28.0218V101ZM30.9731 101.598C31.1681 102.911 32.3771 103.847 34.1191 103.847C35.8871 103.847 37.3171 102.768 37.3171 100.597V94.5H36.1991V95.501C35.7571 94.851 34.8991 94.37 33.9371 94.37C32.1301 94.37 30.7521 95.826 30.7521 97.672C30.7521 99.531 32.1301 100.987 33.9371 100.987C34.8991 100.987 35.7571 100.493 36.1991 99.843V100.61C36.1991 102.079 35.3151 102.859 34.1451 102.859C33.0921 102.859 32.3641 102.456 32.0651 101.598H30.9731ZM36.2901 97.672C36.2901 98.985 35.3931 99.947 34.0931 99.947C32.7931 99.947 31.8961 98.985 31.8961 97.672C31.8961 96.372 32.7931 95.397 34.0931 95.397C35.3931 95.397 36.2901 96.372 36.2901 97.672ZM39.1361 101.598C39.3311 102.911 40.5401 103.847 42.2821 103.847C44.0501 103.847 45.4801 102.768 45.4801 100.597V94.5H44.3621V95.501C43.9201 94.851 43.0621 94.37 42.1001 94.37C40.2931 94.37 38.9151 95.826 38.9151 97.672C38.9151 99.531 40.2931 100.987 42.1001 100.987C43.0621 100.987 43.9201 100.493 44.3621 99.843V100.61C44.3621 102.079 43.4781 102.859 42.3081 102.859C41.2551 102.859 40.5271 102.456 40.2281 101.598H39.1361ZM44.4531 97.672C44.4531 98.985 43.5561 99.947 42.2561 99.947C40.9561 99.947 40.0591 98.985 40.0591 97.672C40.0591 96.372 40.9561 95.397 42.2561 95.397C43.5561 95.397 44.4531 96.372 44.4531 97.672ZM53.3962 99.024H52.2522C51.8622 99.804 51.1732 100.116 50.3672 100.116C49.1972 100.116 48.2482 99.232 48.2092 98.049H53.5002C53.6562 96.034 52.4212 94.37 50.3802 94.37C48.3522 94.37 47.0782 95.852 47.0782 97.75C47.0782 99.687 48.4562 101.13 50.3542 101.13C52.0052 101.13 53.0712 100.168 53.3962 99.024ZM50.3412 95.358C51.3032 95.358 52.1092 95.956 52.3172 97.165H48.2612C48.4822 95.878 49.4052 95.358 50.3412 95.358ZM55.1135 101H56.2315V97.776C56.2315 96.255 57.1285 95.54 57.9475 95.54C58.1685 95.54 58.3505 95.566 58.5585 95.644V94.487C58.3765 94.448 58.2205 94.435 58.0515 94.435C57.2975 94.435 56.4915 94.929 56.2315 95.761V94.5H55.1135V101ZM64.245 99.245C64.245 98.27 63.66 97.594 62.581 97.321L61.541 97.048C60.852 96.866 60.553 96.593 60.553 96.112C60.553 95.618 61.047 95.306 61.671 95.306C62.282 95.306 62.75 95.657 62.919 96.229H64.037C63.92 95.189 63.062 94.37 61.671 94.37C60.358 94.37 59.422 95.046 59.422 96.125C59.422 97.048 59.981 97.75 61.099 98.036L62.035 98.283C62.802 98.491 63.114 98.803 63.114 99.323C63.114 99.895 62.568 100.181 61.866 100.181C61.19 100.181 60.514 99.908 60.358 99.115H59.214C59.305 100.428 60.462 101.13 61.853 101.13C63.205 101.13 64.245 100.532 64.245 99.245Z" fill="#001E2B"/>
<path d="M17.222 133H19.874C22.708 133 24.788 131.024 24.788 128.385C24.788 125.746 22.708 123.77 19.874 123.77H17.222V133ZM18.431 131.869V124.901H19.874C22.097 124.901 23.566 126.383 23.566 128.385C23.566 130.387 22.097 131.869 19.874 131.869H18.431ZM25.9151 129.75C25.9151 131.609 27.2801 133.13 29.1001 133.13C30.0751 133.13 30.9591 132.623 31.3881 131.999V133H32.5061V126.5H31.3881V127.501C30.9591 126.877 30.0751 126.37 29.1001 126.37C27.2801 126.37 25.9151 127.891 25.9151 129.75ZM31.4791 129.75C31.4791 131.063 30.5821 132.103 29.2691 132.103C27.9561 132.103 27.0461 131.063 27.0461 129.75C27.0461 128.437 27.9561 127.397 29.2691 127.397C30.5821 127.397 31.4791 128.437 31.4791 129.75ZM38.1336 132.909V131.908C37.9256 131.986 37.6136 132.038 37.3406 132.038C36.6386 132.038 36.2616 131.765 36.2616 130.933V127.527H38.1336V126.5H36.2616V124.693H35.1436V126.5H33.7656V127.527H35.1436V131.076C35.1436 132.428 36.0016 133.065 37.1326 133.065C37.5356 133.065 37.8606 133 38.1336 132.909ZM38.9659 129.75C38.9659 131.609 40.3309 133.13 42.1509 133.13C43.1259 133.13 44.0099 132.623 44.4389 131.999V133H45.5569V126.5H44.4389V127.501C44.0099 126.877 43.1259 126.37 42.1509 126.37C40.3309 126.37 38.9659 127.891 38.9659 129.75ZM44.5299 129.75C44.5299 131.063 43.6329 132.103 42.3199 132.103C41.0069 132.103 40.0969 131.063 40.0969 129.75C40.0969 128.437 41.0069 127.397 42.3199 127.397C43.6329 127.397 44.5299 128.437 44.5299 129.75ZM50.9661 133H56.6341V131.856H52.1751V123.77H50.9661V133ZM57.2218 129.75C57.2218 131.609 58.5868 133.13 60.4068 133.13C61.3818 133.13 62.2658 132.623 62.6948 131.999V133H63.8128V126.5H62.6948V127.501C62.2658 126.877 61.3818 126.37 60.4068 126.37C58.5868 126.37 57.2218 127.891 57.2218 129.75ZM62.7858 129.75C62.7858 131.063 61.8888 132.103 60.5758 132.103C59.2628 132.103 58.3528 131.063 58.3528 129.75C58.3528 128.437 59.2628 127.397 60.5758 127.397C61.8888 127.397 62.7858 128.437 62.7858 129.75ZM65.9173 133H67.0353V129.75L70.5583 133H72.0663L68.1533 129.373L71.3513 126.5H69.8693L67.0353 129.035V123.25H65.9173V133ZM78.3171 131.024H77.1731C76.7831 131.804 76.0941 132.116 75.2881 132.116C74.1181 132.116 73.1691 131.232 73.1301 130.049H78.4211C78.5771 128.034 77.3421 126.37 75.3011 126.37C73.2731 126.37 71.9991 127.852 71.9991 129.75C71.9991 131.687 73.3771 133.13 75.2751 133.13C76.9261 133.13 77.9921 132.168 78.3171 131.024ZM75.2621 127.358C76.2241 127.358 77.0301 127.956 77.2381 129.165H73.1821C73.4031 127.878 74.3261 127.358 75.2621 127.358Z" fill="#001E2B"/>
<path d="M17.222 165H19.874C22.708 165 24.788 163.024 24.788 160.385C24.788 157.746 22.708 155.77 19.874 155.77H17.222V165ZM18.431 163.869V156.901H19.874C22.097 156.901 23.566 158.383 23.566 160.385C23.566 162.387 22.097 163.869 19.874 163.869H18.431ZM32.2331 163.024H31.0891C30.6991 163.804 30.0101 164.116 29.2041 164.116C28.0341 164.116 27.0851 163.232 27.0461 162.049H32.3371C32.4931 160.034 31.2581 158.37 29.2171 158.37C27.1891 158.37 25.9151 159.852 25.9151 161.75C25.9151 163.687 27.2931 165.13 29.1911 165.13C30.8421 165.13 31.9081 164.168 32.2331 163.024ZM29.1781 159.358C30.1401 159.358 30.9461 159.956 31.1541 161.165H27.0981C27.3191 159.878 28.2421 159.358 29.1781 159.358ZM33.9505 167.717H35.0685V163.999C35.4975 164.623 36.3815 165.13 37.3565 165.13C39.1635 165.13 40.5415 163.609 40.5415 161.75C40.5415 159.891 39.1635 158.37 37.3565 158.37C36.3815 158.37 35.4975 158.877 35.0685 159.501V158.5H33.9505V167.717ZM39.3975 161.75C39.3975 163.063 38.5005 164.103 37.1875 164.103C35.8745 164.103 34.9775 163.063 34.9775 161.75C34.9775 160.437 35.8745 159.397 37.1875 159.397C38.5005 159.397 39.3975 160.437 39.3975 161.75ZM42.1516 165H43.2696V155.25H42.1516V165ZM51.6679 161.75C51.6679 159.878 50.2249 158.37 48.2749 158.37C46.3119 158.37 44.8689 159.878 44.8689 161.75C44.8689 163.622 46.3119 165.13 48.2749 165.13C50.2249 165.13 51.6679 163.622 51.6679 161.75ZM46.0129 161.75C46.0129 160.45 46.9229 159.41 48.2749 159.41C49.6269 159.41 50.5239 160.45 50.5239 161.75C50.5239 163.05 49.6269 164.09 48.2749 164.09C46.9229 164.09 46.0129 163.05 46.0129 161.75ZM54.8621 167.717L59.1261 158.5H57.8781L55.6551 163.427L53.4191 158.5H52.1841L55.0311 164.662L53.6141 167.717H54.8621ZM60.2425 165H61.3605V161.776C61.3605 160.307 62.1015 159.397 63.1545 159.397C63.9995 159.397 64.4285 160.125 64.4285 161.178V165H65.5465V161.776C65.5465 160.307 66.2745 159.397 67.3275 159.397C68.1725 159.397 68.6145 160.125 68.6145 161.178V165H69.7325V161.009C69.7325 159.423 68.8745 158.37 67.4575 158.37C66.4955 158.37 65.6765 158.903 65.3255 159.761C65.0005 158.903 64.2985 158.37 63.3235 158.37C62.4525 158.37 61.7375 158.812 61.3605 159.501V158.5H60.2425V165ZM77.5554 163.024H76.4114C76.0214 163.804 75.3324 164.116 74.5264 164.116C73.3564 164.116 72.4074 163.232 72.3684 162.049H77.6594C77.8154 160.034 76.5804 158.37 74.5394 158.37C72.5114 158.37 71.2374 159.852 71.2374 161.75C71.2374 163.687 72.6154 165.13 74.5134 165.13C76.1644 165.13 77.2304 164.168 77.5554 163.024ZM74.5004 159.358C75.4624 159.358 76.2684 159.956 76.4764 161.165H72.4204C72.6414 159.878 73.5644 159.358 74.5004 159.358ZM79.2727 165H80.3907V161.776C80.3907 160.255 81.2227 159.397 82.2757 159.397C83.1857 159.397 83.8097 160.073 83.8097 161.165V165H84.9147V160.996C84.9147 159.384 83.9137 158.37 82.4577 158.37C81.6127 158.37 80.8327 158.734 80.3907 159.501V158.5H79.2727V165ZM90.3748 164.909V163.908C90.1668 163.986 89.8548 164.038 89.5818 164.038C88.8798 164.038 88.5028 163.765 88.5028 162.933V159.527H90.3748V158.5H88.5028V156.693H87.3848V158.5H86.0068V159.527H87.3848V163.076C87.3848 164.428 88.2428 165.065 89.3738 165.065C89.7768 165.065 90.1018 165 90.3748 164.909Z" fill="#001E2B"/>
<path fill-rule="evenodd" clip-rule="evenodd" d="M20 199V197C20 194.791 21.7909 193 24 193C26.2091 193 28 194.791 28 197V199C28.5523 199 29 199.448 29 200V206C29 206.552 28.5523 207 28 207H20C19.4477 207 19 206.552 19 206V200C19 199.448 19.4477 199 20 199ZM22 197C22 195.895 22.8954 195 24 195C25.1046 195 26 195.895 26 197V199H22V197ZM24.5867 202.81C24.8371 202.628 25 202.333 25 202C25 201.448 24.5523 201 24 201C23.4477 201 23 201.448 23 202C23 202.336 23.1658 202.633 23.42 202.815V204.667C23.42 204.989 23.6812 205.25 24.0033 205.25C24.3255 205.25 24.5867 204.989 24.5867 204.667V202.81Z" fill="#00684A"/>
<path d="M40.408 201.36C40.48 202.764 41.644 204.144 43.684 204.144C45.472 204.144 46.648 203.064 46.648 201.612C46.648 200.292 45.82 199.416 44.44 199.032L43.444 198.756C42.748 198.552 42.364 198.264 42.376 197.736C42.388 197.232 42.868 196.944 43.48 196.944C43.984 196.944 44.548 197.208 44.74 197.928H46.468C46.408 196.656 45.316 195.336 43.48 195.336C41.776 195.336 40.612 196.284 40.624 197.856C40.636 199.152 41.512 199.992 42.856 200.376L43.756 200.64C44.572 200.868 44.896 201.216 44.896 201.672C44.896 202.212 44.38 202.536 43.684 202.536C42.928 202.536 42.268 202.128 42.148 201.36H40.408ZM48.4613 204H53.7653V202.344H50.2013V200.544H53.0453V198.888H50.2013V197.136H53.7653V195.48H48.4613V204ZM54.9787 199.74C54.9787 202.212 56.8627 204.144 59.4427 204.144C61.3747 204.144 63.1027 202.908 63.5707 201.096H61.6867C61.3267 201.948 60.4027 202.464 59.4427 202.464C57.8107 202.464 56.7307 201.264 56.7307 199.74C56.7307 198.216 57.8107 197.016 59.4427 197.016C60.4027 197.016 61.3267 197.532 61.6867 198.384H63.5707C63.1027 196.572 61.3747 195.336 59.4427 195.336C56.8627 195.336 54.9787 197.268 54.9787 199.74ZM72.0739 200.64V195.48H70.3339V200.664C70.3339 201.792 69.6379 202.464 68.6059 202.464C67.5739 202.464 66.8779 201.792 66.8779 200.664V195.48H65.1379V200.64C65.1379 202.764 66.5659 204.144 68.6059 204.144C70.6219 204.144 72.0739 202.764 72.0739 200.64ZM74.2707 204H76.0107V200.412H76.4427L79.3587 204H81.4587L78.3987 200.22C79.5267 199.86 80.1507 199.14 80.1507 198C80.1507 196.584 79.1307 195.48 77.5347 195.48H74.2707V204ZM76.0107 198.924V197.076H77.3307C77.9787 197.076 78.4227 197.412 78.4227 198C78.4227 198.576 77.9787 198.924 77.3307 198.924H76.0107ZM82.5457 204H84.2857V195.48H82.5457V204ZM88.1505 204H89.9025V197.136H92.1945V195.48H85.8825V197.136H88.1505V204ZM96.1148 204H97.8548V200.424L101.011 195.48H98.9828L96.9788 198.708L94.9868 195.48H92.9708L96.1148 200.412V204Z" fill="#00684A"/>
<path d="M17.222 237H19.874C22.708 237 24.788 235.024 24.788 232.385C24.788 229.746 22.708 227.77 19.874 227.77H17.222V237ZM18.431 235.869V228.901H19.874C22.097 228.901 23.566 230.383 23.566 232.385C23.566 234.387 22.097 235.869 19.874 235.869H18.431ZM25.9151 233.75C25.9151 235.609 27.2801 237.13 29.1001 237.13C30.0751 237.13 30.9591 236.623 31.3881 235.999V237H32.5061V230.5H31.3881V231.501C30.9591 230.877 30.0751 230.37 29.1001 230.37C27.2801 230.37 25.9151 231.891 25.9151 233.75ZM31.4791 233.75C31.4791 235.063 30.5821 236.103 29.2691 236.103C27.9561 236.103 27.0461 235.063 27.0461 233.75C27.0461 232.437 27.9561 231.397 29.2691 231.397C30.5821 231.397 31.4791 232.437 31.4791 233.75ZM38.1336 236.909V235.908C37.9256 235.986 37.6136 236.038 37.3406 236.038C36.6386 236.038 36.2616 235.765 36.2616 234.933V231.527H38.1336V230.5H36.2616V228.693H35.1436V230.5H33.7656V231.527H35.1436V235.076C35.1436 236.428 36.0016 237.065 37.1326 237.065C37.5356 237.065 37.8606 237 38.1336 236.909ZM38.9659 233.75C38.9659 235.609 40.3309 237.13 42.1509 237.13C43.1259 237.13 44.0099 236.623 44.4389 235.999V237H45.5569V230.5H44.4389V231.501C44.0099 230.877 43.1259 230.37 42.1509 230.37C40.3309 230.37 38.9659 231.891 38.9659 233.75ZM44.5299 233.75C44.5299 235.063 43.6329 236.103 42.3199 236.103C41.0069 236.103 40.0969 235.063 40.0969 233.75C40.0969 232.437 41.0069 231.397 42.3199 231.397C43.6329 231.397 44.5299 232.437 44.5299 233.75ZM48.7794 235.999C49.2084 236.623 50.0924 237.13 51.0674 237.13C52.8744 237.13 54.2524 235.609 54.2524 233.75C54.2524 231.891 52.8744 230.37 51.0674 230.37C50.0924 230.37 49.2084 230.877 48.7794 231.501V227.25H47.6614V237H48.7794V235.999ZM53.1084 233.75C53.1084 235.063 52.2114 236.103 50.8984 236.103C49.5854 236.103 48.6884 235.063 48.6884 233.75C48.6884 232.437 49.5854 231.397 50.8984 231.397C52.2114 231.397 53.1084 232.437 53.1084 233.75ZM55.3429 233.75C55.3429 235.609 56.7079 237.13 58.5279 237.13C59.5029 237.13 60.3869 236.623 60.8159 235.999V237H61.9339V230.5H60.8159V231.501C60.3869 230.877 59.5029 230.37 58.5279 230.37C56.7079 230.37 55.3429 231.891 55.3429 233.75ZM60.9069 233.75C60.9069 235.063 60.0099 236.103 58.6969 236.103C57.3839 236.103 56.4739 235.063 56.4739 233.75C56.4739 232.437 57.3839 231.397 58.6969 231.397C60.0099 231.397 60.9069 232.437 60.9069 233.75ZM68.5234 235.245C68.5234 234.27 67.9384 233.594 66.8594 233.321L65.8194 233.048C65.1304 232.866 64.8314 232.593 64.8314 232.112C64.8314 231.618 65.3254 231.306 65.9494 231.306C66.5604 231.306 67.0284 231.657 67.1974 232.229H68.3154C68.1984 231.189 67.3404 230.37 65.9494 230.37C64.6364 230.37 63.7004 231.046 63.7004 232.125C63.7004 233.048 64.2594 233.75 65.3774 234.036L66.3134 234.283C67.0804 234.491 67.3924 234.803 67.3924 235.323C67.3924 235.895 66.8464 236.181 66.1444 236.181C65.4684 236.181 64.7924 235.908 64.6364 235.115H63.4924C63.5834 236.428 64.7404 237.13 66.1314 237.13C67.4834 237.13 68.5234 236.532 68.5234 235.245ZM75.9177 235.024H74.7737C74.3837 235.804 73.6947 236.116 72.8887 236.116C71.7187 236.116 70.7697 235.232 70.7307 234.049H76.0217C76.1777 232.034 74.9427 230.37 72.9017 230.37C70.8737 230.37 69.5997 231.852 69.5997 233.75C69.5997 235.687 70.9777 237.13 72.8757 237.13C74.5267 237.13 75.5927 236.168 75.9177 235.024ZM72.8627 231.358C73.8247 231.358 74.6307 231.956 74.8387 233.165H70.7827C71.0037 231.878 71.9267 231.358 72.8627 231.358ZM79.3641 237H80.6121L81.7951 234.309H86.0981L87.2811 237H88.5421L84.4471 227.77H83.4461L79.3641 237ZM82.2631 233.217L83.9401 229.408L85.6171 233.217H82.2631ZM95.7052 234.712H94.5092C94.2232 235.531 93.4432 236.103 92.4292 236.103C91.0772 236.103 90.1672 235.063 90.1672 233.75C90.1672 232.437 91.0772 231.397 92.4292 231.397C93.4432 231.397 94.2232 231.969 94.5092 232.788H95.7052C95.3412 231.384 94.0672 230.37 92.4292 230.37C90.4532 230.37 89.0362 231.891 89.0362 233.75C89.0362 235.609 90.4532 237.13 92.4292 237.13C94.0672 237.13 95.3412 236.116 95.7052 234.712ZM103.348 234.712H102.152C101.866 235.531 101.086 236.103 100.072 236.103C98.7198 236.103 97.8098 235.063 97.8098 233.75C97.8098 232.437 98.7198 231.397 100.072 231.397C101.086 231.397 101.866 231.969 102.152 232.788H103.348C102.984 231.384 101.71 230.37 100.072 230.37C98.0958 230.37 96.6788 231.891 96.6788 233.75C96.6788 235.609 98.0958 237.13 100.072 237.13C101.71 237.13 102.984 236.116 103.348 234.712ZM110.639 235.024H109.495C109.105 235.804 108.416 236.116 107.61 236.116C106.44 236.116 105.491 235.232 105.452 234.049H110.743C110.899 232.034 109.664 230.37 107.623 230.37C105.595 230.37 104.321 231.852 104.321 233.75C104.321 235.687 105.699 237.13 107.597 237.13C109.248 237.13 110.314 236.168 110.639 235.024ZM107.584 231.358C108.546 231.358 109.352 231.956 109.56 233.165H105.504C105.725 231.878 106.648 231.358 107.584 231.358ZM116.842 235.245C116.842 234.27 116.257 233.594 115.178 233.321L114.138 233.048C113.449 232.866 113.15 232.593 113.15 232.112C113.15 231.618 113.644 231.306 114.268 231.306C114.879 231.306 115.347 231.657 115.516 232.229H116.634C116.517 231.189 115.659 230.37 114.268 230.37C112.955 230.37 112.019 231.046 112.019 232.125C112.019 233.048 112.578 233.75 113.696 234.036L114.632 234.283C115.399 234.491 115.711 234.803 115.711 235.323C115.711 235.895 115.165 236.181 114.463 236.181C113.787 236.181 113.111 235.908 112.955 235.115H111.811C111.902 236.428 113.059 237.13 114.45 237.13C115.802 237.13 116.842 236.532 116.842 235.245ZM122.91 235.245C122.91 234.27 122.325 233.594 121.246 233.321L120.206 233.048C119.517 232.866 119.218 232.593 119.218 232.112C119.218 231.618 119.712 231.306 120.336 231.306C120.947 231.306 121.415 231.657 121.584 232.229H122.702C122.585 231.189 121.727 230.37 120.336 230.37C119.023 230.37 118.087 231.046 118.087 232.125C118.087 233.048 118.646 233.75 119.764 234.036L120.7 234.283C121.467 234.491 121.779 234.803 121.779 235.323C121.779 235.895 121.233 236.181 120.531 236.181C119.855 236.181 119.179 235.908 119.023 235.115H117.879C117.97 236.428 119.127 237.13 120.518 237.13C121.87 237.13 122.91 236.532 122.91 235.245Z" fill="#001E2B"/>
<path d="M25.087 269V259.77H23.891V266.959L18.275 259.77H17.222V269H18.431V261.811L24.047 269H25.087ZM33.071 267.024H31.927C31.537 267.804 30.848 268.116 30.042 268.116C28.872 268.116 27.923 267.232 27.884 266.049H33.175C33.331 264.034 32.096 262.37 30.055 262.37C28.027 262.37 26.753 263.852 26.753 265.75C26.753 267.687 28.131 269.13 30.029 269.13C31.68 269.13 32.746 268.168 33.071 267.024ZM30.016 263.358C30.978 263.358 31.784 263.956 31.992 265.165H27.936C28.157 263.878 29.08 263.358 30.016 263.358ZM38.2225 268.909V267.908C38.0145 267.986 37.7025 268.038 37.4295 268.038C36.7275 268.038 36.3505 267.765 36.3505 266.933V263.527H38.2225V262.5H36.3505V260.693H35.2325V262.5H33.8545V263.527H35.2325V267.076C35.2325 268.428 36.0905 269.065 37.2215 269.065C37.6245 269.065 37.9495 269 38.2225 268.909ZM45.1627 269H46.1507L48.3607 262.5H47.1777L45.6047 267.245L43.9797 262.5H43.1217L41.4967 267.245L39.9237 262.5H38.7537L40.9637 269H41.9517L43.5637 264.32L45.1627 269ZM55.8193 265.75C55.8193 263.878 54.3763 262.37 52.4263 262.37C50.4633 262.37 49.0203 263.878 49.0203 265.75C49.0203 267.622 50.4633 269.13 52.4263 269.13C54.3763 269.13 55.8193 267.622 55.8193 265.75ZM50.1643 265.75C50.1643 264.45 51.0743 263.41 52.4263 263.41C53.7783 263.41 54.6753 264.45 54.6753 265.75C54.6753 267.05 53.7783 268.09 52.4263 268.09C51.0743 268.09 50.1643 267.05 50.1643 265.75ZM57.4241 269H58.5421V265.776C58.5421 264.255 59.4391 263.54 60.2581 263.54C60.4791 263.54 60.6611 263.566 60.8691 263.644V262.487C60.6871 262.448 60.5311 262.435 60.3621 262.435C59.6081 262.435 58.8021 262.929 58.5421 263.761V262.5H57.4241V269ZM62.1848 269H63.3028V265.75L66.8258 269H68.3338L64.4208 265.373L67.6188 262.5H66.1368L63.3028 265.035V259.25H62.1848V269ZM70.6678 269H71.9158L73.0988 266.309H77.4018L78.5848 269H79.8458L75.7508 259.77H74.7498L70.6678 269ZM73.5668 265.217L75.2438 261.408L76.9208 265.217H73.5668ZM87.0089 266.712H85.8129C85.5269 267.531 84.7469 268.103 83.7329 268.103C82.3809 268.103 81.4709 267.063 81.4709 265.75C81.4709 264.437 82.3809 263.397 83.7329 263.397C84.7469 263.397 85.5269 263.969 85.8129 264.788H87.0089C86.6449 263.384 85.3709 262.37 83.7329 262.37C81.7569 262.37 80.3399 263.891 80.3399 265.75C80.3399 267.609 81.7569 269.13 83.7329 269.13C85.3709 269.13 86.6449 268.116 87.0089 266.712ZM94.6515 266.712H93.4555C93.1695 267.531 92.3895 268.103 91.3755 268.103C90.0235 268.103 89.1135 267.063 89.1135 265.75C89.1135 264.437 90.0235 263.397 91.3755 263.397C92.3895 263.397 93.1695 263.969 93.4555 264.788H94.6515C94.2875 263.384 93.0135 262.37 91.3755 262.37C89.3995 262.37 87.9825 263.891 87.9825 265.75C87.9825 267.609 89.3995 269.13 91.3755 269.13C93.0135 269.13 94.2875 268.116 94.6515 266.712ZM101.943 267.024H100.799C100.409 267.804 99.7201 268.116 98.9141 268.116C97.7441 268.116 96.7951 267.232 96.7561 266.049H102.047C102.203 264.034 100.968 262.37 98.9271 262.37C96.8991 262.37 95.6251 263.852 95.6251 265.75C95.6251 267.687 97.0031 269.13 98.9011 269.13C100.552 269.13 101.618 268.168 101.943 267.024ZM98.8881 263.358C99.8501 263.358 100.656 263.956 100.864 265.165H96.8081C97.0291 263.878 97.9521 263.358 98.8881 263.358ZM108.145 267.245C108.145 266.27 107.56 265.594 106.481 265.321L105.441 265.048C104.752 264.866 104.453 264.593 104.453 264.112C104.453 263.618 104.947 263.306 105.571 263.306C106.182 263.306 106.65 263.657 106.819 264.229H107.937C107.82 263.189 106.962 262.37 105.571 262.37C104.258 262.37 103.322 263.046 103.322 264.125C103.322 265.048 103.881 265.75 104.999 266.036L105.935 266.283C106.702 266.491 107.014 266.803 107.014 267.323C107.014 267.895 106.468 268.181 105.766 268.181C105.09 268.181 104.414 267.908 104.258 267.115H103.114C103.205 268.428 104.362 269.13 105.753 269.13C107.105 269.13 108.145 268.532 108.145 267.245ZM114.214 267.245C114.214 266.27 113.629 265.594 112.55 265.321L111.51 265.048C110.821 264.866 110.522 264.593 110.522 264.112C110.522 263.618 111.016 263.306 111.64 263.306C112.251 263.306 112.719 263.657 112.888 264.229H114.006C113.889 263.189 113.031 262.37 111.64 262.37C110.327 262.37 109.391 263.046 109.391 264.125C109.391 265.048 109.95 265.75 111.068 266.036L112.004 266.283C112.771 266.491 113.083 266.803 113.083 267.323C113.083 267.895 112.537 268.181 111.835 268.181C111.159 268.181 110.483 267.908 110.327 267.115H109.183C109.274 268.428 110.431 269.13 111.822 269.13C113.174 269.13 114.214 268.532 114.214 267.245Z" fill="#001E2B"/>
<path d="M16.078 301H17.326L18.509 298.309H22.812L23.995 301H25.256L21.161 291.77H20.16L16.078 301ZM18.977 297.217L20.654 293.408L22.331 297.217H18.977ZM25.7628 297.75C25.7628 299.609 27.1278 301.13 28.9478 301.13C29.9228 301.13 30.8068 300.623 31.2358 299.999V301H32.3538V291.25H31.2358V295.501C30.8068 294.877 29.9228 294.37 28.9478 294.37C27.1278 294.37 25.7628 295.891 25.7628 297.75ZM31.3268 297.75C31.3268 299.063 30.4298 300.103 29.1168 300.103C27.8038 300.103 26.8938 299.063 26.8938 297.75C26.8938 296.437 27.8038 295.397 29.1168 295.397C30.4298 295.397 31.3268 296.437 31.3268 297.75ZM36.4863 301H37.4223L40.4253 294.5H39.1773L36.9543 299.414L34.7313 294.5H33.4833L36.4863 301ZM40.921 297.75C40.921 299.609 42.286 301.13 44.106 301.13C45.081 301.13 45.965 300.623 46.394 299.999V301H47.512V294.5H46.394V295.501C45.965 294.877 45.081 294.37 44.106 294.37C42.286 294.37 40.921 295.891 40.921 297.75ZM46.485 297.75C46.485 299.063 45.588 300.103 44.275 300.103C42.962 300.103 42.052 299.063 42.052 297.75C42.052 296.437 42.962 295.397 44.275 295.397C45.588 295.397 46.485 296.437 46.485 297.75ZM49.6165 301H50.7345V297.776C50.7345 296.255 51.5665 295.397 52.6195 295.397C53.5295 295.397 54.1535 296.073 54.1535 297.165V301H55.2585V296.996C55.2585 295.384 54.2575 294.37 52.8015 294.37C51.9565 294.37 51.1765 294.734 50.7345 295.501V294.5H49.6165V301ZM63.4338 298.712H62.2378C61.9518 299.531 61.1718 300.103 60.1578 300.103C58.8058 300.103 57.8958 299.063 57.8958 297.75C57.8958 296.437 58.8058 295.397 60.1578 295.397C61.1718 295.397 61.9518 295.969 62.2378 296.788H63.4338C63.0698 295.384 61.7958 294.37 60.1578 294.37C58.1818 294.37 56.7648 295.891 56.7648 297.75C56.7648 299.609 58.1818 301.13 60.1578 301.13C61.7958 301.13 63.0698 300.116 63.4338 298.712ZM70.7253 299.024H69.5813C69.1913 299.804 68.5023 300.116 67.6963 300.116C66.5263 300.116 65.5773 299.232 65.5383 298.049H70.8293C70.9853 296.034 69.7503 294.37 67.7093 294.37C65.6813 294.37 64.4073 295.852 64.4073 297.75C64.4073 299.687 65.7853 301.13 67.6833 301.13C69.3343 301.13 70.4003 300.168 70.7253 299.024ZM67.6703 295.358C68.6323 295.358 69.4383 295.956 69.6463 297.165H65.5903C65.8113 295.878 66.7343 295.358 67.6703 295.358ZM71.9356 297.75C71.9356 299.609 73.3006 301.13 75.1206 301.13C76.0956 301.13 76.9796 300.623 77.4086 299.999V301H78.5266V291.25H77.4086V295.501C76.9796 294.877 76.0956 294.37 75.1206 294.37C73.3006 294.37 71.9356 295.891 71.9356 297.75ZM77.4996 297.75C77.4996 299.063 76.6026 300.103 75.2896 300.103C73.9766 300.103 73.0666 299.063 73.0666 297.75C73.0666 296.437 73.9766 295.397 75.2896 295.397C76.6026 295.397 77.4996 296.437 77.4996 297.75Z" fill="#001E2B"/>
<g filter="url(#filter0_d_2_44111)">
<rect x="168" y="952" width="32" height="32" rx="16" fill="white"/>
<path fill-rule="evenodd" clip-rule="evenodd" d="M186.778 961.636C186.388 961.246 185.754 961.246 185.364 961.636L180.414 966.586L179.707 967.293C179.317 967.684 179.317 968.317 179.707 968.707L180.414 969.414L185.364 974.364C185.754 974.755 186.388 974.755 186.778 974.364L187.485 973.657C187.876 973.266 187.876 972.633 187.485 972.243L183.243 968L187.485 963.757C187.876 963.367 187.876 962.734 187.485 962.343L186.778 961.636Z" fill="#00684A"/>
<rect x="168.5" y="952.5" width="31" height="31" rx="15.5" stroke="#E8EDEB"/>
</g>
<defs>
<filter id="filter0_d_2_44111" x="164" y="951" width="40" height="40" filterUnits="userSpaceOnUse" color-interpolation-filters="sRGB">
<feFlood flood-opacity="0" result="BackgroundImageFix"/>
<feColorMatrix in="SourceAlpha" type="matrix" values="0 0 0 0 0 0 0 0 0 0 0 0 0 0 0 0 0 0 127 0" result="hardAlpha"/>
<feOffset dy="3"/>
<feGaussianBlur stdDeviation="2"/>
<feColorMatrix type="matrix" values="0 0 0 0 0 0 0 0 0 0 0 0 0 0 0 0 0 0 0.1 0"/>
<feBlend mode="normal" in2="BackgroundImageFix" result="effect1_dropShadow_2_44111"/>
<feBlend mode="normal" in="SourceGraphic" in2="effect1_dropShadow_2_44111" result="shape"/>
</filter>
</defs>
</svg>
