<svg width="16" height="16" viewBox="0 0 16 16" fill="none" xmlns="http://www.w3.org/2000/svg">
<g style="mix-blend-mode:multiply">
<rect width="16" height="16" fill="#497FFF"/>
<path d="M1.58 5H1.924V2.16H1.312L1.032 2.5H1.58V5ZM4.36878 4.096C4.36878 3.6 3.95678 3.18 3.48078 3.18C3.44478 3.18 3.40878 3.184 3.36878 3.188L4.23678 2.16H3.80078L2.76478 3.38C2.58878 3.588 2.44478 3.804 2.44478 4.104C2.44478 4.62 2.85678 5.04 3.40878 5.04C3.96078 5.04 4.36878 4.62 4.36878 4.096ZM2.79678 4.096C2.79678 3.76 3.06078 3.484 3.40878 3.484C3.75278 3.484 4.01678 3.76 4.01678 4.096C4.01678 4.432 3.75278 4.708 3.40878 4.708C3.06078 4.708 2.79678 4.432 2.79678 4.096ZM4.85916 5.836H5.20316V4.692C5.33516 4.884 5.60716 5.04 5.90716 5.04C6.46316 5.04 6.88716 4.572 6.88716 4C6.88716 3.428 6.46316 2.96 5.90716 2.96C5.60716 2.96 5.33516 3.116 5.20316 3.308V3H4.85916V5.836ZM6.53516 4C6.53516 4.404 6.25916 4.724 5.85516 4.724C5.45116 4.724 5.17516 4.404 5.17516 4C5.17516 3.596 5.45116 3.276 5.85516 3.276C6.25916 3.276 6.53516 3.596 6.53516 4ZM7.00838 5H7.43638L8.04438 4.244L8.65238 5H9.07638L8.26038 3.988L9.01238 3H8.59238L8.04438 3.72L7.49238 3H7.07638L7.82838 3.988L7.00838 5Z" fill="white"/>
</g>
</svg>
