<svg width="510" height="44" viewBox="0 0 510 44" fill="none" xmlns="http://www.w3.org/2000/svg">
<path d="M80 10L430 10" stroke="#889397"/>
<g clip-path="url(#clip0_2_45894)">
<rect x="70" width="20" height="20" rx="10" fill="white"/>
<path d="M79.7018 14H81.0218V5.48H78.9938L77.9858 6.788H79.7018V14Z" fill="#00684A"/>
</g>
<rect x="70.5" y="0.5" width="19" height="19" rx="9.5" stroke="#00A35C"/>
<path d="M68.9683 39H70.8663V31.564H73.3493V29.77H66.5113V31.564H68.9683V39ZM76.4241 30.303C76.4241 29.679 75.9171 29.172 75.2801 29.172C74.6691 29.172 74.1491 29.679 74.1491 30.303C74.1491 30.927 74.6691 31.434 75.2801 31.434C75.9171 31.434 76.4241 30.927 76.4241 30.303ZM74.3961 39H76.1771V32.5H74.3961V39ZM82.1643 38.935V37.362C81.9563 37.44 81.7223 37.479 81.4363 37.479C80.6693 37.479 80.3313 37.167 80.3313 36.374V34.06H82.1643V32.5H80.3313V30.693H78.5503V32.5H77.2373V34.06H78.5503V36.725C78.5503 38.311 79.6553 39.078 81.0333 39.078C81.5273 39.078 81.8783 39.026 82.1643 38.935ZM83.4351 39H85.2161V29.25H83.4351V39ZM93.2444 36.881H91.3854C91.1774 37.323 90.6314 37.596 90.0074 37.596C88.9024 37.596 88.3304 36.933 88.2524 36.166H93.3224C93.4134 33.722 91.8404 32.357 89.9294 32.357C87.9534 32.357 86.5104 33.8 86.5104 35.737C86.5104 37.713 87.9274 39.143 89.9164 39.143C91.5674 39.143 92.8544 38.194 93.2444 36.881ZM89.8774 33.8C90.4884 33.8 91.1514 34.125 91.3724 34.996H88.3174C88.4864 34.281 89.0584 33.8 89.8774 33.8Z" fill="#001E2B"/>
<g clip-path="url(#clip1_2_45894)">
<rect x="245" width="20" height="20" rx="10" fill="white"/>
<path d="M257.799 12.704H253.899C254.115 11.936 255.063 11.456 255.831 10.88C257.079 9.98 257.715 9.248 257.715 7.892C257.715 6.2 256.467 5.336 255.039 5.336C253.419 5.336 252.159 6.44 252.159 8.084H253.491C253.503 7.184 254.175 6.632 255.027 6.632C255.867 6.632 256.383 7.172 256.383 7.928C256.383 8.792 255.831 9.272 254.955 9.908C253.707 10.832 252.159 11.648 252.159 13.52V14H257.799V12.704Z" fill="#5C6C75"/>
</g>
<rect x="245.5" y="0.5" width="19" height="19" rx="9.5" stroke="#889397"/>
<path d="M244.967 39H246.15V30.914H249.023V29.77H242.094V30.914H244.967V39ZM251.578 29.965C251.578 29.536 251.24 29.172 250.798 29.172C250.356 29.172 249.992 29.536 249.992 29.965C249.992 30.407 250.356 30.758 250.798 30.758C251.24 30.758 251.578 30.407 251.578 29.965ZM250.226 39H251.344V32.5H250.226V39ZM256.986 38.909V37.908C256.778 37.986 256.466 38.038 256.193 38.038C255.491 38.038 255.114 37.765 255.114 36.933V33.527H256.986V32.5H255.114V30.693H253.996V32.5H252.618V33.527H253.996V37.076C253.996 38.428 254.854 39.065 255.985 39.065C256.388 39.065 256.713 39 256.986 38.909ZM258.414 39H259.532V29.25H258.414V39ZM267.463 37.024H266.319C265.929 37.804 265.24 38.116 264.434 38.116C263.264 38.116 262.315 37.232 262.276 36.049H267.567C267.723 34.034 266.488 32.37 264.447 32.37C262.419 32.37 261.145 33.852 261.145 35.75C261.145 37.687 262.523 39.13 264.421 39.13C266.072 39.13 267.138 38.168 267.463 37.024ZM264.408 33.358C265.37 33.358 266.176 33.956 266.384 35.165H262.328C262.549 33.878 263.472 33.358 264.408 33.358Z" fill="#5C6C75"/>
<g clip-path="url(#clip2_2_45894)">
<rect x="420" width="20" height="20" rx="10" fill="white"/>
<path d="M432.928 11.6C432.928 10.628 432.388 9.908 431.644 9.584C432.208 9.248 432.688 8.564 432.688 7.736C432.7 6.344 431.608 5.336 430.024 5.336C428.488 5.336 427.132 6.368 427.132 8.084H428.464C428.464 7.172 429.148 6.632 430.024 6.632C430.768 6.632 431.368 7.112 431.356 7.82C431.344 8.528 430.792 9.032 429.952 9.032H429.28V10.16H429.952C430.936 10.16 431.596 10.616 431.596 11.516C431.584 12.344 430.924 12.824 430.072 12.824C429.112 12.824 428.368 12.26 428.296 11.324H426.976C427.012 13.04 428.404 14.12 430.072 14.12C431.764 14.12 432.928 13.1 432.928 11.6Z" fill="#5C6C75"/>
</g>
<rect x="420.5" y="0.5" width="19" height="19" rx="9.5" stroke="#889397"/>
<path d="M419.967 39H421.15V30.914H424.023V29.77H417.094V30.914H419.967V39ZM426.578 29.965C426.578 29.536 426.24 29.172 425.798 29.172C425.356 29.172 424.992 29.536 424.992 29.965C424.992 30.407 425.356 30.758 425.798 30.758C426.24 30.758 426.578 30.407 426.578 29.965ZM425.226 39H426.344V32.5H425.226V39ZM431.986 38.909V37.908C431.778 37.986 431.466 38.038 431.193 38.038C430.491 38.038 430.114 37.765 430.114 36.933V33.527H431.986V32.5H430.114V30.693H428.996V32.5H427.618V33.527H428.996V37.076C428.996 38.428 429.854 39.065 430.985 39.065C431.388 39.065 431.713 39 431.986 38.909ZM433.414 39H434.532V29.25H433.414V39ZM442.463 37.024H441.319C440.929 37.804 440.24 38.116 439.434 38.116C438.264 38.116 437.315 37.232 437.276 36.049H442.567C442.723 34.034 441.488 32.37 439.447 32.37C437.419 32.37 436.145 33.852 436.145 35.75C436.145 37.687 437.523 39.13 439.421 39.13C441.072 39.13 442.138 38.168 442.463 37.024ZM439.408 33.358C440.37 33.358 441.176 33.956 441.384 35.165H437.328C437.549 33.878 438.472 33.358 439.408 33.358Z" fill="#5C6C75"/>
<defs>
<clipPath id="clip0_2_45894">
<rect x="70" width="20" height="20" rx="10" fill="white"/>
</clipPath>
<clipPath id="clip1_2_45894">
<rect x="245" width="20" height="20" rx="10" fill="white"/>
</clipPath>
<clipPath id="clip2_2_45894">
<rect x="420" width="20" height="20" rx="10" fill="white"/>
</clipPath>
</defs>
</svg>
