<svg width="200" height="240" viewBox="0 0 200 240" fill="none" xmlns="http://www.w3.org/2000/svg">
<rect width="200" height="40" fill="white"/>
<path d="M8.494 18.885C8.494 21.563 10.535 23.656 13.33 23.656C15.423 23.656 17.295 22.317 17.802 20.354H15.761C15.371 21.277 14.37 21.836 13.33 21.836C11.562 21.836 10.392 20.536 10.392 18.885C10.392 17.234 11.562 15.934 13.33 15.934C14.37 15.934 15.371 16.493 15.761 17.416H17.802C17.295 15.453 15.423 14.114 13.33 14.114C10.535 14.114 8.494 16.207 8.494 18.885ZM25.4106 20.25C25.4106 18.352 23.8766 16.857 21.9916 16.857C20.1066 16.857 18.5726 18.352 18.5726 20.25C18.5726 22.148 20.1066 23.643 21.9916 23.643C23.8766 23.643 25.4106 22.148 25.4106 20.25ZM20.3666 20.25C20.3666 19.249 21.0556 18.521 21.9916 18.521C22.9276 18.521 23.6036 19.249 23.6036 20.25C23.6036 21.251 22.9276 21.979 21.9916 21.979C21.0556 21.979 20.3666 21.251 20.3666 20.25ZM26.6949 23.5H28.4759V13.75H26.6949V23.5ZM30.1081 20.77C30.1081 22.499 30.9791 23.643 32.5521 23.643C33.3841 23.643 33.9951 23.279 34.3331 22.759V23.5H36.1141V17H34.3331V20.172C34.3331 21.433 33.7871 22.018 32.9941 22.018C32.2271 22.018 31.8891 21.446 31.8891 20.471V17H30.1081V20.77ZM37.8287 23.5H39.6097V20.328C39.6097 19.08 40.1427 18.482 40.9097 18.482C41.6117 18.482 41.9237 19.067 41.9237 20.029V23.5H43.7047V20.328C43.7047 19.08 44.2377 18.482 45.0047 18.482C45.7067 18.482 46.0187 19.067 46.0187 20.029V23.5H47.7997V19.73C47.7997 17.975 46.9157 16.857 45.3687 16.857C44.6277 16.857 43.7567 17.247 43.3537 18.053C42.9637 17.299 42.2877 16.857 41.3387 16.857C40.5457 16.857 39.9607 17.234 39.6097 17.741V17H37.8287V23.5ZM49.4322 23.5H51.2132V20.328C51.2132 19.08 51.8372 18.482 52.6562 18.482C53.3972 18.482 53.8002 19.054 53.8002 19.99V23.5H55.5812V19.691C55.5812 18.001 54.6452 16.857 53.0722 16.857C52.2272 16.857 51.5512 17.221 51.2132 17.741V17H49.4322V23.5ZM60.3415 23.5H66.1785V21.706H62.2265V14.27H60.3415V23.5ZM66.7897 20.25C66.7897 22.096 68.1157 23.643 69.8447 23.643C70.7417 23.643 71.4307 23.188 71.7167 22.772V23.5H73.4977V17H71.7167V17.728C71.4307 17.312 70.7417 16.857 69.8447 16.857C68.1157 16.857 66.7897 18.404 66.7897 20.25ZM71.8597 20.25C71.8597 21.264 71.1967 22.018 70.2217 22.018C69.2467 22.018 68.5837 21.264 68.5837 20.25C68.5837 19.236 69.2467 18.482 70.2217 18.482C71.1967 18.482 71.8597 19.236 71.8597 20.25ZM77.0101 22.772C77.3091 23.188 77.9981 23.643 78.8951 23.643C80.6241 23.643 81.9501 22.096 81.9501 20.25C81.9501 18.404 80.6241 16.857 78.8951 16.857C77.9981 16.857 77.3091 17.312 77.0101 17.728V13.75H75.2291V23.5H77.0101V22.772ZM80.1431 20.25C80.1431 21.264 79.4801 22.018 78.5051 22.018C77.5301 22.018 76.8671 21.264 76.8671 20.25C76.8671 19.236 77.5301 18.482 78.5051 18.482C79.4801 18.482 80.1431 19.236 80.1431 20.25ZM89.5705 21.381H87.7115C87.5035 21.823 86.9575 22.096 86.3335 22.096C85.2285 22.096 84.6565 21.433 84.5785 20.666H89.6485C89.7395 18.222 88.1665 16.857 86.2555 16.857C84.2795 16.857 82.8365 18.3 82.8365 20.237C82.8365 22.213 84.2535 23.643 86.2425 23.643C87.8935 23.643 89.1805 22.694 89.5705 21.381ZM86.2035 18.3C86.8145 18.3 87.4775 18.625 87.6985 19.496H84.6435C84.8125 18.781 85.3845 18.3 86.2035 18.3ZM90.9459 23.5H92.7269V13.75H90.9459V23.5Z" fill="#1C2D38"/>
<rect y="37" width="200" height="3" fill="#E8EDEB"/>
<rect width="200" height="40" transform="translate(0 40)" fill="white"/>
<path d="M11.094 65H12.277V56.914H15.15V55.77H8.221V56.914H11.094V65ZM21.1101 63.024H19.9661C19.5761 63.804 18.8871 64.116 18.0811 64.116C16.9111 64.116 15.9621 63.232 15.9231 62.049H21.2141C21.3701 60.034 20.1351 58.37 18.0941 58.37C16.0661 58.37 14.7921 59.852 14.7921 61.75C14.7921 63.687 16.1701 65.13 18.0681 65.13C19.7191 65.13 20.7851 64.168 21.1101 63.024ZM18.0551 59.358C19.0171 59.358 19.8231 59.956 20.0311 61.165H15.9751C16.1961 59.878 17.1191 59.358 18.0551 59.358ZM21.6112 65H23.0022L24.9782 62.543L26.9542 65H28.3322L25.6802 61.711L28.1242 58.5H26.7592L24.9782 60.84L23.1842 58.5H21.8322L24.2762 61.711L21.6112 65ZM33.0028 64.909V63.908C32.7948 63.986 32.4828 64.038 32.2098 64.038C31.5078 64.038 31.1308 63.765 31.1308 62.933V59.527H33.0028V58.5H31.1308V56.693H30.0128V58.5H28.6348V59.527H30.0128V63.076C30.0128 64.428 30.8708 65.065 32.0018 65.065C32.4048 65.065 32.7298 65 33.0028 64.909Z" fill="#1C2D38"/>
<rect width="200" height="40" transform="translate(0 80)" fill="white"/>
<path d="M11.094 105H12.277V96.914H15.15V95.77H8.221V96.914H11.094V105ZM21.1101 103.024H19.9661C19.5761 103.804 18.8871 104.116 18.0811 104.116C16.9111 104.116 15.9621 103.232 15.9231 102.049H21.2141C21.3701 100.034 20.1351 98.37 18.0941 98.37C16.0661 98.37 14.7921 99.852 14.7921 101.75C14.7921 103.687 16.1701 105.13 18.0681 105.13C19.7191 105.13 20.7851 104.168 21.1101 103.024ZM18.0551 99.358C19.0171 99.358 19.8231 99.956 20.0311 101.165H15.9751C16.1961 99.878 17.1191 99.358 18.0551 99.358ZM21.6112 105H23.0022L24.9782 102.543L26.9542 105H28.3322L25.6802 101.711L28.1242 98.5H26.7592L24.9782 100.84L23.1842 98.5H21.8322L24.2762 101.711L21.6112 105ZM33.0028 104.909V103.908C32.7948 103.986 32.4828 104.038 32.2098 104.038C31.5078 104.038 31.1308 103.765 31.1308 102.933V99.527H33.0028V98.5H31.1308V96.693H30.0128V98.5H28.6348V99.527H30.0128V103.076C30.0128 104.428 30.8708 105.065 32.0018 105.065C32.4048 105.065 32.7298 105 33.0028 104.909Z" fill="#1C2D38"/>
<rect width="200" height="40" transform="translate(0 120)" fill="white"/>
<path d="M11.094 145H12.277V136.914H15.15V135.77H8.221V136.914H11.094V145ZM21.1101 143.024H19.9661C19.5761 143.804 18.8871 144.116 18.0811 144.116C16.9111 144.116 15.9621 143.232 15.9231 142.049H21.2141C21.3701 140.034 20.1351 138.37 18.0941 138.37C16.0661 138.37 14.7921 139.852 14.7921 141.75C14.7921 143.687 16.1701 145.13 18.0681 145.13C19.7191 145.13 20.7851 144.168 21.1101 143.024ZM18.0551 139.358C19.0171 139.358 19.8231 139.956 20.0311 141.165H15.9751C16.1961 139.878 17.1191 139.358 18.0551 139.358ZM21.6112 145H23.0022L24.9782 142.543L26.9542 145H28.3322L25.6802 141.711L28.1242 138.5H26.7592L24.9782 140.84L23.1842 138.5H21.8322L24.2762 141.711L21.6112 145ZM33.0028 144.909V143.908C32.7948 143.986 32.4828 144.038 32.2098 144.038C31.5078 144.038 31.1308 143.765 31.1308 142.933V139.527H33.0028V138.5H31.1308V136.693H30.0128V138.5H28.6348V139.527H30.0128V143.076C30.0128 144.428 30.8708 145.065 32.0018 145.065C32.4048 145.065 32.7298 145 33.0028 144.909Z" fill="#1C2D38"/>
<rect width="200" height="40" transform="translate(0 160)" fill="white"/>
<path d="M11.094 185H12.277V176.914H15.15V175.77H8.221V176.914H11.094V185ZM21.1101 183.024H19.9661C19.5761 183.804 18.8871 184.116 18.0811 184.116C16.9111 184.116 15.9621 183.232 15.9231 182.049H21.2141C21.3701 180.034 20.1351 178.37 18.0941 178.37C16.0661 178.37 14.7921 179.852 14.7921 181.75C14.7921 183.687 16.1701 185.13 18.0681 185.13C19.7191 185.13 20.7851 184.168 21.1101 183.024ZM18.0551 179.358C19.0171 179.358 19.8231 179.956 20.0311 181.165H15.9751C16.1961 179.878 17.1191 179.358 18.0551 179.358ZM21.6112 185H23.0022L24.9782 182.543L26.9542 185H28.3322L25.6802 181.711L28.1242 178.5H26.7592L24.9782 180.84L23.1842 178.5H21.8322L24.2762 181.711L21.6112 185ZM33.0028 184.909V183.908C32.7948 183.986 32.4828 184.038 32.2098 184.038C31.5078 184.038 31.1308 183.765 31.1308 182.933V179.527H33.0028V178.5H31.1308V176.693H30.0128V178.5H28.6348V179.527H30.0128V183.076C30.0128 184.428 30.8708 185.065 32.0018 185.065C32.4048 185.065 32.7298 185 33.0028 184.909Z" fill="#1C2D38"/>
<rect width="200" height="40" transform="translate(0 200)" fill="white"/>
<path d="M11.094 225H12.277V216.914H15.15V215.77H8.221V216.914H11.094V225ZM21.1101 223.024H19.9661C19.5761 223.804 18.8871 224.116 18.0811 224.116C16.9111 224.116 15.9621 223.232 15.9231 222.049H21.2141C21.3701 220.034 20.1351 218.37 18.0941 218.37C16.0661 218.37 14.7921 219.852 14.7921 221.75C14.7921 223.687 16.1701 225.13 18.0681 225.13C19.7191 225.13 20.7851 224.168 21.1101 223.024ZM18.0551 219.358C19.0171 219.358 19.8231 219.956 20.0311 221.165H15.9751C16.1961 219.878 17.1191 219.358 18.0551 219.358ZM21.6112 225H23.0022L24.9782 222.543L26.9542 225H28.3322L25.6802 221.711L28.1242 218.5H26.7592L24.9782 220.84L23.1842 218.5H21.8322L24.2762 221.711L21.6112 225ZM33.0028 224.909V223.908C32.7948 223.986 32.4828 224.038 32.2098 224.038C31.5078 224.038 31.1308 223.765 31.1308 222.933V219.527H33.0028V218.5H31.1308V216.693H30.0128V218.5H28.6348V219.527H30.0128V223.076C30.0128 224.428 30.8708 225.065 32.0018 225.065C32.4048 225.065 32.7298 225 33.0028 224.909Z" fill="#1C2D38"/>
</svg>
