<svg width="156" height="33" viewBox="0 0 156 33" fill="none" xmlns="http://www.w3.org/2000/svg">
<path d="M16.013 19.5H17.963L18.86 17.394H22.786L23.683 19.5H25.659L21.668 10.27H19.991L16.013 19.5ZM19.549 15.743L20.823 12.74L22.097 15.743H19.549ZM32.6597 17.017H30.8137C30.5667 17.602 30.0857 18.031 29.3317 18.031C28.3957 18.031 27.7067 17.329 27.7067 16.25C27.7067 15.171 28.3957 14.469 29.3317 14.469C30.0857 14.469 30.5667 14.898 30.8137 15.483H32.6597C32.3087 13.988 31.1257 12.857 29.3317 12.857C27.3557 12.857 25.9127 14.365 25.9127 16.25C25.9127 18.135 27.3557 19.643 29.3317 19.643C31.1257 19.643 32.3087 18.512 32.6597 17.017ZM38.0579 19.435V17.862C37.8499 17.94 37.6159 17.979 37.3299 17.979C36.5629 17.979 36.2249 17.667 36.2249 16.874V14.56H38.0579V13H36.2249V11.193H34.4439V13H33.1309V14.56H34.4439V17.225C34.4439 18.811 35.5489 19.578 36.9269 19.578C37.4209 19.578 37.7719 19.526 38.0579 19.435ZM41.3567 10.803C41.3567 10.179 40.8497 9.672 40.2127 9.672C39.6017 9.672 39.0817 10.179 39.0817 10.803C39.0817 11.427 39.6017 11.934 40.2127 11.934C40.8497 11.934 41.3567 11.427 41.3567 10.803ZM39.3287 19.5H41.1097V13H39.3287V19.5ZM44.8479 19.5H46.4729L49.3589 13H47.3699L45.6539 17.16L43.9379 13H41.9749L44.8479 19.5ZM56.3489 17.381H54.4899C54.2819 17.823 53.7359 18.096 53.1119 18.096C52.0069 18.096 51.4349 17.433 51.3569 16.666H56.4269C56.5179 14.222 54.9449 12.857 53.0339 12.857C51.0579 12.857 49.6149 14.3 49.6149 16.237C49.6149 18.213 51.0319 19.643 53.0209 19.643C54.6719 19.643 55.9589 18.694 56.3489 17.381ZM52.9819 14.3C53.5929 14.3 54.2559 14.625 54.4769 15.496H51.4219C51.5909 14.781 52.1629 14.3 52.9819 14.3Z" fill="#00684A"/>
<path d="M0 33C0 30.7909 1.79086 29 4 29H69C71.2091 29 73 30.7909 73 33V33H0V33Z" fill="#00A35C"/>
<path d="M90.131 19.5H91.652V10.27H90.131V19.5ZM93.669 19.5H95.099V16.302C95.099 14.911 95.827 14.17 96.776 14.17C97.608 14.17 98.128 14.794 98.128 15.821V19.5H99.558V15.587C99.558 13.936 98.583 12.87 97.075 12.87C96.23 12.87 95.489 13.234 95.099 13.884V13H93.669V19.5ZM100.92 16.25C100.92 18.109 102.272 19.63 104.053 19.63C104.989 19.63 105.769 19.149 106.133 18.629V19.5H107.563V13H106.133V13.871C105.769 13.351 104.989 12.87 104.053 12.87C102.272 12.87 100.92 14.391 100.92 16.25ZM106.25 16.25C106.25 17.42 105.47 18.33 104.313 18.33C103.156 18.33 102.376 17.42 102.376 16.25C102.376 15.08 103.156 14.17 104.313 14.17C105.47 14.17 106.25 15.08 106.25 16.25ZM115.74 17.121H114.232C113.972 17.823 113.335 18.33 112.438 18.33C111.281 18.33 110.488 17.459 110.488 16.25C110.488 15.041 111.281 14.17 112.438 14.17C113.335 14.17 113.972 14.677 114.232 15.379H115.74C115.389 13.936 114.154 12.87 112.438 12.87C110.462 12.87 109.032 14.378 109.032 16.25C109.032 18.122 110.462 19.63 112.438 19.63C114.154 19.63 115.389 18.564 115.74 17.121ZM120.903 19.422V18.148C120.695 18.226 120.409 18.278 120.136 18.278C119.395 18.278 119.044 17.979 119.044 17.173V14.274H120.903V13H119.044V11.193H117.614V13H116.262V14.274H117.614V17.407C117.614 18.876 118.589 19.565 119.837 19.565C120.279 19.565 120.617 19.513 120.903 19.422ZM123.923 10.621C123.923 10.101 123.507 9.672 122.974 9.672C122.454 9.672 122.012 10.101 122.012 10.621C122.012 11.154 122.454 11.583 122.974 11.583C123.507 11.583 123.923 11.154 123.923 10.621ZM122.259 19.5H123.689V13H122.259V19.5ZM127.638 19.5H128.899L131.85 13H130.251L128.262 17.55L126.286 13H124.7L127.638 19.5ZM138.74 17.459H137.245C136.946 18.083 136.322 18.369 135.607 18.369C134.45 18.369 133.696 17.589 133.644 16.601H138.818C138.948 14.391 137.557 12.87 135.568 12.87C133.566 12.87 132.227 14.326 132.227 16.25C132.227 18.2 133.618 19.63 135.555 19.63C137.206 19.63 138.376 18.681 138.74 17.459ZM135.529 14.066C136.322 14.066 137.063 14.534 137.284 15.587H133.696C133.891 14.586 134.632 14.066 135.529 14.066Z" fill="#5C6C75"/>
<rect width="83" height="1" transform="translate(73 32)" fill="#E8EDEB"/>
</svg>
