<svg width="260" height="156" viewBox="0 0 260 156" fill="none" xmlns="http://www.w3.org/2000/svg">
<path d="M1.027 15H6.864V13.206H2.912V5.77H1.027V15ZM7.4752 11.75C7.4752 13.596 8.8012 15.143 10.5302 15.143C11.4272 15.143 12.1162 14.688 12.4022 14.272V15H14.1832V8.5H12.4022V9.228C12.1162 8.812 11.4272 8.357 10.5302 8.357C8.8012 8.357 7.4752 9.904 7.4752 11.75ZM12.5452 11.75C12.5452 12.764 11.8822 13.518 10.9072 13.518C9.9322 13.518 9.2692 12.764 9.2692 11.75C9.2692 10.736 9.9322 9.982 10.9072 9.982C11.8822 9.982 12.5452 10.736 12.5452 11.75ZM17.6956 14.272C17.9946 14.688 18.6836 15.143 19.5806 15.143C21.3096 15.143 22.6356 13.596 22.6356 11.75C22.6356 9.904 21.3096 8.357 19.5806 8.357C18.6836 8.357 17.9946 8.812 17.6956 9.228V5.25H15.9146V15H17.6956V14.272ZM20.8286 11.75C20.8286 12.764 20.1656 13.518 19.1906 13.518C18.2156 13.518 17.5526 12.764 17.5526 11.75C17.5526 10.736 18.2156 9.982 19.1906 9.982C20.1656 9.982 20.8286 10.736 20.8286 11.75ZM30.2561 12.881H28.3971C28.1891 13.323 27.6431 13.596 27.0191 13.596C25.9141 13.596 25.3421 12.933 25.2641 12.166H30.3341C30.4251 9.722 28.8521 8.357 26.9411 8.357C24.9651 8.357 23.5221 9.8 23.5221 11.737C23.5221 13.713 24.9391 15.143 26.9281 15.143C28.5791 15.143 29.8661 14.194 30.2561 12.881ZM26.8891 9.8C27.5001 9.8 28.1631 10.125 28.3841 10.996H25.3291C25.4981 10.281 26.0701 9.8 26.8891 9.8ZM31.6314 15H33.4124V5.25H31.6314V15Z" fill="#001E2B"/>
<path d="M1.222 35H3.874C6.708 35 8.788 33.024 8.788 30.385C8.788 27.746 6.708 25.77 3.874 25.77H1.222V35ZM2.431 33.869V26.901H3.874C6.097 26.901 7.566 28.383 7.566 30.385C7.566 32.387 6.097 33.869 3.874 33.869H2.431ZM16.2331 33.024H15.0891C14.6991 33.804 14.0101 34.116 13.2041 34.116C12.0341 34.116 11.0851 33.232 11.0461 32.049H16.3371C16.4931 30.034 15.2581 28.37 13.2171 28.37C11.1891 28.37 9.91514 29.852 9.91514 31.75C9.91514 33.687 11.2931 35.13 13.1911 35.13C14.8421 35.13 15.9081 34.168 16.2331 33.024ZM13.1781 29.358C14.1401 29.358 14.9461 29.956 15.1541 31.165H11.0981C11.3191 29.878 12.2421 29.358 13.1781 29.358ZM22.4355 33.245C22.4355 32.27 21.8505 31.594 20.7715 31.321L19.7315 31.048C19.0425 30.866 18.7435 30.593 18.7435 30.112C18.7435 29.618 19.2375 29.306 19.8615 29.306C20.4725 29.306 20.9405 29.657 21.1095 30.229H22.2275C22.1105 29.189 21.2525 28.37 19.8615 28.37C18.5485 28.37 17.6125 29.046 17.6125 30.125C17.6125 31.048 18.1715 31.75 19.2895 32.036L20.2255 32.283C20.9925 32.491 21.3045 32.803 21.3045 33.323C21.3045 33.895 20.7585 34.181 20.0565 34.181C19.3805 34.181 18.7045 33.908 18.5485 33.115H17.4045C17.4955 34.428 18.6525 35.13 20.0435 35.13C21.3955 35.13 22.4355 34.532 22.4355 33.245ZM30.1808 32.712H28.9848C28.6988 33.531 27.9188 34.103 26.9048 34.103C25.5528 34.103 24.6428 33.063 24.6428 31.75C24.6428 30.437 25.5528 29.397 26.9048 29.397C27.9188 29.397 28.6988 29.969 28.9848 30.788H30.1808C29.8168 29.384 28.5428 28.37 26.9048 28.37C24.9288 28.37 23.5118 29.891 23.5118 31.75C23.5118 33.609 24.9288 35.13 26.9048 35.13C28.5428 35.13 29.8168 34.116 30.1808 32.712ZM31.6614 35H32.7794V31.776C32.7794 30.255 33.6764 29.54 34.4954 29.54C34.7164 29.54 34.8984 29.566 35.1064 29.644V28.487C34.9244 28.448 34.7684 28.435 34.5994 28.435C33.8454 28.435 33.0394 28.929 32.7794 29.761V28.5H31.6614V35ZM37.7741 25.965C37.7741 25.536 37.4361 25.172 36.9941 25.172C36.5521 25.172 36.1881 25.536 36.1881 25.965C36.1881 26.407 36.5521 26.758 36.9941 26.758C37.4361 26.758 37.7741 26.407 37.7741 25.965ZM36.4221 35H37.5401V28.5H36.4221V35ZM39.6594 37.717H40.7774V33.999C41.2064 34.623 42.0904 35.13 43.0654 35.13C44.8724 35.13 46.2504 33.609 46.2504 31.75C46.2504 29.891 44.8724 28.37 43.0654 28.37C42.0904 28.37 41.2064 28.877 40.7774 29.501V28.5H39.6594V37.717ZM45.1064 31.75C45.1064 33.063 44.2094 34.103 42.8964 34.103C41.5834 34.103 40.6864 33.063 40.6864 31.75C40.6864 30.437 41.5834 29.397 42.8964 29.397C44.2094 29.397 45.1064 30.437 45.1064 31.75ZM51.2694 34.909V33.908C51.0614 33.986 50.7494 34.038 50.4764 34.038C49.7744 34.038 49.3974 33.765 49.3974 32.933V29.527H51.2694V28.5H49.3974V26.693H48.2794V28.5H46.9014V29.527H48.2794V33.076C48.2794 34.428 49.1374 35.065 50.2684 35.065C50.6714 35.065 50.9964 35 51.2694 34.909ZM54.0495 25.965C54.0495 25.536 53.7115 25.172 53.2695 25.172C52.8275 25.172 52.4635 25.536 52.4635 25.965C52.4635 26.407 52.8275 26.758 53.2695 26.758C53.7115 26.758 54.0495 26.407 54.0495 25.965ZM52.6975 35H53.8155V28.5H52.6975V35ZM62.2138 31.75C62.2138 29.878 60.7708 28.37 58.8208 28.37C56.8578 28.37 55.4148 29.878 55.4148 31.75C55.4148 33.622 56.8578 35.13 58.8208 35.13C60.7708 35.13 62.2138 33.622 62.2138 31.75ZM56.5588 31.75C56.5588 30.45 57.4688 29.41 58.8208 29.41C60.1728 29.41 61.0698 30.45 61.0698 31.75C61.0698 33.05 60.1728 34.09 58.8208 34.09C57.4688 34.09 56.5588 33.05 56.5588 31.75ZM63.8186 35H64.9366V31.776C64.9366 30.255 65.7686 29.397 66.8216 29.397C67.7316 29.397 68.3556 30.073 68.3556 31.165V35H69.4606V30.996C69.4606 29.384 68.4596 28.37 67.0036 28.37C66.1586 28.37 65.3786 28.734 64.9366 29.501V28.5H63.8186V35ZM73.0209 34.129C73.0209 33.609 72.5919 33.154 72.0589 33.154C71.5259 33.154 71.0969 33.609 71.0969 34.129C71.0969 34.662 71.5259 35.104 72.0589 35.104C72.5919 35.104 73.0209 34.662 73.0209 34.129ZM8.411 55H9.49L12.012 45.77H10.751L8.814 52.972L6.149 45.614L3.497 52.972L1.56 45.77H0.299L2.821 55H3.9L6.162 48.734L8.411 55ZM13.3675 55H14.4855V51.776C14.4855 50.255 15.3175 49.397 16.3705 49.397C17.2805 49.397 17.9045 50.073 17.9045 51.165V55H19.0095V50.996C19.0095 49.384 18.0085 48.37 16.5525 48.37C15.7075 48.37 14.9275 48.734 14.4855 49.501V45.25H13.3675V55ZM22.3747 45.965C22.3747 45.536 22.0367 45.172 21.5947 45.172C21.1527 45.172 20.7887 45.536 20.7887 45.965C20.7887 46.407 21.1527 46.758 21.5947 46.758C22.0367 46.758 22.3747 46.407 22.3747 45.965ZM21.0227 55H22.1407V48.5H21.0227V55ZM30.422 52.712H29.226C28.94 53.531 28.16 54.103 27.146 54.103C25.794 54.103 24.884 53.063 24.884 51.75C24.884 50.437 25.794 49.397 27.146 49.397C28.16 49.397 28.94 49.969 29.226 50.788H30.422C30.058 49.384 28.784 48.37 27.146 48.37C25.17 48.37 23.753 49.891 23.753 51.75C23.753 53.609 25.17 55.13 27.146 55.13C28.784 55.13 30.058 54.116 30.422 52.712ZM31.9026 55H33.0206V51.776C33.0206 50.255 33.8526 49.397 34.9056 49.397C35.8156 49.397 36.4396 50.073 36.4396 51.165V55H37.5446V50.996C37.5446 49.384 36.5436 48.37 35.0876 48.37C34.2426 48.37 33.4626 48.734 33.0206 49.501V45.25H31.9026V55ZM48.8556 52.712H47.6596C47.3736 53.531 46.5936 54.103 45.5796 54.103C44.2276 54.103 43.3176 53.063 43.3176 51.75C43.3176 50.437 44.2276 49.397 45.5796 49.397C46.5936 49.397 47.3736 49.969 47.6596 50.788H48.8556C48.4916 49.384 47.2176 48.37 45.5796 48.37C43.6036 48.37 42.1866 49.891 42.1866 51.75C42.1866 53.609 43.6036 55.13 45.5796 55.13C47.2176 55.13 48.4916 54.116 48.8556 52.712ZM49.8292 51.75C49.8292 53.609 51.1942 55.13 53.0142 55.13C53.9892 55.13 54.8732 54.623 55.3022 53.999V55H56.4202V48.5H55.3022V49.501C54.8732 48.877 53.9892 48.37 53.0142 48.37C51.1942 48.37 49.8292 49.891 49.8292 51.75ZM55.3932 51.75C55.3932 53.063 54.4962 54.103 53.1832 54.103C51.8702 54.103 50.9602 53.063 50.9602 51.75C50.9602 50.437 51.8702 49.397 53.1832 49.397C54.4962 49.397 55.3932 50.437 55.3932 51.75ZM58.5247 55H59.6427V51.776C59.6427 50.255 60.4747 49.397 61.5277 49.397C62.4377 49.397 63.0617 50.073 63.0617 51.165V55H64.1667V50.996C64.1667 49.384 63.1657 48.37 61.7097 48.37C60.8647 48.37 60.0847 48.734 59.6427 49.501V48.5H58.5247V55ZM73.8007 53.245C73.8007 52.27 73.2157 51.594 72.1367 51.321L71.0967 51.048C70.4077 50.866 70.1087 50.593 70.1087 50.112C70.1087 49.618 70.6027 49.306 71.2267 49.306C71.8377 49.306 72.3057 49.657 72.4747 50.229H73.5927C73.4757 49.189 72.6177 48.37 71.2267 48.37C69.9137 48.37 68.9777 49.046 68.9777 50.125C68.9777 51.048 69.5367 51.75 70.6547 52.036L71.5907 52.283C72.3577 52.491 72.6697 52.803 72.6697 53.323C72.6697 53.895 72.1237 54.181 71.4217 54.181C70.7457 54.181 70.0697 53.908 69.9137 53.115H68.7697C68.8607 54.428 70.0177 55.13 71.4087 55.13C72.7607 55.13 73.8007 54.532 73.8007 53.245ZM75.3841 57.717H76.5021V53.999C76.9311 54.623 77.8151 55.13 78.7901 55.13C80.5971 55.13 81.9751 53.609 81.9751 51.75C81.9751 49.891 80.5971 48.37 78.7901 48.37C77.8151 48.37 76.9311 48.877 76.5021 49.501V48.5H75.3841V57.717ZM80.8311 51.75C80.8311 53.063 79.9341 54.103 78.6211 54.103C77.3081 54.103 76.4111 53.063 76.4111 51.75C76.4111 50.437 77.3081 49.397 78.6211 49.397C79.9341 49.397 80.8311 50.437 80.8311 51.75ZM83.0782 51.75C83.0782 53.609 84.4432 55.13 86.2632 55.13C87.2382 55.13 88.1222 54.623 88.5512 53.999V55H89.6692V48.5H88.5512V49.501C88.1222 48.877 87.2382 48.37 86.2632 48.37C84.4432 48.37 83.0782 49.891 83.0782 51.75ZM88.6422 51.75C88.6422 53.063 87.7452 54.103 86.4322 54.103C85.1192 54.103 84.2092 53.063 84.2092 51.75C84.2092 50.437 85.1192 49.397 86.4322 49.397C87.7452 49.397 88.6422 50.437 88.6422 51.75ZM91.7737 55H92.8917V51.776C92.8917 50.255 93.7237 49.397 94.7767 49.397C95.6867 49.397 96.3107 50.073 96.3107 51.165V55H97.4157V50.996C97.4157 49.384 96.4147 48.37 94.9587 48.37C94.1137 48.37 93.3337 48.734 92.8917 49.501V48.5H91.7737V55ZM108.129 53.921H103.527C103.748 52.855 104.827 52.322 105.893 51.542C107.401 50.45 108.025 49.67 108.025 48.318C108.025 46.524 106.712 45.614 105.178 45.614C103.475 45.614 102.136 46.758 102.136 48.526H103.28C103.293 47.33 104.177 46.706 105.191 46.706C106.192 46.706 106.881 47.343 106.881 48.305C106.881 49.384 106.309 49.865 105.243 50.658C103.878 51.672 102.149 52.582 102.149 54.558V55H108.129V53.921ZM112.949 55H114.067V45.25H112.949V55ZM117.539 45.965C117.539 45.536 117.201 45.172 116.759 45.172C116.317 45.172 115.953 45.536 115.953 45.965C115.953 46.407 116.317 46.758 116.759 46.758C117.201 46.758 117.539 46.407 117.539 45.965ZM116.187 55H117.305V48.5H116.187V55ZM119.424 55H120.542V51.776C120.542 50.255 121.374 49.397 122.427 49.397C123.337 49.397 123.961 50.073 123.961 51.165V55H125.066V50.996C125.066 49.384 124.065 48.37 122.609 48.37C121.764 48.37 120.984 48.734 120.542 49.501V48.5H119.424V55ZM132.89 53.024H131.746C131.356 53.804 130.667 54.116 129.861 54.116C128.691 54.116 127.742 53.232 127.703 52.049H132.994C133.15 50.034 131.915 48.37 129.874 48.37C127.846 48.37 126.572 49.852 126.572 51.75C126.572 53.687 127.95 55.13 129.848 55.13C131.499 55.13 132.565 54.168 132.89 53.024ZM129.835 49.358C130.797 49.358 131.603 49.956 131.811 51.165H127.755C127.976 49.878 128.899 49.358 129.835 49.358ZM139.093 53.245C139.093 52.27 138.508 51.594 137.429 51.321L136.389 51.048C135.7 50.866 135.401 50.593 135.401 50.112C135.401 49.618 135.895 49.306 136.519 49.306C137.13 49.306 137.598 49.657 137.767 50.229H138.885C138.768 49.189 137.91 48.37 136.519 48.37C135.206 48.37 134.27 49.046 134.27 50.125C134.27 51.048 134.829 51.75 135.947 52.036L136.883 52.283C137.65 52.491 137.962 52.803 137.962 53.323C137.962 53.895 137.416 54.181 136.714 54.181C136.038 54.181 135.362 53.908 135.206 53.115H134.062C134.153 54.428 135.31 55.13 136.701 55.13C138.053 55.13 139.093 54.532 139.093 53.245ZM142.223 54.129C142.223 53.609 141.794 53.154 141.261 53.154C140.728 53.154 140.299 53.609 140.299 54.129C140.299 54.662 140.728 55.104 141.261 55.104C141.794 55.104 142.223 54.662 142.223 54.129Z" fill="#5C6C75"/>
<rect x="0.5" y="64.5" width="259" height="91" rx="5.5" fill="white"/>
<path d="M13.222 87H14.431V77.77H13.222V87ZM16.6839 87H17.8019V83.776C17.8019 82.255 18.6339 81.397 19.6869 81.397C20.5969 81.397 21.2209 82.073 21.2209 83.165V87H22.3259V82.996C22.3259 81.384 21.3249 80.37 19.8689 80.37C19.0239 80.37 18.2439 80.734 17.8019 81.501V80.5H16.6839V87ZM24.3391 89.717H25.4571V85.999C25.8861 86.623 26.7701 87.13 27.7451 87.13C29.5521 87.13 30.9301 85.609 30.9301 83.75C30.9301 81.891 29.5521 80.37 27.7451 80.37C26.7701 80.37 25.8861 80.877 25.4571 81.501V80.5H24.3391V89.717ZM29.7861 83.75C29.7861 85.063 28.8891 86.103 27.5761 86.103C26.2631 86.103 25.3661 85.063 25.3661 83.75C25.3661 82.437 26.2631 81.397 27.5761 81.397C28.8891 81.397 29.7861 82.437 29.7861 83.75ZM32.4493 84.491C32.4493 86.103 33.4113 87.13 34.8413 87.13C35.6603 87.13 36.4143 86.753 36.8433 85.999V87H37.9613V80.5H36.8433V83.724C36.8433 85.219 36.0503 86.103 35.0363 86.103C34.1393 86.103 33.5673 85.414 33.5673 84.322V80.5H32.4493V84.491ZM43.5916 86.909V85.908C43.3836 85.986 43.0716 86.038 42.7986 86.038C42.0966 86.038 41.7196 85.765 41.7196 84.933V81.527H43.5916V80.5H41.7196V78.693H40.6016V80.5H39.2236V81.527H40.6016V85.076C40.6016 86.428 41.4596 87.065 42.5906 87.065C42.9936 87.065 43.3186 87 43.5916 86.909Z" fill="#001E2B"/>
<rect x="0.5" y="64.5" width="259" height="91" rx="5.5" stroke="#889397"/>
</svg>
