<svg width="260" height="100" viewBox="0 0 260 100" fill="none" xmlns="http://www.w3.org/2000/svg">
<path d="M1.027 15H6.864V13.206H2.912V5.77H1.027V15ZM7.4752 11.75C7.4752 13.596 8.8012 15.143 10.5302 15.143C11.4272 15.143 12.1162 14.688 12.4022 14.272V15H14.1832V8.5H12.4022V9.228C12.1162 8.812 11.4272 8.357 10.5302 8.357C8.8012 8.357 7.4752 9.904 7.4752 11.75ZM12.5452 11.75C12.5452 12.764 11.8822 13.518 10.9072 13.518C9.9322 13.518 9.2692 12.764 9.2692 11.75C9.2692 10.736 9.9322 9.982 10.9072 9.982C11.8822 9.982 12.5452 10.736 12.5452 11.75ZM17.6956 14.272C17.9946 14.688 18.6836 15.143 19.5806 15.143C21.3096 15.143 22.6356 13.596 22.6356 11.75C22.6356 9.904 21.3096 8.357 19.5806 8.357C18.6836 8.357 17.9946 8.812 17.6956 9.228V5.25H15.9146V15H17.6956V14.272ZM20.8286 11.75C20.8286 12.764 20.1656 13.518 19.1906 13.518C18.2156 13.518 17.5526 12.764 17.5526 11.75C17.5526 10.736 18.2156 9.982 19.1906 9.982C20.1656 9.982 20.8286 10.736 20.8286 11.75ZM30.2561 12.881H28.3971C28.1891 13.323 27.6431 13.596 27.0191 13.596C25.9141 13.596 25.3421 12.933 25.2641 12.166H30.3341C30.4251 9.722 28.8521 8.357 26.9411 8.357C24.9651 8.357 23.5221 9.8 23.5221 11.737C23.5221 13.713 24.9391 15.143 26.9281 15.143C28.5791 15.143 29.8661 14.194 30.2561 12.881ZM26.8891 9.8C27.5001 9.8 28.1631 10.125 28.3841 10.996H25.3291C25.4981 10.281 26.0701 9.8 26.8891 9.8ZM31.6314 15H33.4124V5.25H31.6314V15Z" fill="#001E2B"/>
<path d="M1.222 35H3.874C6.708 35 8.788 33.024 8.788 30.385C8.788 27.746 6.708 25.77 3.874 25.77H1.222V35ZM2.431 33.869V26.901H3.874C6.097 26.901 7.566 28.383 7.566 30.385C7.566 32.387 6.097 33.869 3.874 33.869H2.431ZM16.2331 33.024H15.0891C14.6991 33.804 14.0101 34.116 13.2041 34.116C12.0341 34.116 11.0851 33.232 11.0461 32.049H16.3371C16.4931 30.034 15.2581 28.37 13.2171 28.37C11.1891 28.37 9.91514 29.852 9.91514 31.75C9.91514 33.687 11.2931 35.13 13.1911 35.13C14.8421 35.13 15.9081 34.168 16.2331 33.024ZM13.1781 29.358C14.1401 29.358 14.9461 29.956 15.1541 31.165H11.0981C11.3191 29.878 12.2421 29.358 13.1781 29.358ZM22.4355 33.245C22.4355 32.27 21.8505 31.594 20.7715 31.321L19.7315 31.048C19.0425 30.866 18.7435 30.593 18.7435 30.112C18.7435 29.618 19.2375 29.306 19.8615 29.306C20.4725 29.306 20.9405 29.657 21.1095 30.229H22.2275C22.1105 29.189 21.2525 28.37 19.8615 28.37C18.5485 28.37 17.6125 29.046 17.6125 30.125C17.6125 31.048 18.1715 31.75 19.2895 32.036L20.2255 32.283C20.9925 32.491 21.3045 32.803 21.3045 33.323C21.3045 33.895 20.7585 34.181 20.0565 34.181C19.3805 34.181 18.7045 33.908 18.5485 33.115H17.4045C17.4955 34.428 18.6525 35.13 20.0435 35.13C21.3955 35.13 22.4355 34.532 22.4355 33.245ZM30.1808 32.712H28.9848C28.6988 33.531 27.9188 34.103 26.9048 34.103C25.5528 34.103 24.6428 33.063 24.6428 31.75C24.6428 30.437 25.5528 29.397 26.9048 29.397C27.9188 29.397 28.6988 29.969 28.9848 30.788H30.1808C29.8168 29.384 28.5428 28.37 26.9048 28.37C24.9288 28.37 23.5118 29.891 23.5118 31.75C23.5118 33.609 24.9288 35.13 26.9048 35.13C28.5428 35.13 29.8168 34.116 30.1808 32.712ZM31.6614 35H32.7794V31.776C32.7794 30.255 33.6764 29.54 34.4954 29.54C34.7164 29.54 34.8984 29.566 35.1064 29.644V28.487C34.9244 28.448 34.7684 28.435 34.5994 28.435C33.8454 28.435 33.0394 28.929 32.7794 29.761V28.5H31.6614V35ZM37.7741 25.965C37.7741 25.536 37.4361 25.172 36.9941 25.172C36.5521 25.172 36.1881 25.536 36.1881 25.965C36.1881 26.407 36.5521 26.758 36.9941 26.758C37.4361 26.758 37.7741 26.407 37.7741 25.965ZM36.4221 35H37.5401V28.5H36.4221V35ZM39.6594 37.717H40.7774V33.999C41.2064 34.623 42.0904 35.13 43.0654 35.13C44.8724 35.13 46.2504 33.609 46.2504 31.75C46.2504 29.891 44.8724 28.37 43.0654 28.37C42.0904 28.37 41.2064 28.877 40.7774 29.501V28.5H39.6594V37.717ZM45.1064 31.75C45.1064 33.063 44.2094 34.103 42.8964 34.103C41.5834 34.103 40.6864 33.063 40.6864 31.75C40.6864 30.437 41.5834 29.397 42.8964 29.397C44.2094 29.397 45.1064 30.437 45.1064 31.75ZM51.2694 34.909V33.908C51.0614 33.986 50.7494 34.038 50.4764 34.038C49.7744 34.038 49.3974 33.765 49.3974 32.933V29.527H51.2694V28.5H49.3974V26.693H48.2794V28.5H46.9014V29.527H48.2794V33.076C48.2794 34.428 49.1374 35.065 50.2684 35.065C50.6714 35.065 50.9964 35 51.2694 34.909ZM54.0495 25.965C54.0495 25.536 53.7115 25.172 53.2695 25.172C52.8275 25.172 52.4635 25.536 52.4635 25.965C52.4635 26.407 52.8275 26.758 53.2695 26.758C53.7115 26.758 54.0495 26.407 54.0495 25.965ZM52.6975 35H53.8155V28.5H52.6975V35ZM62.2138 31.75C62.2138 29.878 60.7708 28.37 58.8208 28.37C56.8578 28.37 55.4148 29.878 55.4148 31.75C55.4148 33.622 56.8578 35.13 58.8208 35.13C60.7708 35.13 62.2138 33.622 62.2138 31.75ZM56.5588 31.75C56.5588 30.45 57.4688 29.41 58.8208 29.41C60.1728 29.41 61.0698 30.45 61.0698 31.75C61.0698 33.05 60.1728 34.09 58.8208 34.09C57.4688 34.09 56.5588 33.05 56.5588 31.75ZM63.8186 35H64.9366V31.776C64.9366 30.255 65.7686 29.397 66.8216 29.397C67.7316 29.397 68.3556 30.073 68.3556 31.165V35H69.4606V30.996C69.4606 29.384 68.4596 28.37 67.0036 28.37C66.1586 28.37 65.3786 28.734 64.9366 29.501V28.5H63.8186V35ZM73.0209 34.129C73.0209 33.609 72.5919 33.154 72.0589 33.154C71.5259 33.154 71.0969 33.609 71.0969 34.129C71.0969 34.662 71.5259 35.104 72.0589 35.104C72.5919 35.104 73.0209 34.662 73.0209 34.129ZM8.411 55H9.49L12.012 45.77H10.751L8.814 52.972L6.149 45.614L3.497 52.972L1.56 45.77H0.299L2.821 55H3.9L6.162 48.734L8.411 55ZM13.3675 55H14.4855V51.776C14.4855 50.255 15.3175 49.397 16.3705 49.397C17.2805 49.397 17.9045 50.073 17.9045 51.165V55H19.0095V50.996C19.0095 49.384 18.0085 48.37 16.5525 48.37C15.7075 48.37 14.9275 48.734 14.4855 49.501V45.25H13.3675V55ZM22.3747 45.965C22.3747 45.536 22.0367 45.172 21.5947 45.172C21.1527 45.172 20.7887 45.536 20.7887 45.965C20.7887 46.407 21.1527 46.758 21.5947 46.758C22.0367 46.758 22.3747 46.407 22.3747 45.965ZM21.0227 55H22.1407V48.5H21.0227V55ZM30.422 52.712H29.226C28.94 53.531 28.16 54.103 27.146 54.103C25.794 54.103 24.884 53.063 24.884 51.75C24.884 50.437 25.794 49.397 27.146 49.397C28.16 49.397 28.94 49.969 29.226 50.788H30.422C30.058 49.384 28.784 48.37 27.146 48.37C25.17 48.37 23.753 49.891 23.753 51.75C23.753 53.609 25.17 55.13 27.146 55.13C28.784 55.13 30.058 54.116 30.422 52.712ZM31.9026 55H33.0206V51.776C33.0206 50.255 33.8526 49.397 34.9056 49.397C35.8156 49.397 36.4396 50.073 36.4396 51.165V55H37.5446V50.996C37.5446 49.384 36.5436 48.37 35.0876 48.37C34.2426 48.37 33.4626 48.734 33.0206 49.501V45.25H31.9026V55ZM48.8556 52.712H47.6596C47.3736 53.531 46.5936 54.103 45.5796 54.103C44.2276 54.103 43.3176 53.063 43.3176 51.75C43.3176 50.437 44.2276 49.397 45.5796 49.397C46.5936 49.397 47.3736 49.969 47.6596 50.788H48.8556C48.4916 49.384 47.2176 48.37 45.5796 48.37C43.6036 48.37 42.1866 49.891 42.1866 51.75C42.1866 53.609 43.6036 55.13 45.5796 55.13C47.2176 55.13 48.4916 54.116 48.8556 52.712ZM49.8292 51.75C49.8292 53.609 51.1942 55.13 53.0142 55.13C53.9892 55.13 54.8732 54.623 55.3022 53.999V55H56.4202V48.5H55.3022V49.501C54.8732 48.877 53.9892 48.37 53.0142 48.37C51.1942 48.37 49.8292 49.891 49.8292 51.75ZM55.3932 51.75C55.3932 53.063 54.4962 54.103 53.1832 54.103C51.8702 54.103 50.9602 53.063 50.9602 51.75C50.9602 50.437 51.8702 49.397 53.1832 49.397C54.4962 49.397 55.3932 50.437 55.3932 51.75ZM58.5247 55H59.6427V51.776C59.6427 50.255 60.4747 49.397 61.5277 49.397C62.4377 49.397 63.0617 50.073 63.0617 51.165V55H64.1667V50.996C64.1667 49.384 63.1657 48.37 61.7097 48.37C60.8647 48.37 60.0847 48.734 59.6427 49.501V48.5H58.5247V55ZM73.8007 53.245C73.8007 52.27 73.2157 51.594 72.1367 51.321L71.0967 51.048C70.4077 50.866 70.1087 50.593 70.1087 50.112C70.1087 49.618 70.6027 49.306 71.2267 49.306C71.8377 49.306 72.3057 49.657 72.4747 50.229H73.5927C73.4757 49.189 72.6177 48.37 71.2267 48.37C69.9137 48.37 68.9777 49.046 68.9777 50.125C68.9777 51.048 69.5367 51.75 70.6547 52.036L71.5907 52.283C72.3577 52.491 72.6697 52.803 72.6697 53.323C72.6697 53.895 72.1237 54.181 71.4217 54.181C70.7457 54.181 70.0697 53.908 69.9137 53.115H68.7697C68.8607 54.428 70.0177 55.13 71.4087 55.13C72.7607 55.13 73.8007 54.532 73.8007 53.245ZM75.3841 57.717H76.5021V53.999C76.9311 54.623 77.8151 55.13 78.7901 55.13C80.5971 55.13 81.9751 53.609 81.9751 51.75C81.9751 49.891 80.5971 48.37 78.7901 48.37C77.8151 48.37 76.9311 48.877 76.5021 49.501V48.5H75.3841V57.717ZM80.8311 51.75C80.8311 53.063 79.9341 54.103 78.6211 54.103C77.3081 54.103 76.4111 53.063 76.4111 51.75C76.4111 50.437 77.3081 49.397 78.6211 49.397C79.9341 49.397 80.8311 50.437 80.8311 51.75ZM83.0782 51.75C83.0782 53.609 84.4432 55.13 86.2632 55.13C87.2382 55.13 88.1222 54.623 88.5512 53.999V55H89.6692V48.5H88.5512V49.501C88.1222 48.877 87.2382 48.37 86.2632 48.37C84.4432 48.37 83.0782 49.891 83.0782 51.75ZM88.6422 51.75C88.6422 53.063 87.7452 54.103 86.4322 54.103C85.1192 54.103 84.2092 53.063 84.2092 51.75C84.2092 50.437 85.1192 49.397 86.4322 49.397C87.7452 49.397 88.6422 50.437 88.6422 51.75ZM91.7737 55H92.8917V51.776C92.8917 50.255 93.7237 49.397 94.7767 49.397C95.6867 49.397 96.3107 50.073 96.3107 51.165V55H97.4157V50.996C97.4157 49.384 96.4147 48.37 94.9587 48.37C94.1137 48.37 93.3337 48.734 92.8917 49.501V48.5H91.7737V55ZM108.129 53.921H103.527C103.748 52.855 104.827 52.322 105.893 51.542C107.401 50.45 108.025 49.67 108.025 48.318C108.025 46.524 106.712 45.614 105.178 45.614C103.475 45.614 102.136 46.758 102.136 48.526H103.28C103.293 47.33 104.177 46.706 105.191 46.706C106.192 46.706 106.881 47.343 106.881 48.305C106.881 49.384 106.309 49.865 105.243 50.658C103.878 51.672 102.149 52.582 102.149 54.558V55H108.129V53.921ZM112.949 55H114.067V45.25H112.949V55ZM117.539 45.965C117.539 45.536 117.201 45.172 116.759 45.172C116.317 45.172 115.953 45.536 115.953 45.965C115.953 46.407 116.317 46.758 116.759 46.758C117.201 46.758 117.539 46.407 117.539 45.965ZM116.187 55H117.305V48.5H116.187V55ZM119.424 55H120.542V51.776C120.542 50.255 121.374 49.397 122.427 49.397C123.337 49.397 123.961 50.073 123.961 51.165V55H125.066V50.996C125.066 49.384 124.065 48.37 122.609 48.37C121.764 48.37 120.984 48.734 120.542 49.501V48.5H119.424V55ZM132.89 53.024H131.746C131.356 53.804 130.667 54.116 129.861 54.116C128.691 54.116 127.742 53.232 127.703 52.049H132.994C133.15 50.034 131.915 48.37 129.874 48.37C127.846 48.37 126.572 49.852 126.572 51.75C126.572 53.687 127.95 55.13 129.848 55.13C131.499 55.13 132.565 54.168 132.89 53.024ZM129.835 49.358C130.797 49.358 131.603 49.956 131.811 51.165H127.755C127.976 49.878 128.899 49.358 129.835 49.358ZM139.093 53.245C139.093 52.27 138.508 51.594 137.429 51.321L136.389 51.048C135.7 50.866 135.401 50.593 135.401 50.112C135.401 49.618 135.895 49.306 136.519 49.306C137.13 49.306 137.598 49.657 137.767 50.229H138.885C138.768 49.189 137.91 48.37 136.519 48.37C135.206 48.37 134.27 49.046 134.27 50.125C134.27 51.048 134.829 51.75 135.947 52.036L136.883 52.283C137.65 52.491 137.962 52.803 137.962 53.323C137.962 53.895 137.416 54.181 136.714 54.181C136.038 54.181 135.362 53.908 135.206 53.115H134.062C134.153 54.428 135.31 55.13 136.701 55.13C138.053 55.13 139.093 54.532 139.093 53.245ZM142.223 54.129C142.223 53.609 141.794 53.154 141.261 53.154C140.728 53.154 140.299 53.609 140.299 54.129C140.299 54.662 140.728 55.104 141.261 55.104C141.794 55.104 142.223 54.662 142.223 54.129Z" fill="#5C6C75"/>
<rect x="0.5" y="64.5" width="259" height="35" rx="5.5" fill="white"/>
<path d="M12.559 84.53C12.611 85.934 13.833 87.156 15.77 87.156C17.486 87.156 18.708 86.168 18.708 84.608C18.708 83.23 17.902 82.424 16.498 81.917L15.315 81.488C14.418 81.163 13.989 80.773 13.989 79.993C13.989 79.226 14.678 78.745 15.562 78.745C16.316 78.745 17.07 79.148 17.304 80.11H18.5C18.383 78.901 17.46 77.614 15.588 77.614C13.976 77.614 12.78 78.524 12.78 80.032C12.793 81.332 13.482 82.125 14.912 82.632L16.186 83.1C17.044 83.412 17.499 83.919 17.499 84.647C17.499 85.505 16.719 86.025 15.757 86.025C14.886 86.025 13.872 85.557 13.768 84.53H12.559ZM19.8458 83.75C19.8458 85.609 21.2108 87.13 23.0308 87.13C24.0058 87.13 24.8898 86.623 25.3188 85.999V87H26.4368V80.5H25.3188V81.501C24.8898 80.877 24.0058 80.37 23.0308 80.37C21.2108 80.37 19.8458 81.891 19.8458 83.75ZM25.4098 83.75C25.4098 85.063 24.5128 86.103 23.1998 86.103C21.8868 86.103 20.9768 85.063 20.9768 83.75C20.9768 82.437 21.8868 81.397 23.1998 81.397C24.5128 81.397 25.4098 82.437 25.4098 83.75ZM28.5413 87H29.6593V83.776C29.6593 82.307 30.4003 81.397 31.4533 81.397C32.2983 81.397 32.7273 82.125 32.7273 83.178V87H33.8453V83.776C33.8453 82.307 34.5733 81.397 35.6263 81.397C36.4713 81.397 36.9133 82.125 36.9133 83.178V87H38.0313V83.009C38.0313 81.423 37.1733 80.37 35.7563 80.37C34.7943 80.37 33.9753 80.903 33.6243 81.761C33.2993 80.903 32.5973 80.37 31.6223 80.37C30.7513 80.37 30.0363 80.812 29.6593 81.501V80.5H28.5413V87ZM40.0432 89.717H41.1612V85.999C41.5902 86.623 42.4742 87.13 43.4492 87.13C45.2562 87.13 46.6342 85.609 46.6342 83.75C46.6342 81.891 45.2562 80.37 43.4492 80.37C42.4742 80.37 41.5902 80.877 41.1612 81.501V80.5H40.0432V89.717ZM45.4902 83.75C45.4902 85.063 44.5932 86.103 43.2802 86.103C41.9672 86.103 41.0702 85.063 41.0702 83.75C41.0702 82.437 41.9672 81.397 43.2802 81.397C44.5932 81.397 45.4902 82.437 45.4902 83.75ZM48.2444 87H49.3624V77.25H48.2444V87ZM57.2927 85.024H56.1487C55.7587 85.804 55.0697 86.116 54.2637 86.116C53.0937 86.116 52.1447 85.232 52.1057 84.049H57.3967C57.5527 82.034 56.3177 80.37 54.2767 80.37C52.2487 80.37 50.9747 81.852 50.9747 83.75C50.9747 85.687 52.3527 87.13 54.2507 87.13C55.9017 87.13 56.9677 86.168 57.2927 85.024ZM54.2377 81.358C55.1997 81.358 56.0057 81.956 56.2137 83.165H52.1577C52.3787 81.878 53.3017 81.358 54.2377 81.358ZM63.4978 77.965C63.4978 77.536 63.1598 77.172 62.7178 77.172C62.2758 77.172 61.9118 77.536 61.9118 77.965C61.9118 78.407 62.2758 78.758 62.7178 78.758C63.1598 78.758 63.4978 78.407 63.4978 77.965ZM62.1458 87H63.2638V80.5H62.1458V87ZM65.3831 87H66.5011V83.776C66.5011 82.255 67.3331 81.397 68.3861 81.397C69.2961 81.397 69.9201 82.073 69.9201 83.165V87H71.0251V82.996C71.0251 81.384 70.0241 80.37 68.5681 80.37C67.7231 80.37 66.9431 80.734 66.5011 81.501V80.5H65.3831V87ZM73.0384 89.717H74.1564V85.999C74.5854 86.623 75.4694 87.13 76.4444 87.13C78.2514 87.13 79.6294 85.609 79.6294 83.75C79.6294 81.891 78.2514 80.37 76.4444 80.37C75.4694 80.37 74.5854 80.877 74.1564 81.501V80.5H73.0384V89.717ZM78.4854 83.75C78.4854 85.063 77.5884 86.103 76.2754 86.103C74.9624 86.103 74.0654 85.063 74.0654 83.75C74.0654 82.437 74.9624 81.397 76.2754 81.397C77.5884 81.397 78.4854 82.437 78.4854 83.75ZM81.1485 84.491C81.1485 86.103 82.1105 87.13 83.5405 87.13C84.3595 87.13 85.1135 86.753 85.5425 85.999V87H86.6605V80.5H85.5425V83.724C85.5425 85.219 84.7495 86.103 83.7355 86.103C82.8385 86.103 82.2665 85.414 82.2665 84.322V80.5H81.1485V84.491ZM92.2908 86.909V85.908C92.0828 85.986 91.7708 86.038 91.4978 86.038C90.7958 86.038 90.4188 85.765 90.4188 84.933V81.527H92.2908V80.5H90.4188V78.693H89.3008V80.5H87.9228V81.527H89.3008V85.076C89.3008 86.428 90.1588 87.065 91.2898 87.065C91.6928 87.065 92.0178 87 92.2908 86.909Z" fill="#001E2B"/>
<path d="M202.728 86.144C205.764 86.144 207.612 83.948 207.612 81.284C207.612 79.112 206.088 77.336 203.652 77.336C200.616 77.336 198.768 79.532 198.768 82.196C198.768 84.368 200.28 86.144 202.728 86.144ZM202.872 85.088C200.916 85.088 199.896 83.816 199.896 82.088C199.896 80.036 201.444 78.392 203.52 78.392C205.464 78.392 206.496 79.664 206.496 81.392C206.496 83.444 204.936 85.088 202.872 85.088ZM207.817 88.364H208.849L209.581 84.932C209.845 85.52 210.601 86.12 211.645 86.12C213.685 86.12 215.053 84.548 215.053 82.604C215.053 80.924 213.901 79.88 212.473 79.88C211.657 79.88 210.841 80.24 210.457 80.756L210.613 80H209.593L207.817 88.364ZM211.621 85.172C210.601 85.172 209.869 84.524 209.869 83.3C209.869 81.824 210.961 80.816 212.257 80.816C213.289 80.816 214.009 81.464 214.009 82.688C214.009 84.164 212.917 85.172 211.621 85.172ZM218.259 86.06C218.511 86.06 218.739 86.036 218.943 85.976L219.135 85.052C218.967 85.1 218.739 85.136 218.511 85.136C217.875 85.136 217.431 84.896 217.611 84.02L218.259 80.948H219.999L220.203 80H218.463L218.823 78.332H217.791L217.431 80H216.159L215.955 80.948H217.227L216.591 83.936C216.279 85.388 217.119 86.048 218.259 86.06ZM222.531 78.392C222.939 78.392 223.263 78.068 223.263 77.66C223.263 77.264 222.939 76.928 222.531 76.928C222.123 76.928 221.787 77.264 221.787 77.66C221.787 78.068 222.123 78.392 222.531 78.392ZM220.227 86H221.259L222.531 80H221.499L220.227 86ZM226.311 86.12C228.387 86.12 229.659 84.584 229.659 82.772C229.659 81.248 228.675 79.88 226.767 79.88C224.679 79.88 223.407 81.404 223.407 83.216C223.407 84.74 224.403 86.12 226.311 86.12ZM226.383 85.16C225.231 85.16 224.463 84.392 224.463 83.132C224.463 81.86 225.399 80.84 226.683 80.84C227.835 80.84 228.615 81.596 228.615 82.856C228.615 84.128 227.667 85.16 226.383 85.16ZM230.539 86H231.571L232.243 82.856C232.543 81.476 233.371 80.828 234.319 80.828C235.219 80.828 235.687 81.476 235.447 82.58L234.715 86H235.747L236.503 82.544C236.839 81.02 236.023 79.88 234.631 79.88C233.935 79.88 233.191 80.132 232.675 80.768L232.843 80H231.811L230.539 86ZM240.354 86.12C241.182 86.12 241.986 85.76 242.382 85.244L242.202 86H243.234L244.506 80H243.474L243.258 81.068C242.982 80.48 242.226 79.88 241.182 79.88C239.142 79.88 237.774 81.452 237.774 83.396C237.774 85.076 238.938 86.12 240.354 86.12ZM240.57 85.184C239.55 85.184 238.818 84.536 238.818 83.312C238.818 81.836 239.91 80.828 241.206 80.828C242.238 80.828 242.958 81.476 242.958 82.7C242.958 84.176 241.866 85.184 240.57 85.184ZM245.2 86H246.232L248.14 77H247.108L245.2 86Z" fill="#5C6C75"/>
<rect x="0.5" y="64.5" width="259" height="35" rx="5.5" stroke="#889397"/>
</svg>
