<svg width="422" height="85" viewBox="0 0 422 85" fill="none" xmlns="http://www.w3.org/2000/svg">
<g filter="url(#filter0_d_2_50871)">
<path d="M3 12C3 5.37258 8.37258 0 15 0H407C413.627 0 419 5.37258 419 12V52C419 58.6274 413.627 64 407 64H15C8.37258 64 3 58.6274 3 52V12Z" fill="#E3FCF7"/>
<path fill-rule="evenodd" clip-rule="evenodd" d="M35 46C42.732 46 49 39.732 49 32C49 24.268 42.732 18 35 18C27.268 18 21 24.268 21 32C21 39.732 27.268 46 35 46ZM39.8969 25.7917C40.655 24.9163 41.9967 24.8682 42.8155 25.687C43.5553 26.4269 43.5978 27.6127 42.9128 28.4036L33.7673 38.9637C33.6273 39.1477 33.4529 39.3104 33.2462 39.4415C32.3134 40.0331 31.0776 39.7565 30.486 38.8237L26.849 33.089C26.2574 32.1562 26.534 30.9204 27.4668 30.3288C28.3996 29.7373 29.6353 30.0139 30.2269 30.9466L32.4275 34.4164L39.8969 25.7917Z" fill="#00A35C"/>
<path d="M68.222 27H70.874C73.708 27 75.788 25.024 75.788 22.385C75.788 19.746 73.708 17.77 70.874 17.77H68.222V27ZM69.431 25.869V18.901H70.874C73.097 18.901 74.566 20.383 74.566 22.385C74.566 24.387 73.097 25.869 70.874 25.869H69.431ZM83.2331 25.024H82.0891C81.6991 25.804 81.0101 26.116 80.2041 26.116C79.0341 26.116 78.0851 25.232 78.0461 24.049H83.3371C83.4931 22.034 82.2581 20.37 80.2171 20.37C78.1891 20.37 76.9151 21.852 76.9151 23.75C76.9151 25.687 78.2931 27.13 80.1911 27.13C81.8421 27.13 82.9081 26.168 83.2331 25.024ZM80.1781 21.358C81.1401 21.358 81.9461 21.956 82.1541 23.165H78.0981C78.3191 21.878 79.2421 21.358 80.1781 21.358ZM84.9505 29.717H86.0685V25.999C86.4975 26.623 87.3815 27.13 88.3565 27.13C90.1635 27.13 91.5415 25.609 91.5415 23.75C91.5415 21.891 90.1635 20.37 88.3565 20.37C87.3815 20.37 86.4975 20.877 86.0685 21.501V20.5H84.9505V29.717ZM90.3975 23.75C90.3975 25.063 89.5005 26.103 88.1875 26.103C86.8745 26.103 85.9775 25.063 85.9775 23.75C85.9775 22.437 86.8745 21.397 88.1875 21.397C89.5005 21.397 90.3975 22.437 90.3975 23.75ZM93.1516 27H94.2696V17.25H93.1516V27ZM102.668 23.75C102.668 21.878 101.225 20.37 99.2749 20.37C97.3119 20.37 95.8689 21.878 95.8689 23.75C95.8689 25.622 97.3119 27.13 99.2749 27.13C101.225 27.13 102.668 25.622 102.668 23.75ZM97.0129 23.75C97.0129 22.45 97.9229 21.41 99.2749 21.41C100.627 21.41 101.524 22.45 101.524 23.75C101.524 25.05 100.627 26.09 99.2749 26.09C97.9229 26.09 97.0129 25.05 97.0129 23.75ZM105.862 29.717L110.126 20.5H108.878L106.655 25.427L104.419 20.5H103.184L106.031 26.662L104.614 29.717H105.862ZM112.594 17.965C112.594 17.536 112.256 17.172 111.814 17.172C111.372 17.172 111.008 17.536 111.008 17.965C111.008 18.407 111.372 18.758 111.814 18.758C112.256 18.758 112.594 18.407 112.594 17.965ZM111.242 27H112.36V20.5H111.242V27ZM114.48 27H115.598V23.776C115.598 22.255 116.43 21.397 117.483 21.397C118.393 21.397 119.017 22.073 119.017 23.165V27H120.122V22.996C120.122 21.384 119.121 20.37 117.665 20.37C116.82 20.37 116.04 20.734 115.598 21.501V20.5H114.48V27ZM121.849 27.598C122.044 28.911 123.253 29.847 124.995 29.847C126.763 29.847 128.193 28.768 128.193 26.597V20.5H127.075V21.501C126.633 20.851 125.775 20.37 124.813 20.37C123.006 20.37 121.628 21.826 121.628 23.672C121.628 25.531 123.006 26.987 124.813 26.987C125.775 26.987 126.633 26.493 127.075 25.843V26.61C127.075 28.079 126.191 28.859 125.021 28.859C123.968 28.859 123.24 28.456 122.941 27.598H121.849ZM127.166 23.672C127.166 24.985 126.269 25.947 124.969 25.947C123.669 25.947 122.772 24.985 122.772 23.672C122.772 22.372 123.669 21.397 124.969 21.397C126.269 21.397 127.166 22.372 127.166 23.672ZM134.858 29.717L139.122 20.5H137.874L135.651 25.427L133.415 20.5H132.18L135.027 26.662L133.61 29.717H134.858ZM146.378 23.75C146.378 21.878 144.935 20.37 142.985 20.37C141.022 20.37 139.579 21.878 139.579 23.75C139.579 25.622 141.022 27.13 142.985 27.13C144.935 27.13 146.378 25.622 146.378 23.75ZM140.723 23.75C140.723 22.45 141.633 21.41 142.985 21.41C144.337 21.41 145.234 22.45 145.234 23.75C145.234 25.05 144.337 26.09 142.985 26.09C141.633 26.09 140.723 25.05 140.723 23.75ZM147.892 24.491C147.892 26.103 148.854 27.13 150.284 27.13C151.103 27.13 151.857 26.753 152.286 25.999V27H153.404V20.5H152.286V23.724C152.286 25.219 151.493 26.103 150.479 26.103C149.582 26.103 149.01 25.414 149.01 24.322V20.5H147.892V24.491ZM155.511 27H156.629V23.776C156.629 22.255 157.526 21.54 158.345 21.54C158.566 21.54 158.748 21.566 158.956 21.644V20.487C158.774 20.448 158.618 20.435 158.449 20.435C157.695 20.435 156.889 20.929 156.629 21.761V20.5H155.511V27ZM169.239 24.712H168.043C167.757 25.531 166.977 26.103 165.963 26.103C164.611 26.103 163.701 25.063 163.701 23.75C163.701 22.437 164.611 21.397 165.963 21.397C166.977 21.397 167.757 21.969 168.043 22.788H169.239C168.875 21.384 167.601 20.37 165.963 20.37C163.987 20.37 162.57 21.891 162.57 23.75C162.57 25.609 163.987 27.13 165.963 27.13C167.601 27.13 168.875 26.116 169.239 24.712ZM170.72 27H171.838V23.776C171.838 22.255 172.67 21.397 173.723 21.397C174.633 21.397 175.257 22.073 175.257 23.165V27H176.362V22.996C176.362 21.384 175.361 20.37 173.905 20.37C173.06 20.37 172.28 20.734 171.838 21.501V17.25H170.72V27ZM177.868 23.75C177.868 25.609 179.233 27.13 181.053 27.13C182.028 27.13 182.912 26.623 183.341 25.999V27H184.459V20.5H183.341V21.501C182.912 20.877 182.028 20.37 181.053 20.37C179.233 20.37 177.868 21.891 177.868 23.75ZM183.432 23.75C183.432 25.063 182.535 26.103 181.222 26.103C179.909 26.103 178.999 25.063 178.999 23.75C178.999 22.437 179.909 21.397 181.222 21.397C182.535 21.397 183.432 22.437 183.432 23.75ZM186.564 27H187.682V23.776C187.682 22.255 188.514 21.397 189.567 21.397C190.477 21.397 191.101 22.073 191.101 23.165V27H192.206V22.996C192.206 21.384 191.205 20.37 189.749 20.37C188.904 20.37 188.124 20.734 187.682 21.501V20.5H186.564V27ZM193.933 27.598C194.128 28.911 195.337 29.847 197.079 29.847C198.847 29.847 200.277 28.768 200.277 26.597V20.5H199.159V21.501C198.717 20.851 197.859 20.37 196.897 20.37C195.09 20.37 193.712 21.826 193.712 23.672C193.712 25.531 195.09 26.987 196.897 26.987C197.859 26.987 198.717 26.493 199.159 25.843V26.61C199.159 28.079 198.275 28.859 197.105 28.859C196.052 28.859 195.324 28.456 195.025 27.598H193.933ZM199.25 23.672C199.25 24.985 198.353 25.947 197.053 25.947C195.753 25.947 194.856 24.985 194.856 23.672C194.856 22.372 195.753 21.397 197.053 21.397C198.353 21.397 199.25 22.372 199.25 23.672ZM208.193 25.024H207.049C206.659 25.804 205.97 26.116 205.164 26.116C203.994 26.116 203.045 25.232 203.006 24.049H208.297C208.453 22.034 207.218 20.37 205.177 20.37C203.149 20.37 201.875 21.852 201.875 23.75C201.875 25.687 203.253 27.13 205.151 27.13C206.802 27.13 207.868 26.168 208.193 25.024ZM205.138 21.358C206.1 21.358 206.906 21.956 207.114 23.165H203.058C203.279 21.878 204.202 21.358 205.138 21.358ZM211.457 26.129C211.457 25.609 211.028 25.154 210.495 25.154C209.962 25.154 209.533 25.609 209.533 26.129C209.533 26.662 209.962 27.104 210.495 27.104C211.028 27.104 211.457 26.662 211.457 26.129ZM67.598 42.385C67.598 45.076 69.678 47.156 72.382 47.156C74.709 47.156 76.399 45.635 76.802 43.958H75.528C75.125 45.115 73.916 46.012 72.382 46.012C70.328 46.012 68.807 44.426 68.807 42.385C68.807 40.344 70.328 38.758 72.382 38.758C73.916 38.758 75.125 39.655 75.528 40.812H76.802C76.399 39.135 74.709 37.614 72.382 37.614C69.678 37.614 67.598 39.694 67.598 42.385ZM78.2071 44.491C78.2071 46.103 79.1691 47.13 80.5991 47.13C81.4181 47.13 82.1721 46.753 82.6011 45.999V47H83.7191V40.5H82.6011V43.724C82.6011 45.219 81.8081 46.103 80.7941 46.103C79.8971 46.103 79.3251 45.414 79.3251 44.322V40.5H78.2071V44.491ZM85.8264 47H86.9444V43.776C86.9444 42.255 87.8414 41.54 88.6604 41.54C88.8814 41.54 89.0634 41.566 89.2714 41.644V40.487C89.0894 40.448 88.9334 40.435 88.7644 40.435C88.0104 40.435 87.2044 40.929 86.9444 41.761V40.5H85.8264V47ZM90.5872 47H91.7052V43.776C91.7052 42.255 92.6022 41.54 93.4212 41.54C93.6422 41.54 93.8242 41.566 94.0322 41.644V40.487C93.8502 40.448 93.6942 40.435 93.5252 40.435C92.7712 40.435 91.9652 40.929 91.7052 41.761V40.5H90.5872V47ZM100.93 45.024H99.7864C99.3964 45.804 98.7074 46.116 97.9014 46.116C96.7314 46.116 95.7824 45.232 95.7434 44.049H101.034C101.19 42.034 99.9554 40.37 97.9144 40.37C95.8864 40.37 94.6124 41.852 94.6124 43.75C94.6124 45.687 95.9904 47.13 97.8884 47.13C99.5394 47.13 100.605 46.168 100.93 45.024ZM97.8754 41.358C98.8374 41.358 99.6434 41.956 99.8514 43.165H95.7954C96.0164 41.878 96.9394 41.358 97.8754 41.358ZM102.648 47H103.766V43.776C103.766 42.255 104.598 41.397 105.651 41.397C106.561 41.397 107.185 42.073 107.185 43.165V47H108.29V42.996C108.29 41.384 107.289 40.37 105.833 40.37C104.988 40.37 104.208 40.734 103.766 41.501V40.5H102.648V47ZM113.75 46.909V45.908C113.542 45.986 113.23 46.038 112.957 46.038C112.255 46.038 111.878 45.765 111.878 44.933V41.527H113.75V40.5H111.878V38.693H110.76V40.5H109.382V41.527H110.76V45.076C110.76 46.428 111.618 47.065 112.749 47.065C113.152 47.065 113.477 47 113.75 46.909ZM115.178 47H116.296V37.25H115.178V47ZM120.144 49.717L124.408 40.5H123.16L120.937 45.427L118.701 40.5H117.466L120.313 46.662L118.896 49.717H120.144ZM127.215 41.319C127.215 40.799 126.786 40.344 126.253 40.344C125.72 40.344 125.291 40.799 125.291 41.319C125.291 41.852 125.72 42.294 126.253 42.294C126.786 42.294 127.215 41.852 127.215 41.319ZM127.215 46.129C127.215 45.609 126.786 45.154 126.253 45.154C125.72 45.154 125.291 45.609 125.291 46.129C125.291 46.662 125.72 47.104 126.253 47.104C126.786 47.104 127.215 46.662 127.215 46.129ZM131.773 42.385C131.773 45.076 133.853 47.156 136.557 47.156C138.884 47.156 140.574 45.635 140.977 43.958H139.703C139.3 45.115 138.091 46.012 136.557 46.012C134.503 46.012 132.982 44.426 132.982 42.385C132.982 40.344 134.503 38.758 136.557 38.758C138.091 38.758 139.3 39.655 139.703 40.812H140.977C140.574 39.135 138.884 37.614 136.557 37.614C133.853 37.614 131.773 39.694 131.773 42.385ZM141.966 43.75C141.966 45.609 143.331 47.13 145.151 47.13C146.126 47.13 147.01 46.623 147.439 45.999V47H148.557V40.5H147.439V41.501C147.01 40.877 146.126 40.37 145.151 40.37C143.331 40.37 141.966 41.891 141.966 43.75ZM147.53 43.75C147.53 45.063 146.633 46.103 145.32 46.103C144.007 46.103 143.097 45.063 143.097 43.75C143.097 42.437 144.007 41.397 145.32 41.397C146.633 41.397 147.53 42.437 147.53 43.75ZM150.661 49.717H151.779V45.999C152.208 46.623 153.092 47.13 154.067 47.13C155.874 47.13 157.252 45.609 157.252 43.75C157.252 41.891 155.874 40.37 154.067 40.37C153.092 40.37 152.208 40.877 151.779 41.501V40.5H150.661V49.717ZM156.108 43.75C156.108 45.063 155.211 46.103 153.898 46.103C152.585 46.103 151.688 45.063 151.688 43.75C151.688 42.437 152.585 41.397 153.898 41.397C155.211 41.397 156.108 42.437 156.108 43.75ZM162.271 46.909V45.908C162.063 45.986 161.751 46.038 161.478 46.038C160.776 46.038 160.399 45.765 160.399 44.933V41.527H162.271V40.5H160.399V38.693H159.281V40.5H157.903V41.527H159.281V45.076C159.281 46.428 160.139 47.065 161.27 47.065C161.673 47.065 161.998 47 162.271 46.909ZM163.608 44.491C163.608 46.103 164.57 47.13 166 47.13C166.819 47.13 167.573 46.753 168.002 45.999V47H169.12V40.5H168.002V43.724C168.002 45.219 167.209 46.103 166.195 46.103C165.298 46.103 164.726 45.414 164.726 44.322V40.5H163.608V44.491ZM171.228 47H172.346V43.776C172.346 42.255 173.243 41.54 174.062 41.54C174.283 41.54 174.465 41.566 174.673 41.644V40.487C174.491 40.448 174.335 40.435 174.166 40.435C173.412 40.435 172.606 40.929 172.346 41.761V40.5H171.228V47ZM177.341 37.965C177.341 37.536 177.003 37.172 176.561 37.172C176.119 37.172 175.755 37.536 175.755 37.965C175.755 38.407 176.119 38.758 176.561 38.758C177.003 38.758 177.341 38.407 177.341 37.965ZM175.989 47H177.107V40.5H175.989V47ZM179.226 47H180.344V43.776C180.344 42.255 181.176 41.397 182.229 41.397C183.139 41.397 183.763 42.073 183.763 43.165V47H184.868V42.996C184.868 41.384 183.867 40.37 182.411 40.37C181.566 40.37 180.786 40.734 180.344 41.501V40.5H179.226V47ZM186.595 47.598C186.79 48.911 187.999 49.847 189.741 49.847C191.509 49.847 192.939 48.768 192.939 46.597V40.5H191.821V41.501C191.379 40.851 190.521 40.37 189.559 40.37C187.752 40.37 186.374 41.826 186.374 43.672C186.374 45.531 187.752 46.987 189.559 46.987C190.521 46.987 191.379 46.493 191.821 45.843V46.61C191.821 48.079 190.937 48.859 189.767 48.859C188.714 48.859 187.986 48.456 187.687 47.598H186.595ZM191.912 43.672C191.912 44.985 191.015 45.947 189.715 45.947C188.415 45.947 187.518 44.985 187.518 43.672C187.518 42.372 188.415 41.397 189.715 41.397C191.015 41.397 191.912 42.372 191.912 43.672ZM198.349 47H201.651C203.523 47 204.745 45.843 204.745 44.309C204.745 43.074 204.043 42.424 203.146 42.099C203.731 41.735 204.134 41.124 204.134 40.214C204.134 38.914 203.094 37.77 201.378 37.77H198.349V47ZM199.558 41.735V38.862H201.378C202.366 38.862 202.951 39.525 202.951 40.305C202.951 41.124 202.366 41.735 201.378 41.735H199.558ZM199.558 45.908V42.775H201.716C202.938 42.775 203.562 43.451 203.562 44.348C203.562 45.258 202.938 45.908 201.703 45.908H199.558ZM205.849 43.75C205.849 45.609 207.214 47.13 209.034 47.13C210.009 47.13 210.893 46.623 211.322 45.999V47H212.44V40.5H211.322V41.501C210.893 40.877 210.009 40.37 209.034 40.37C207.214 40.37 205.849 41.891 205.849 43.75ZM211.413 43.75C211.413 45.063 210.516 46.103 209.203 46.103C207.89 46.103 206.98 45.063 206.98 43.75C206.98 42.437 207.89 41.397 209.203 41.397C210.516 41.397 211.413 42.437 211.413 43.75ZM220.706 44.712H219.51C219.224 45.531 218.444 46.103 217.43 46.103C216.078 46.103 215.168 45.063 215.168 43.75C215.168 42.437 216.078 41.397 217.43 41.397C218.444 41.397 219.224 41.969 219.51 42.788H220.706C220.342 41.384 219.068 40.37 217.43 40.37C215.454 40.37 214.037 41.891 214.037 43.75C214.037 45.609 215.454 47.13 217.43 47.13C219.068 47.13 220.342 46.116 220.706 44.712ZM222.187 47H223.305V43.75L226.828 47H228.336L224.423 43.373L227.621 40.5H226.139L223.305 43.035V37.25H222.187V47ZM229.104 44.491C229.104 46.103 230.066 47.13 231.496 47.13C232.315 47.13 233.069 46.753 233.498 45.999V47H234.616V40.5H233.498V43.724C233.498 45.219 232.705 46.103 231.691 46.103C230.794 46.103 230.222 45.414 230.222 44.322V40.5H229.104V44.491ZM236.723 49.717H237.841V45.999C238.27 46.623 239.154 47.13 240.129 47.13C241.936 47.13 243.314 45.609 243.314 43.75C243.314 41.891 241.936 40.37 240.129 40.37C239.154 40.37 238.27 40.877 237.841 41.501V40.5H236.723V49.717ZM242.17 43.75C242.17 45.063 241.273 46.103 239.96 46.103C238.647 46.103 237.75 45.063 237.75 43.75C237.75 42.437 238.647 41.397 239.96 41.397C241.273 41.397 242.17 42.437 242.17 43.75ZM247.566 44.53C247.618 45.934 248.84 47.156 250.777 47.156C252.493 47.156 253.715 46.168 253.715 44.608C253.715 43.23 252.909 42.424 251.505 41.917L250.322 41.488C249.425 41.163 248.996 40.773 248.996 39.993C248.996 39.226 249.685 38.745 250.569 38.745C251.323 38.745 252.077 39.148 252.311 40.11H253.507C253.39 38.901 252.467 37.614 250.595 37.614C248.983 37.614 247.787 38.524 247.787 40.032C247.8 41.332 248.489 42.125 249.919 42.632L251.193 43.1C252.051 43.412 252.506 43.919 252.506 44.647C252.506 45.505 251.726 46.025 250.764 46.025C249.893 46.025 248.879 45.557 248.775 44.53H247.566ZM255.283 47H256.401V43.776C256.401 42.255 257.233 41.397 258.286 41.397C259.196 41.397 259.82 42.073 259.82 43.165V47H260.925V42.996C260.925 41.384 259.924 40.37 258.468 40.37C257.623 40.37 256.843 40.734 256.401 41.501V40.5H255.283V47ZM262.432 43.75C262.432 45.609 263.797 47.13 265.617 47.13C266.592 47.13 267.476 46.623 267.905 45.999V47H269.023V40.5H267.905V41.501C267.476 40.877 266.592 40.37 265.617 40.37C263.797 40.37 262.432 41.891 262.432 43.75ZM267.996 43.75C267.996 45.063 267.099 46.103 265.786 46.103C264.473 46.103 263.563 45.063 263.563 43.75C263.563 42.437 264.473 41.397 265.786 41.397C267.099 41.397 267.996 42.437 267.996 43.75ZM271.127 49.717H272.245V45.999C272.674 46.623 273.558 47.13 274.533 47.13C276.34 47.13 277.718 45.609 277.718 43.75C277.718 41.891 276.34 40.37 274.533 40.37C273.558 40.37 272.674 40.877 272.245 41.501V40.5H271.127V49.717ZM276.574 43.75C276.574 45.063 275.677 46.103 274.364 46.103C273.051 46.103 272.154 45.063 272.154 43.75C272.154 42.437 273.051 41.397 274.364 41.397C275.677 41.397 276.574 42.437 276.574 43.75ZM283.813 45.245C283.813 44.27 283.228 43.594 282.149 43.321L281.109 43.048C280.42 42.866 280.121 42.593 280.121 42.112C280.121 41.618 280.615 41.306 281.239 41.306C281.85 41.306 282.318 41.657 282.487 42.229H283.605C283.488 41.189 282.63 40.37 281.239 40.37C279.926 40.37 278.99 41.046 278.99 42.125C278.99 43.048 279.549 43.75 280.667 44.036L281.603 44.283C282.37 44.491 282.682 44.803 282.682 45.323C282.682 45.895 282.136 46.181 281.434 46.181C280.758 46.181 280.082 45.908 279.926 45.115H278.782C278.873 46.428 280.03 47.13 281.421 47.13C282.773 47.13 283.813 46.532 283.813 45.245ZM285.397 47H286.515V43.776C286.515 42.255 287.347 41.397 288.4 41.397C289.31 41.397 289.934 42.073 289.934 43.165V47H291.039V42.996C291.039 41.384 290.038 40.37 288.582 40.37C287.737 40.37 286.957 40.734 286.515 41.501V37.25H285.397V47ZM299.331 43.75C299.331 41.878 297.888 40.37 295.938 40.37C293.975 40.37 292.532 41.878 292.532 43.75C292.532 45.622 293.975 47.13 295.938 47.13C297.888 47.13 299.331 45.622 299.331 43.75ZM293.676 43.75C293.676 42.45 294.586 41.41 295.938 41.41C297.29 41.41 298.187 42.45 298.187 43.75C298.187 45.05 297.29 46.09 295.938 46.09C294.586 46.09 293.676 45.05 293.676 43.75ZM304.345 46.909V45.908C304.137 45.986 303.825 46.038 303.552 46.038C302.85 46.038 302.473 45.765 302.473 44.933V41.527H304.345V40.5H302.473V38.693H301.355V40.5H299.977V41.527H301.355V45.076C301.355 46.428 302.213 47.065 303.344 47.065C303.747 47.065 304.072 47 304.345 46.909Z" fill="#00684A"/>
<path d="M398.889 15.4037C398.499 15.0132 397.865 15.0132 397.475 15.4037L395 17.8786L392.525 15.4037C392.135 15.0132 391.501 15.0132 391.111 15.4037L390.404 16.1108C390.013 16.5014 390.013 17.1345 390.404 17.525L392.879 19.9999L390.404 22.4748C390.013 22.8653 390.013 23.4985 390.404 23.889L391.111 24.5961C391.501 24.9866 392.135 24.9866 392.525 24.5961L395 22.1212L397.475 24.5961C397.865 24.9866 398.499 24.9866 398.889 24.5961L399.596 23.889C399.987 23.4985 399.987 22.8653 399.596 22.4748L397.121 19.9999L399.596 17.525C399.987 17.1345 399.987 16.5014 399.596 16.1108L398.889 15.4037Z" fill="#00684A"/>
<path d="M15 1H407V-1H15V1ZM418 12V52H420V12H418ZM407 63H15V65H407V63ZM4 52V12H2V52H4ZM15 63C8.92486 63 4 58.0751 4 52H2C2 59.1797 7.82029 65 15 65V63ZM418 52C418 58.0751 413.075 63 407 63V65C414.18 65 420 59.1797 420 52H418ZM407 1C413.075 1 418 5.92487 418 12H420C420 4.8203 414.18 -1 407 -1V1ZM15 -1C7.8203 -1 2 4.8203 2 12H4C4 5.92487 8.92487 1 15 1V-1Z" fill="#C0FAE6"/>
</g>
<defs>
<filter id="filter0_d_2_50871" x="0" y="0" width="422" height="85" filterUnits="userSpaceOnUse" color-interpolation-filters="sRGB">
<feFlood flood-opacity="0" result="BackgroundImageFix"/>
<feColorMatrix in="SourceAlpha" type="matrix" values="0 0 0 0 0 0 0 0 0 0 0 0 0 0 0 0 0 0 127 0" result="hardAlpha"/>
<feMorphology radius="15" operator="erode" in="SourceAlpha" result="effect1_dropShadow_2_50871"/>
<feOffset dy="18"/>
<feGaussianBlur stdDeviation="9"/>
<feColorMatrix type="matrix" values="0 0 0 0 0.0235294 0 0 0 0 0.0862745 0 0 0 0 0.117647 0 0 0 0.2 0"/>
<feBlend mode="normal" in2="BackgroundImageFix" result="effect1_dropShadow_2_50871"/>
<feBlend mode="normal" in="SourceGraphic" in2="effect1_dropShadow_2_50871" result="shape"/>
</filter>
</defs>
</svg>
