<svg width="133" height="88" viewBox="0 0 133 88" fill="none" xmlns="http://www.w3.org/2000/svg">
<mask id="mask0_2_50879" style="mask-type:alpha" maskUnits="userSpaceOnUse" x="0" y="30" width="7" height="28">
<rect width="7" height="28" transform="matrix(-1 0 0 1 7 30)" fill="#C4C4C4"/>
</mask>
<g mask="url(#mask0_2_50879)">
<path d="M17 26V63H7V57.1421C7 54.49 5.94643 51.9464 4.07107 50.0711L2.24264 48.2426C-0.100504 45.8995 -0.100508 42.1005 2.24264 39.7574L4.07107 37.9289C5.94643 36.0536 7 33.51 7 30.8579V26H17Z" fill="#001E2B"/>
</g>
<rect x="7" width="126" height="88" rx="16" fill="#001E2B"/>
<path d="M33.127 24.385C33.127 21.707 31.021 19.614 28.356 19.614C25.704 19.614 23.585 21.707 23.585 24.385C23.585 27.063 25.704 29.156 28.356 29.156C31.021 29.156 33.127 27.063 33.127 24.385ZM24.807 24.385C24.807 22.357 26.341 20.758 28.356 20.758C30.384 20.758 31.918 22.357 31.918 24.385C31.918 26.413 30.384 28.012 28.356 28.012C26.341 28.012 24.807 26.413 24.807 24.385ZM34.7678 31.717H35.8858V27.999C36.3148 28.623 37.1988 29.13 38.1738 29.13C39.9808 29.13 41.3588 27.609 41.3588 25.75C41.3588 23.891 39.9808 22.37 38.1738 22.37C37.1988 22.37 36.3148 22.877 35.8858 23.501V22.5H34.7678V31.717ZM40.2148 25.75C40.2148 27.063 39.3178 28.103 38.0048 28.103C36.6918 28.103 35.7948 27.063 35.7948 25.75C35.7948 24.437 36.6918 23.397 38.0048 23.397C39.3178 23.397 40.2148 24.437 40.2148 25.75ZM46.3778 28.909V27.908C46.1698 27.986 45.8578 28.038 45.5848 28.038C44.8828 28.038 44.5058 27.765 44.5058 26.933V23.527H46.3778V22.5H44.5058V20.693H43.3878V22.5H42.0098V23.527H43.3878V27.076C43.3878 28.428 44.2458 29.065 45.3768 29.065C45.7798 29.065 46.1048 29 46.3778 28.909ZM49.1579 19.965C49.1579 19.536 48.8199 19.172 48.3779 19.172C47.9359 19.172 47.5719 19.536 47.5719 19.965C47.5719 20.407 47.9359 20.758 48.3779 20.758C48.8199 20.758 49.1579 20.407 49.1579 19.965ZM47.8059 29H48.9239V22.5H47.8059V29ZM57.3222 25.75C57.3222 23.878 55.8792 22.37 53.9292 22.37C51.9662 22.37 50.5232 23.878 50.5232 25.75C50.5232 27.622 51.9662 29.13 53.9292 29.13C55.8792 29.13 57.3222 27.622 57.3222 25.75ZM51.6672 25.75C51.6672 24.45 52.5772 23.41 53.9292 23.41C55.2812 23.41 56.1782 24.45 56.1782 25.75C56.1782 27.05 55.2812 28.09 53.9292 28.09C52.5772 28.09 51.6672 27.05 51.6672 25.75ZM58.927 29H60.045V25.776C60.045 24.255 60.877 23.397 61.93 23.397C62.84 23.397 63.464 24.073 63.464 25.165V29H64.569V24.996C64.569 23.384 63.568 22.37 62.112 22.37C61.267 22.37 60.487 22.734 60.045 23.501V22.5H58.927V29ZM66.0753 25.75C66.0753 27.609 67.4403 29.13 69.2603 29.13C70.2353 29.13 71.1193 28.623 71.5483 27.999V29H72.6663V22.5H71.5483V23.501C71.1193 22.877 70.2353 22.37 69.2603 22.37C67.4403 22.37 66.0753 23.891 66.0753 25.75ZM71.6393 25.75C71.6393 27.063 70.7423 28.103 69.4293 28.103C68.1163 28.103 67.2063 27.063 67.2063 25.75C67.2063 24.437 68.1163 23.397 69.4293 23.397C70.7423 23.397 71.6393 24.437 71.6393 25.75ZM74.7708 29H75.8888V19.25H74.7708V29ZM81.3128 29H86.9808V27.856H82.5218V19.77H81.3128V29ZM89.6052 19.965C89.6052 19.536 89.2672 19.172 88.8252 19.172C88.3832 19.172 88.0192 19.536 88.0192 19.965C88.0192 20.407 88.3832 20.758 88.8252 20.758C89.2672 20.758 89.6052 20.407 89.6052 19.965ZM88.2532 29H89.3712V22.5H88.2532V29ZM91.4905 29H92.6085V25.776C92.6085 24.255 93.4405 23.397 94.4935 23.397C95.4035 23.397 96.0275 24.073 96.0275 25.165V29H97.1325V24.996C97.1325 23.384 96.1315 22.37 94.6755 22.37C93.8305 22.37 93.0505 22.734 92.6085 23.501V22.5H91.4905V29ZM104.957 27.024H103.813C103.423 27.804 102.734 28.116 101.928 28.116C100.758 28.116 99.8088 27.232 99.7698 26.049H105.061C105.217 24.034 103.982 22.37 101.941 22.37C99.9128 22.37 98.6388 23.852 98.6388 25.75C98.6388 27.687 100.017 29.13 101.915 29.13C103.566 29.13 104.632 28.168 104.957 27.024ZM101.902 23.358C102.864 23.358 103.67 23.956 103.878 25.165H99.8218C100.043 23.878 100.966 23.358 101.902 23.358ZM110.642 29H111.76V19.77H109.771L108.861 20.875H110.642V29ZM33.127 44.385C33.127 41.707 31.021 39.614 28.356 39.614C25.704 39.614 23.585 41.707 23.585 44.385C23.585 47.063 25.704 49.156 28.356 49.156C31.021 49.156 33.127 47.063 33.127 44.385ZM24.807 44.385C24.807 42.357 26.341 40.758 28.356 40.758C30.384 40.758 31.918 42.357 31.918 44.385C31.918 46.413 30.384 48.012 28.356 48.012C26.341 48.012 24.807 46.413 24.807 44.385ZM34.7678 51.717H35.8858V47.999C36.3148 48.623 37.1988 49.13 38.1738 49.13C39.9808 49.13 41.3588 47.609 41.3588 45.75C41.3588 43.891 39.9808 42.37 38.1738 42.37C37.1988 42.37 36.3148 42.877 35.8858 43.501V42.5H34.7678V51.717ZM40.2148 45.75C40.2148 47.063 39.3178 48.103 38.0048 48.103C36.6918 48.103 35.7948 47.063 35.7948 45.75C35.7948 44.437 36.6918 43.397 38.0048 43.397C39.3178 43.397 40.2148 44.437 40.2148 45.75ZM46.3778 48.909V47.908C46.1698 47.986 45.8578 48.038 45.5848 48.038C44.8828 48.038 44.5058 47.765 44.5058 46.933V43.527H46.3778V42.5H44.5058V40.693H43.3878V42.5H42.0098V43.527H43.3878V47.076C43.3878 48.428 44.2458 49.065 45.3768 49.065C45.7798 49.065 46.1048 49 46.3778 48.909ZM49.1579 39.965C49.1579 39.536 48.8199 39.172 48.3779 39.172C47.9359 39.172 47.5719 39.536 47.5719 39.965C47.5719 40.407 47.9359 40.758 48.3779 40.758C48.8199 40.758 49.1579 40.407 49.1579 39.965ZM47.8059 49H48.9239V42.5H47.8059V49ZM57.3222 45.75C57.3222 43.878 55.8792 42.37 53.9292 42.37C51.9662 42.37 50.5232 43.878 50.5232 45.75C50.5232 47.622 51.9662 49.13 53.9292 49.13C55.8792 49.13 57.3222 47.622 57.3222 45.75ZM51.6672 45.75C51.6672 44.45 52.5772 43.41 53.9292 43.41C55.2812 43.41 56.1782 44.45 56.1782 45.75C56.1782 47.05 55.2812 48.09 53.9292 48.09C52.5772 48.09 51.6672 47.05 51.6672 45.75ZM58.927 49H60.045V45.776C60.045 44.255 60.877 43.397 61.93 43.397C62.84 43.397 63.464 44.073 63.464 45.165V49H64.569V44.996C64.569 43.384 63.568 42.37 62.112 42.37C61.267 42.37 60.487 42.734 60.045 43.501V42.5H58.927V49ZM66.0753 45.75C66.0753 47.609 67.4403 49.13 69.2603 49.13C70.2353 49.13 71.1193 48.623 71.5483 47.999V49H72.6663V42.5H71.5483V43.501C71.1193 42.877 70.2353 42.37 69.2603 42.37C67.4403 42.37 66.0753 43.891 66.0753 45.75ZM71.6393 45.75C71.6393 47.063 70.7423 48.103 69.4293 48.103C68.1163 48.103 67.2063 47.063 67.2063 45.75C67.2063 44.437 68.1163 43.397 69.4293 43.397C70.7423 43.397 71.6393 44.437 71.6393 45.75ZM74.7708 49H75.8888V39.25H74.7708V49ZM81.3128 49H86.9808V47.856H82.5218V39.77H81.3128V49ZM89.6052 39.965C89.6052 39.536 89.2672 39.172 88.8252 39.172C88.3832 39.172 88.0192 39.536 88.0192 39.965C88.0192 40.407 88.3832 40.758 88.8252 40.758C89.2672 40.758 89.6052 40.407 89.6052 39.965ZM88.2532 49H89.3712V42.5H88.2532V49ZM91.4905 49H92.6085V45.776C92.6085 44.255 93.4405 43.397 94.4935 43.397C95.4035 43.397 96.0275 44.073 96.0275 45.165V49H97.1325V44.996C97.1325 43.384 96.1315 42.37 94.6755 42.37C93.8305 42.37 93.0505 42.734 92.6085 43.501V42.5H91.4905V49ZM104.957 47.024H103.813C103.423 47.804 102.734 48.116 101.928 48.116C100.758 48.116 99.8088 47.232 99.7698 46.049H105.061C105.217 44.034 103.982 42.37 101.941 42.37C99.9128 42.37 98.6388 43.852 98.6388 45.75C98.6388 47.687 100.017 49.13 101.915 49.13C103.566 49.13 104.632 48.168 104.957 47.024ZM101.902 43.358C102.864 43.358 103.67 43.956 103.878 45.165H99.8218C100.043 43.878 100.966 43.358 101.902 43.358ZM115.374 47.921H110.772C110.993 46.855 112.072 46.322 113.138 45.542C114.646 44.45 115.27 43.67 115.27 42.318C115.27 40.524 113.957 39.614 112.423 39.614C110.72 39.614 109.381 40.758 109.381 42.526H110.525C110.538 41.33 111.422 40.706 112.436 40.706C113.437 40.706 114.126 41.343 114.126 42.305C114.126 43.384 113.554 43.865 112.488 44.658C111.123 45.672 109.394 46.582 109.394 48.558V49H115.374V47.921ZM33.127 64.385C33.127 61.707 31.021 59.614 28.356 59.614C25.704 59.614 23.585 61.707 23.585 64.385C23.585 67.063 25.704 69.156 28.356 69.156C31.021 69.156 33.127 67.063 33.127 64.385ZM24.807 64.385C24.807 62.357 26.341 60.758 28.356 60.758C30.384 60.758 31.918 62.357 31.918 64.385C31.918 66.413 30.384 68.012 28.356 68.012C26.341 68.012 24.807 66.413 24.807 64.385ZM34.7678 71.717H35.8858V67.999C36.3148 68.623 37.1988 69.13 38.1738 69.13C39.9808 69.13 41.3588 67.609 41.3588 65.75C41.3588 63.891 39.9808 62.37 38.1738 62.37C37.1988 62.37 36.3148 62.877 35.8858 63.501V62.5H34.7678V71.717ZM40.2148 65.75C40.2148 67.063 39.3178 68.103 38.0048 68.103C36.6918 68.103 35.7948 67.063 35.7948 65.75C35.7948 64.437 36.6918 63.397 38.0048 63.397C39.3178 63.397 40.2148 64.437 40.2148 65.75ZM46.3778 68.909V67.908C46.1698 67.986 45.8578 68.038 45.5848 68.038C44.8828 68.038 44.5058 67.765 44.5058 66.933V63.527H46.3778V62.5H44.5058V60.693H43.3878V62.5H42.0098V63.527H43.3878V67.076C43.3878 68.428 44.2458 69.065 45.3768 69.065C45.7798 69.065 46.1048 69 46.3778 68.909ZM49.1579 59.965C49.1579 59.536 48.8199 59.172 48.3779 59.172C47.9359 59.172 47.5719 59.536 47.5719 59.965C47.5719 60.407 47.9359 60.758 48.3779 60.758C48.8199 60.758 49.1579 60.407 49.1579 59.965ZM47.8059 69H48.9239V62.5H47.8059V69ZM57.3222 65.75C57.3222 63.878 55.8792 62.37 53.9292 62.37C51.9662 62.37 50.5232 63.878 50.5232 65.75C50.5232 67.622 51.9662 69.13 53.9292 69.13C55.8792 69.13 57.3222 67.622 57.3222 65.75ZM51.6672 65.75C51.6672 64.45 52.5772 63.41 53.9292 63.41C55.2812 63.41 56.1782 64.45 56.1782 65.75C56.1782 67.05 55.2812 68.09 53.9292 68.09C52.5772 68.09 51.6672 67.05 51.6672 65.75ZM58.927 69H60.045V65.776C60.045 64.255 60.877 63.397 61.93 63.397C62.84 63.397 63.464 64.073 63.464 65.165V69H64.569V64.996C64.569 63.384 63.568 62.37 62.112 62.37C61.267 62.37 60.487 62.734 60.045 63.501V62.5H58.927V69ZM66.0753 65.75C66.0753 67.609 67.4403 69.13 69.2603 69.13C70.2353 69.13 71.1193 68.623 71.5483 67.999V69H72.6663V62.5H71.5483V63.501C71.1193 62.877 70.2353 62.37 69.2603 62.37C67.4403 62.37 66.0753 63.891 66.0753 65.75ZM71.6393 65.75C71.6393 67.063 70.7423 68.103 69.4293 68.103C68.1163 68.103 67.2063 67.063 67.2063 65.75C67.2063 64.437 68.1163 63.397 69.4293 63.397C70.7423 63.397 71.6393 64.437 71.6393 65.75ZM74.7708 69H75.8888V59.25H74.7708V69ZM81.3128 69H86.9808V67.856H82.5218V59.77H81.3128V69ZM89.6052 59.965C89.6052 59.536 89.2672 59.172 88.8252 59.172C88.3832 59.172 88.0192 59.536 88.0192 59.965C88.0192 60.407 88.3832 60.758 88.8252 60.758C89.2672 60.758 89.6052 60.407 89.6052 59.965ZM88.2532 69H89.3712V62.5H88.2532V69ZM91.4905 69H92.6085V65.776C92.6085 64.255 93.4405 63.397 94.4935 63.397C95.4035 63.397 96.0275 64.073 96.0275 65.165V69H97.1325V64.996C97.1325 63.384 96.1315 62.37 94.6755 62.37C93.8305 62.37 93.0505 62.734 92.6085 63.501V62.5H91.4905V69ZM104.957 67.024H103.813C103.423 67.804 102.734 68.116 101.928 68.116C100.758 68.116 99.8088 67.232 99.7698 66.049H105.061C105.217 64.034 103.982 62.37 101.941 62.37C99.9128 62.37 98.6388 63.852 98.6388 65.75C98.6388 67.687 100.017 69.13 101.915 69.13C103.566 69.13 104.632 68.168 104.957 67.024ZM101.902 63.358C102.864 63.358 103.67 63.956 103.878 65.165H99.8218C100.043 63.878 100.966 63.358 101.902 63.358ZM115.634 66.413C115.634 65.36 115.062 64.541 114.126 64.164C114.828 63.8 115.361 63.046 115.374 62.149C115.387 60.602 114.126 59.614 112.566 59.614C110.876 59.614 109.485 60.732 109.485 62.526H110.629C110.642 61.317 111.513 60.706 112.566 60.706C113.489 60.706 114.243 61.304 114.23 62.188C114.217 63.059 113.489 63.683 112.527 63.683H111.786V64.71H112.475C113.671 64.71 114.49 65.23 114.49 66.374C114.49 67.453 113.645 68.038 112.618 68.038C111.474 68.038 110.525 67.31 110.46 66.192H109.329C109.342 67.895 110.772 69.13 112.618 69.13C114.386 69.13 115.634 68.038 115.634 66.413Z" fill="#C1C7C6"/>
</svg>
